<?xml version="1.0" encoding="utf-8"?>
<!-- Generator: Adobe Illustrator 22.1.0, SVG Export Plug-In . SVG Version: 6.00 Build 0)  -->
<svg version="1.1" id="Layer_1" xmlns="http://www.w3.org/2000/svg" xmlns:xlink="http://www.w3.org/1999/xlink" x="0px" y="0px"
	 viewBox="0 0 245 245" style="enable-background:new 0 0 245 245;" xml:space="preserve">
<style type="text/css">
	.st0{fill:#A2D05D;}
	.st1{fill:#005050;}
	.st2{fill:#FFB476;}
	.st3{fill:#E89C62;}
	.st4{fill:#00967D;}
	.st5{fill:#007866;}
</style>
<g>
	<g>
		<g>
			<circle class="st0" cx="122.7" cy="119.1" r="111.7"/>
			<g>
				<path class="st1" d="M122.7,1.5C122.7,1.5,122.6,1.5,122.7,1.5C122.6,1.5,122.6,1.5,122.7,1.5h-0.2l0,0l0,0l0,0l0,0l0,0l0,0l0,0
					l0,0l0,0l0,0l0,0l0,0l0,0l0,0l0,0l0,0l0,0l0,0l0,0l0,0l0,0l0,0l0,0l0,0l0,0l0,0l0,0l0,0l0,0l0,0l0,0l0,0l0,0l0,0l0,0l0,0l0,0
					l0,0l0,0l0,0l0,0l0,0l0,0l0,0l0,0l0,0l0,0l0,0l0,0l0,0l0,0l0,0l0,0l0,0l0,0l0,0l0,0l0,0l0,0l0,0l0,0l0,0l0,0l0,0l0,0l0,0
					c-1.4,0-2.8,0.1-4.3,0.1l0.1,2c2-0.1,3.9-0.1,5.9-0.1v-2H122.7L122.7,1.5z M110.7,2.1c-0.3,0-0.7,0.1-1,0.1l0,0l0,0l0,0l0,0l0,0
					l0,0l0,0l0,0l0,0l0,0l0,0l0,0l0,0l0,0l0,0l0,0l0,0l0,0l0,0l0,0l0,0l0,0l0,0l0,0l0,0l0,0l0,0l0,0l0,0l0,0l0,0l0,0l0,0l0,0l0,0
					l0,0l0,0l0,0l0,0l0,0l0,0l0,0l0,0l0,0l0,0l0,0l0,0l0,0l0,0l0,0l0,0l0,0l0,0l0,0l0,0l0,0l0,0l0,0l0,0l0,0l0,0l0,0l0,0l0,0l0,0
					l0,0l0,0l0,0l0,0l0,0l0,0l0,0l0,0l0,0c-0.5,0.1-1,0.1-1.5,0.2l0,0l0,0l0,0l0,0l0,0l0,0l0,0l0,0l0,0l0,0l0,0l0,0l0,0l0,0l0,0l0,0
					l0,0l0,0l0,0l0,0l0,0l0,0l0,0l0,0l0,0l0,0l0,0l0,0l0,0l0,0l0,0l0,0l0,0l0,0l0,0l0,0l0,0l0,0l0,0l0,0c-0.3,0-0.6,0.1-0.9,0.1
					l0.3,2c1.9-0.3,3.9-0.5,5.9-0.7L110.7,2.1L110.7,2.1z M98.9,4c-1,0.2-2,0.4-2.9,0.6l0,0l0,0l0,0l0,0l0,0l0,0l0,0l0,0l0,0l0,0
					l0,0l0,0l0,0l0,0l0,0l0,0l0,0l0,0l0,0l0,0l0,0l0,0l0,0l0,0l0,0l0,0l0,0l0,0l0,0l0,0c-0.6,0.1-1.1,0.3-1.7,0.4l0,0l0,0l0,0l0,0
					l0,0l0,0l0,0l0,0l0,0l0,0l0,0l0,0l0,0l0,0l0,0l0,0l0,0l0,0l0,0l0,0l0,0l0,0l0,0l0,0l0,0l0,0l0.5,1.9c1.9-0.5,3.8-0.9,5.7-1.3
					L98.9,4L98.9,4z M87.3,7c-1,0.3-2.1,0.7-3.1,1l0,0l0,0l0,0l0,0l0,0l0,0l0,0l0,0l0,0l0,0l0,0l0,0l0,0l0,0l0,0l0,0l0,0l0,0l0,0
					l0,0l0,0l0,0l0,0l0,0l0,0l0,0l0,0l0,0l0,0l0,0c-0.7,0.2-1.3,0.5-2,0.7l0.7,1.9c1.8-0.7,3.7-1.3,5.6-1.9L87.3,7L87.3,7z M76,11.2
					c-1.8,0.8-3.7,1.6-5.4,2.5l0.9,1.8c1.8-0.9,3.6-1.7,5.3-2.5L76,11.2L76,11.2z M65.3,16.5c-0.3,0.2-0.7,0.4-1,0.6l0,0l0,0l0,0
					l0,0l0,0l0,0l0,0l0,0l0,0l0,0l0,0l0,0l0,0l0,0c-1.3,0.8-2.6,1.5-3.9,2.4l1.1,1.7c1.7-1,3.4-2.1,5.1-3L65.3,16.5L65.3,16.5z
					 M55.1,22.9c-0.5,0.4-1,0.7-1.5,1.1l0,0l0,0l0,0l0,0l0,0l0,0l0,0l0,0l0,0l0,0l0,0l0,0l0,0l0,0l0,0l0,0l0,0
					c-0.1,0.1-0.2,0.2-0.3,0.2l0,0l0,0l0,0l0,0l0,0l0,0l0,0l0,0l0,0l0,0l0,0c-0.8,0.6-1.7,1.3-2.5,1.9l1.2,1.6
					c1.5-1.2,3.1-2.4,4.7-3.5L55.1,22.9L55.1,22.9z M45.7,30.3c-0.6,0.5-1.2,1.1-1.9,1.6l0,0l0,0l0,0l0,0l0,0l0,0l0,0l0,0l0,0l0,0
					l0,0l0,0l0,0l0,0l0,0l0,0l0,0l0,0l0,0l0,0l0,0l0,0l0,0l0,0c-0.1,0-0.1,0.1-0.2,0.1l0,0l0,0l0,0l0,0l0,0l0,0l0,0l0,0l0,0l0,0l0,0
					l0,0l0,0l0,0l0,0l0,0l0,0c-0.6,0.5-1.2,1.1-1.8,1.7l1.4,1.4c1.4-1.4,2.9-2.7,4.4-4L45.7,30.3L45.7,30.3z M37,38.6L37,38.6
					L37,38.6L37,38.6C37,38.6,37,38.7,37,38.6C37,38.7,37,38.7,37,38.6C37,38.7,36.9,38.7,37,38.6C36.9,38.7,36.9,38.7,37,38.6
					L37,38.6L37,38.6L37,38.6L37,38.6L37,38.6L37,38.6L37,38.6L37,38.6L37,38.6L37,38.6L37,38.6L37,38.6L37,38.6
					c-0.9,0.9-1.6,1.8-2.4,2.6l0,0l0,0l0,0l0,0l0,0l0,0l0,0l0,0l0,0l0,0l0,0l0,0l0,0l0,0l0,0l0,0l0,0l0,0l0,0l0,0l0,0l0,0
					c-0.4,0.4-0.7,0.8-1.1,1.3l1.5,1.3c1.3-1.5,2.6-3,3.9-4.4L37,38.6L37,38.6z M29.3,47.7l-0.1,0.1l0,0l0,0l0,0l0,0l0,0l0,0l0,0
					l0,0l0,0l0,0l0,0l0,0l0,0l0,0l0,0l0,0c-0.5,0.7-1.1,1.5-1.6,2.2l0,0l0,0l0,0l0,0l0,0l0,0l0,0l0,0l0,0l0,0l0,0l0,0l0,0l0,0l0,0
					l0,0l0,0l0,0l0,0l-0.1,0.1l0,0l0,0l0,0l0,0l0,0l0,0l0,0l0,0l0,0l0,0l0,0l0,0l0,0l0,0l0,0l0,0l0,0l0,0l0,0l0,0l0,0l0,0l0,0l0,0
					l0,0l0,0c0,0.1-0.1,0.1-0.1,0.2l0,0l0,0l0,0l0,0l0,0l0,0l0,0l0,0l0,0l0,0l0,0l0,0l0,0l0,0l0,0l0,0l0,0l0,0l0,0l0,0l0,0l0,0l0,0
					l0,0l0,0l0,0l0,0l0,0l0,0l0,0l0,0l0,0l0,0l0,0l0,0l0,0l0,0l0,0l0,0l0,0l0,0l0,0l0,0l0,0l0,0l0,0l0,0l0,0l0,0l0,0
					c-0.1,0.1-0.1,0.1-0.1,0.2l1.6,1.1c1.1-1.6,2.3-3.2,3.5-4.8L29.3,47.7L29.3,47.7z M22.5,57.6c-0.6,0.9-1.1,1.9-1.7,2.8l0,0l0,0
					l0,0l0,0l0,0v0.1l0,0v0.1l0,0c0,0.1-0.1,0.1-0.1,0.2l0,0l0,0l0,0l0,0l0,0l0,0l0,0l0,0l0,0l0,0l0,0l0,0l0,0l0,0l0,0l0,0l0,0l0,0
					l0,0l0,0l0,0l0,0c-0.3,0.5-0.6,1-0.9,1.5l1.8,1c0.9-1.7,1.9-3.4,3-5.1L22.5,57.6L22.5,57.6z M16.7,68.2c-0.5,1-0.9,2-1.4,3l0,0
					l0,0l0,0l0,0l0,0l0,0l0,0l0,0l0,0l0,0l0,0l0,0l0,0l0,0l0,0l0,0l0,0l0,0l0,0l0,0l0,0l0,0c-0.3,0.7-0.6,1.4-0.9,2.1l1.8,0.8
					c0.8-1.8,1.6-3.6,2.4-5.4L16.7,68.2L16.7,68.2z M12.1,79.2c-0.2,0.5-0.4,1.1-0.6,1.6l0,0l0,0l0,0l0,0l0,0l0,0l0,0l0,0l0,0l0,0
					l0,0l0,0l0,0l0,0l0,0l0,0l0,0l0,0l0,0l0,0l0,0l0,0l0,0l0,0c-0.4,1.2-0.8,2.4-1.1,3.6l1.9,0.6c0.6-1.9,1.2-3.8,1.9-5.6L12.1,79.2
					L12.1,79.2z M8.6,90.7c-0.1,0.5-0.2,1-0.4,1.5l0,0l0,0l0,0l0,0l0,0l0,0l0,0l0,0l0,0l0,0l0,0l0,0l0,0l0,0l0,0l0,0l0,0l0,0l0,0
					l0,0l0,0l0,0l0,0l0,0l0,0l0,0l0,0l0,0l0,0l0,0l0,0l0,0l0,0l0,0l0,0l0,0l0,0l0,0l0,0l0,0l0,0l0,0l0,0l0,0l0,0l0,0l0,0l0,0
					c-0.2,1.1-0.5,2.2-0.7,3.3l2,0.4c0.4-1.9,0.8-3.9,1.3-5.8L8.6,90.7L8.6,90.7z M6.3,102.5c0,0.2-0.1,0.4-0.1,0.6l0,0l0,0l0,0l0,0
					l0,0l0,0l0,0l0,0l0,0l0,0l0,0l0,0l0,0l0,0l0,0l0,0c-0.2,1.7-0.4,3.3-0.6,5l0,0l0,0l0,0l0,0l2,0.2c0.2-2,0.4-3.9,0.7-5.9
					L6.3,102.5L6.3,102.5z M5.2,114.4c0,0.2,0,0.4,0,0.5l0,0l0,0l0,0l0,0l0,0l0,0l0,0l0,0l0,0l0,0l0,0l0,0l0,0l0,0l0,0l0,0l0,0l0,0
					v0.1l0,0l0,0l0,0c0,0.8,0,1.7,0,2.6l0,0v0.1l0,0l0,0l0,0v0.1l0,0l0,0l0,0v0.1l0,0l0,0l0,0l0,0l0,0l0,0l0,0l0,0l0,0l0,0l0,0l0,0
					l0,0l0,0l0,0l0,0l0,0l0,0l0,0l0,0l0,0l0,0l0,0l0,0l0,0l0,0l0,0l0,0l0,0l0,0l0,0l0,0l0,0l0,0l0,0l0,0l0,0l0,0l0,0l0,0l0,0l0,0
					l0,0l0,0l0,0l0,0l0,0l0,0l0,0l0,0l0,0l0,0c0,0.1,0,0.1,0,0.2l0,0c0,0.2,0,0.4,0,0.6h2c0-0.4,0-0.9,0-1.3c0-1.5,0-3.1,0.1-4.6
					L5.2,114.4L5.2,114.4z M7.4,126.3l-2,0.1c0,0.2,0,0.4,0,0.6l0,0l0,0l0,0l0,0l0,0l0,0l0,0l0,0l0,0l0,0l0,0l0,0l0,0l0,0l0,0l0,0
					l0,0l0,0l0,0l0,0l0,0l0,0l0,0l0,0l0,0l0,0l0,0l0,0l0,0l0,0l0,0l0,0l0,0l0,0l0,0l0,0l0,0l0,0l0,0l0,0l0,0l0,0l0,0l0,0l0,0l0,0
					l0,0l0,0v0.1l0,0v0.1l0,0l0,0l0,0l0,0l0,0v0.1l0,0v0.1l0,0l0,0l0,0l0,0l0,0l0,0l0,0l0,0l0,0v0.1l0,0v0.1l0,0v0.1l0,0
					c0,0.1,0,0.1,0,0.2l0,0c0,0.1,0,0.1,0,0.2l0,0c0.1,1,0.2,2,0.3,3l2-0.2C7.7,130.2,7.5,128.2,7.4,126.3L7.4,126.3z M8.7,138
					l-2,0.3l0,0l0,0l0,0l0,0l0,0l0,0l0,0l0,0l0,0l0,0c0.1,0.7,0.2,1.3,0.3,2l0,0l0,0l0,0l0,0l0,0l0,0l0,0l0,0l0,0l0,0l0,0l0,0l0,0
					l0,0l0,0l0,0l0,0l0,0l0,0l0,0l0,0l0,0l0,0l0,0l0,0l0,0l0,0l0,0l0,0l0,0l0,0l0,0l0,0l0,0l0,0l0,0l0,0l0,0c0.2,1,0.4,1.9,0.6,2.8
					l2-0.4C9.4,141.9,9,139.9,8.7,138L8.7,138z M11.2,149.5L9.3,150c0.1,0.5,0.3,1,0.4,1.5l0,0l0,0l0,0l0,0l0,0l0,0l0,0l0,0l0,0l0,0
					l0,0l0,0l0,0l0,0l0,0l0,0l0,0l0,0l0,0l0,0l0,0l0,0l0,0l0,0l0,0l0,0l0,0l0,0l0,0l0,0l0,0l0,0c0.4,1.2,0.7,2.4,1.1,3.6l1.9-0.6
					C12.3,153.3,11.7,151.4,11.2,149.5L11.2,149.5z M14.9,160.7l-1.9,0.7c0.4,1,0.8,2,1.2,3l0,0l0,0l0,0l0,0l0,0l0,0l0,0l0,0l0,0
					l0,0l0,0l0,0l0,0l0,0l0,0l0,0l0,0l0,0l0,0l0,0l0,0l0,0l0,0l0,0l0,0c0.1,0.2,0.1,0.3,0.2,0.5l0,0l0,0l0,0l0,0l0,0l0,0l0,0l0,0
					l0,0l0,0l0,0c0.2,0.5,0.4,0.9,0.6,1.4l1.8-0.8C16.3,164.4,15.6,162.6,14.9,160.7L14.9,160.7z M19.7,171.5l-1.8,0.9
					c0.1,0.1,0.2,0.3,0.2,0.4l0,0l0,0l0,0l0,0l0,0l0,0l0,0l0,0l0,0l0,0l0,0l0,0l0,0l0,0l0,0l0,0c0.8,1.5,1.6,3,2.5,4.5l1.7-1
					C21.5,175,20.6,173.2,19.7,171.5L19.7,171.5z M25.6,181.7l-1.7,1.1c0.1,0.1,0.1,0.2,0.2,0.3l0,0l0,0l0,0
					c0.1,0.1,0.2,0.3,0.3,0.4l0,0l0,0l0,0l0,0l0,0l0,0l0,0l0,0l0,0l0,0l0,0l0,0l0,0l0,0l0,0l0,0l0,0l0,0l0,0l0,0l0,0
					c0,0.1,0.1,0.1,0.1,0.2l0,0l0,0l0,0l0,0l0,0l0,0l0,0l0,0l0,0l0,0l0,0l0,0l0,0l0,0l0,0l0,0l0,0l0,0l0,0l0,0l0,0l0,0l0,0l0,0l0,0
					l0,0l0,0c0,0.1,0.1,0.1,0.1,0.2l0,0l0,0l0,0l0,0l0,0l0,0l0,0l0,0l0,0l0,0l0,0l0,0l0,0l0,0l0,0l0,0l0,0l0,0l0,0l0,0l0,0l0,0l0,0
					l0,0l0,0l0,0l0.1,0.1l0,0l0,0l0,0l0,0l0,0l0,0l0,0l0,0l0,0l0,0l0,0l0,0l0,0l0,0l0,0l0,0l0,0l0,0l0,0l0,0l0,0l0,0l0,0l0,0l0,0
					c0.1,0.1,0.1,0.2,0.2,0.3l0,0l0,0l0,0c0,0,0,0.1,0.1,0.1l0,0c0.3,0.5,0.7,1,1,1.5l1.6-1.2C27.7,185,26.6,183.4,25.6,181.7
					L25.6,181.7z M32.5,191.3l-1.6,1.3c1,1.3,2,2.5,3.1,3.7l0,0l0,0l0,0l0,0l0,0l0,0l0,0l0,0l0,0l0,0l0,0l0,0l0,0l0,0l0,0l0,0l0,0
					l0,0l0,0l0,0c0.2,0.2,0.3,0.4,0.5,0.6l1.5-1.3C35,194.3,33.7,192.8,32.5,191.3L32.5,191.3z M40.3,200.1l-1.4,1.4
					c1.4,1.4,2.8,2.8,4.3,4.2l1.4-1.5C43.1,202.9,41.7,201.5,40.3,200.1L40.3,200.1z M49,208.1l-1.3,1.5c0.1,0.1,0.1,0.1,0.2,0.2
					l0,0c1.5,1.2,3,2.4,4.5,3.5l1.2-1.6C52,210.6,50.5,209.3,49,208.1L49,208.1z M58.4,215.1l-1.1,1.7l0,0l0,0l0,0l0.1,0.1l0,0l0,0
					l0,0l0,0l0,0l0,0l0,0l0,0l0,0l0,0l0,0l0,0l0,0l0,0l0,0l0,0l0,0l0,0l0,0l0,0l0,0l0,0l0,0l0,0c1.4,1,2.9,1.9,4.4,2.8l0,0l0,0l0,0
					l0,0l0,0l0,0l1-1.7C61.7,217.3,60,216.2,58.4,215.1L58.4,215.1z M68.5,221.2l-0.9,1.8c1.3,0.7,2.5,1.3,3.8,2l0,0l0,0l0,0l0,0
					l0,0l0,0l0,0l0,0l0,0l0,0l0,0l0,0l0,0c0.1,0.1,0.3,0.1,0.4,0.2l0,0l0,0l0,0l0,0l0,0l0,0l0,0l0,0l0,0l0,0l0,0l0,0l0,0l0,0l0,0
					l0,0l0,0l0,0l0,0l0,0l0,0l0,0l0,0l0,0l0,0c0.1,0,0.1,0.1,0.2,0.1l0,0l0,0l0,0l0,0l0,0l0,0l0,0l0,0l0,0l0.8-1.8
					C72,223,70.3,222.1,68.5,221.2L68.5,221.2z M79.2,226.2l-0.8,1.9c0.9,0.4,1.8,0.7,2.6,1l0,0l0,0l0,0l0,0l0,0l0,0l0,0l0,0l0,0
					l0,0l0,0l0,0l0,0l0,0l0,0l0,0l0,0l0,0l0,0l0,0l0,0l0,0l0,0l0,0l0,0l0,0l0,0l0,0l0,0l0,0l0,0l0,0l0,0l0,0l0,0
					c0.1,0,0.1,0,0.2,0.1l0,0l0,0l0,0l0,0l0,0l0,0l0,0l0,0l0,0l0,0l0,0l0,0l0,0l0,0l0,0l0,0l0,0l0,0l0,0l0,0l0,0l0,0l0,0l0,0l0,0
					l0,0l0,0l0,0l0,0l0,0l0,0l0,0l0,0l0,0l0,0l0,0l0,0l0,0l0,0c0.1,0,0.1,0,0.2,0.1l0,0l0,0l0,0l0,0l0,0l0,0l0,0l0,0l0,0l0,0l0,0
					l0,0l0,0l0,0l0,0l0,0l0,0l0,0l0,0l0,0l0,0l0,0l0,0l0,0l0,0l0,0l0,0l0,0l0,0l0,0l0,0l0,0l0,0l0,0l0,0c0.1,0,0.3,0.1,0.4,0.1
					l0.7-1.9C82.9,227.6,81,226.9,79.2,226.2L79.2,226.2z M90.3,230.1l-0.6,1.9c1.9,0.6,3.8,1.1,5.8,1.5l0.5-1.9
					C94.1,231.1,92.2,230.6,90.3,230.1L90.3,230.1z M101.8,232.8l-0.4,2c1,0.2,2,0.4,3,0.5l0,0l0,0l0,0l0,0l0,0l0,0l0,0l0,0l0,0l0,0
					l0,0l0,0l0,0l0,0l0,0l0,0l0,0l0,0l0,0l0,0l0,0l0,0l0,0l0,0l0,0l0,0l0,0l0,0l0,0l0,0l0,0l0,0l0,0l0,0l0,0l0,0
					c0.7,0.1,1.4,0.2,2.1,0.3l0.3-2C105.7,233.4,103.7,233.1,101.8,232.8L101.8,232.8z M113.5,234.3l-0.2,2c2,0.2,4,0.3,6,0.3l0.1-2
					C117.4,234.5,115.5,234.4,113.5,234.3L113.5,234.3z M131.2,234.3c-1.9,0.1-3.9,0.2-5.9,0.3v2l0,0l0,0l0,0l0,0l0,0l0,0l0,0l0,0
					l0,0l0,0l0,0l0,0l0,0l0,0l0,0c1.9,0,3.8-0.1,5.7-0.3L131.2,234.3L131.2,234.3z M142.9,232.9c-1.9,0.3-3.9,0.6-5.8,0.9l0.2,2
					c1.2-0.2,2.4-0.3,3.7-0.5l0,0l0,0l0,0l0,0l0,0l0,0l0,0l0,0l0,0l0,0l0,0l0,0l0,0l0,0l0,0l0,0l0,0l0,0l0,0l0,0l0,0l0,0l0,0l0,0
					l0,0l0,0l0,0l0,0l0,0l0,0l0,0l0,0l0,0l0,0l0,0l0,0c0.5-0.1,1-0.2,1.5-0.3L142.9,232.9L142.9,232.9z M154.4,230.3
					c-1.9,0.5-3.8,1-5.7,1.5l0.4,1.9c0.3-0.1,0.6-0.1,0.9-0.2l0,0l0,0l0,0l0,0l0,0l0,0l0,0l0,0l0,0l0,0l0,0l0,0l0,0l0,0l0,0l0,0l0,0
					l0,0h0.1l0,0h0.1l0,0l0,0l0,0l0,0l0,0l0,0l0,0l0,0l0,0l0,0l0,0l0,0l0,0l0,0l0,0l0,0l0,0l0,0l0,0l0,0l0,0l0,0l0,0l0,0l0,0l0,0
					l0,0l0,0l0,0l0,0l0,0c0.3-0.1,0.5-0.1,0.8-0.2l0,0l0,0l0,0l0,0l0,0l0,0l0,0l0,0l0,0l0,0l0,0l0,0l0,0l0,0l0,0l0,0l0,0l0,0l0,0
					l0,0l0,0l0,0l0,0l0,0l0,0l0,0l0,0l0,0l0,0l0,0l0,0l0,0l0,0l0,0l0,0l0,0c0.6-0.2,1.3-0.3,1.9-0.5L154.4,230.3L154.4,230.3z
					 M165.5,226.4c-1.8,0.7-3.7,1.4-5.5,2l0.6,1.9c1.9-0.6,3.8-1.3,5.6-2.1L165.5,226.4L165.5,226.4z M176.3,221.5
					c-1.7,0.9-3.5,1.8-5.3,2.6l0.8,1.8c1.8-0.8,3.6-1.7,5.4-2.6L176.3,221.5L176.3,221.5z M186.4,215.5c-1.6,1.1-3.3,2.1-5,3.1
					l1,1.7l0.1-0.1l0,0l0,0l0,0l0,0l0,0l0,0l0,0l0,0l0,0l0.1-0.1l0,0l0,0l0,0l0,0l0,0l0,0l0,0l0,0l0,0l0,0l0,0l0,0l0,0l0,0l0,0l0,0
					l0,0l0,0l0,0l0,0l0,0l0,0c0.8-0.5,1.7-1,2.5-1.6l0,0l0,0l0,0l0,0l0,0l0,0l0,0l0,0l0,0l0,0l0,0l0,0l0,0l0,0l0,0l0,0l0,0l0,0l0,0
					l0,0l0,0h0.1l0,0l0,0l0,0l0,0l0,0l0,0l0,0l0,0l0,0l0,0l0,0l0,0l0,0l0,0l0,0l0,0l0,0l0,0l0,0l0,0l0,0l0,0
					c0.3-0.2,0.6-0.4,0.8-0.6L186.4,215.5L186.4,215.5z M195.9,208.5c-1.5,1.2-3.1,2.5-4.7,3.6l1.2,1.6l0,0l0,0l0,0l0,0l0,0l0,0l0,0
					l0,0l0,0c0,0,0,0,0.1-0.1l0,0l0,0l0,0l0,0l0,0l0,0l0,0l0,0l0,0l0,0l0,0l0,0l0,0l0,0l0,0l0,0l0,0l0,0l0,0l0,0l0,0l0,0l0,0l0,0
					l0,0l0,0l0,0l0,0c0.1,0,0.1-0.1,0.2-0.1l0,0l0,0l0,0l0,0l0,0l0,0l0,0l0,0l0,0l0,0l0,0l0,0l0,0l0,0l0,0l0,0l0,0l0,0l0,0l0,0l0,0
					c0.1-0.1,0.2-0.2,0.3-0.2l0,0l0,0l0,0l0,0l0,0l0,0l0,0l0,0l0,0l0,0l0,0l0,0l0,0l0,0l0,0l0,0l0,0l0,0l0,0
					c0.1-0.1,0.2-0.1,0.2-0.2l0,0l0,0l0,0l0,0l0,0l0,0l0,0l0,0l0,0l0,0l0,0l0,0l0,0l0,0l0,0l0,0l0,0l0,0l0,0l0,0l0,0l0,0l0,0l0,0
					l0,0l0,0l0,0l0,0l0,0l0,0l0,0l0,0l0,0l0,0l0,0l0,0l0,0l0,0l0,0l0,0l0,0l0,0l0,0l0,0l0,0l0,0l0,0l0,0l0,0l0,0l0,0l0,0
					c0.6-0.4,1.1-0.9,1.7-1.4L195.9,208.5L195.9,208.5z M204.6,200.6c-1.4,1.4-2.8,2.8-4.3,4.1l1.3,1.5l0,0l0,0l0,0l0,0l0,0l0,0l0,0
					l0.1-0.1l0,0l0,0l0,0l0,0l0,0l0,0l0,0l0,0l0,0l0,0l0,0l0,0l0,0l0,0l0,0l0,0l0,0l0,0l0,0l0,0l0,0l0,0l0,0l0,0l0,0
					c0.1-0.1,0.1-0.1,0.2-0.2l0,0l0,0l0,0l0,0l0,0l0,0l0,0l0,0l0,0l0,0l0,0l0,0l0,0l0,0l0,0c1.1-1,2.2-2.1,3.3-3.2L204.6,200.6
					L204.6,200.6z M212.5,191.8c-1.2,1.5-2.5,3-3.8,4.5l1.5,1.3c1.3-1.5,2.6-3,3.9-4.6L212.5,191.8L212.5,191.8z M219.5,182.3
					c-1.1,1.6-2.2,3.3-3.4,4.9l1.6,1.2c0-0.1,0.1-0.1,0.1-0.2l0,0l0,0l0,0l0,0l0,0l0,0l0,0l0,0l0,0l0,0l0,0l0,0l0,0l0,0l0,0
					c0.1-0.2,0.2-0.3,0.4-0.5l0,0l0,0l0,0l0,0l0,0c0.1-0.2,0.2-0.3,0.3-0.5l0,0l0,0l0,0l0,0l0,0l0,0l0,0l0,0l0,0l0,0l0,0l0,0l0,0
					l0,0l0,0l0,0l0,0l0,0l0,0l0,0l0,0l0,0l0,0c0,0,0-0.1,0.1-0.1l0,0l0,0l0,0l0,0l0,0l0,0l0,0l0,0l0,0l0,0l0,0l0,0l0,0l0,0l0,0l0,0
					l0,0l0,0l0,0l0,0l0,0l0,0l0,0l0,0l0,0l0,0c0.6-0.8,1.1-1.7,1.7-2.5L219.5,182.3L219.5,182.3z M225.4,172.1
					c-0.9,1.7-1.9,3.5-2.8,5.2l1.7,1c0.3-0.5,0.6-1,0.9-1.5l0,0l0,0l0,0l0,0l0,0l0,0l0,0l0,0l0,0l0,0l0,0l0,0l0,0l0,0l0,0l0,0l0,0
					l0,0l0,0l0,0l0,0l0,0l0,0l0,0l0,0l0,0c0-0.1,0.1-0.1,0.1-0.2l0,0l0,0l0,0l0,0l0,0l0,0l0,0l0,0l0,0l0,0l0,0l0,0l0,0l0,0l0,0l0,0
					l0,0l0,0l0,0l0,0l0,0c0.1-0.1,0.1-0.2,0.2-0.4l0,0l0,0l0,0l0,0l0,0l0,0l0,0l0,0l0,0l0,0l0,0l0,0l0,0l0,0l0,0l0,0l0,0l0,0l0,0
					l0,0l0,0l0,0l0,0l0,0l0,0l0,0l0,0l0,0c0,0,0,0,0-0.1l0,0c0,0,0,0,0-0.1l0,0l0,0l0,0l0,0l0,0l0,0l0,0l0,0l0,0
					c0.2-0.5,0.5-0.9,0.7-1.4L225.4,172.1L225.4,172.1z M230.3,161.4c-0.7,1.8-1.5,3.6-2.3,5.4l1.8,0.8c0.3-0.7,0.6-1.4,0.9-2.1l0,0
					l0,0l0,0l0,0l0,0l0,0l0,0l0,0l0,0l0,0l0,0l0,0l0,0l0,0l0,0l0,0l0,0l0,0l0,0l0,0l0,0l0,0l0,0l0,0l0,0l0,0
					c0.3-0.7,0.6-1.4,0.9-2.2l0,0l0,0l0,0l0,0l0,0l0,0l0,0l0,0l0,0l0,0l0,0l0,0l0,0l0,0l0,0l0,0l0,0l0,0l0,0l0,0
					c0-0.1,0.1-0.2,0.1-0.3L230.3,161.4L230.3,161.4z M234,150.2c-0.5,1.9-1.1,3.8-1.7,5.6l1.9,0.6c0.1-0.3,0.2-0.7,0.3-1l0,0l0,0
					l0,0l0,0l0,0l0,0l0,0l0,0l0,0l0,0l0,0l0,0l0,0l0,0l0,0l0,0l0,0l0,0l0,0l0,0l0,0l0,0l0,0l0,0l0,0l0,0l0,0l0,0l0,0l0,0l0,0l0,0
					l0,0v-0.1l0,0l0,0l0,0l0,0l0,0l0,0l0,0l0,0l0,0l0,0l0,0l0,0l0,0l0,0l0,0l0,0l0,0l0,0l0,0l0,0l0,0l0,0l0,0l0,0l0,0l0,0l0,0l0,0
					l0,0l0,0l0,0l0,0l0,0l0,0l0,0l0,0l0,0l0,0l0,0l0,0l0,0l0,0l0,0l0,0l0,0c0-0.1,0.1-0.2,0.1-0.3l0,0l0,0l0,0l0,0l0,0l0,0l0,0l0,0
					l0,0l0,0l0,0l0,0l0,0l0,0l0,0l0,0l0,0l0,0l0,0l0,0l0,0l0,0l0,0l0,0l0,0l0,0l0,0l0,0l0,0l0,0l0,0c0.1-0.3,0.2-0.7,0.3-1l0,0l0,0
					l0,0c0.1-0.2,0.1-0.5,0.2-0.7l0,0l0,0l0,0l0,0l0,0l0,0L234,150.2L234,150.2z M236.6,138.7c-0.3,1.9-0.7,3.9-1.1,5.8l2,0.4
					c0.2-0.8,0.3-1.6,0.5-2.4l0,0l0,0l0,0l0,0l0,0l0,0l0,0l0,0l0,0l0,0l0,0l0,0l0,0l0,0l0,0l0,0l0,0l0,0l0,0l0,0l0,0l0,0l0,0l0,0
					l0,0l0,0l0,0l0,0l0,0l0,0l0,0l0,0l0,0l0,0l0,0l0,0l0,0l0,0l0,0l0,0l0,0l0,0l0,0l0,0l0,0l0,0l0,0l0,0c0-0.1,0-0.2,0.1-0.4l0,0
					l0,0l0,0l0,0l0,0l0,0l0,0l0,0l0,0l0,0l0,0l0,0l0,0l0,0l0,0l0,0l0,0l0,0l0,0l0,0l0,0l0,0l0,0l0,0l0,0l0,0l0,0l0,0l0,0l0,0l0,0
					l0,0l0,0l0,0l0,0l0,0l0,0l0,0c0.1-0.4,0.1-0.8,0.2-1.2L236.6,138.7L236.6,138.7z M238,127c-0.1,2-0.3,3.9-0.5,5.9l2,0.2
					c0.1-0.5,0.1-1.1,0.2-1.6l0,0l0,0l0,0l0,0l0,0l0,0l0,0l0,0l0,0l0,0l0,0l0,0l0,0l0,0l0,0l0,0l0,0l0,0l0,0l0,0l0,0l0,0l0,0l0,0
					l0,0l0,0l0,0l0,0c0.1-1.2,0.2-2.5,0.3-3.7L238,127L238,127z M240.2,115.1l-2,0.1c0,1.3,0.1,2.6,0.1,3.9c0,0.7,0,1.3,0,2h2
					c0-0.2,0-0.5,0-0.7l0,0v-0.1l0,0l0,0l0,0l0,0l0,0l0,0l0,0l0,0l0,0l0,0l0,0l0,0l0,0l0,0l0,0l0,0l0,0l0,0l0,0l0,0l0,0l0,0l0,0l0,0
					l0,0l0,0l0,0l0,0l0,0l0,0l0,0l0,0l0,0l0,0l0,0l0,0l0,0l0,0l0,0l0,0l0,0l0,0l0,0l0,0l0,0l0,0l0,0l0,0l0,0l0,0l0,0l0,0l0,0l0,0
					c0,0,0,0,0-0.1l0,0l0,0l0,0l0,0l0,0c0,0,0,0,0-0.1l0,0l0,0l0,0l0,0l0,0c0,0,0,0,0-0.1l0,0l0,0l0,0l0,0l0,0c0,0,0,0,0-0.1l0,0
					l0,0l0,0l0,0l0,0v-0.1l0,0l0,0l0,0c0,0,0,0,0-0.1l0,0c0,0,0,0,0-0.1l0,0l0,0l0,0c0,0,0,0,0-0.1l0,0c0,0,0,0,0-0.1l0,0
					c0,0,0,0,0-0.1l0,0l0,0l0,0v-0.1l0,0l0,0l0,0v-0.1l0,0l0,0l0,0c0,0,0,0,0-0.1l0,0c0,0,0,0,0-0.1l0,0l0,0l0,0l0,0l0,0
					c0,0,0,0,0-0.1l0,0l0,0l0,0l0,0l0,0c0,0,0,0,0-0.1l0,0c0,0,0,0,0-0.1l0,0l0,0l0,0c0,0,0,0,0-0.1l0,0c0,0,0,0,0-0.1l0,0l0,0l0,0
					l0,0l0,0c0,0,0,0,0-0.1l0,0l0,0l0,0l0,0l0,0c0,0,0,0,0-0.1l0,0l0,0l0,0l0,0l0,0l0,0c0,0,0,0,0-0.1l0,0l0,0l0,0l0,0l0,0V118l0,0
					C240.2,115.6,240.2,115.3,240.2,115.1L240.2,115.1z M239.2,103.2l-2,0.3c0.3,1.9,0.5,3.9,0.6,5.9l2-0.2c0-0.2,0-0.3,0-0.5l0,0
					l0,0l0,0l0,0l0,0l0,0l0,0l0,0l0,0l0,0l0,0l0,0l0,0l0,0l0,0l0,0l0,0l0,0l0,0l0,0l0,0l0,0l0,0l0,0l0,0l0,0l0,0l0,0l0,0l0,0l0,0
					l0,0l0,0l0,0l0,0l0,0l0,0l0,0l0,0l0,0l0,0l0,0l0,0l0,0c-0.1-1.2-0.2-2.3-0.4-3.5l0,0l0,0l0,0l0,0l0,0l0,0l0,0l0,0l0,0l0,0l0,0
					l0,0l0,0l0,0l0,0l0,0l0,0l0,0l0,0l0,0l0,0l0,0l0,0l0,0l0,0l0,0l0,0l0,0l0,0l0,0C239.2,103.4,239.2,103.3,239.2,103.2
					L239.2,103.2z M237,91.4l-1.9,0.5c0.5,1.9,0.9,3.8,1.2,5.8l2-0.4c-0.1-0.8-0.3-1.5-0.4-2.3l0,0l0,0l0,0l0,0l0,0l0,0l0,0l0,0l0,0
					l0,0l0,0l0,0l0,0l0,0l0,0l0,0l0,0l0,0l0,0l0,0l0,0l0,0l0,0l0,0l0,0l0,0l0,0l0,0C237.4,93.4,237.2,92.4,237,91.4L237,91.4z
					 M233.6,79.9l-1.9,0.7c0.7,1.8,1.3,3.7,1.8,5.6l1.9-0.6C234.9,83.7,234.2,81.8,233.6,79.9L233.6,79.9L233.6,79.9L233.6,79.9
					L233.6,79.9z M229,68.8l-1.8,0.9c0.8,1.8,1.6,3.6,2.4,5.4l1.8-0.8l0,0l0,0v-0.1l0,0l0,0l0,0l0,0l0,0l0,0l0,0l0,0l0,0l0,0l0,0
					l0,0l0,0l0,0l0,0l0,0l0,0l0,0l0,0l0,0l0,0l0,0l0,0l0,0l0,0l0,0l0,0l0,0l0,0l0,0l0,0l0,0l0,0l0,0l0,0l0,0l0,0l0,0l0,0l0,0l0,0
					l0,0l0,0l0,0l0,0l0,0l0,0l0,0l0,0l0,0l0,0l0,0l0,0l0,0l0,0l0,0l0,0l0,0l0,0l0,0l0,0l0,0l0,0l0,0l0,0l0,0l0,0l0,0l0,0l0,0l0,0
					l0,0l0,0l0,0l0,0l0,0c0-0.1,0-0.1-0.1-0.2l0,0v-0.1l0,0l0,0l0,0l0,0l0,0l0,0l0,0l0,0l0,0l0,0l0,0l0,0l0,0l0,0l0,0l0,0l0,0l0,0
					l0,0l0,0l0,0C229.9,70.8,229.5,69.8,229,68.8L229,68.8z M223.3,58.2l-1.7,1c1,1.7,2,3.4,2.9,5.1l1.8-0.9
					C225.3,61.7,224.3,59.9,223.3,58.2L223.3,58.2z M216.6,48.3l-1.6,1.2c1.2,1.6,2.3,3.2,3.4,4.8l1.7-1.1c-0.9-1.4-1.9-2.7-2.9-4
					l0,0l0,0l0,0l0,0l0,0l0,0l0,0l0,0l0,0l0,0l0,0l0,0l0,0l0,0l0,0l0,0l0,0l0,0l0,0l0,0l0,0l0,0l0,0l0,0l0,0l-0.1-0.1l0,0l0,0l0,0
					l0,0l0,0l0,0l0,0l0,0l0,0C216.7,48.4,216.7,48.4,216.6,48.3C216.6,48.4,216.6,48.4,216.6,48.3C216.6,48.4,216.6,48.4,216.6,48.3
					C216.6,48.4,216.6,48.4,216.6,48.3C216.6,48.4,216.6,48.3,216.6,48.3L216.6,48.3L216.6,48.3L216.6,48.3z M208.9,39.1l-1.5,1.4
					c1.3,1.4,2.6,2.9,3.9,4.4l1.5-1.3c-0.1-0.1-0.2-0.2-0.3-0.3l0,0l0,0l0,0l0,0l0,0l0,0l0,0l0,0l0,0l0,0l0,0l0,0l0,0l0,0l0,0l0,0
					l0,0l0,0l0,0l0,0C211.2,41.7,210,40.4,208.9,39.1L208.9,39.1z M200.3,30.8l-1.3,1.5c1.5,1.3,2.9,2.6,4.3,4l1.4-1.4
					c-0.6-0.6-1.3-1.2-1.9-1.8l0,0l0,0l0,0l0,0l0,0l0,0l0,0l0,0l0,0l0,0l0,0l0,0l0,0l0,0l0,0l0,0l0,0l0,0c-0.1,0-0.1-0.1-0.2-0.1
					l0,0l0,0l0,0l0,0l0,0l0,0l0,0l0,0l0,0C201.6,31.9,200.9,31.3,200.3,30.8L200.3,30.8z M190.9,23.3l-1.2,1.6
					c1.6,1.1,3.2,2.3,4.7,3.5l1.2-1.6C194.1,25.7,192.5,24.5,190.9,23.3L190.9,23.3z M180.8,16.8l-1,1.7c1.7,1,3.4,2,5,3l1.1-1.7
					c-0.1-0.1-0.3-0.2-0.4-0.2l0,0l0,0l0,0l0,0l0,0l0,0l0,0l0,0l0,0l0,0l0,0l0,0l0,0l0,0l0,0l0,0l0,0l0,0l0,0l0,0l0,0l0,0l0,0l0,0
					C183.7,18.5,182.2,17.7,180.8,16.8L180.8,16.8z M170,11.5l-0.8,1.8c1.8,0.8,3.6,1.6,5.3,2.5l0.9-1.8c-0.9-0.4-1.8-0.9-2.7-1.3
					l0,0l0,0l0,0l0,0l0,0l0,0l0,0l0,0l0,0l0,0l0,0l0,0l0,0l0,0l0,0l0,0l0,0l0,0l0,0l0,0l0,0l0,0l0,0l0,0l0,0l0,0l0,0l0,0l0,0l0,0
					l0,0l0,0l0,0l0,0c0,0,0,0-0.1,0l0,0l0,0l0,0l0,0l0,0l0,0l0,0l0,0l0,0l0,0l0,0l0,0l0,0l0,0l0,0l0,0l0,0l0,0l0,0l0,0l0,0l0,0l0,0
					l0,0l0,0l0,0l0,0l0,0l0,0l0,0l0,0l0,0l0,0l0,0l0,0l0,0C170.9,11.8,170.5,11.6,170,11.5L170,11.5z M158.8,7.2l-0.6,1.9
					c1.9,0.6,3.7,1.3,5.6,2l0.7-1.9l0,0l0,0l0,0l0,0l0,0l0,0l0,0l0,0l0,0l0,0l0,0l0,0l0,0l0,0l0,0l0,0l0,0l0,0l0,0l0,0l0,0l0,0l0,0
					l0,0c-0.1,0-0.2-0.1-0.2-0.1l0,0l0,0l0,0l0,0l0,0l0,0l0,0l0,0l0,0l0,0l0,0l0,0l0,0l0,0l0,0l0,0l0,0l0,0l0,0l0,0l0,0l0,0l0,0
					c-0.9-0.3-1.8-0.6-2.7-1l0,0l0,0l0,0l0,0l0,0l0,0l0,0l0,0l0,0l0,0l0,0l0,0l0,0l0,0l0,0l0,0l0,0l0,0l0,0l0,0l0,0l0,0l0,0l0,0l0,0
					l0,0l0,0l0,0C159.6,7.4,159.2,7.3,158.8,7.2L158.8,7.2z M147.2,4.1l-0.4,2c1.9,0.4,3.8,0.9,5.7,1.4l0.5-1.9
					C151.2,5,149.2,4.5,147.2,4.1L147.2,4.1z M135.4,2.2l-0.2,2c1.9,0.2,3.9,0.5,5.8,0.8l0.3-2c-0.4-0.1-0.7-0.1-1.1-0.2l0,0l0,0
					l0,0l0,0l0,0l0,0l0,0l0,0l0,0l0,0l0,0l0,0l0,0l0,0l0,0l0,0l0,0l0,0l0,0l0,0l0,0l0,0l0,0l0,0l0,0l0,0l0,0l0,0l0,0l0,0l0,0l0,0
					l0,0l0,0l0,0l0,0l0,0l0,0l0,0l0,0l0,0l0,0l0,0l0,0l0,0l0,0h-0.1l0,0l0,0l0,0l0,0l0,0H140l0,0c-0.1,0-0.1,0-0.2,0l0,0h-0.1l0,0
					h-0.1l0,0C137.5,2.5,136.5,2.3,135.4,2.2L135.4,2.2z M123.4,1.5v2c2,0,3.9,0.1,5.9,0.2l0.1-2c-0.4,0-0.8,0-1.2-0.1l0,0l0,0l0,0
					l0,0l0,0l0,0l0,0l0,0l0,0l0,0l0,0l0,0l0,0l0,0l0,0l0,0l0,0l0,0l0,0l0,0l0,0l0,0l0,0l0,0l0,0l0,0l0,0l0,0l0,0l0,0l0,0l0,0l0,0
					l0,0l0,0l0,0l0,0l0,0l0,0l0,0l0,0l0,0l0,0l0,0C125.9,1.6,124.7,1.5,123.4,1.5L123.4,1.5z"/>
			</g>
			<g>
				<path class="st1" d="M137.5,243.6c-7.2,1.8-28.8,0-28.8,0C115.9,233.7,131.2,237.3,137.5,243.6"/>
				<path class="st1" d="M118.6,237.3c3.3-0.9,9.1-0.2,12.8,1.8c3-0.9,4.9-3.5,5.3-5.7c0,0-2.2,1.3-3.8,1.3c-4,0.2-5-0.7-8-0.9
					C123,233.7,120.7,234.6,118.6,237.3z"/>
				<path class="st1" d="M112.9,239.2c0.5-0.4,4.1-1.7,5.1-1.7c0.3-1.1,3-3.4,3.5-3.3c-2.5-0.9-6.7,0.4-7.4,0.5
					c-0.7,0.1-5.6,0.2-6.6-1.3C107.6,236.7,112.1,239.2,112.9,239.2z"/>
				<path class="st1" d="M122,233.9c-0.6-0.4-4.2-0.7-5.9-0.1c-1.7,0.6-3.8,0.5-3.8,0.5s-2.5-3.2-1.7-6.3c0.9,1.3,2.5,2.7,4.2,3.2
					s4.1,0.8,4.6,1c0.4,0.2,2.8,0.7,3.5,1.4L122,233.9z"/>
				<path class="st1" d="M122.5,232.8c0.2,0.1,1,0.6,1.1,0.7c0.5-0.1,2.2-0.4,4.1,0.2c1.9,0.6,3.8,0.7,4.1,0.6
					c2.1-1.9,2.1-5.7,1.8-6.3c-1.4,2-3.5,3-5.5,3.5C126.7,231.7,124.5,232,122.5,232.8z"/>
				<path class="st1" d="M123.7,231.9c0.4-0.2,1.9-0.4,2.7-0.5s2.6-0.6,2.9-0.7c0.7-2,0.5-5-0.7-6.6c-0.3,1.9-2.1,3.9-2.6,4.3
					c0,0-2.6,2.4-3.5,2.5C122.9,231,123.7,231.9,123.7,231.9z"/>
				<path class="st1" d="M122.1,232.6c0.1-0.2,1-0.6,1.2-0.5c0,0-2.1-1.5-3.9-2.5s-3.6-4.2-3.8-5.4c-1.3,1.5-1.6,4.4-0.8,6.5
					c0.9,0.4,2.1,0.5,3.7,1C120.1,232,122.1,232.6,122.1,232.6z"/>
				<path class="st1" d="M122.1,230.7c0,0,2-1.1,2.1-1.3c0.3-2.1-1.1-5.2-1.4-5.8c0,1.6-0.4,5.7-1.3,6.7L122.1,230.7z"/>
				<path class="st1" d="M121.9,221.3c0.6,1.7,0.7,6.1-0.8,8.8c-0.7-0.4-1.4-0.9-1.4-0.9c0-0.1-0.1-0.9,0.1-1.9
					S121.9,221.3,121.9,221.3z"/>
			</g>
		</g>
	</g>
	<g>
		<path class="st2" d="M162.1,143.1c-10.1,6-32,18.7-32,18.7c-0.2,0.6-0.4,1.2-0.7,1.8c-1.5,3.1-4.2,5.4-7.6,6.3
			c-2.5,0.6-5.2,0.4-7.5-0.7l-17-8.1v-2.9l18.1,8.5c1.5,0.7,3.1,0.9,4.7,0.7c0.3,0,0.6-0.1,0.9-0.1c0.1,0,0.1,0,0.2,0
			c1.7-0.4,3.3-1.4,4.5-2.8c0.5-0.6,0.9-1.2,1.3-2s0.6-1.6,0.7-2.4c0.3-2.4-0.3-4.7-1.8-6.6c-0.8-1-1.9-1.9-3.2-2.5
			c0,0-19.5-9.1-26-12.1c-2.6-1.2-5.8-0.2-9.4,0.4c-3.7,0.6-17.8,2.9-17.8,2.9c-0.7,0.2-1.3,0.9-1.3,1.7v32.8c0,0.8,0.6,1.4,1.4,1.4
			h12.8c0,0,1.8,0,2.8,0.2c0.6,0.1,2,0.7,2,0.7l33.1,12.9c1.4,0.4,3,0.4,4.4,0.1c0.7-0.2,1.4-0.4,2-0.8c10.3-6.4,42.2-31.3,45.7-34
			c8-6.3,7.1-10.6,4.6-14.2C174.1,138.8,168,139.6,162.1,143.1z"/>
		<path class="st3" d="M160.1,141c-2.1-1.5-4.8-1.9-7.4-0.8l-24.4,12c1.3,1.8,2,3.9,2.1,6.1L160.1,141z"/>
		<path class="st1" d="M123.4,93.6c8.3,0,15-6.7,15-15s-6.7-14.9-15-14.9s-15,6.7-15,14.9C108.5,86.9,115.2,93.6,123.4,93.6z"/>
		<ellipse class="st4" cx="68.6" cy="94.7" rx="9.5" ry="9.5"/>
		<path class="st4" d="M71.6,111.5c0-1.5,0.3-2.9,0.8-4.3h-11c-4,0-7.2,3.2-7.2,7.2v16h17.3L71.6,111.5L71.6,111.5z"/>
		<path class="st5" d="M74.6,111.5v19h23.1v-21c0-2.8,0.8-5.4,2.2-7.5H84.1C78.9,102,74.6,106.3,74.6,111.5z"/>
		<path class="st4" d="M168.6,94.7c0,5.3,4.3,9.5,9.5,9.5c5.3,0,9.6-4.3,9.6-9.5c0-5.3-4.3-9.5-9.6-9.5
			C172.9,85.2,168.6,89.5,168.6,94.7z"/>
		<path class="st5" d="M153.2,98.1c7,0,12.6-5.6,12.6-12.6s-5.6-12.6-12.6-12.6s-12.6,5.6-12.6,12.6
			C140.6,92.4,146.2,98.1,153.2,98.1z"/>
		<path class="st4" d="M185.4,107.3h-10.9c0.5,1.3,0.7,2.8,0.7,4.3v19h17.3v-16C192.6,110.5,189.4,107.3,185.4,107.3z"/>
		<path class="st5" d="M172.2,111.5c0-5.3-4.3-9.5-9.5-9.5H147c1.4,2.2,2.1,4.8,2.1,7.5v21h23.1L172.2,111.5L172.2,111.5z"/>
		<path class="st5" d="M106.3,85.5c0-7-5.6-12.6-12.6-12.6s-12.6,5.6-12.6,12.6s5.6,12.6,12.6,12.6
			C100.6,98.1,106.3,92.4,106.3,85.5z"/>
		<path class="st1" d="M146,109.6c0-6.2-5.1-11.3-11.3-11.3h-22.6c-6.2,0-11.3,5.1-11.3,11.3v21H146V109.6z"/>
	</g>
</g>
</svg>
