<?xml version="1.0" encoding="utf-8"?>
<!-- Generator: Adobe Illustrator 22.1.0, SVG Export Plug-In . SVG Version: 6.00 Build 0)  -->
<svg version="1.1" id="Layer_1" xmlns="http://www.w3.org/2000/svg" xmlns:xlink="http://www.w3.org/1999/xlink" x="0px" y="0px"
	 viewBox="0 0 245 245" style="enable-background:new 0 0 245 245;" xml:space="preserve">
<style type="text/css">
	.st0{fill:#D9D1CB;}
	.st1{fill:#005050;}
	.st2{fill:#FFFFFF;}
</style>
<g>
	<g>
		<circle class="st0" cx="122.4" cy="119.1" r="111.7"/>
		<g>
			<path class="st1" d="M122.4,1.5C122.3,1.5,122.3,1.5,122.4,1.5C122.3,1.5,122.3,1.5,122.4,1.5h-0.2l0,0l0,0l0,0l0,0l0,0l0,0l0,0
				l0,0l0,0l0,0l0,0l0,0l0,0l0,0l0,0l0,0l0,0l0,0l0,0l0,0l0,0l0,0l0,0l0,0l0,0l0,0l0,0l0,0l0,0l0,0l0,0l0,0l0,0l0,0l0,0l0,0l0,0l0,0
				l0,0l0,0l0,0l0,0l0,0l0,0l0,0l0,0l0,0l0,0l0,0l0,0l0,0l0,0l0,0l0,0l0,0l0,0l0,0l0,0l0,0l0,0l0,0l0,0l0,0l0,0l0,0l0,0
				c-1.4,0-2.8,0.1-4.3,0.1l0.1,2c2-0.1,3.9-0.1,5.9-0.1v-2H122.4L122.4,1.5z M110.4,2.1c-0.2,0-0.5,0.1-0.7,0.1l0,0h-0.1l0,0l0,0
				l0,0l0,0l0,0l0,0l0,0l0,0l0,0l0,0l0,0l0,0l0,0l0,0l0,0l0,0l0,0l0,0l0,0l0,0l0,0l0,0l0,0l0,0l0,0l0,0l0,0l0,0l0,0l0,0l0,0l0,0l0,0
				l0,0l0,0l0,0l0,0l0,0l0,0l0,0l0,0l0,0l0,0l0,0l0,0l0,0l0,0l0,0l0,0l0,0l0,0l0,0l0,0l0,0l0,0l0,0l0,0l0,0l0,0l0,0l0,0l0,0l0,0l0,0
				l0,0l0,0l0,0l0,0l0,0l0,0l0,0l0,0l0,0l0,0l0,0l0,0l0,0l0,0c-0.6,0.1-1.2,0.1-1.7,0.2l0,0l0,0l0,0l0,0l0,0l0,0l0,0l0,0l0,0l0,0
				l0,0l0,0l0,0l0,0l0,0l0,0l0,0l0,0l0,0l0,0l0,0l0,0l0,0l0,0l0,0l0,0l0,0l0,0l0,0l0,0l0,0l0,0l0,0l0,0c-0.3,0-0.6,0.1-0.8,0.1
				l0.3,2c1.9-0.3,3.9-0.5,5.9-0.7L110.4,2.1L110.4,2.1z M98.5,4c-1.8,0.4-3.7,0.8-5.5,1.3l0,0h-0.1l0,0l0,0l0,0l0,0l0,0l0,0l0,0
				l0,0l0,0l0,0l0,0l0,0l0,0l0.5,1.9c1.9-0.5,3.8-0.9,5.7-1.3L98.5,4L98.5,4z M86.9,7L86.9,7L86.9,7L86.9,7L86.9,7
				C86.8,7,86.8,7,86.9,7C86.8,7,86.8,7,86.9,7L86.9,7L86.9,7L86.9,7L86.9,7L86.9,7L86.9,7L86.9,7L86.9,7L86.9,7L86.9,7L86.9,7
				L86.9,7L86.9,7L86.9,7L86.9,7c-0.3,0.1-0.5,0.1-0.7,0.2l0,0l0,0l0,0l0,0l0,0l0,0l0,0l0,0l0,0l0,0l0,0l0,0l0,0l0,0l0,0l0,0l0,0
				c-1.4,0.5-2.8,1-4.2,1.5l0.7,1.9c1.8-0.7,3.7-1.3,5.6-1.9L86.9,7L86.9,7z M75.7,11.2c-1.4,0.6-2.8,1.2-4.1,1.9l0,0l0,0l0,0l0,0
				l0,0l0,0l0,0l0,0l0,0l0,0l0,0l0,0l0,0l0,0l0,0l0,0l0,0l0,0l0,0l0,0c-0.3,0.1-0.6,0.3-0.9,0.5l0.9,1.8c1.8-0.9,3.6-1.7,5.3-2.5
				L75.7,11.2L75.7,11.2z M64.9,16.5c-1.3,0.7-2.5,1.4-3.8,2.2l0,0l0,0l0,0l0,0l0,0l0,0l0,0l0,0l0,0l0,0l0,0l0,0l0,0l0,0l0,0l0,0
				l0,0l0,0l0,0l0,0c-0.3,0.2-0.7,0.4-1,0.6l1.1,1.7c1.7-1,3.4-2.1,5.1-3L64.9,16.5L64.9,16.5z M54.8,22.9c-1.3,0.9-2.7,1.9-4,2.9
				l0,0l0,0l0,0l0,0l0,0l0,0l0,0l0,0l0,0l0,0l0,0l0,0l0,0l0,0l0,0l0,0l0,0l0,0l0,0l0,0l0,0l0,0l0,0l0,0l0,0l0,0l0,0l0,0l0,0l0,0l0,0
				l0,0l0,0l0,0l0,0l0,0l0,0l0,0l0,0l0,0l0,0l0,0l0,0l0,0c0,0,0,0-0.1,0.1l1.2,1.6c1.5-1.2,3.1-2.4,4.7-3.5L54.8,22.9L54.8,22.9z
				 M45.3,30.3c-0.2,0.2-0.5,0.4-0.7,0.6l0,0l0,0l0,0l0,0l0,0l0,0l0,0l0,0l0,0l0,0l0,0l0,0l0,0l0,0l0,0l0,0
				c-0.8,0.7-1.7,1.5-2.5,2.3l0,0l0,0l0,0l0,0l0,0l0,0l0,0l0,0l0,0l0,0l0,0l0,0l0,0l0,0l0,0l0,0l0,0l0,0c-0.2,0.2-0.5,0.4-0.7,0.6
				l1.4,1.4c1.4-1.4,2.9-2.7,4.4-4L45.3,30.3L45.3,30.3z M36.7,38.6c-1.4,1.5-2.7,2.9-4,4.5l1.5,1.3c1.3-1.5,2.6-3,3.9-4.4
				L36.7,38.6L36.7,38.6z M28.9,47.7c-0.8,1.1-1.7,2.2-2.4,3.3l0,0l0,0l0,0l0,0l0,0l0,0l0,0l0,0l0,0l0,0l0,0l0,0l0,0l0,0
				c-0.3,0.4-0.6,0.9-0.9,1.3l1.6,1.1c1.1-1.6,2.3-3.2,3.5-4.8L28.9,47.7L28.9,47.7z M22.1,57.6c-0.4,0.7-0.8,1.3-1.2,2l0,0l0,0l0,0
				l0,0l0,0l0,0l0,0l0,0l0,0l0,0l0,0l0,0l0,0l0,0l0,0l0,0l0,0l0,0l0,0l0,0c-0.5,0.9-1.1,1.9-1.6,2.8l1.8,1c0.9-1.7,1.9-3.4,3-5.1
				L22.1,57.6L22.1,57.6z M16.4,68.2c-0.5,1-1,2.1-1.4,3.1l0,0l0,0l0,0l0,0l0,0l0,0l0,0l0,0l0,0l0,0l0,0l0,0l0,0l0,0l0,0l0,0l0,0
				l0,0l0,0l0,0l0,0l0,0l0,0l0,0l0,0l0,0c-0.3,0.6-0.5,1.2-0.8,1.9L16,74c0.8-1.8,1.6-3.6,2.4-5.4L16.4,68.2L16.4,68.2z M11.8,79.2
				c-0.7,1.9-1.3,3.8-1.9,5.7l1.9,0.6c0.6-1.9,1.2-3.8,1.9-5.6L11.8,79.2L11.8,79.2z M8.3,90.7c-0.1,0.6-0.3,1.1-0.4,1.7l0,0l0,0
				l0,0l0,0l0,0l0,0l0,0l0,0l0,0l0,0l0,0l0,0l0,0l0,0l0,0l0,0l0,0l0,0l0,0l0,0l0,0l0,0l0,0l0,0l0,0l0,0l0,0l0,0l0,0l0,0l0,0l0,0l0,0
				l0,0l0,0l0,0c-0.3,1.1-0.5,2.3-0.7,3.4l2,0.4c0.4-1.9,0.8-3.9,1.3-5.8L8.3,90.7L8.3,90.7z M6,102.5c0,0.3-0.1,0.6-0.1,0.9l0,0
				l0,0l0,0l0,0l0,0l0,0l0,0l0,0l0,0l0,0l0,0l0,0l0,0l0,0l0,0l0,0l0,0l0,0l0,0l0,0l0,0l0,0c-0.2,1.5-0.4,3-0.5,4.5l2,0.2
				c0.2-2,0.4-3.9,0.7-5.9L6,102.5L6,102.5z M4.9,114.4c0,0.2,0,0.4,0,0.5l0,0l0,0l0,0l0,0l0,0l0,0l0,0l0,0l0,0l0,0l0,0l0,0l0,0l0,0
				l0,0l0,0l0,0l0,0v0.1l0,0l0,0l0,0c0,0.8,0,1.7,0,2.6l0,0v0.1l0,0l0,0l0,0v0.1l0,0l0,0l0,0v0.1l0,0l0,0l0,0l0,0l0,0l0,0l0,0l0,0
				l0,0l0,0l0,0l0,0l0,0l0,0l0,0l0,0l0,0l0,0l0,0l0,0l0,0l0,0l0,0l0,0l0,0l0,0l0,0l0,0l0,0l0,0l0,0l0,0l0,0l0,0l0,0l0,0l0,0l0,0l0,0
				l0,0l0,0l0,0l0,0l0,0l0,0l0,0l0,0l0,0l0,0l0,0l0,0l0,0c0,0.1,0,0.1,0,0.2l0,0c0,0.2,0,0.4,0,0.6h2c0-0.4,0-0.9,0-1.3
				c0-1.5,0-3.1,0.1-4.6L4.9,114.4L4.9,114.4z M7,126.3l-2,0.1c0,0.3,0,0.6,0.1,1l0,0l0,0l0,0l0,0l0,0l0,0l0,0l0,0l0,0l0,0l0,0l0,0
				l0,0l0,0l0,0l0,0l0,0l0,0l0,0l0,0l0,0l0,0l0,0l0,0l0,0l0,0l0,0l0,0l0,0l0,0l0,0l0,0l0,0l0,0l0,0l0,0l0,0l0,0l0,0l0,0l0,0l0,0l0,0
				l0,0l0,0l0,0l0,0l0,0l0,0l0,0l0,0l0,0l0,0l0,0l0,0l0,0l0,0l0,0l0,0l0,0l0,0l0,0l0,0l0,0l0,0l0,0l0,0l0,0l0,0l0,0l0,0l0,0l0,0l0,0
				l0,0l0,0l0,0l0,0l0,0l0,0l0,0l0,0l0,0l0,0l0,0l0,0l0,0l0,0l0,0l0,0l0,0l0,0l0,0l0,0l0,0l0,0l0,0l0,0l0,0l0,0l0,0l0,0l0,0l0,0l0,0
				l0,0l0,0l0,0l0,0l0,0l0,0l0,0l0,0l0,0l0,0l0,0l0,0l0,0l0,0l0,0l0,0l0,0l0,0l0,0l0,0l0,0l0,0l0,0l0,0l0,0l0,0l0,0v0.1l0,0
				c0.1,0.6,0.1,1.2,0.2,1.9l2-0.2C7.3,130.2,7.2,128.2,7,126.3L7,126.3z M8.4,138l-2,0.3c0.1,0.9,0.3,1.7,0.5,2.6l0,0l0,0l0,0l0,0
				l0,0l0,0l0,0l0,0l0,0l0,0l0,0l0,0l0,0l0,0l0,0l0,0l0,0l0,0l0,0l0,0l0,0l0,0l0,0l0,0l0,0l0,0l0,0l0,0l0,0l0,0
				c0.2,0.9,0.4,1.8,0.5,2.7l2-0.4C9,141.9,8.7,139.9,8.4,138L8.4,138z M10.9,149.5L9,150c0.1,0.5,0.3,1,0.4,1.5l0,0l0,0l0,0l0,0
				l0,0l0,0l0,0l0,0l0,0l0,0l0,0l0,0l0,0l0,0l0,0l0,0l0,0l0,0l0,0l0,0l0,0l0,0l0,0l0,0l0,0l0,0l0,0l0,0l0,0l0,0l0,0l0,0
				c0.4,1.2,0.7,2.4,1.1,3.6l1.9-0.6C12,153.3,11.4,151.4,10.9,149.5L10.9,149.5z M14.5,160.7l-1.9,0.7c0.4,1,0.8,2,1.2,3l0,0l0,0
				l0,0l0,0l0,0l0,0l0,0l0,0l0,0l0,0l0,0l0,0l0,0l0,0l0,0l0,0l0,0l0,0l0,0l0,0l0,0l0,0l0,0l0,0l0,0c0.1,0.2,0.1,0.3,0.2,0.5l0,0l0,0
				l0,0l0,0l0,0l0,0l0,0l0,0l0,0l0,0l0,0c0.2,0.5,0.4,0.9,0.6,1.4l1.8-0.8C16,164.4,15.2,162.6,14.5,160.7L14.5,160.7z M19.4,171.5
				l-1.8,0.9c0.1,0.1,0.2,0.3,0.2,0.4l0,0l0,0l0,0l0,0l0,0l0,0l0,0l0,0l0,0l0,0l0,0l0,0l0,0l0,0l0,0l0,0l0,0l0,0
				c0.7,1.4,1.5,2.8,2.3,4.2l0,0l0,0l0,0l0,0l0,0l0,0l0,0l0,0l0,0l0,0l0,0l0,0l0,0l0,0l0,0l1.7-1C21.2,175,20.2,173.2,19.4,171.5
				L19.4,171.5z M25.2,181.7l-1.7,1.1c0.6,1,1.3,1.9,1.9,2.9l0,0c0.5,0.7,1,1.4,1.4,2.1l1.6-1.2C27.4,185,26.3,183.4,25.2,181.7
				L25.2,181.7z M32.1,191.3l-1.6,1.3c0.4,0.5,0.7,0.9,1.1,1.4l0,0l0,0l0,0l0,0l0,0l0,0l0,0l0,0l0,0l0,0l0,0l0,0l0,0l0,0l0,0l0,0
				l0,0l0,0c0.6,0.7,1.1,1.3,1.7,2l0,0l0,0l0,0l0,0l0,0l0,0l0,0l0,0l0,0l0,0l0,0l0,0l0,0l0,0l0,0l0,0l0,0l0,0l0,0l0,0
				c0.2,0.2,0.3,0.4,0.5,0.6l1.5-1.3C34.6,194.3,33.4,192.8,32.1,191.3L32.1,191.3z M40,200.1l-1.4,1.4c0.1,0.1,0.2,0.2,0.3,0.3l0,0
				l0,0l0,0l0,0l0,0l0,0l0,0l0,0l0,0l0,0l0,0l0,0l0,0l0,0l0,0l0,0c0.1,0.1,0.1,0.1,0.2,0.2l0,0l0,0l0,0c0.5,0.5,1.1,1.1,1.6,1.6l0,0
				l0,0l0,0l0,0l0,0l0,0l0,0l0,0l0,0l0,0l0,0l0,0l0,0l0,0l0,0l0,0l0,0l0.1,0.1l0,0l0,0l0,0l0,0l0,0l0,0l0,0l0,0l0,0l0,0l0,0l0,0l0,0
				l0,0l0,0l0,0l0,0l0,0l0,0l0,0l0,0l0,0l0,0l0,0l0,0l0,0l0,0l0,0l0,0l0,0c0,0,0,0,0.1,0.1l0,0l0,0l0,0l0,0l0,0l0,0l0,0l0,0l0,0l0,0
				l0,0l0,0l0,0l0,0l0,0l0,0l0,0l0,0l0,0l0,0l0,0l0,0l0,0l0,0l0,0l0,0l0,0c0,0,0,0,0.1,0.1l0,0l0,0l0,0l0,0l0,0l0,0l0,0l0,0l0,0l0,0
				l0,0l0,0l0,0l0,0l0,0l0,0l0,0l0,0c0.1,0.1,0.1,0.1,0.2,0.2l1.4-1.5C42.8,202.9,41.3,201.5,40,200.1L40,200.1z M48.6,208.1
				l-1.3,1.5c0.1,0.1,0.1,0.1,0.2,0.2l0,0c1.5,1.2,3,2.4,4.5,3.5l1.2-1.6C51.7,210.6,50.1,209.3,48.6,208.1L48.6,208.1z M58.1,215.1
				l-1.1,1.7l0,0c1.2,0.8,2.5,1.6,3.7,2.4l0,0l0,0l0,0l0,0l0,0l0,0l0,0l0,0l0,0l0,0l0,0h0.1l0,0c0.1,0,0.2,0.1,0.2,0.1l0,0l0,0l0,0
				l0,0l0,0l0,0l0,0l0,0l0,0l0,0l0,0l0,0l0,0l0,0l0,0l0,0l0,0l0,0l0,0l0,0l0,0l0,0l0,0l0,0l0,0l0,0l0,0l0,0l0,0l0,0l0,0l0,0l0,0l0,0
				l0,0l0,0l0,0l0,0l0,0l0,0l0,0l1-1.7C61.4,217.3,59.7,216.2,58.1,215.1L58.1,215.1z M68.2,221.2l-0.9,1.8c1.8,0.9,3.6,1.8,5.4,2.7
				l0.8-1.8C71.7,223,69.9,222.1,68.2,221.2L68.2,221.2z M78.9,226.2l-0.8,1.8c0.6,0.3,1.2,0.5,1.9,0.7l0,0l0,0l0,0l0,0l0,0l0,0l0,0
				l0,0l0,0l0,0l0,0l0,0l0,0l0,0l0,0l0,0l0,0l0,0l0,0l0,0l0,0l0,0l0,0c0.1,0,0.1,0.1,0.2,0.1l0,0l0,0l0,0l0,0l0,0l0,0l0,0l0,0l0,0
				l0,0l0,0l0,0l0,0l0,0l0,0l0,0l0,0l0,0l0,0l0,0l0,0l0,0l0,0l0,0l0,0l0,0l0,0l0,0l0,0l0,0l0,0l0,0c0.8,0.3,1.6,0.6,2.4,0.9l0.7-1.9
				C82.5,227.6,80.7,226.9,78.9,226.2L78.9,226.2z M90,230.1l-0.6,1.9c1.6,0.5,3.2,0.9,4.9,1.3l0,0l0,0l0,0l0,0l0,0l0,0l0,0l0,0l0,0
				l0,0l0,0l0,0l0,0l0,0l0,0l0,0l0,0l0,0l0,0l0,0l0,0l0,0c0.2,0,0.3,0.1,0.5,0.1l0.5-1.9C93.8,231.1,91.9,230.6,90,230.1L90,230.1z
				 M101.5,232.8l-0.4,2c0.1,0,0.2,0,0.4,0.1l0,0l0,0l0,0l0,0l0,0l0,0l0,0l0,0l0,0l0,0l0,0l0,0l0,0l0,0l0,0l0,0l0,0l0,0l0,0l0,0l0,0
				l0,0l0,0l0,0c1.7,0.3,3.3,0.5,5,0.8l0.3-2C105.4,233.4,103.4,233.1,101.5,232.8L101.5,232.8z M113.2,234.3l-0.2,2
				c2,0.2,4,0.3,6,0.3l0.1-2C117.1,234.5,115.1,234.4,113.2,234.3L113.2,234.3z M130.9,234.3c-1.9,0.1-3.9,0.2-5.9,0.3v2l0,0l0,0
				l0,0l0,0l0,0l0,0l0,0l0,0l0,0l0,0l0,0l0,0l0,0l0,0l0,0c1.9,0,3.8-0.1,5.7-0.3L130.9,234.3L130.9,234.3z M142.6,232.9
				c-1.9,0.3-3.9,0.6-5.8,0.9l0.2,2c1.2-0.2,2.4-0.3,3.7-0.5l0,0l0,0l0,0l0,0l0,0l0,0l0,0l0,0l0,0l0,0l0,0l0,0l0,0l0,0l0,0l0,0l0,0
				l0,0l0,0l0,0l0,0l0,0l0,0l0,0l0,0l0,0l0,0l0,0l0,0l0,0l0,0l0,0l0,0l0,0l0,0l0,0c0.5-0.1,1-0.2,1.5-0.3L142.6,232.9L142.6,232.9z
				 M154.1,230.3c-1.9,0.5-3.8,1-5.7,1.5l0.4,1.9c2-0.4,3.9-0.9,5.8-1.5L154.1,230.3L154.1,230.3z M165.2,226.4
				c-1.8,0.7-3.7,1.4-5.5,2l0.6,1.9c1.9-0.6,3.8-1.3,5.6-2.1L165.2,226.4L165.2,226.4z M175.9,221.5c-1.7,0.9-3.5,1.8-5.3,2.6
				l0.8,1.8c0.5-0.2,0.9-0.4,1.4-0.6l0,0l0,0l0,0l0,0l0,0l0,0l0,0l0,0l0,0l0,0l0,0l0,0l0,0l0,0l0,0l0,0l0,0l0,0l0,0l0,0l0,0l0,0l0,0
				l0,0l0,0l0,0l0,0l0,0l0,0l0,0l0,0l0,0l0,0l0,0l0,0l0,0l0,0l0,0l0,0l0,0l0,0l0,0l0,0l0,0l0,0l0,0l0,0l0,0l0,0l0,0l0,0l0,0l0,0l0,0
				l0,0l0,0l0,0l0,0c0.1,0,0.2-0.1,0.3-0.1l0,0l0,0l0,0l0,0l0,0l0,0l0,0l0,0l0,0l0,0l0,0l0,0l0,0l0,0l0,0l0,0l0,0l0,0l0,0l0,0l0,0
				l0,0l0,0l0,0l0,0l0,0l0,0l0,0l0,0l0,0l0,0l0,0l0,0l0,0l0,0l0,0l0,0l0,0l0,0l0,0l0,0l0,0l0,0l0,0l0,0l0,0l0,0l0,0l0,0l0,0l0,0l0,0
				l0,0l0,0c0.5-0.2,0.9-0.5,1.4-0.7L175.9,221.5L175.9,221.5z M186.1,215.5c-1.6,1.1-3.3,2.1-5,3.1l1,1.7l0.1-0.1l0,0l0,0l0,0l0,0
				l0,0l0,0l0,0l0,0l0,0l0.1-0.1l0,0l0,0l0,0l0,0l0,0l0,0l0,0l0,0l0,0l0,0l0,0l0,0l0,0l0,0l0,0l0,0l0,0l0,0l0,0l0,0l0,0l0,0
				c0.8-0.5,1.7-1,2.5-1.6l0,0l0,0l0,0l0,0l0,0l0,0l0,0l0,0l0,0l0,0l0,0l0,0l0,0l0,0l0,0l0,0l0,0l0,0l0,0l0,0l0,0h0.1l0,0l0,0l0,0
				l0,0l0,0l0,0l0,0l0,0l0,0l0,0l0,0l0,0l0,0l0,0l0,0l0,0l0,0l0,0l0,0l0,0l0,0l0,0c0.3-0.2,0.6-0.4,0.8-0.6L186.1,215.5L186.1,215.5
				z M195.6,208.5c-1.5,1.2-3.1,2.5-4.7,3.6l1.2,1.6l0,0l0,0l0,0l0,0l0,0l0,0l0,0l0,0l0,0c0,0,0,0,0.1-0.1l0,0l0,0l0,0l0,0l0,0l0,0
				l0,0l0,0l0,0l0,0l0,0l0,0l0,0l0,0l0,0l0,0l0,0l0,0l0,0l0,0l0,0l0,0l0,0l0,0l0,0l0,0l0,0l0,0c0.1,0,0.1-0.1,0.2-0.1l0,0l0,0l0,0
				l0,0l0,0l0,0l0,0l0,0l0,0l0,0l0,0l0,0l0,0l0,0l0,0l0,0l0,0l0,0l0,0l0,0l0,0c0.1-0.1,0.2-0.2,0.3-0.2l0,0l0,0l0,0l0,0l0,0l0,0l0,0
				l0,0l0,0l0,0l0,0l0,0l0,0l0,0l0,0l0,0l0,0l0,0l0,0c0.1-0.1,0.2-0.1,0.2-0.2l0,0l0,0l0,0l0,0l0,0l0,0l0,0l0,0l0,0l0,0l0,0l0,0l0,0
				l0,0l0,0l0,0l0,0l0,0l0,0l0,0l0,0l0,0l0,0l0,0l0,0l0,0l0,0l0,0l0,0l0,0l0,0l0,0l0,0l0,0l0,0l0,0l0,0l0,0l0,0l0,0l0,0l0,0l0,0l0,0
				l0,0l0,0l0,0l0,0l0,0l0,0l0,0l0,0c0.6-0.4,1.1-0.9,1.7-1.4L195.6,208.5L195.6,208.5z M204.3,200.6c-1.4,1.4-2.8,2.8-4.3,4.1
				l1.3,1.5l0,0l0,0l0,0l0,0l0,0l0,0l0,0l0.1-0.1l0,0l0,0l0,0l0,0l0,0l0,0l0,0l0,0l0,0l0,0l0,0l0,0l0,0l0,0l0,0l0,0l0,0l0,0l0,0l0,0
				l0,0l0,0l0,0l0,0l0,0c0.1-0.1,0.1-0.1,0.2-0.2l0,0l0,0l0,0l0,0l0,0l0,0l0,0l0,0l0,0l0,0l0,0l0,0l0,0l0,0l0,0
				c1.1-1,2.2-2.1,3.3-3.2L204.3,200.6L204.3,200.6z M212.2,191.8c-1.2,1.5-2.5,3-3.8,4.5l1.5,1.3c1.3-1.5,2.6-3,3.9-4.6
				L212.2,191.8L212.2,191.8z M219.1,182.3c-1.1,1.6-2.2,3.3-3.4,4.9l1.6,1.2c0-0.1,0.1-0.1,0.1-0.2l0,0l0,0l0,0l0,0l0,0l0,0l0,0
				l0,0l0,0l0,0l0,0l0,0l0,0l0,0l0,0c0.1-0.2,0.2-0.3,0.4-0.5l0,0l0,0l0,0l0,0l0,0c0.1-0.2,0.2-0.3,0.3-0.5l0,0l0,0l0,0l0,0l0,0l0,0
				l0,0l0,0l0,0l0,0l0,0l0,0l0,0l0,0l0,0l0,0l0,0l0,0l0,0l0,0l0,0l0,0l0,0c0,0,0-0.1,0.1-0.1l0,0l0,0l0,0l0,0l0,0l0,0l0,0l0,0l0,0
				l0,0l0,0l0,0l0,0l0,0l0,0l0,0l0,0l0,0l0,0l0,0l0,0l0,0l0,0l0,0l0,0l0,0c0.6-0.8,1.1-1.7,1.7-2.5L219.1,182.3L219.1,182.3z
				 M225.1,172.1c-0.9,1.7-1.9,3.5-2.8,5.2l1.7,1c0.6-1.1,1.2-2.1,1.8-3.2l0,0l0,0l0,0l0,0l0,0l0,0l0,0l0,0l0,0l0,0l0,0l0,0l0,0l0,0
				l0,0V175l0,0l0,0l0,0l0,0l0,0l0,0l0,0l0,0l0,0l0,0l0,0l0,0l0,0l0,0c0.2-0.5,0.5-0.9,0.7-1.4L225.1,172.1L225.1,172.1z
				 M229.9,161.4c-0.7,1.8-1.5,3.6-2.3,5.4l1.8,0.8c0.8-1.8,1.6-3.7,2.3-5.5L229.9,161.4L229.9,161.4z M233.7,150.2
				c-0.5,1.9-1.1,3.8-1.7,5.6l1.9,0.6c0.1-0.3,0.2-0.7,0.3-1l0,0l0,0l0,0l0,0l0,0l0,0l0,0l0,0l0,0l0,0l0,0l0,0l0,0l0,0l0,0l0,0l0,0
				l0,0l0,0l0,0l0,0l0,0l0,0l0,0l0,0l0,0l0,0l0,0l0,0l0,0l0,0l0,0l0,0l0,0c0,0,0,0,0-0.1l0,0l0,0l0,0l0,0l0,0l0,0l0,0l0,0l0,0l0,0
				l0,0l0,0l0,0l0,0l0,0l0,0l0,0l0,0l0,0l0,0l0,0l0,0l0,0l0,0l0,0l0,0l0,0l0,0l0,0l0,0l0,0l0,0l0,0l0,0l0,0l0,0l0,0l0,0l0,0l0,0l0,0
				l0,0l0,0l0,0l0,0l0,0l0,0l0,0l0,0c0-0.1,0-0.1,0.1-0.2l0,0l0,0l0,0l0,0l0,0l0,0l0,0l0,0l0,0l0,0l0,0l0,0l0,0l0,0l0,0l0,0l0,0l0,0
				l0,0l0,0l0,0l0,0l0,0l0,0l0,0l0,0l0,0l0,0l0,0l0,0l0,0l0,0l0,0l0,0l0,0l0,0l0,0l0,0l0,0c0.2-0.6,0.3-1.1,0.5-1.7L233.7,150.2
				L233.7,150.2z M236.3,138.7c-0.3,1.9-0.7,3.9-1.1,5.8l2,0.4c0.2-0.7,0.3-1.4,0.5-2.1l0,0l0,0l0,0l0,0l0,0l0,0l0,0l0,0l0,0l0,0
				l0,0l0,0l0,0l0,0l0,0l0,0l0,0l0,0l0,0l0,0l0,0l0,0l0,0l0,0c0.2-1.1,0.4-2.1,0.6-3.2L236.3,138.7L236.3,138.7z M237.7,127
				c-0.1,2-0.3,3.9-0.5,5.9l2,0.2c0.1-0.4,0.1-0.9,0.2-1.3l0,0l0,0l0,0l0,0l0,0l0,0l0,0l0,0l0,0l0,0l0,0l0,0l0,0l0,0l0,0l0,0l0,0
				l0,0l0,0l0,0c0.1-1.4,0.3-2.8,0.4-4.2L237.7,127L237.7,127z M239.9,115.1l-2,0.1c0,1.3,0.1,2.6,0.1,3.9c0,0.7,0,1.3,0,2h2
				c0-0.2,0-0.5,0-0.7l0,0v-0.1l0,0l0,0l0,0l0,0l0,0l0,0l0,0l0,0l0,0l0,0l0,0l0,0l0,0l0,0l0,0l0,0l0,0l0,0l0,0l0,0l0,0l0,0l0,0l0,0
				l0,0l0,0l0,0l0,0l0,0l0,0l0,0l0,0l0,0l0,0l0,0l0,0l0,0l0,0l0,0l0,0l0,0l0,0l0,0l0,0l0,0l0,0l0,0l0,0l0,0l0,0l0,0l0,0l0,0l0,0
				c0,0,0,0,0-0.1l0,0l0,0l0,0l0,0l0,0c0,0,0,0,0-0.1l0,0l0,0l0,0l0,0l0,0c0,0,0,0,0-0.1l0,0l0,0l0,0l0,0l0,0c0,0,0,0,0-0.1l0,0l0,0
				l0,0l0,0l0,0v-0.1l0,0l0,0l0,0c0,0,0,0,0-0.1l0,0c0,0,0,0,0-0.1l0,0l0,0l0,0c0,0,0,0,0-0.1l0,0c0,0,0,0,0-0.1l0,0l0,0l0,0l0,0
				l0,0v-0.1l0,0l0,0l0,0v-0.1l0,0l0,0l0,0c0,0,0,0,0-0.1l0,0c0,0,0,0,0-0.1l0,0l0,0l0,0l0,0l0,0c0,0,0,0,0-0.1l0,0l0,0l0,0l0,0l0,0
				c0,0,0,0,0-0.1l0,0c0,0,0,0,0-0.1l0,0l0,0l0,0c0,0,0,0,0-0.1l0,0c0,0,0,0,0-0.1l0,0l0,0l0,0l0,0l0,0c0,0,0,0,0-0.1l0,0l0,0l0,0
				l0,0l0,0c0,0,0,0,0-0.1l0,0l0,0l0,0l0,0l0,0l0,0c0,0,0,0,0-0.1l0,0l0,0l0,0l0,0l0,0v-0.1l0,0
				C239.9,115.6,239.9,115.3,239.9,115.1L239.9,115.1z M238.9,103.2l-2,0.3c0.3,1.9,0.5,3.9,0.6,5.9l2-0.2l0,0l0,0l0,0l0,0l0,0l0,0
				l0,0l0,0l0,0l0,0l0,0l0,0l0,0l0,0l0,0l0,0l0,0l0,0l0,0l0,0l0,0l0,0l0,0l0,0l0,0l0,0l0,0l0,0l0,0l0,0c-0.1-1.5-0.3-3.1-0.5-4.6
				l0,0l0,0l0,0l0,0l0,0l0,0l0,0l0,0l0,0l0,0l0,0l0,0l0,0l0,0l0,0l0,0l0,0l0,0l0,0l0,0C238.9,103.3,238.9,103.3,238.9,103.2
				L238.9,103.2z M236.6,91.4l-1.9,0.5c0.5,1.9,0.9,3.8,1.2,5.8l2-0.4c-0.1-0.4-0.1-0.7-0.2-1.1l0,0l0,0l0,0l0,0l0,0l0,0l0,0l0,0
				l0,0l0,0l0,0l0,0l0,0l0,0l0,0l0,0l0,0l0,0l0,0l0,0l0,0l0,0l0,0l0,0l0,0l0,0l0,0l0,0l0,0l0,0l0,0l0,0l0,0l0,0l0,0l0,0l0,0l0,0
				c0-0.2-0.1-0.4-0.1-0.7l0,0l0,0l0,0l0,0l0,0l0,0l0,0l0,0l0,0l0,0l0,0l0,0l0,0l0,0l0,0l0,0l0,0l0,0l0,0l0,0l0,0l0,0l0,0l0,0l0,0
				l0,0l0,0l0,0l0,0l0,0l0,0l0,0l0,0l0,0l0,0l0,0l0,0l0,0l0,0l0,0l0,0l0,0l0,0l0,0l0,0l0,0l0,0l0,0l0,0l0,0l0,0l0,0l0,0l0,0
				C237,92.8,236.8,92.1,236.6,91.4L236.6,91.4z M233.2,79.9l-1.9,0.7c0.7,1.8,1.3,3.7,1.8,5.6l1.9-0.6c-0.4-1.3-0.8-2.6-1.2-3.9
				l0,0c-0.1-0.2-0.1-0.3-0.2-0.5l0,0l0,0l0,0l0,0l0,0l0,0l0,0l0,0l0,0l0,0l0,0l0,0l0,0l0,0l0,0l0,0l0,0l0,0l0,0l0,0l0,0l0,0l0,0
				l0,0l0,0l0,0l0,0l0,0l0,0l0,0l0,0l0,0l0,0l0,0C233.4,80.3,233.3,80.1,233.2,79.9L233.2,79.9z M228.7,68.8l-1.8,0.9
				c0.8,1.8,1.6,3.6,2.4,5.4l1.8-0.8c-0.7-1.6-1.3-3.2-2.1-4.7l0,0l0,0l0,0l0,0l0,0l0,0l0,0l0,0l0,0l0,0l0,0l0,0l0,0l0,0l0,0l0,0
				l0,0l0,0l0,0l0,0C228.8,69.1,228.7,68.9,228.7,68.8L228.7,68.8z M223,58.2l-1.7,1c1,1.7,2,3.4,2.9,5.1l1.8-0.9
				c-0.3-0.5-0.5-1-0.8-1.5l0,0l0,0l0,0l0,0l0,0l0,0l0,0l0,0l0,0l0,0C224.4,60.6,223.7,59.4,223,58.2L223,58.2z M216.2,48.3
				l-1.6,1.2c1.2,1.6,2.3,3.2,3.4,4.8l1.7-1.1c-0.3-0.4-0.6-0.8-0.8-1.2l0,0c-0.1-0.1-0.1-0.2-0.2-0.2l0,0l0,0l0,0l0,0l0,0l0,0l0,0
				l0,0l0,0l0,0l0,0l0,0l0,0l0,0l0,0l0,0l0,0l0,0l0,0l0,0l0,0l0,0l0,0l0,0l0,0l0,0c0-0.1-0.1-0.1-0.1-0.2l0,0l0,0l0,0l0,0l0,0l0,0
				l0,0l0,0l0,0C217.5,50,216.9,49.2,216.2,48.3L216.2,48.3z M208.5,39.1l-1.5,1.4c1.3,1.4,2.6,2.9,3.9,4.4l1.5-1.3
				c-0.5-0.6-1-1.1-1.5-1.7l0,0l0,0l0,0l0,0l0,0l0,0l0,0c-0.1-0.1-0.1-0.1-0.2-0.2l0,0l0,0l0,0l0,0l0,0l0,0l0,0l0,0l0,0l0,0l0,0l0,0
				l0,0l0,0l0,0l0,0l0,0l0,0l0,0l0,0l0,0l0,0l0,0l0,0c-0.1-0.1-0.1-0.1-0.2-0.2l0,0l0,0l0,0l0,0l0,0l0,0l0,0l0,0l0,0l0,0l0,0l0,0
				l0,0l0,0l0,0l0,0l0,0l0,0l0,0l0,0l0,0l0,0l0,0c-0.1-0.1-0.1-0.1-0.2-0.2l0,0l0,0l0,0l0,0l0,0l0,0l0,0l0,0l0,0l0,0l0,0l0,0l0,0
				l0,0l0,0l0,0l0,0l0,0l0,0l0,0l0,0l0,0l0,0l0,0C209.1,39.8,208.8,39.4,208.5,39.1L208.5,39.1z M199.9,30.8l-1.3,1.5
				c1.5,1.3,2.9,2.6,4.3,4l1.4-1.4c-1-0.9-2-1.9-3-2.8l0,0l0,0l0,0l0,0l0,0l0,0l0,0l0,0l0,0l0,0l0,0l0,0l0,0l0,0
				C200.7,31.5,200.3,31.1,199.9,30.8L199.9,30.8z M190.5,23.3l-1.2,1.6c1.6,1.1,3.2,2.3,4.7,3.5l1.2-1.6c-0.1-0.1-0.1-0.1-0.2-0.2
				l0,0l0,0l0,0l0,0l0,0l0,0l0,0l0,0l0,0l0,0l0,0l0,0l0,0l0,0l0,0l0,0c-1.3-1.1-2.7-2.1-4.1-3.1l0,0l0,0l0,0
				C190.7,23.4,190.6,23.3,190.5,23.3L190.5,23.3z M180.4,16.8l-1,1.7c1.7,1,3.4,2,5,3l1.1-1.7c-0.7-0.4-1.3-0.8-2-1.3l0,0l0,0l0,0
				l0,0l0,0l0,0l0,0l0,0l0,0l0,0l0,0l0,0l0,0c-0.1-0.1-0.2-0.1-0.3-0.2l0,0l0,0l0,0l0,0l0,0l0,0l0,0l0,0l0,0l0,0l0,0l0,0l0,0l0,0
				l0,0l0,0l0,0l0,0l0,0l0,0l0,0l0,0l0,0c-0.1,0-0.1-0.1-0.2-0.1l0,0l0,0l0,0l0,0l0,0l0,0l0,0l0,0l0,0l0,0l0,0l0,0l0,0l0,0l0,0l0,0
				l0,0l0,0l0,0l0,0l0,0l0,0l0,0l0,0l0,0l0,0l0,0l0,0l0,0l0,0h-0.1l0,0l0,0l0,0l0,0l0,0l0,0l0,0l0,0l0,0l0,0l0,0l0,0l0,0l0,0l0,0
				l0,0l0,0l0,0l0,0l0,0l0,0C181,17.2,180.7,17,180.4,16.8L180.4,16.8z M169.7,11.5l-0.8,1.8c1.8,0.8,3.6,1.6,5.3,2.5l0.9-1.8
				c-0.9-0.4-1.8-0.9-2.7-1.3l0,0l0,0l0,0l0,0l0,0l0,0l0,0l0,0l0,0l0,0l0,0l0,0l0,0l0,0l0,0l0,0l0,0l0,0l0,0l0,0l0,0l0,0
				C171.3,12.1,170.5,11.8,169.7,11.5L169.7,11.5z M158.5,7.2l-0.6,1.9c1.9,0.6,3.7,1.3,5.6,2l0.7-1.9c-1.3-0.5-2.6-1-3.9-1.4l0,0
				l0,0l0,0l0,0l0,0l0,0l0,0l0,0l0,0l0,0l0,0l0,0l0,0l0,0l0,0l0,0l0,0l0,0C159.4,7.5,159,7.3,158.5,7.2L158.5,7.2z M146.9,4.1
				l-0.4,2c1.9,0.4,3.8,0.9,5.7,1.4l0.5-1.9c-1.7-0.4-3.3-0.8-5-1.2l0,0l0,0l0,0l0,0l0,0l0,0l0,0l0,0l0,0l0,0l0,0l0,0l0,0l0,0l0,0
				l0,0l0,0l0,0l0,0l0,0l0,0l0,0l0,0l0,0l0,0l0,0l0,0l0,0l0,0l0,0l0,0l0,0C147,4.1,147,4.1,146.9,4.1L146.9,4.1z M135.1,2.2l-0.2,2
				c1.9,0.2,3.9,0.5,5.8,0.8l0.3-2c-0.2,0-0.4-0.1-0.6-0.1l0,0l0,0l0,0l0,0l0,0l0,0C138.6,2.6,136.8,2.4,135.1,2.2L135.1,2.2z
				 M123.1,1.5v2c2,0,3.9,0.1,5.9,0.2l0.1-2c-0.3,0-0.7,0-1-0.1l0,0l0,0l0,0l0,0l0,0l0,0l0,0l0,0l0,0l0,0l0,0l0,0l0,0l0,0l0,0l0,0
				l0,0l0,0l0,0l0,0l0,0l0,0l0,0l0,0l0,0l0,0l0,0l0,0l0,0l0,0l0,0l0,0l0,0l0,0l0,0l0,0l0,0l0,0C125.9,1.6,124.5,1.5,123.1,1.5
				L123.1,1.5z"/>
		</g>
		<g>
			<path class="st1" d="M137.2,243.6c-7.2,1.8-28.8,0-28.8,0C115.6,233.7,130.9,237.3,137.2,243.6"/>
			<path class="st1" d="M118.3,237.3c3.3-0.9,9.1-0.2,12.8,1.8c3-0.9,4.9-3.5,5.3-5.7c0,0-2.2,1.3-3.8,1.3c-4,0.2-5-0.7-8-0.9
				C122.7,233.7,120.4,234.6,118.3,237.3z"/>
			<path class="st1" d="M112.6,239.2c0.5-0.4,4.1-1.7,5.1-1.7c0.3-1.1,3-3.4,3.5-3.3c-2.5-0.9-6.7,0.4-7.4,0.5
				c-0.7,0.1-5.6,0.2-6.6-1.3C107.3,236.7,111.8,239.2,112.6,239.2z"/>
			<path class="st1" d="M121.7,233.9c-0.6-0.4-4.2-0.7-5.9-0.1c-1.7,0.6-3.8,0.5-3.8,0.5s-2.5-3.2-1.7-6.3c0.9,1.3,2.5,2.7,4.2,3.2
				s4.1,0.8,4.6,1c0.4,0.2,2.8,0.7,3.5,1.4L121.7,233.9z"/>
			<path class="st1" d="M122.2,232.8c0.2,0.1,1,0.6,1.1,0.7c0.5-0.1,2.2-0.4,4.1,0.2c1.9,0.6,3.8,0.7,4.1,0.6
				c2.1-1.9,2.1-5.7,1.8-6.3c-1.4,2-3.5,3-5.5,3.5C126.4,231.7,124.2,232,122.2,232.8z"/>
			<path class="st1" d="M123.4,231.9c0.4-0.2,1.9-0.4,2.7-0.5c0.8-0.1,2.6-0.6,2.9-0.7c0.7-2,0.5-5-0.7-6.6
				c-0.3,1.9-2.1,3.9-2.6,4.3c0,0-2.6,2.4-3.5,2.5C122.5,231,123.4,231.9,123.4,231.9z"/>
			<path class="st1" d="M121.7,232.6c0.1-0.2,1-0.6,1.2-0.5c0,0-2.1-1.5-3.9-2.5s-3.6-4.2-3.8-5.4c-1.3,1.5-1.6,4.4-0.8,6.5
				c0.9,0.4,2.1,0.5,3.7,1C119.8,232,121.7,232.6,121.7,232.6z"/>
			<path class="st1" d="M121.7,230.7c0,0,2-1.1,2.1-1.3c0.3-2.1-1.1-5.2-1.4-5.8c0,1.6-0.4,5.7-1.3,6.7L121.7,230.7z"/>
			<path class="st1" d="M121.6,221.3c0.6,1.7,0.7,6.1-0.8,8.8c-0.7-0.4-1.4-0.9-1.4-0.9c0-0.1-0.1-0.9,0.1-1.9
				S121.6,221.3,121.6,221.3z"/>
		</g>
	</g>
</g>
<g>
	<path class="st2" d="M92.8,164.3c0.9,0,1.8,0.2,2.6,0.7c8.4,4.8,18,7.4,27.7,7.4c30.7,0,55.7-25,55.7-55.7
		c0-30.7-25-55.7-55.7-55.7c-30.7,0-55.7,25-55.7,55.7c0,13.2,3.7,23.7,12.5,35.2c1.4,1.8,1.4,4.2,0.2,6.1l-7.4,11.3l18.8-4.8
		C91.9,164.4,92.3,164.3,92.8,164.3z"/>
	<g>
		<g>
			<path class="st1" d="M60.9,182.8c-1.7,0-3.3-0.8-4.3-2.2c-1.3-1.8-1.3-4.1-0.1-5.9l12.9-19.5C60.8,143,57,131,57,116.7
				c0-36.5,29.7-66.2,66.1-66.2s66.1,29.7,66.1,66.2c0,36.5-29.7,66.1-66.1,66.1c-10.8,0-21.5-2.7-31.1-7.7l-29.8,7.6
				C61.8,182.8,61.3,182.8,60.9,182.8z M92.8,164.3c0.9,0,1.8,0.2,2.6,0.7c8.4,4.8,18,7.4,27.7,7.4c30.7,0,55.7-25,55.7-55.7
				c0-30.7-25-55.7-55.7-55.7c-30.7,0-55.7,25-55.7,55.7c0,13.2,3.7,23.7,12.5,35.2c1.4,1.8,1.4,4.2,0.2,6.1l-7.4,11.3l18.8-4.8
				C91.9,164.4,92.3,164.3,92.8,164.3z"/>
		</g>
		<path class="st1" d="M148.7,88.1c-1.3-2.8-3.2-5.2-5.5-7.2c-2.3-2-5.1-3.5-8.3-4.6c-3.1-1.1-6.6-1.6-10.4-1.6
			c-3.6,0-6.9,0.6-10,1.7c-3.1,1.1-5.8,2.7-8.2,4.8c-2.3,2.1-4.2,4.6-5.7,7.5c-1.4,2.9-2.3,6.2-2.6,9.7l-0.3,2.9c0,0,0,5.5,8.4,5.5
			c0,0,5.4,0.7,6.5-5.5l0.3-2.2c1.6-10.4,7.3-11.6,11.5-11.6c1.7,0,3.2,0.3,4.6,0.8c1.4,0.5,2.5,1.3,3.5,2.2c1,0.9,1.7,2,2.2,3.3
			c0.5,1.3,0.8,2.7,0.8,4.2c0,0.9-0.1,1.7-0.2,2.4c-0.1,0.5-0.3,1.1-0.7,1.8c-0.5,0.8-1.2,1.7-2.2,2.8c-1.1,1.1-2.6,2.5-4.5,4.1
			c-4.1,3.5-7,6.8-8.6,10.1c-1.6,3.3-2.4,8.1-2.4,14.7v2c0,0,0,0.1,0,0.4v0.3h0c0.2,1.5,1.2,5.1,7.9,4.8c0,0,5.7,0.1,6.1-4.8v-2.6
			c0-5.3,0.6-7.8,1.2-9c0.4-0.9,1.8-3.1,6.8-7.2c4.4-3.6,7.3-6.9,9-10.1c1.7-3.1,2.5-6.6,2.5-10.3C150.7,94,150,90.9,148.7,88.1z"/>
		<path class="st1" d="M133,155.4c0,4.7-3.8,8.6-8.6,8.6c-4.7,0-8.6-3.8-8.6-8.6c0-4.7,3.8-8.6,8.6-8.6
			C129.2,146.8,133,150.7,133,155.4z"/>
	</g>
</g>
</svg>
