<?xml version="1.0" encoding="utf-8"?>
<!-- Generator: Adobe Illustrator 21.1.0, SVG Export Plug-In . SVG Version: 6.00 Build 0)  -->
<svg version="1.1" id="Layer_1" xmlns="http://www.w3.org/2000/svg" xmlns:xlink="http://www.w3.org/1999/xlink" x="0px" y="0px"
	 viewBox="0 0 31 23.3" style="enable-background:new 0 0 31 23.3;" xml:space="preserve">
<style type="text/css">
	.st0{fill:#1E4F4E;}
</style>
<g>
	<path class="st0" d="M30.5,22.7c0,0.1-28.8,0-28.8,0C8.9,12.8,24.2,16.4,30.5,22.7"/>
	<path class="st0" d="M11.6,16.4c3.3-0.9,9.1-0.2,12.8,1.8c3-0.9,4.9-3.5,5.3-5.7c0,0-2.2,1.3-3.8,1.3c-4,0.2-5-0.7-8-0.9
		C16,12.8,13.7,13.7,11.6,16.4z"/>
	<path class="st0" d="M5.9,18.3c0.5-0.4,4.1-1.7,5.1-1.7c0.3-1.1,3-3.4,3.5-3.3c-2.5-0.9-6.7,0.4-7.4,0.5c-0.7,0.1-5.6,0.2-6.6-1.3
		C0.6,15.8,5.1,18.3,5.9,18.3z"/>
	<path class="st0" d="M15,13c-0.6-0.4-4.2-0.7-5.9-0.1c-1.7,0.6-3.8,0.5-3.8,0.5s-2.5-3.2-1.7-6.3c0.9,1.3,2.5,2.7,4.2,3.2
		s4.1,0.8,4.6,1c0.4,0.2,2.8,0.7,3.5,1.4L15,13z"/>
	<path class="st0" d="M15.5,11.9c0.2,0.1,1,0.6,1.1,0.7c0.5-0.1,2.2-0.4,4.1,0.2c1.9,0.6,3.8,0.7,4.1,0.6c2.1-1.9,2.1-5.7,1.8-6.3
		c-1.4,2-3.5,3-5.5,3.5C19.7,10.8,17.5,11.1,15.5,11.9z"/>
	<path class="st0" d="M16.7,11c0.4-0.2,1.9-0.4,2.7-0.5c0.8-0.1,2.6-0.6,2.9-0.7c0.7-2,0.5-5-0.7-6.6c-0.3,1.9-2.1,3.9-2.6,4.3
		c0,0-2.6,2.4-3.5,2.5C15.9,10.1,16.7,11,16.7,11z"/>
	<path class="st0" d="M15.1,11.7c0.1-0.2,1-0.6,1.2-0.5c0,0-2.1-1.5-3.9-2.5S8.8,4.5,8.6,3.3C7.3,4.8,7,7.7,7.8,9.8
		c0.9,0.4,2.1,0.5,3.7,1C13.1,11.1,15.1,11.7,15.1,11.7z"/>
	<path class="st0" d="M15,9.8c0,0,2-1.1,2.1-1.3c0.3-2.1-1.1-5.2-1.4-5.8c0,1.6-0.4,5.7-1.3,6.7L15,9.8z"/>
	<path class="st0" d="M14.9,0.4c0.6,1.7,0.7,6.1-0.8,8.8c-0.7-0.4-1.4-0.9-1.4-0.9c0-0.1-0.1-0.9,0.1-1.9
		C13.1,5.3,14.9,0.4,14.9,0.4z"/>
</g>
</svg>
