<?xml version="1.0" encoding="utf-8"?>
<!-- Generator: Adobe Illustrator 22.1.0, SVG Export Plug-In . SVG Version: 6.00 Build 0)  -->
<svg version="1.1" id="Layer_1" xmlns="http://www.w3.org/2000/svg" xmlns:xlink="http://www.w3.org/1999/xlink" x="0px" y="0px"
	 viewBox="0 0 245 245" style="enable-background:new 0 0 245 245;" xml:space="preserve">
<style type="text/css">
	.st0{fill:#A2D05D;}
	.st1{fill:#005050;}
	.st2{fill:#5C96BE;}
	.st3{fill:#F9E0D1;}
	.st4{fill:#FA6F48;}
	.st5{fill:#5CB9F2;}
	.st6{opacity:0.3;fill:#FFFFFF;}
	.st7{opacity:0.5;fill:#9BA6C2;}
	.st8{fill:#3E5770;}
	.st9{opacity:0.6;fill:#FFB275;}
	.st10{fill:#4C5572;}
	.st11{fill:#D93230;}
	.st12{fill:#097609;}
	.st13{fill:#FCC433;}
	.st14{fill:#EA1C3D;}
	.st15{fill:#F39C12;}
	.st16{fill:#F1C40F;}
	.st17{fill:#BFBDC4;}
	.st18{fill:#88C3F3;}
	.st19{opacity:0.4;fill:#88C3F3;}
	.st20{fill:#3B87B2;}
</style>
<g>
	<g>
		<circle class="st0" cx="122.1" cy="118.8" r="111.7"/>
		<g>
			<path class="st1" d="M122.1,1.3C122.1,1.3,122.1,1.3,122.1,1.3c-0.1,0-0.1,0-0.1,0c0,0-0.1,0-0.1,0c0,0,0,0,0,0c0,0,0,0,0,0
				c0,0,0,0,0,0c0,0,0,0,0,0c0,0,0,0,0,0c0,0,0,0,0,0c0,0,0,0,0,0c0,0,0,0,0,0c0,0,0,0,0,0c0,0,0,0,0,0c0,0,0,0,0,0c0,0,0,0,0,0
				c0,0,0,0,0,0c0,0,0,0,0,0c0,0,0,0,0,0c0,0,0,0,0,0c0,0,0,0,0,0c0,0,0,0,0,0c0,0,0,0,0,0c0,0,0,0,0,0c0,0,0,0,0,0c0,0,0,0,0,0
				c0,0,0,0,0,0c0,0,0,0,0,0c0,0,0,0,0,0c0,0,0,0,0,0c0,0,0,0,0,0c0,0,0,0,0,0c0,0,0,0,0,0c0,0,0,0,0,0c0,0,0,0,0,0c0,0,0,0,0,0
				c0,0,0,0,0,0c0,0,0,0,0,0c0,0,0,0,0,0c0,0,0,0,0,0c0,0,0,0,0,0c0,0,0,0,0,0c0,0,0,0,0,0c0,0,0,0,0,0c0,0,0,0,0,0l0,0c0,0,0,0,0,0
				l0,0c0,0,0,0,0,0l0,0c0,0,0,0,0,0c0,0,0,0,0,0c0,0,0,0,0,0l0,0c0,0,0,0,0,0l0,0c0,0,0,0,0,0l0,0c0,0,0,0,0,0l0,0c0,0,0,0,0,0l0,0
				c0,0,0,0,0,0l0,0c0,0,0,0,0,0l0,0c0,0,0,0,0,0l0,0c0,0,0,0,0,0l0,0c-1.4,0-2.8,0.1-4.3,0.1l0.1,2c2-0.1,3.9-0.1,5.9-0.1V1.3
				L122.1,1.3L122.1,1.3z M110.2,1.9c-0.3,0-0.7,0.1-1,0.1l0,0c0,0,0,0,0,0l0,0c0,0,0,0,0,0l0,0c0,0,0,0,0,0l0,0c0,0,0,0,0,0l0,0
				c0,0,0,0,0,0l0,0c0,0,0,0,0,0l0,0c0,0,0,0,0,0l0,0c0,0,0,0,0,0l0,0c0,0,0,0,0,0l0,0c0,0,0,0,0,0l0,0c0,0,0,0,0,0l0,0c0,0,0,0,0,0
				c0,0,0,0,0,0c0,0,0,0,0,0c0,0,0,0,0,0c0,0,0,0,0,0c0,0,0,0,0,0c0,0,0,0,0,0c0,0,0,0,0,0c0,0,0,0,0,0c0,0,0,0,0,0c0,0,0,0,0,0
				c0,0,0,0,0,0c0,0,0,0,0,0c0,0,0,0,0,0c0,0,0,0,0,0c0,0,0,0,0,0c0,0,0,0,0,0c0,0,0,0,0,0c0,0,0,0,0,0c0,0,0,0,0,0c0,0,0,0,0,0
				c0,0,0,0,0,0c0,0,0,0,0,0c0,0,0,0,0,0c0,0,0,0,0,0c0,0,0,0,0,0c0,0,0,0,0,0c0,0,0,0,0,0c0,0,0,0,0,0c0,0,0,0,0,0c0,0,0,0,0,0
				c0,0,0,0,0,0c0,0,0,0,0,0c0,0,0,0,0,0c0,0,0,0,0,0c0,0,0,0,0,0c0,0,0,0,0,0c0,0,0,0,0,0c0,0,0,0,0,0c0,0,0,0,0,0c0,0,0,0,0,0
				c0,0,0,0,0,0c0,0,0,0,0,0c0,0,0,0,0,0c0,0,0,0,0,0c0,0,0,0,0,0c0,0,0,0,0,0c0,0,0,0,0,0c0,0,0,0,0,0c0,0,0,0,0,0c0,0,0,0,0,0
				c-0.5,0.1-1,0.1-1.5,0.2c0,0,0,0,0,0c0,0,0,0,0,0c0,0,0,0,0,0c0,0,0,0,0,0c0,0,0,0,0,0c0,0,0,0,0,0c0,0,0,0,0,0c0,0,0,0,0,0
				c0,0,0,0,0,0c0,0,0,0,0,0c0,0,0,0,0,0c0,0,0,0,0,0c0,0,0,0,0,0c0,0,0,0,0,0c0,0,0,0,0,0c0,0,0,0,0,0c0,0,0,0,0,0c0,0,0,0,0,0
				c0,0,0,0,0,0c0,0,0,0,0,0c0,0,0,0,0,0c0,0,0,0,0,0c0,0,0,0,0,0c0,0,0,0,0,0c0,0,0,0,0,0c0,0,0,0,0,0c0,0,0,0,0,0c0,0,0,0,0,0
				c0,0,0,0,0,0c0,0,0,0,0,0c0,0,0,0,0,0c0,0,0,0,0,0c0,0,0,0,0,0c0,0,0,0,0,0c0,0,0,0,0,0c0,0,0,0,0,0c0,0,0,0,0,0l0,0c0,0,0,0,0,0
				l0,0c-0.3,0-0.6,0.1-0.9,0.1l0.3,2c1.9-0.3,3.9-0.5,5.9-0.7L110.2,1.9L110.2,1.9z M98.3,3.7c-1,0.2-2,0.4-2.9,0.6c0,0,0,0,0,0
				c0,0,0,0,0,0c0,0,0,0,0,0c0,0,0,0,0,0c0,0,0,0,0,0c0,0,0,0,0,0c0,0,0,0,0,0c0,0,0,0,0,0c0,0,0,0,0,0c0,0,0,0,0,0c0,0,0,0,0,0
				c0,0,0,0,0,0c0,0,0,0,0,0c0,0,0,0,0,0c0,0,0,0,0,0c0,0,0,0,0,0c0,0,0,0,0,0c0,0,0,0,0,0c0,0,0,0,0,0c0,0,0,0,0,0c0,0,0,0,0,0
				c0,0,0,0,0,0c0,0,0,0,0,0c0,0,0,0,0,0c0,0,0,0,0,0c0,0,0,0,0,0c0,0,0,0,0,0c0,0,0,0,0,0c0,0,0,0,0,0c0,0,0,0,0,0
				c-0.6,0.1-1.1,0.3-1.7,0.4c0,0,0,0,0,0c0,0,0,0,0,0c0,0,0,0,0,0c0,0,0,0,0,0c0,0,0,0,0,0c0,0,0,0,0,0c0,0,0,0,0,0c0,0,0,0,0,0
				c0,0,0,0,0,0c0,0,0,0,0,0c0,0,0,0,0,0c0,0,0,0,0,0c0,0,0,0,0,0c0,0,0,0,0,0c0,0,0,0,0,0c0,0,0,0,0,0c0,0,0,0,0,0c0,0,0,0,0,0
				c0,0,0,0,0,0c0,0,0,0,0,0c0,0,0,0,0,0c0,0,0,0,0,0c0,0,0,0,0,0l0,0c0,0,0,0,0,0l0,0L93,7c1.9-0.5,3.8-0.9,5.7-1.3L98.3,3.7
				L98.3,3.7z M86.7,6.7c-1,0.3-2.1,0.7-3.1,1l0,0c0,0,0,0,0,0c0,0,0,0,0,0c0,0,0,0,0,0c0,0,0,0,0,0c0,0,0,0,0,0c0,0,0,0,0,0
				c0,0,0,0,0,0c0,0,0,0,0,0c0,0,0,0,0,0c0,0,0,0,0,0c0,0,0,0,0,0c0,0,0,0,0,0c0,0,0,0,0,0c0,0,0,0,0,0c0,0,0,0,0,0c0,0,0,0,0,0
				c0,0,0,0,0,0c0,0,0,0,0,0c0,0,0,0,0,0c0,0,0,0,0,0c0,0,0,0,0,0c0,0,0,0,0,0c0,0,0,0,0,0c0,0,0,0,0,0c0,0,0,0,0,0c0,0,0,0,0,0
				c0,0,0,0,0,0c0,0,0,0,0,0c0,0,0,0,0,0c-0.7,0.2-1.3,0.5-2,0.7l0.7,1.9c1.8-0.7,3.7-1.3,5.6-1.9L86.7,6.7L86.7,6.7z M75.5,10.9
				c-1.8,0.8-3.7,1.6-5.4,2.5l0.9,1.8c1.8-0.9,3.6-1.7,5.3-2.5L75.5,10.9L75.5,10.9z M64.7,16.2c-0.3,0.2-0.7,0.4-1,0.6c0,0,0,0,0,0
				c0,0,0,0,0,0c0,0,0,0,0,0c0,0,0,0,0,0c0,0,0,0,0,0c0,0,0,0,0,0c0,0,0,0,0,0c0,0,0,0,0,0c0,0,0,0,0,0c0,0,0,0,0,0c0,0,0,0,0,0
				c0,0,0,0,0,0c0,0,0,0,0,0c0,0,0,0,0,0c-1.3,0.8-2.6,1.5-3.9,2.4l1.1,1.7c1.7-1,3.4-2.1,5.1-3L64.7,16.2L64.7,16.2z M54.6,22.6
				c-0.5,0.4-1,0.7-1.5,1.1l0,0c0,0,0,0,0,0c0,0,0,0,0,0c0,0,0,0,0,0l0,0c0,0,0,0,0,0l0,0c0,0,0,0,0,0l0,0c0,0,0,0,0,0c0,0,0,0,0,0
				c0,0,0,0,0,0c0,0,0,0,0,0c0,0,0,0,0,0l0,0c0,0,0,0,0,0l0,0c-0.1,0.1-0.2,0.2-0.3,0.2c0,0,0,0,0,0c0,0,0,0,0,0l0,0c0,0,0,0,0,0
				l0,0c0,0,0,0,0,0l0,0c0,0,0,0,0,0l0,0c0,0,0,0,0,0l0,0c-0.8,0.6-1.7,1.3-2.5,1.9l1.2,1.6c1.5-1.2,3.1-2.4,4.7-3.5L54.6,22.6
				L54.6,22.6z M45.1,30c-0.6,0.5-1.2,1.1-1.9,1.6l0,0c0,0,0,0,0,0c0,0,0,0,0,0c0,0,0,0,0,0c0,0,0,0,0,0c0,0,0,0,0,0c0,0,0,0,0,0
				c0,0,0,0,0,0c0,0,0,0,0,0c0,0,0,0,0,0c0,0,0,0,0,0c0,0,0,0,0,0c0,0,0,0,0,0c0,0,0,0,0,0c0,0,0,0,0,0c0,0,0,0,0,0c0,0,0,0,0,0
				c0,0,0,0,0,0c0,0,0,0,0,0c0,0,0,0,0,0c0,0,0,0,0,0c0,0,0,0,0,0c0,0,0,0,0,0c0,0,0,0,0,0c-0.1,0-0.1,0.1-0.2,0.1c0,0,0,0,0,0
				c0,0,0,0,0,0l0,0c0,0,0,0,0,0c0,0,0,0,0,0c0,0,0,0,0,0c0,0,0,0,0,0c0,0,0,0,0,0c0,0,0,0,0,0c0,0,0,0,0,0c0,0,0,0,0,0c0,0,0,0,0,0
				c0,0,0,0,0,0c0,0,0,0,0,0c0,0,0,0,0,0c0,0,0,0,0,0c0,0,0,0,0,0c-0.6,0.5-1.2,1.1-1.8,1.7l1.4,1.4c1.4-1.4,2.9-2.7,4.4-4L45.1,30
				L45.1,30z M36.5,38.3L36.5,38.3C36.5,38.3,36.5,38.3,36.5,38.3C36.4,38.3,36.4,38.4,36.5,38.3C36.4,38.4,36.4,38.4,36.5,38.3
				C36.4,38.4,36.4,38.4,36.5,38.3C36.4,38.4,36.4,38.4,36.5,38.3c-0.1,0.1-0.1,0.1-0.1,0.1c0,0,0,0,0,0c0,0,0,0,0,0c0,0,0,0,0,0
				c0,0,0,0,0,0c0,0,0,0,0,0c0,0,0,0,0,0c0,0,0,0,0,0c0,0,0,0,0,0c0,0,0,0,0,0c0,0,0,0,0,0c0,0,0,0,0,0c0,0,0,0,0,0l0,0
				c-0.8,0.8-1.5,1.7-2.3,2.5c0,0,0,0,0,0c0,0,0,0,0,0c0,0,0,0,0,0c0,0,0,0,0,0c0,0,0,0,0,0c0,0,0,0,0,0c0,0,0,0,0,0c0,0,0,0,0,0
				c0,0,0,0,0,0c0,0,0,0,0,0c0,0,0,0,0,0c0,0,0,0,0,0c0,0,0,0,0,0c0,0,0,0,0,0c0,0,0,0,0,0c0,0,0,0,0,0c0,0,0,0,0,0c0,0,0,0,0,0
				c0,0,0,0,0,0l0,0c0,0,0,0,0,0c0,0,0,0,0,0c-0.4,0.4-0.7,0.8-1.1,1.3l1.5,1.3c1.3-1.5,2.6-3,3.9-4.4L36.5,38.3L36.5,38.3z
				 M28.7,47.5c0,0-0.1,0.1-0.1,0.1l0,0c0,0,0,0,0,0c0,0,0,0,0,0c0,0,0,0,0,0c0,0,0,0,0,0c0,0,0,0,0,0c0,0,0,0,0,0c0,0,0,0,0,0
				c0,0,0,0,0,0c0,0,0,0,0,0c0,0,0,0,0,0c0,0,0,0,0,0c0,0,0,0,0,0c0,0,0,0,0,0c0,0,0,0,0,0c0,0,0,0,0,0c-0.5,0.7-1.1,1.5-1.6,2.2
				c0,0,0,0,0,0c0,0,0,0,0,0c0,0,0,0,0,0c0,0,0,0,0,0c0,0,0,0,0,0c0,0,0,0,0,0c0,0,0,0,0,0c0,0,0,0,0,0c0,0,0,0,0,0c0,0,0,0,0,0
				c0,0,0,0,0,0c0,0,0,0,0,0c0,0,0,0,0,0c0,0,0,0,0,0c0,0,0,0,0,0c0,0,0,0,0,0c0,0,0,0,0,0c0,0,0,0,0,0c0,0,0,0,0,0
				c0,0-0.1,0.1-0.1,0.1c0,0,0,0,0,0c0,0,0,0,0,0c0,0,0,0,0,0c0,0,0,0,0,0c0,0,0,0,0,0c0,0,0,0,0,0c0,0,0,0,0,0c0,0,0,0,0,0
				c0,0,0,0,0,0c0,0,0,0,0,0c0,0,0,0,0,0c0,0,0,0,0,0c0,0,0,0,0,0c0,0,0,0,0,0c0,0,0,0,0,0c0,0,0,0,0,0c0,0,0,0,0,0c0,0,0,0,0,0
				c0,0,0,0,0,0c0,0,0,0,0,0c0,0,0,0,0,0c0,0,0,0,0,0c0,0,0,0,0,0c0,0,0,0,0,0c0,0,0,0,0,0c0,0,0,0,0,0c0,0.1-0.1,0.1-0.1,0.2l0,0
				c0,0,0,0,0,0l0,0c0,0,0,0,0,0c0,0,0,0,0,0c0,0,0,0,0,0c0,0,0,0,0,0c0,0,0,0,0,0c0,0,0,0,0,0c0,0,0,0,0,0c0,0,0,0,0,0c0,0,0,0,0,0
				c0,0,0,0,0,0c0,0,0,0,0,0c0,0,0,0,0,0c0,0,0,0,0,0c0,0,0,0,0,0c0,0,0,0,0,0c0,0,0,0,0,0c0,0,0,0,0,0c0,0,0,0,0,0c0,0,0,0,0,0
				c0,0,0,0,0,0c0,0,0,0,0,0c0,0,0,0,0,0c0,0,0,0,0,0c0,0,0,0,0,0c0,0,0,0,0,0c0,0,0,0,0,0c0,0,0,0,0,0c0,0,0,0,0,0c0,0,0,0,0,0
				c0,0,0,0,0,0c0,0,0,0,0,0c0,0,0,0,0,0c0,0,0,0,0,0c0,0,0,0,0,0c0,0,0,0,0,0c0,0,0,0,0,0c0,0,0,0,0,0c0,0,0,0,0,0c0,0,0,0,0,0
				c0,0,0,0,0,0c0,0,0,0,0,0c0,0,0,0,0,0c0,0,0,0,0,0c0,0,0,0,0,0c0,0,0,0,0,0c0,0,0,0,0,0c0,0,0,0,0,0c-0.1,0.1-0.1,0.1-0.1,0.2
				l1.6,1.1c1.1-1.6,2.3-3.2,3.5-4.8L28.7,47.5L28.7,47.5z M21.9,57.3c-0.6,0.9-1.1,1.9-1.7,2.8l0,0c0,0,0,0,0,0l0,0c0,0,0,0,0,0
				c0,0,0,0,0,0c0,0,0,0.1,0,0.1l0,0c0,0,0,0.1,0,0.1c0,0,0,0,0,0c0,0.1-0.1,0.1-0.1,0.2c0,0,0,0,0,0c0,0,0,0,0,0c0,0,0,0,0,0
				c0,0,0,0,0,0c0,0,0,0,0,0c0,0,0,0,0,0c0,0,0,0,0,0c0,0,0,0,0,0c0,0,0,0,0,0c0,0,0,0,0,0c0,0,0,0,0,0c0,0,0,0,0,0c0,0,0,0,0,0
				c0,0,0,0,0,0c0,0,0,0,0,0c0,0,0,0,0,0c0,0,0,0,0,0c0,0,0,0,0,0c0,0,0,0,0,0c0,0,0,0,0,0c0,0,0,0,0,0c0,0,0,0,0,0
				c-0.3,0.5-0.6,1-0.9,1.5l1.8,1c0.9-1.7,1.9-3.4,3-5.1L21.9,57.3L21.9,57.3z M16.2,67.9c-0.5,1-0.9,2-1.4,3c0,0,0,0,0,0
				c0,0,0,0,0,0c0,0,0,0,0,0c0,0,0,0,0,0c0,0,0,0,0,0c0,0,0,0,0,0c0,0,0,0,0,0c0,0,0,0,0,0c0,0,0,0,0,0c0,0,0,0,0,0c0,0,0,0,0,0
				c0,0,0,0,0,0c0,0,0,0,0,0c0,0,0,0,0,0c0,0,0,0,0,0c0,0,0,0,0,0c0,0,0,0,0,0c0,0,0,0,0,0c0,0,0,0,0,0c0,0,0,0,0,0c0,0,0,0,0,0
				c0,0,0,0,0,0c-0.3,0.7-0.6,1.4-0.9,2.1l1.8,0.8c0.8-1.8,1.6-3.6,2.4-5.4L16.2,67.9L16.2,67.9z M11.5,78.9
				c-0.2,0.5-0.4,1.1-0.6,1.6c0,0,0,0,0,0c0,0,0,0,0,0c0,0,0,0,0,0c0,0,0,0,0,0c0,0,0,0,0,0c0,0,0,0,0,0c0,0,0,0,0,0c0,0,0,0,0,0
				c0,0,0,0,0,0c0,0,0,0,0,0c0,0,0,0,0,0c0,0,0,0,0,0c0,0,0,0,0,0c0,0,0,0,0,0c0,0,0,0,0,0c0,0,0,0,0,0c0,0,0,0,0,0c0,0,0,0,0,0
				c0,0,0,0,0,0c0,0,0,0,0,0c0,0,0,0,0,0c0,0,0,0,0,0c0,0,0,0,0,0l0,0c-0.4,1.2-0.8,2.4-1.1,3.6l1.9,0.6c0.6-1.9,1.2-3.8,1.9-5.6
				L11.5,78.9L11.5,78.9z M8,90.4c-0.1,0.5-0.2,1-0.4,1.5c0,0,0,0,0,0c0,0,0,0,0,0c0,0,0,0,0,0c0,0,0,0,0,0c0,0,0,0,0,0c0,0,0,0,0,0
				c0,0,0,0,0,0c0,0,0,0,0,0c0,0,0,0,0,0c0,0,0,0,0,0c0,0,0,0,0,0c0,0,0,0,0,0c0,0,0,0,0,0c0,0,0,0,0,0c0,0,0,0,0,0c0,0,0,0,0,0
				c0,0,0,0,0,0c0,0,0,0,0,0c0,0,0,0,0,0c0,0,0,0,0,0c0,0,0,0,0,0c0,0,0,0,0,0c0,0,0,0,0,0c0,0,0,0,0,0c0,0,0,0,0,0c0,0,0,0,0,0
				c0,0,0,0,0,0c0,0,0,0,0,0c0,0,0,0,0,0c0,0,0,0,0,0c0,0,0,0,0,0c0,0,0,0,0,0c0,0,0,0,0,0l0,0c0,0,0,0,0,0l0,0c0,0,0,0,0,0
				c0,0,0,0,0,0c0,0,0,0,0,0c0,0,0,0,0,0c0,0,0,0,0,0c0,0,0,0,0,0c0,0,0,0,0,0c0,0,0,0,0,0c0,0,0,0,0,0c0,0,0,0,0,0c0,0,0,0,0,0l0,0
				c-0.2,1.1-0.5,2.2-0.7,3.3l2,0.4c0.4-1.9,0.8-3.9,1.3-5.8L8,90.4L8,90.4z M5.8,102.2c0,0.2-0.1,0.4-0.1,0.6c0,0,0,0,0,0
				c0,0,0,0,0,0c0,0,0,0,0,0c0,0,0,0,0,0c0,0,0,0,0,0c0,0,0,0,0,0c0,0,0,0,0,0c0,0,0,0,0,0c0,0,0,0,0,0c0,0,0,0,0,0c0,0,0,0,0,0
				c0,0,0,0,0,0c0,0,0,0,0,0c0,0,0,0,0,0c0,0,0,0,0,0c0,0,0,0,0,0c-0.2,1.7-0.4,3.3-0.6,5c0,0,0,0,0,0c0,0,0,0,0,0c0,0,0,0,0,0
				c0,0,0,0,0,0l2,0.2c0.2-2,0.4-3.9,0.7-5.9L5.8,102.2L5.8,102.2z M4.7,114.1c0,0.2,0,0.4,0,0.5l0,0c0,0,0,0,0,0c0,0,0,0,0,0
				c0,0,0,0,0,0c0,0,0,0,0,0c0,0,0,0,0,0c0,0,0,0,0,0c0,0,0,0,0,0c0,0,0,0,0,0c0,0,0,0,0,0c0,0,0,0,0,0c0,0,0,0,0,0c0,0,0,0,0,0
				c0,0,0,0,0,0c0,0,0,0,0,0c0,0,0,0,0,0c0,0,0,0,0,0c0,0,0,0,0,0c0,0,0,0.1,0,0.1c0,0,0,0,0,0c0,0,0,0,0,0c0,0,0,0,0,0
				c0,0.8,0,1.7,0,2.6c0,0,0,0,0,0c0,0,0,0.1,0,0.1c0,0,0,0,0,0c0,0,0,0,0,0c0,0,0,0,0,0c0,0,0,0.1,0,0.1c0,0,0,0,0,0c0,0,0,0,0,0
				c0,0,0,0,0,0c0,0,0,0.1,0,0.1c0,0,0,0,0,0c0,0,0,0,0,0c0,0,0,0,0,0c0,0,0,0,0,0c0,0,0,0,0,0c0,0,0,0,0,0c0,0,0,0,0,0c0,0,0,0,0,0
				c0,0,0,0,0,0c0,0,0,0,0,0c0,0,0,0,0,0c0,0,0,0,0,0c0,0,0,0,0,0c0,0,0,0,0,0c0,0,0,0,0,0c0,0,0,0,0,0c0,0,0,0,0,0c0,0,0,0,0,0
				c0,0,0,0,0,0c0,0,0,0,0,0c0,0,0,0,0,0c0,0,0,0,0,0c0,0,0,0,0,0c0,0,0,0,0,0c0,0,0,0,0,0c0,0,0,0,0,0l0,0c0,0,0,0,0,0c0,0,0,0,0,0
				c0,0,0,0,0,0c0,0,0,0,0,0c0,0,0,0,0,0c0,0,0,0,0,0c0,0,0,0,0,0c0,0,0,0,0,0c0,0,0,0,0,0c0,0,0,0,0,0c0,0,0,0,0,0c0,0,0,0,0,0
				c0,0,0,0,0,0c0,0,0,0,0,0c0,0,0,0,0,0c0,0,0,0,0,0c0,0,0,0,0,0c0,0,0,0,0,0c0,0,0,0,0,0c0,0,0,0,0,0c0,0,0,0,0,0c0,0,0,0,0,0
				c0,0,0,0,0,0c0,0,0,0,0,0c0,0,0,0,0,0c0,0.1,0,0.1,0,0.2l0,0c0,0.2,0,0.4,0,0.6l2,0c0-0.4,0-0.9,0-1.3c0-1.5,0-3.1,0.1-4.6
				L4.7,114.1L4.7,114.1z M6.8,126l-2,0.1c0,0.2,0,0.4,0,0.6c0,0,0,0,0,0c0,0,0,0,0,0c0,0,0,0,0,0c0,0,0,0,0,0c0,0,0,0,0,0
				c0,0,0,0,0,0c0,0,0,0,0,0c0,0,0,0,0,0c0,0,0,0,0,0c0,0,0,0,0,0c0,0,0,0,0,0c0,0,0,0,0,0c0,0,0,0,0,0c0,0,0,0,0,0c0,0,0,0,0,0
				c0,0,0,0,0,0c0,0,0,0,0,0c0,0,0,0,0,0c0,0,0,0,0,0c0,0,0,0,0,0c0,0,0,0,0,0c0,0,0,0,0,0c0,0,0,0,0,0c0,0,0,0,0,0c0,0,0,0,0,0
				c0,0,0,0,0,0c0,0,0,0,0,0c0,0,0,0,0,0c0,0,0,0,0,0l0,0c0,0,0,0,0,0l0,0c0,0,0,0,0,0l0,0c0,0,0,0,0,0l0,0c0,0,0,0,0,0l0,0
				c0,0,0,0,0,0l0,0c0,0,0,0,0,0l0,0c0,0,0,0,0,0l0,0c0,0,0,0,0,0l0,0c0,0,0,0,0,0l0,0c0,0,0,0.1,0,0.1l0,0c0,0,0,0.1,0,0.1l0,0
				c0,0,0,0,0,0l0,0c0,0,0,0,0,0l0,0c0,0,0,0.1,0,0.1l0,0c0,0,0,0.1,0,0.1l0,0c0,0,0,0,0,0l0,0c0,0,0,0,0,0l0,0c0,0,0,0,0,0l0,0
				c0,0,0,0,0,0l0,0c0,0,0,0.1,0,0.1l0,0c0,0,0,0.1,0,0.1l0,0c0,0,0,0.1,0,0.1l0,0c0,0.1,0,0.1,0,0.2l0,0c0,0.1,0,0.1,0,0.2l0,0
				c0.1,1,0.2,2,0.3,3l2-0.2C7.1,129.9,6.9,128,6.8,126L6.8,126z M8.1,137.7l-2,0.3c0,0,0,0,0,0c0,0,0,0,0,0c0,0,0,0,0,0
				c0,0,0,0,0,0c0,0,0,0,0,0c0,0,0,0,0,0c0,0,0,0,0,0c0,0,0,0,0,0c0,0,0,0,0,0c0,0,0,0,0,0c0.1,0.7,0.2,1.3,0.3,2c0,0,0,0,0,0
				c0,0,0,0,0,0c0,0,0,0,0,0c0,0,0,0,0,0c0,0,0,0,0,0c0,0,0,0,0,0c0,0,0,0,0,0c0,0,0,0,0,0c0,0,0,0,0,0c0,0,0,0,0,0c0,0,0,0,0,0
				c0,0,0,0,0,0c0,0,0,0,0,0c0,0,0,0,0,0c0,0,0,0,0,0c0,0,0,0,0,0c0,0,0,0,0,0c0,0,0,0,0,0c0,0,0,0,0,0c0,0,0,0,0,0c0,0,0,0,0,0
				c0,0,0,0,0,0c0,0,0,0,0,0c0,0,0,0,0,0c0,0,0,0,0,0c0,0,0,0,0,0c0,0,0,0,0,0c0,0,0,0,0,0c0,0,0,0,0,0c0,0,0,0,0,0c0,0,0,0,0,0
				c0,0,0,0,0,0c0,0,0,0,0,0c0,0,0,0,0,0c0,0,0,0,0,0l0,0c0,0,0,0,0,0l0,0c0.2,1,0.4,1.9,0.6,2.8l2-0.4
				C8.8,141.6,8.4,139.7,8.1,137.7L8.1,137.7z M10.6,149.2l-1.9,0.5c0.1,0.5,0.3,1,0.4,1.5c0,0,0,0,0,0c0,0,0,0,0,0c0,0,0,0,0,0
				c0,0,0,0,0,0c0,0,0,0,0,0c0,0,0,0,0,0c0,0,0,0,0,0c0,0,0,0,0,0c0,0,0,0,0,0c0,0,0,0,0,0c0,0,0,0,0,0c0,0,0,0,0,0c0,0,0,0,0,0
				c0,0,0,0,0,0c0,0,0,0,0,0c0,0,0,0,0,0c0,0,0,0,0,0c0,0,0,0,0,0c0,0,0,0,0,0c0,0,0,0,0,0c0,0,0,0,0,0l0,0c0,0,0,0,0,0c0,0,0,0,0,0
				c0,0,0,0,0,0c0,0,0,0,0,0c0,0,0,0,0,0c0,0,0,0,0,0c0,0,0,0,0,0c0,0,0,0,0,0c0,0,0,0,0,0l0,0c0.4,1.2,0.7,2.4,1.1,3.6l1.9-0.6
				C11.7,153,11.2,151.1,10.6,149.2L10.6,149.2z M14.3,160.4l-1.9,0.7c0.4,1,0.8,2,1.2,3l0,0c0,0,0,0,0,0l0,0c0,0,0,0,0,0
				c0,0,0,0,0,0c0,0,0,0,0,0c0,0,0,0,0,0c0,0,0,0,0,0c0,0,0,0,0,0c0,0,0,0,0,0l0,0c0,0,0,0,0,0l0,0c0,0,0,0,0,0l0,0c0,0,0,0,0,0
				c0,0,0,0,0,0c0,0,0,0,0,0c0,0,0,0,0,0c0,0,0,0,0,0l0,0c0,0,0,0,0,0l0,0c0,0,0,0,0,0l0,0c0.1,0.2,0.1,0.3,0.2,0.5l0,0c0,0,0,0,0,0
				c0,0,0,0,0,0c0,0,0,0,0,0l0,0c0,0,0,0,0,0l0,0c0,0,0,0,0,0l0,0c0,0,0,0,0,0l0,0c0.2,0.5,0.4,0.9,0.6,1.4l1.8-0.8
				C15.8,164.1,15,162.3,14.3,160.4L14.3,160.4z M19.1,171.2l-1.8,0.9c0.1,0.1,0.2,0.3,0.2,0.4c0,0,0,0,0,0c0,0,0,0,0,0c0,0,0,0,0,0
				c0,0,0,0,0,0c0,0,0,0,0,0c0,0,0,0,0,0c0,0,0,0,0,0c0,0,0,0,0,0c0,0,0,0,0,0c0,0,0,0,0,0c0,0,0,0,0,0c0,0,0,0,0,0c0,0,0,0,0,0
				c0,0,0,0,0,0c0,0,0,0,0,0c0,0,0,0,0,0c0.8,1.5,1.6,3,2.5,4.5l1.7-1C21,174.7,20,173,19.1,171.2L19.1,171.2z M25,181.4l-1.7,1.1
				c0.1,0.1,0.1,0.2,0.2,0.3l0,0c0,0,0,0,0,0c0,0,0,0,0,0c0.1,0.1,0.2,0.3,0.3,0.4l0,0c0,0,0,0,0,0c0,0,0,0,0,0c0,0,0,0,0,0
				c0,0,0,0,0,0c0,0,0,0,0,0l0,0c0,0,0,0,0,0c0,0,0,0,0,0c0,0,0,0,0,0c0,0,0,0,0,0c0,0,0,0,0,0c0,0,0,0,0,0c0,0,0,0,0,0c0,0,0,0,0,0
				c0,0,0,0,0,0c0,0,0,0,0,0c0,0,0,0,0,0l0,0c0,0,0,0,0,0c0,0,0,0,0,0c0,0.1,0.1,0.1,0.1,0.2c0,0,0,0,0,0c0,0,0,0,0,0l0,0
				c0,0,0,0,0,0c0,0,0,0,0,0c0,0,0,0,0,0c0,0,0,0,0,0c0,0,0,0,0,0c0,0,0,0,0,0c0,0,0,0,0,0c0,0,0,0,0,0c0,0,0,0,0,0c0,0,0,0,0,0
				c0,0,0,0,0,0c0,0,0,0,0,0c0,0,0,0,0,0c0,0,0,0,0,0c0,0,0,0,0,0c0,0,0,0,0,0c0,0,0,0,0,0c0,0,0,0,0,0c0,0,0,0,0,0l0,0c0,0,0,0,0,0
				c0,0,0,0,0,0c0,0,0,0,0,0c0,0,0,0,0,0c0,0.1,0.1,0.1,0.1,0.2l0,0c0,0,0,0,0,0c0,0,0,0,0,0c0,0,0,0,0,0c0,0,0,0,0,0c0,0,0,0,0,0
				c0,0,0,0,0,0c0,0,0,0,0,0c0,0,0,0,0,0c0,0,0,0,0,0c0,0,0,0,0,0c0,0,0,0,0,0c0,0,0,0,0,0c0,0,0,0,0,0c0,0,0,0,0,0c0,0,0,0,0,0
				c0,0,0,0,0,0c0,0,0,0,0,0c0,0,0,0,0,0c0,0,0,0,0,0c0,0,0,0,0,0c0,0,0,0,0,0c0,0,0,0,0,0c0,0,0,0,0,0c0,0,0,0,0,0c0,0,0,0,0,0
				c0,0,0.1,0.1,0.1,0.1c0,0,0,0,0,0c0,0,0,0,0,0c0,0,0,0,0,0c0,0,0,0,0,0c0,0,0,0,0,0c0,0,0,0,0,0c0,0,0,0,0,0c0,0,0,0,0,0
				c0,0,0,0,0,0c0,0,0,0,0,0c0,0,0,0,0,0c0,0,0,0,0,0c0,0,0,0,0,0c0,0,0,0,0,0c0,0,0,0,0,0c0,0,0,0,0,0c0,0,0,0,0,0c0,0,0,0,0,0
				c0,0,0,0,0,0c0,0,0,0,0,0c0,0,0,0,0,0c0,0,0,0,0,0c0,0,0,0,0,0c0,0,0,0,0,0c0,0,0,0,0,0c0.1,0.1,0.1,0.2,0.2,0.3c0,0,0,0,0,0
				c0,0,0,0,0,0c0,0,0,0,0,0c0,0,0,0.1,0.1,0.1c0,0,0,0,0,0c0.3,0.5,0.7,1,1,1.5l1.6-1.2C27.2,184.7,26.1,183.1,25,181.4L25,181.4z
				 M31.9,191l-1.6,1.3c1,1.3,2,2.5,3.1,3.7c0,0,0,0,0,0c0,0,0,0,0,0c0,0,0,0,0,0c0,0,0,0,0,0c0,0,0,0,0,0c0,0,0,0,0,0c0,0,0,0,0,0
				c0,0,0,0,0,0c0,0,0,0,0,0c0,0,0,0,0,0c0,0,0,0,0,0c0,0,0,0,0,0c0,0,0,0,0,0c0,0,0,0,0,0c0,0,0,0,0,0c0,0,0,0,0,0c0,0,0,0,0,0
				c0,0,0,0,0,0c0,0,0,0,0,0l0,0c0.2,0.2,0.3,0.4,0.5,0.6l1.5-1.3C34.4,194,33.1,192.5,31.9,191L31.9,191z M39.7,199.8l-1.4,1.4
				c1.4,1.4,2.8,2.8,4.3,4.2l1.4-1.5C42.5,202.6,41.1,201.2,39.7,199.8L39.7,199.8z M48.4,207.8l-1.3,1.5c0.1,0.1,0.1,0.1,0.2,0.2
				l0,0c1.5,1.2,3,2.4,4.5,3.5l1.2-1.6C51.5,210.3,49.9,209,48.4,207.8L48.4,207.8z M57.9,214.8l-1.1,1.7c0,0,0,0,0,0c0,0,0,0,0,0
				c0,0,0,0,0,0c0,0,0.1,0.1,0.1,0.1c0,0,0,0,0,0c0,0,0,0,0,0c0,0,0,0,0,0c0,0,0,0,0,0c0,0,0,0,0,0c0,0,0,0,0,0c0,0,0,0,0,0
				c0,0,0,0,0,0c0,0,0,0,0,0c0,0,0,0,0,0c0,0,0,0,0,0c0,0,0,0,0,0c0,0,0,0,0,0c0,0,0,0,0,0c0,0,0,0,0,0c0,0,0,0,0,0c0,0,0,0,0,0
				c0,0,0,0,0,0c0,0,0,0,0,0c0,0,0,0,0,0c0,0,0,0,0,0c0,0,0,0,0,0c0,0,0,0,0,0c0,0,0,0,0,0c1.4,1,2.9,1.9,4.4,2.8c0,0,0,0,0,0
				c0,0,0,0,0,0c0,0,0,0,0,0c0,0,0,0,0,0c0,0,0,0,0,0c0,0,0,0,0,0l1-1.7C61.2,217,59.5,215.9,57.9,214.8L57.9,214.8z M68,220.9
				l-0.9,1.8c1.3,0.7,2.5,1.3,3.8,2c0,0,0,0,0,0c0,0,0,0,0,0l0,0c0,0,0,0,0,0l0,0c0,0,0,0,0,0l0,0c0,0,0,0,0,0c0,0,0,0,0,0
				c0,0,0,0,0,0l0,0c0,0,0,0,0,0l0,0c0.1,0.1,0.3,0.1,0.4,0.2l0,0c0,0,0,0,0,0c0,0,0,0,0,0c0,0,0,0,0,0c0,0,0,0,0,0c0,0,0,0,0,0
				c0,0,0,0,0,0c0,0,0,0,0,0c0,0,0,0,0,0c0,0,0,0,0,0c0,0,0,0,0,0c0,0,0,0,0,0c0,0,0,0,0,0c0,0,0,0,0,0c0,0,0,0,0,0c0,0,0,0,0,0
				c0,0,0,0,0,0c0,0,0,0,0,0c0,0,0,0,0,0c0,0,0,0,0,0c0,0,0,0,0,0c0,0,0,0,0,0l0,0c0,0,0,0,0,0c0,0,0,0,0,0c0.1,0,0.1,0.1,0.2,0.1
				c0,0,0,0,0,0c0,0,0,0,0,0c0,0,0,0,0,0c0,0,0,0,0,0c0,0,0,0,0,0c0,0,0,0,0,0c0,0,0,0,0,0c0,0,0,0,0,0l0,0l0.8-1.8
				C71.5,222.7,69.7,221.8,68,220.9L68,220.9z M78.7,225.9l-0.8,1.9c0.9,0.4,1.8,0.7,2.6,1c0,0,0,0,0,0c0,0,0,0,0,0c0,0,0,0,0,0
				c0,0,0,0,0,0c0,0,0,0,0,0c0,0,0,0,0,0c0,0,0,0,0,0c0,0,0,0,0,0c0,0,0,0,0,0c0,0,0,0,0,0c0,0,0,0,0,0c0,0,0,0,0,0c0,0,0,0,0,0
				c0,0,0,0,0,0c0,0,0,0,0,0c0,0,0,0,0,0c0,0,0,0,0,0c0,0,0,0,0,0c0,0,0,0,0,0c0,0,0,0,0,0c0,0,0,0,0,0c0,0,0,0,0,0c0,0,0,0,0,0
				c0,0,0,0,0,0c0,0,0,0,0,0c0,0,0,0,0,0c0,0,0,0,0,0c0,0,0,0,0,0c0,0,0,0,0,0c0,0,0,0,0,0c0,0,0,0,0,0c0,0,0,0,0,0c0,0,0,0,0,0
				c0,0,0,0,0,0c0,0,0,0,0,0c0.1,0,0.1,0,0.2,0.1c0,0,0,0,0,0c0,0,0,0,0,0c0,0,0,0,0,0c0,0,0,0,0,0c0,0,0,0,0,0c0,0,0,0,0,0
				c0,0,0,0,0,0c0,0,0,0,0,0c0,0,0,0,0,0c0,0,0,0,0,0c0,0,0,0,0,0c0,0,0,0,0,0c0,0,0,0,0,0c0,0,0,0,0,0c0,0,0,0,0,0c0,0,0,0,0,0
				c0,0,0,0,0,0c0,0,0,0,0,0c0,0,0,0,0,0c0,0,0,0,0,0c0,0,0,0,0,0c0,0,0,0,0,0c0,0,0,0,0,0c0,0,0,0,0,0c0,0,0,0,0,0c0,0,0,0,0,0
				c0,0,0,0,0,0c0,0,0,0,0,0c0,0,0,0,0,0c0,0,0,0,0,0c0,0,0,0,0,0c0,0,0,0,0,0c0,0,0,0,0,0c0,0,0,0,0,0c0,0,0,0,0,0c0,0,0,0,0,0
				c0,0,0,0,0,0c0,0,0,0,0,0c0,0,0,0,0,0c0.1,0,0.1,0,0.2,0.1c0,0,0,0,0,0c0,0,0,0,0,0c0,0,0,0,0,0c0,0,0,0,0,0c0,0,0,0,0,0
				c0,0,0,0,0,0c0,0,0,0,0,0c0,0,0,0,0,0c0,0,0,0,0,0c0,0,0,0,0,0c0,0,0,0,0,0c0,0,0,0,0,0c0,0,0,0,0,0c0,0,0,0,0,0c0,0,0,0,0,0
				c0,0,0,0,0,0c0,0,0,0,0,0c0,0,0,0,0,0c0,0,0,0,0,0c0,0,0,0,0,0c0,0,0,0,0,0c0,0,0,0,0,0c0,0,0,0,0,0c0,0,0,0,0,0c0,0,0,0,0,0
				c0,0,0,0,0,0c0,0,0,0,0,0c0,0,0,0,0,0c0,0,0,0,0,0c0,0,0,0,0,0c0,0,0,0,0,0c0,0,0,0,0,0c0,0,0,0,0,0c0,0,0,0,0,0c0,0,0,0,0,0
				c0.1,0,0.3,0.1,0.4,0.1l0.7-1.9C82.3,227.3,80.5,226.6,78.7,225.9L78.7,225.9z M89.8,229.8l-0.6,1.9c1.9,0.6,3.8,1.1,5.8,1.5
				l0.5-1.9C93.6,230.8,91.7,230.3,89.8,229.8L89.8,229.8z M101.3,232.5l-0.4,2c1,0.2,2,0.4,3,0.5l0,0c0,0,0,0,0,0l0,0c0,0,0,0,0,0
				l0,0c0,0,0,0,0,0l0,0c0,0,0,0,0,0l0,0c0,0,0,0,0,0c0,0,0,0,0,0c0,0,0,0,0,0c0,0,0,0,0,0c0,0,0,0,0,0c0,0,0,0,0,0c0,0,0,0,0,0
				c0,0,0,0,0,0c0,0,0,0,0,0c0,0,0,0,0,0c0,0,0,0,0,0c0,0,0,0,0,0c0,0,0,0,0,0c0,0,0,0,0,0c0,0,0,0,0,0c0,0,0,0,0,0c0,0,0,0,0,0
				c0,0,0,0,0,0c0,0,0,0,0,0c0,0,0,0,0,0c0,0,0,0,0,0c0,0,0,0,0,0c0,0,0,0,0,0c0,0,0,0,0,0c0,0,0,0,0,0c0,0,0,0,0,0c0,0,0,0,0,0
				c0.7,0.1,1.4,0.2,2.1,0.3l0.3-2C105.1,233.1,103.2,232.8,101.3,232.5L101.3,232.5z M113,234l-0.2,2c2,0.2,4,0.3,6,0.3l0.1-2
				C116.9,234.3,114.9,234.2,113,234L113,234z M130.6,234.1c-1.9,0.1-3.9,0.2-5.9,0.3l0,2c0,0,0,0,0,0c0,0,0,0,0,0c0,0,0,0,0,0
				c0,0,0,0,0,0c0,0,0,0,0,0c0,0,0,0,0,0c0,0,0,0,0,0c0,0,0,0,0,0c0,0,0,0,0,0c0,0,0,0,0,0c0,0,0,0,0,0c0,0,0,0,0,0c0,0,0,0,0,0
				c0,0,0,0,0,0l0,0c1.9,0,3.8-0.1,5.7-0.3L130.6,234.1L130.6,234.1z M142.3,232.6c-1.9,0.3-3.9,0.6-5.8,0.9l0.2,2
				c1.3-0.2,2.6-0.3,3.8-0.5c0,0,0,0,0,0c0,0,0,0,0,0c0,0,0,0,0,0c0,0,0,0,0,0c0,0,0,0,0,0c0,0,0,0,0,0c0,0,0,0,0,0c0,0,0,0,0,0
				c0,0,0,0,0,0c0,0,0,0,0,0c0,0,0,0,0,0c0,0,0,0,0,0c0,0,0,0,0,0c0,0,0,0,0,0c0,0,0,0,0,0c0,0,0,0,0,0c0,0,0,0,0,0c0,0,0,0,0,0
				c0,0,0,0,0,0c0,0,0,0,0,0c0,0,0,0,0,0c0,0,0,0,0,0c0,0,0,0,0,0c0,0,0,0,0,0c0,0,0,0,0,0c0,0,0,0,0,0c0,0,0,0,0,0c0,0,0,0,0,0
				c0,0,0,0,0,0c0,0,0,0,0,0c0,0,0,0,0,0l0,0c0,0,0,0,0,0l0,0c0,0,0,0,0,0l0,0c0.4-0.1,0.9-0.1,1.3-0.2L142.3,232.6L142.3,232.6z
				 M153.8,230c-1.9,0.5-3.8,1-5.7,1.5l0.4,1.9c0.5-0.1,1.1-0.3,1.6-0.4c0,0,0,0,0,0c0,0,0,0,0,0c0,0,0,0,0,0c0,0,0,0,0,0
				c0,0,0,0,0,0c0,0,0,0,0,0c0,0,0,0,0,0c0,0,0,0,0,0c0,0,0,0,0,0c0,0,0,0,0,0c0,0,0,0,0,0c0,0,0,0,0,0c0,0,0,0,0,0c0,0,0,0,0,0
				c0,0,0,0,0,0c0,0,0,0,0,0c0,0,0,0,0,0c0,0,0,0,0,0c0,0,0,0,0,0c0,0,0,0,0,0c0,0,0,0,0,0c0,0,0,0,0,0c0,0,0,0,0,0c0,0,0,0,0,0
				c0,0,0,0,0,0c0,0,0,0,0,0c0,0,0,0,0,0c0,0,0,0,0,0c0,0,0,0,0,0c0,0,0,0,0,0c0,0,0,0,0,0c0,0,0,0,0,0c0,0,0,0,0,0c0,0,0,0,0,0
				c0,0,0,0,0,0c0,0,0,0,0,0c0,0,0,0,0,0c0,0,0,0,0,0c0,0,0,0,0,0c0,0,0,0,0,0c0,0,0,0,0,0c0,0,0,0,0,0c0,0,0,0,0,0c0,0,0,0,0,0
				c0,0,0,0,0,0c0,0,0,0,0,0c0,0,0,0,0,0c1.1-0.3,2.1-0.6,3.2-0.9L153.8,230L153.8,230z M165,226.2c-1.8,0.7-3.7,1.4-5.5,2l0.6,1.9
				c1.8-0.6,3.7-1.3,5.5-2l0,0c0,0,0,0,0,0c0,0,0,0,0,0c0,0,0,0,0,0c0,0,0,0,0,0c0,0,0,0,0,0c0,0,0,0,0,0c0,0,0,0,0,0c0,0,0,0,0,0
				L165,226.2L165,226.2z M175.7,221.2c-1.7,0.9-3.5,1.8-5.3,2.6l0.8,1.8c0.4-0.2,0.8-0.4,1.2-0.6c0,0,0,0,0,0c0,0,0,0,0,0
				c0,0,0,0,0,0c0,0,0,0,0,0c0,0,0,0,0,0c0,0,0,0,0,0c0,0,0,0,0,0c0,0,0,0,0,0c0,0,0,0,0,0c0,0,0,0,0,0c0,0,0,0,0,0c0,0,0,0,0,0
				c0,0,0,0,0,0c0,0,0,0,0,0c0,0,0,0,0,0l0,0c0,0,0,0,0,0l0,0c0,0,0,0,0,0l0,0c1-0.5,2-1,3-1.5c0,0,0,0,0,0c0,0,0,0,0,0c0,0,0,0,0,0
				c0,0,0,0,0,0c0,0,0,0,0,0c0,0,0,0,0,0c0,0,0,0,0,0c0,0,0,0,0,0c0,0,0,0,0,0c0,0,0,0,0,0c0,0,0,0,0,0c0,0,0,0,0,0c0,0,0,0,0,0
				c0,0,0,0,0,0c0,0,0,0,0,0c0,0,0,0,0,0c0.1-0.1,0.3-0.2,0.4-0.2L175.7,221.2L175.7,221.2z M185.8,215.2c-1.6,1.1-3.3,2.1-5,3.1
				l1,1.7c0.4-0.2,0.8-0.5,1.2-0.7c0,0,0,0,0,0c0,0,0,0,0,0c0,0,0,0,0,0c0,0,0,0,0,0c0,0,0,0,0,0c0,0,0,0,0,0c0,0,0,0,0,0
				c0,0,0,0,0,0c0,0,0,0,0,0c0,0,0,0,0,0c0,0,0,0,0,0c0,0,0,0,0,0c0,0,0,0,0,0c0,0,0,0,0,0c0,0,0,0,0,0c0,0,0,0,0,0c0,0,0,0,0,0
				c0,0,0,0,0,0c0,0,0,0,0,0c0,0,0,0,0,0c0,0,0,0,0,0c0,0,0,0,0,0c1.2-0.7,2.3-1.4,3.4-2.2L185.8,215.2L185.8,215.2z M195.3,208.2
				c-1.5,1.2-3.1,2.5-4.7,3.6l1.2,1.6c1.4-1,2.7-2,4-3.1c0,0,0,0,0,0c0,0,0,0,0,0c0,0,0,0,0,0c0,0,0,0,0,0c0,0,0,0,0,0c0,0,0,0,0,0
				c0,0,0,0,0,0c0,0,0,0,0,0c0,0,0,0,0,0c0,0,0,0,0,0c0,0,0,0,0,0c0,0,0,0,0,0c0,0,0,0,0,0c0,0,0,0,0,0c0,0,0,0,0,0c0,0,0,0,0,0
				c0,0,0,0,0,0c0,0,0,0,0,0c0,0,0.1-0.1,0.1-0.1c0,0,0,0,0,0c0.1-0.1,0.2-0.2,0.3-0.2L195.3,208.2L195.3,208.2z M204.1,200.3
				c-1.4,1.4-2.8,2.8-4.3,4.1l1.3,1.5c0.5-0.4,0.9-0.8,1.4-1.3c0,0,0,0,0,0c0,0,0,0,0,0c0,0,0,0,0,0c0,0,0,0,0,0c0,0,0,0,0,0
				c0,0,0,0,0,0c0,0,0,0,0,0c0,0,0,0,0,0c0,0,0,0,0,0c0,0,0,0,0,0c0,0,0,0,0,0c0,0,0,0,0,0c0,0,0,0,0,0c0,0,0,0,0,0c0,0,0,0,0,0
				c0,0,0,0,0,0c0,0,0,0,0,0c0,0,0,0,0,0c0,0,0,0,0,0c0,0,0,0,0,0c0,0,0,0,0,0c0,0,0,0,0,0c0,0,0.1-0.1,0.1-0.1c0,0,0,0,0,0
				c0,0,0,0,0,0c0,0,0,0,0,0c0,0,0,0,0,0c0,0,0,0,0,0c0,0,0,0,0,0c0,0,0,0,0,0c0,0,0,0,0,0c0,0,0,0,0,0c0,0,0,0,0,0c0,0,0,0,0,0
				c0,0,0,0,0,0c0,0,0,0,0,0c0,0,0,0,0,0c0,0,0,0,0,0c0,0,0,0,0,0c0,0,0,0,0,0c0,0,0,0,0,0c0,0,0,0,0,0c0,0,0,0,0,0c0,0,0,0,0,0
				c0,0,0,0,0,0c0,0,0,0,0,0c0.1-0.1,0.2-0.2,0.2-0.2c0,0,0,0,0,0c0,0,0,0,0,0c0,0,0,0,0,0c0,0,0,0,0,0c0,0,0,0,0,0c0,0,0,0,0,0
				c0,0,0,0,0,0c0,0,0,0,0,0c0,0,0,0,0,0c0,0,0,0,0,0c0,0,0,0,0,0c0,0,0,0,0,0c0,0,0,0,0,0c0,0,0,0,0,0c0,0,0,0,0,0c0,0,0,0,0,0
				c0,0,0,0,0,0c0.1-0.1,0.2-0.2,0.3-0.3c0,0,0,0,0,0c0,0,0,0,0,0c0,0,0,0,0,0c0,0,0,0,0,0c0,0,0,0,0,0c0,0,0,0,0,0c0,0,0,0,0,0
				c0,0,0,0,0,0c0,0,0,0,0,0c0,0,0,0,0,0c0,0,0,0,0,0c0.1-0.1,0.3-0.3,0.4-0.4c0,0,0,0,0,0c0.2-0.2,0.5-0.5,0.7-0.7L204.1,200.3
				L204.1,200.3z M211.9,191.5c-1.2,1.5-2.5,3-3.8,4.5l1.5,1.3c0.9-1,1.8-2,2.6-3l0,0c0,0,0,0,0,0l0,0c0,0,0,0,0,0l0,0c0,0,0,0,0,0
				l0,0c0.4-0.5,0.8-0.9,1.2-1.4L211.9,191.5L211.9,191.5z M218.9,182c-1.1,1.6-2.2,3.3-3.4,4.9l1.6,1.2c0.8-1.1,1.6-2.3,2.4-3.4
				c0,0,0,0,0,0c0,0,0,0,0,0c0,0,0,0,0,0c0,0,0,0,0,0c0,0,0,0,0,0c0,0,0,0,0,0c0,0,0,0,0,0c0,0,0,0,0,0c0,0,0,0,0,0c0,0,0,0,0,0
				c0,0,0,0,0,0c0,0,0,0,0,0c0,0,0,0,0,0c0,0,0,0,0,0c0,0,0,0,0,0c0,0,0,0,0,0c0,0,0,0,0,0c0,0,0,0,0,0c0,0,0,0,0,0c0,0,0,0,0,0
				c0,0,0,0,0,0c0,0,0,0,0,0c0,0,0,0,0,0c0,0,0,0,0,0c0,0,0,0,0,0c0,0,0,0,0,0c0,0,0,0,0,0l0,0c0,0,0,0,0,0c0,0,0,0,0,0c0,0,0,0,0,0
				l0,0c0,0,0,0,0,0c0,0,0,0,0,0c0.2-0.3,0.4-0.6,0.6-0.9L218.9,182L218.9,182z M224.8,171.8c-0.9,1.7-1.9,3.5-2.8,5.2l1.7,1
				c0,0,0,0,0,0c0,0,0,0,0,0c0,0,0,0,0,0c0,0,0,0,0,0c0,0,0,0,0,0c0,0,0,0,0,0c0,0,0,0,0,0c0,0,0,0,0,0c0,0,0,0,0,0c0,0,0,0,0,0
				c0,0,0,0,0,0c0,0,0,0,0,0c0,0,0,0,0,0c0,0,0,0,0,0c0,0,0,0,0,0c0,0,0,0,0,0c0,0,0,0,0,0c0,0,0,0,0,0c0,0,0,0,0,0c0,0,0,0,0,0
				c0,0,0,0,0,0c0,0,0,0,0,0c0,0,0,0,0,0c0,0,0,0,0,0c0.1-0.1,0.1-0.3,0.2-0.4c0,0,0,0,0,0c0,0,0,0,0,0c0,0,0,0,0,0c0,0,0,0,0,0
				c0,0,0,0,0,0c0,0,0,0,0,0c0,0,0,0,0,0c0,0,0,0,0,0c0,0,0,0,0,0c0,0,0,0,0,0c0,0,0,0,0,0c0,0,0,0,0,0c0,0,0,0,0,0c0,0,0,0,0,0
				c0,0,0,0,0,0c0,0,0,0,0,0c0,0,0,0,0,0c0,0,0,0,0,0c0,0,0,0,0,0c0.1-0.1,0.1-0.2,0.2-0.3c0,0,0,0,0,0c0,0,0,0,0,0c0,0,0,0,0,0
				c0,0,0,0,0,0c0,0,0,0,0,0c0,0,0,0,0,0c0,0,0,0,0,0c0,0,0,0,0,0c0,0,0,0,0,0c0,0,0,0,0,0c0,0,0,0,0,0c0,0,0,0,0,0c0,0,0,0,0,0
				c0,0,0,0,0,0c0,0,0,0,0,0c0,0,0,0,0,0c0,0,0,0,0,0c0,0,0,0,0,0c0,0,0,0,0,0c0,0,0,0,0,0c0,0,0,0,0,0c0,0,0,0,0,0c0,0,0,0,0,0
				c0,0,0,0,0,0c0,0,0,0,0,0c0,0,0,0,0,0c0,0,0,0,0,0c0,0,0,0,0,0c0,0,0-0.1,0-0.1c0,0,0,0,0,0c0,0,0,0,0,0c0,0,0,0,0,0c0,0,0,0,0,0
				c0,0,0,0,0,0c0,0,0,0,0,0c0,0,0,0,0,0c0,0,0,0,0,0c0,0,0,0,0,0c0,0,0,0,0,0c0,0,0,0,0,0c0,0,0,0,0,0c0,0,0,0,0,0c0,0,0,0,0,0
				c0,0,0,0,0,0c0,0,0,0,0,0c0,0,0,0,0,0c0,0,0,0,0,0c0,0,0,0,0,0c0,0,0,0,0,0c0,0,0,0,0,0c0,0,0,0,0,0c0,0,0,0,0,0c0,0,0,0,0,0
				c0,0,0,0,0,0c0,0,0,0,0,0l0,0c0.5-0.9,0.9-1.7,1.4-2.6L224.8,171.8L224.8,171.8z M229.7,161.1c-0.7,1.8-1.5,3.6-2.3,5.4l1.8,0.8
				c0.3-0.7,0.6-1.4,0.9-2c0,0,0,0,0,0c0,0,0,0,0,0c0,0,0,0,0,0c0,0,0,0,0,0c0,0,0,0,0,0c0,0,0,0,0,0c0,0,0,0,0,0c0,0,0,0,0,0
				c0,0,0,0,0,0c0,0,0,0,0,0c0,0,0,0,0,0c0,0,0,0,0,0c0,0,0,0,0,0c0,0,0,0,0,0c0,0,0,0,0,0c0,0,0,0,0,0c0,0,0,0,0,0c0,0,0,0,0,0
				c0,0,0,0,0,0c0,0,0,0,0,0c0,0,0,0,0,0c0,0,0,0,0,0c0,0,0,0,0,0c0,0,0,0,0,0c0,0,0,0,0,0c0,0,0,0,0,0c0,0,0,0,0,0l0,0
				c0.2-0.4,0.4-0.9,0.6-1.3l0,0c0,0,0,0,0,0c0,0,0,0,0,0c0,0,0,0,0,0c0,0,0,0,0,0c0,0,0,0,0,0c0,0,0,0,0,0c0,0,0,0,0,0c0,0,0,0,0,0
				c0,0,0,0,0,0c0,0,0,0,0,0c0,0,0,0,0,0c0,0,0,0,0,0c0,0,0,0,0,0c0,0,0,0,0,0c0,0,0,0,0,0c0,0,0,0,0,0c0,0,0,0,0,0c0,0,0,0,0,0
				c0,0,0,0,0,0c0,0,0,0,0,0c0,0,0,0,0,0c0,0,0,0,0,0c0,0,0,0,0,0c0,0,0,0,0,0c0,0,0,0,0,0c0,0,0,0,0,0c0,0,0,0,0,0
				c0.1-0.3,0.3-0.7,0.4-1L229.7,161.1L229.7,161.1z M233.5,149.9c-0.5,1.9-1.1,3.8-1.7,5.6l1.9,0.6c0.3-0.8,0.5-1.6,0.8-2.4
				c0,0,0,0,0,0c0,0,0,0,0,0c0,0,0,0,0,0c0,0,0,0,0,0c0,0,0,0,0,0c0.1-0.3,0.2-0.6,0.3-0.9c0,0,0,0,0,0c0,0,0,0,0,0c0,0,0,0,0,0
				c0,0,0,0,0,0c0,0,0,0,0,0c0,0,0,0,0,0c0,0,0,0,0,0c0,0,0,0,0,0c0,0,0,0,0,0c0,0,0,0,0,0c0,0,0,0,0,0c0,0,0,0,0,0c0,0,0,0,0,0
				c0,0,0,0,0,0c0,0,0,0,0,0c0,0,0,0,0,0c0,0,0,0,0,0c0,0,0,0,0,0c0,0,0,0,0,0c0,0,0,0,0,0c0,0,0,0,0,0c0,0,0,0,0,0c0,0,0,0,0,0
				c0,0,0,0,0,0c0,0,0,0,0,0c0-0.1,0.1-0.3,0.1-0.4c0,0,0,0,0,0c0,0,0,0,0,0c0,0,0,0,0,0c0,0,0,0,0,0c0,0,0,0,0,0c0,0,0,0,0,0
				c0,0,0,0,0,0c0,0,0,0,0,0c0,0,0,0,0,0c0,0,0,0,0,0c0,0,0,0,0,0c0,0,0,0,0,0c0,0,0,0,0,0c0,0,0,0,0,0c0,0,0,0,0,0c0,0,0,0,0,0
				c0,0,0,0,0,0c0,0,0,0,0,0c0,0,0,0,0,0c0,0,0,0,0,0c0,0,0,0,0,0c0,0,0,0,0,0c0,0,0,0,0,0c0,0,0,0,0,0c0,0,0,0,0,0c0,0,0,0,0,0
				c0,0,0,0,0,0c0,0,0,0,0,0c0,0,0,0,0,0c0,0,0,0,0,0c0,0,0,0,0,0l0,0c0.1-0.2,0.1-0.5,0.2-0.7L233.5,149.9L233.5,149.9z M236,138.4
				c-0.3,1.9-0.7,3.9-1.1,5.8l2,0.4c0.1-0.7,0.3-1.3,0.4-2l0,0c0,0,0,0,0,0c0,0,0,0,0,0c0,0,0,0,0,0c0,0,0,0,0,0c0,0,0,0,0,0
				c0,0,0,0,0,0c0,0,0,0,0,0c0,0,0,0,0,0c0,0,0,0,0,0c0,0,0,0,0,0c0,0,0,0,0,0c0,0,0,0,0,0c0,0,0,0,0,0c0,0,0,0,0,0c0,0,0,0,0,0
				c0,0,0,0,0,0c0,0,0,0,0,0c0,0,0,0,0,0c0,0,0,0,0,0c0,0,0,0,0,0c0,0,0,0,0,0c0.2-1.1,0.4-2.3,0.6-3.4L236,138.4L236,138.4z
				 M237.4,126.7c-0.1,2-0.3,3.9-0.5,5.9l2,0.2c0.1-0.5,0.1-0.9,0.2-1.4c0,0,0,0,0,0c0,0,0,0,0,0c0,0,0,0,0,0c0,0,0,0,0,0
				c0,0,0,0,0,0c0,0,0,0,0,0c0,0,0,0,0,0c0,0,0,0,0,0c0,0,0,0,0,0c0,0,0,0,0,0c0,0,0,0,0,0c0,0,0,0,0,0c0,0,0,0,0,0l0,0c0,0,0,0,0,0
				l0,0c0,0,0,0,0,0l0,0c0,0,0,0,0,0l0,0c0.1-1.4,0.3-2.7,0.3-4.1L237.4,126.7L237.4,126.7z M239.6,114.8l-2,0.1
				c0,1.3,0.1,2.6,0.1,3.9c0,0.7,0,1.3,0,2l2,0c0-0.2,0-0.5,0-0.7c0,0,0,0,0,0c0,0,0-0.1,0-0.1c0,0,0,0,0,0c0,0,0,0,0,0c0,0,0,0,0,0
				c0,0,0,0,0,0c0,0,0,0,0,0c0,0,0,0,0,0c0,0,0,0,0,0c0,0,0,0,0,0c0,0,0,0,0,0c0,0,0,0,0,0c0,0,0,0,0,0c0,0,0,0,0,0c0,0,0,0,0,0
				c0,0,0,0,0,0c0,0,0,0,0,0c0,0,0,0,0,0c0,0,0,0,0,0c0,0,0,0,0,0c0,0,0,0,0,0c0,0,0,0,0,0c0,0,0,0,0,0c0,0,0,0,0,0c0,0,0,0,0,0
				c0,0,0,0,0,0c0,0,0,0,0,0c0,0,0,0,0,0c0,0,0,0,0,0c0,0,0,0,0,0c0,0,0,0,0,0c0,0,0,0,0,0c0,0,0,0,0,0c0,0,0,0,0,0c0,0,0,0,0,0
				c0,0,0,0,0,0c0,0,0,0,0,0c0,0,0,0,0,0c0,0,0,0,0,0c0,0,0,0,0,0c0,0,0,0,0,0c0,0,0,0,0,0c0,0,0,0,0,0c0,0,0,0,0,0c0,0,0,0,0,0
				c0,0,0,0,0,0c0,0,0,0,0,0c0,0,0,0,0,0c0,0,0,0,0,0c0,0,0,0,0,0c0,0,0,0,0,0c0,0,0,0,0,0c0,0,0,0,0,0c0,0,0,0,0,0l0,0l0,0
				c0,0,0,0,0-0.1c0,0,0,0,0,0c0,0,0,0,0,0c0,0,0,0,0,0c0,0,0,0,0,0c0,0,0,0,0,0c0,0,0,0,0-0.1c0,0,0,0,0,0c0,0,0,0,0,0c0,0,0,0,0,0
				c0,0,0,0,0,0c0,0,0,0,0,0c0,0,0,0,0-0.1c0,0,0,0,0,0c0,0,0,0,0,0c0,0,0,0,0,0c0,0,0,0,0,0c0,0,0,0,0,0c0,0,0,0,0-0.1c0,0,0,0,0,0
				c0,0,0,0,0,0c0,0,0,0,0,0c0,0,0,0,0,0c0,0,0,0,0,0c0,0,0-0.1,0-0.1c0,0,0,0,0,0c0,0,0,0,0,0c0,0,0,0,0,0c0,0,0,0,0-0.1
				c0,0,0,0,0,0c0,0,0,0,0-0.1c0,0,0,0,0,0c0,0,0,0,0,0c0,0,0,0,0,0c0,0,0,0,0-0.1l0,0c0,0,0,0,0-0.1c0,0,0,0,0,0c0,0,0,0,0-0.1
				c0,0,0,0,0,0c0,0,0,0,0,0c0,0,0,0,0,0c0,0,0-0.1,0-0.1c0,0,0,0,0,0c0,0,0,0,0,0c0,0,0,0,0,0c0,0,0-0.1,0-0.1c0,0,0,0,0,0
				c0,0,0,0,0,0c0,0,0,0,0,0c0,0,0,0,0-0.1l0,0c0,0,0,0,0-0.1l0,0c0,0,0,0,0,0c0,0,0,0,0,0c0,0,0,0,0,0c0,0,0,0,0,0c0,0,0,0,0-0.1
				c0,0,0,0,0,0c0,0,0,0,0,0c0,0,0,0,0,0c0,0,0,0,0,0c0,0,0,0,0,0c0,0,0,0,0-0.1l0,0c0,0,0,0,0-0.1c0,0,0,0,0,0c0,0,0,0,0,0
				c0,0,0,0,0,0c0,0,0,0,0-0.1l0,0c0,0,0,0,0-0.1c0,0,0,0,0,0c0,0,0,0,0,0c0,0,0,0,0,0c0,0,0,0,0,0c0,0,0,0,0,0c0,0,0,0,0-0.1
				c0,0,0,0,0,0c0,0,0,0,0,0c0,0,0,0,0,0c0,0,0,0,0,0c0,0,0,0,0,0c0,0,0,0,0-0.1c0,0,0,0,0,0c0,0,0,0,0,0c0,0,0,0,0,0c0,0,0,0,0,0
				c0,0,0,0,0,0c0,0,0,0,0,0c0,0,0,0,0-0.1c0,0,0,0,0,0c0,0,0,0,0,0c0,0,0,0,0,0c0,0,0,0,0,0c0,0,0,0,0,0c0,0,0-0.1,0-0.1
				c0,0,0,0,0,0C239.7,115.3,239.6,115.1,239.6,114.8L239.6,114.8z M238.6,102.9l-2,0.3c0.3,1.9,0.5,3.9,0.6,5.9l2-0.2c0,0,0,0,0,0
				c0,0,0,0,0,0c0,0,0,0,0,0c0,0,0,0,0,0c0,0,0,0,0,0c0,0,0,0,0,0c0,0,0,0,0,0c0,0,0,0,0,0c0,0,0,0,0,0c0,0,0,0,0,0c0,0,0,0,0,0
				c0,0,0,0,0,0c0,0,0,0,0,0c0,0,0,0,0,0c0,0,0,0,0,0c0,0,0,0,0,0c0,0,0,0,0,0c0,0,0,0,0,0c0,0,0,0,0,0c0,0,0,0,0,0c0,0,0,0,0,0
				c0,0,0,0,0,0c0,0,0,0,0,0c0,0,0,0,0,0c0,0,0,0,0,0c0,0,0,0,0,0c0,0,0,0,0,0c0,0,0,0,0,0c0,0,0,0,0,0c0,0,0,0,0,0c0,0,0,0,0,0
				c0,0,0,0,0,0c-0.1-1.5-0.3-3.1-0.5-4.6c0,0,0,0,0,0c0,0,0,0,0,0c0,0,0,0,0,0c0,0,0,0,0,0c0,0,0,0,0,0c0,0,0,0,0,0c0,0,0,0,0,0
				c0,0,0,0,0,0c0,0,0,0,0,0c0,0,0,0,0,0c0,0,0,0,0,0c0,0,0,0,0,0c0,0,0,0,0,0c0,0,0,0,0,0c0,0,0,0,0,0c0,0,0,0,0,0c0,0,0,0,0,0l0,0
				c0,0,0,0,0,0l0,0C238.7,103,238.6,103,238.6,102.9L238.6,102.9z M236.4,91.1l-1.9,0.5c0.5,1.9,0.9,3.8,1.2,5.8l2-0.4
				c-0.1-0.4-0.1-0.8-0.2-1.2l0,0c0,0,0,0,0,0l0,0c0,0,0,0,0,0l0,0c0,0,0,0,0,0l0,0c0,0,0,0,0,0c0,0,0,0,0,0c0,0,0,0,0,0
				c0,0,0,0,0,0c0,0,0,0,0,0c0,0,0,0,0,0c0,0,0,0,0,0c0,0,0,0,0,0c0,0,0,0,0,0c0,0,0,0,0,0c0,0,0,0,0,0c0,0,0,0,0,0c0,0,0,0,0,0
				c0,0,0,0,0,0c0,0,0,0,0,0c0,0,0,0,0,0c0,0,0,0,0,0c0,0,0,0,0,0c0,0,0,0,0,0c0,0,0,0,0,0c0,0,0,0,0,0c0,0,0,0,0,0c0,0,0,0,0,0
				c0,0,0,0,0,0c0,0,0,0,0,0c0,0,0,0,0,0c0,0,0,0,0,0c0,0,0,0,0,0c0,0,0,0,0,0c0,0,0,0,0,0c0,0,0,0,0,0c0,0,0,0,0,0c0,0,0,0,0,0
				c0-0.1-0.1-0.3-0.1-0.4c0,0,0,0,0,0c0,0,0,0,0,0c0,0,0,0,0,0c0,0,0,0,0,0c0,0,0,0,0,0c0,0,0,0,0,0c0,0,0,0,0,0c0,0,0,0,0,0
				c0,0,0,0,0,0c0,0,0,0,0,0c0,0,0,0,0,0c0,0,0,0,0,0c0,0,0,0,0,0c0,0,0,0,0,0c0,0,0,0,0,0c0,0,0,0,0,0c0,0,0,0,0,0c0,0,0,0,0,0
				c0,0,0,0,0,0c0,0,0,0,0,0c0,0,0,0,0,0c0,0,0,0,0,0c0,0,0,0,0,0c0,0,0,0,0,0c0,0,0,0,0,0c0,0,0,0,0,0c0,0,0,0,0,0c0,0,0,0,0,0
				c0,0,0,0,0,0c0,0,0,0,0,0c0,0,0,0,0,0c0,0,0,0,0,0c0,0,0,0,0,0c0,0,0,0,0,0c0,0,0,0,0,0c0,0,0,0,0,0c0,0,0,0,0,0c0,0,0,0,0,0
				c0,0,0,0,0,0c0,0,0,0,0,0c0,0,0,0,0,0c0,0,0,0,0,0c0,0,0,0,0,0c0,0,0,0,0,0c0,0,0,0,0,0c0,0,0,0,0,0c0,0,0,0,0,0c0,0,0,0,0,0
				c0,0,0,0,0,0c0,0,0,0,0,0c0,0,0,0,0,0c0,0,0,0,0,0c0,0,0,0,0,0l0,0c0,0,0,0,0,0l0,0C236.8,92.6,236.6,91.8,236.4,91.1L236.4,91.1
				z M233,79.6l-1.9,0.7c0.7,1.8,1.3,3.7,1.8,5.6l1.9-0.6c-0.5-1.5-0.9-3-1.4-4.5l0,0c0,0,0,0,0,0l0,0c0,0,0,0,0,0c0,0,0,0,0,0
				c0,0,0,0,0,0c0,0,0,0,0,0c0,0,0,0,0,0c0,0,0,0,0,0c0,0,0,0,0,0c0,0,0,0,0,0c0,0,0,0,0,0c0,0,0,0,0,0c0,0,0,0,0,0c0,0,0,0,0,0
				c0,0,0,0,0,0c0,0,0,0,0,0c0,0,0,0,0,0c0,0,0,0,0,0c0,0,0,0,0,0c0,0,0,0,0,0c0,0,0,0,0,0c0,0,0,0,0,0c0,0,0,0,0,0c0,0,0,0,0,0
				c0,0,0,0,0,0c0,0,0,0,0,0c0,0,0,0,0,0c0,0,0,0,0,0c0,0,0,0,0,0c0,0,0,0,0,0c0,0,0,0,0,0c0,0,0,0,0,0c0,0,0,0,0,0c0,0,0,0,0,0
				c0,0,0,0,0,0C233.1,79.9,233.1,79.8,233,79.6L233,79.6z M228.4,68.5l-1.8,0.9c0.8,1.8,1.6,3.6,2.4,5.4l1.8-0.8
				c-0.6-1.6-1.3-3.1-2-4.6c0,0,0,0,0,0c0,0,0,0,0,0c0,0,0,0,0,0c0,0,0,0,0,0c0,0,0,0,0,0c0,0,0,0,0,0c0,0,0,0,0,0c0,0,0,0,0,0
				c0,0,0,0,0,0c0,0,0,0,0,0c0,0,0,0,0,0c0,0,0,0,0,0c0,0,0,0,0,0c0,0,0,0,0,0c0,0,0,0,0,0c0,0,0,0,0,0c0,0,0,0,0,0c0,0,0,0,0,0
				c0,0,0,0,0,0l0,0C228.6,68.8,228.5,68.7,228.4,68.5L228.4,68.5z M222.7,58l-1.7,1c1,1.7,2,3.4,2.9,5.1l1.8-0.9
				c-0.2-0.4-0.4-0.8-0.7-1.2c0,0,0,0,0,0c0,0,0,0,0,0c0,0,0,0,0,0c0,0,0,0,0,0c0,0,0,0,0,0c0,0,0,0,0,0c0,0,0,0,0,0c0,0,0,0,0,0
				c0,0,0,0,0,0c0,0,0,0,0,0C224.2,60.5,223.5,59.2,222.7,58L222.7,58z M216,48l-1.6,1.2c1.2,1.6,2.3,3.2,3.4,4.8l1.7-1.1
				c-0.4-0.5-0.7-1-1.1-1.5l0,0c0,0,0,0-0.1-0.1c0,0,0,0,0,0c0,0,0,0,0,0c0,0,0,0,0,0c0,0,0,0,0,0c0,0,0,0,0,0c0,0,0,0,0,0
				c0,0,0,0,0,0c0,0,0,0,0,0c0,0,0,0,0,0c0,0,0,0,0,0c0,0,0,0,0,0c0,0,0,0,0,0c0,0,0,0,0,0c0,0,0,0,0,0c0,0,0,0,0,0c0,0,0,0,0,0
				c0,0,0,0,0,0c0,0,0,0,0,0c0,0,0,0,0,0c0,0,0,0,0,0c0,0,0,0,0,0c0,0,0,0,0,0c0,0,0,0,0,0c0,0,0,0,0,0c0,0,0,0,0,0c0,0,0,0,0,0
				c0,0,0,0,0,0c0,0,0,0,0,0c0,0,0,0,0,0c0,0,0,0,0,0c0,0,0,0,0,0c0,0,0,0,0,0c0,0,0,0,0,0c0,0,0,0,0,0c0,0,0,0,0,0c0,0,0,0,0,0
				c0,0,0,0,0,0c0,0,0,0,0,0c0,0,0,0,0,0c0,0,0,0,0,0c0,0,0,0,0,0c0,0,0,0,0,0c0,0,0,0,0,0c0,0,0,0,0,0
				C217.2,49.6,216.6,48.8,216,48L216,48z M208.3,38.8l-1.5,1.4c1.3,1.4,2.6,2.9,3.9,4.4l1.5-1.3c-0.6-0.7-1.2-1.4-1.7-2l0,0
				c0,0,0,0,0,0c0,0,0,0,0,0c0,0,0,0,0,0c0,0,0,0,0,0c0,0,0,0,0,0c0,0,0,0,0,0c0,0,0,0,0,0c0,0,0,0,0,0c0,0,0,0,0,0c0,0,0,0,0,0
				c0,0,0,0,0,0c0,0,0,0,0,0c0,0,0,0,0,0c0,0,0,0,0,0c0,0,0,0,0,0c0,0,0,0,0,0c0,0,0,0,0,0c0,0,0,0,0,0c0,0,0,0,0,0c0,0,0,0,0,0
				c0,0,0,0,0,0c0,0,0,0,0,0c0,0,0,0,0,0c0,0-0.1-0.1-0.1-0.1c0,0,0,0,0,0c0,0,0,0-0.1-0.1c0,0,0,0,0,0c0,0,0,0,0,0c0,0,0,0,0,0
				c0,0,0,0,0,0c0,0,0,0,0,0c0,0,0,0,0,0c0,0,0,0,0,0c0,0,0,0,0,0c0,0,0,0,0,0c0,0,0,0,0,0c0,0,0,0,0,0c0,0,0,0,0,0c0,0,0,0,0,0
				c0,0,0,0,0,0c0,0,0,0,0,0c0,0,0,0,0,0c0,0,0,0,0,0c0,0,0,0,0,0c0,0,0,0,0,0c0,0,0,0,0,0c0,0,0,0,0,0c0,0,0,0,0,0c0,0,0,0,0,0
				c0-0.1-0.1-0.1-0.1-0.2c0,0,0,0,0,0c0,0,0,0,0,0c0,0,0,0,0,0c0,0,0,0,0,0c0,0,0,0,0,0c0,0,0,0,0,0c0,0,0,0,0,0c0,0,0,0,0,0
				c0,0,0,0,0,0c0,0,0,0,0,0c0,0,0,0,0,0c0,0,0,0,0,0c0,0,0,0,0,0c0,0,0,0,0,0c0,0,0,0,0,0c0,0,0,0,0,0c0,0,0,0,0,0c0,0,0,0,0,0
				c0,0,0,0,0,0c0,0,0,0,0,0c0,0,0,0,0,0c0,0,0,0,0,0c0,0,0,0,0,0l0,0C208.9,39.5,208.6,39.2,208.3,38.8L208.3,38.8z M199.7,30.5
				l-1.3,1.5c1.5,1.3,2.9,2.6,4.3,4l1.4-1.4c-1-0.9-2-1.9-3-2.8c0,0,0,0,0,0c0,0,0,0,0,0c0,0,0,0,0,0c0,0,0,0,0,0c0,0,0,0,0,0
				c0,0,0,0,0,0c0,0,0,0,0,0c0,0,0,0,0,0c0,0,0,0,0,0c0,0,0,0,0,0c0,0,0,0,0,0c0,0,0,0,0,0c0,0,0,0,0,0c0,0,0,0,0,0
				C200.5,31.2,200.1,30.8,199.7,30.5L199.7,30.5z M190.3,23l-1.2,1.6c1.6,1.1,3.2,2.3,4.7,3.5l1.2-1.6c-0.1-0.1-0.1-0.1-0.2-0.2
				c0,0,0,0,0,0c0,0,0,0,0,0c0,0,0,0,0,0c0,0,0,0,0,0c0,0,0,0,0,0c0,0,0,0,0,0c0,0,0,0,0,0c0,0,0,0,0,0c0,0,0,0,0,0c0,0,0,0,0,0
				c0,0,0,0,0,0c0,0,0,0,0,0c0,0,0,0,0,0c0,0,0,0,0,0c0,0,0,0,0,0c0,0,0,0,0,0C193.2,25.1,191.8,24.1,190.3,23L190.3,23z
				 M180.2,16.6l-1,1.7c1.7,1,3.4,2,5,3l1.1-1.7c-1.1-0.7-2.2-1.4-3.3-2c0,0,0,0,0,0c0,0,0,0,0,0c0,0,0,0,0,0c0,0,0,0,0,0
				c0,0,0,0,0,0c0,0,0,0,0,0c0,0,0,0,0,0c0,0,0,0,0,0c0,0,0,0,0,0c0,0,0,0,0,0c0,0,0,0,0,0c0,0,0,0,0,0c0,0,0,0,0,0c0,0,0,0,0,0
				c0,0,0,0,0,0c0,0,0,0,0,0c0,0,0,0,0,0c0,0,0,0,0,0c0,0,0,0,0,0c-0.1,0-0.1-0.1-0.2-0.1c0,0,0,0,0,0c0,0,0,0,0,0c0,0,0,0,0,0
				c0,0,0,0,0,0c0,0,0,0,0,0c0,0,0,0,0,0c0,0,0,0,0,0c0,0,0,0,0,0c0,0,0,0,0,0c0,0,0,0,0,0c0,0,0,0,0,0c0,0,0,0,0,0c0,0,0,0,0,0
				c0,0,0,0,0,0c0,0,0,0,0,0c0,0,0,0,0,0c0,0,0,0,0,0c0,0,0,0,0,0c0,0,0,0,0,0c0,0,0,0,0,0c0,0,0,0,0,0c0,0,0,0,0,0c0,0,0,0,0,0
				c0,0,0,0,0,0c0,0,0,0,0,0l0,0C180.7,16.9,180.5,16.7,180.2,16.6L180.2,16.6z M169.5,11.2l-0.8,1.8c1.8,0.8,3.6,1.6,5.3,2.5
				l0.9-1.8c-0.7-0.3-1.3-0.7-2-1c0,0,0,0,0,0c0,0,0,0,0,0l0,0c0,0,0,0,0,0l0,0c0,0,0,0,0,0l0,0c0,0,0,0,0,0l0,0c0,0,0,0,0,0l0,0
				C171.6,12.1,170.6,11.6,169.5,11.2L169.5,11.2z M158.3,6.9l-0.6,1.9c1.9,0.6,3.7,1.3,5.6,2l0.7-1.9c-1.3-0.5-2.6-1-4-1.4
				c0,0,0,0,0,0c0,0,0,0,0,0c0,0,0,0,0,0c0,0,0,0,0,0c0,0,0,0,0,0c0,0,0,0,0,0c0,0,0,0,0,0c0,0,0,0,0,0c0,0,0,0,0,0c0,0,0,0,0,0
				c0,0,0,0,0,0c0,0,0,0,0,0c0,0,0,0,0,0c0,0,0,0,0,0c0,0,0,0,0,0c0,0,0,0,0,0c0,0,0,0,0,0l0,0c0,0,0,0,0,0l0,0c0,0,0,0,0,0l0,0
				C159.1,7.2,158.7,7,158.3,6.9L158.3,6.9z M146.7,3.8l-0.4,2c1.9,0.4,3.8,0.9,5.7,1.4l0.5-1.9c-1.6-0.4-3.2-0.8-4.8-1.2l0,0
				c0,0,0,0,0,0l0,0c0,0,0,0,0,0l0,0c0,0,0,0,0,0l0,0c0,0,0,0,0,0l0,0c0,0,0,0,0,0c0,0,0,0,0,0c0,0,0,0,0,0c0,0,0,0,0,0c0,0,0,0,0,0
				c0,0,0,0,0,0c0,0,0,0,0,0c0,0,0,0,0,0c0,0,0,0,0,0c0,0,0,0,0,0c0,0,0,0,0,0c0,0,0,0,0,0c0,0,0,0,0,0c0,0,0,0,0,0c0,0,0,0,0,0
				c0,0,0,0,0,0c0,0,0,0,0,0c0,0,0,0,0,0c0,0,0,0,0,0c0,0,0,0,0,0c0,0,0,0,0,0c0,0,0,0,0,0c0,0,0,0,0,0c0,0,0,0,0,0c0,0,0,0,0,0
				c0,0,0,0,0,0c0,0,0,0,0,0C146.8,3.8,146.8,3.8,146.7,3.8L146.7,3.8z M134.8,1.9l-0.2,2c1.9,0.2,3.9,0.5,5.8,0.8l0.3-2
				c-0.2,0-0.5-0.1-0.7-0.1c0,0,0,0,0,0c0,0,0,0,0,0c0,0,0,0,0,0c0,0,0,0,0,0C138.3,2.3,136.6,2.1,134.8,1.9L134.8,1.9z M122.9,1.3
				l0,2c2,0,3.9,0.1,5.9,0.2l0.1-2c-0.3,0-0.7,0-1-0.1c0,0,0,0,0,0c0,0,0,0,0,0c0,0,0,0,0,0c0,0,0,0,0,0c0,0,0,0,0,0c0,0,0,0,0,0
				c0,0,0,0,0,0c0,0,0,0,0,0c0,0,0,0,0,0c0,0,0,0,0,0c0,0,0,0,0,0c0,0,0,0,0,0c0,0,0,0,0,0c0,0,0,0,0,0c0,0,0,0,0,0c0,0,0,0,0,0
				c0,0,0,0,0,0c0,0,0,0,0,0c0,0,0,0,0,0c0,0,0,0,0,0c0,0,0,0,0,0c0,0,0,0,0,0c0,0,0,0,0,0c0,0,0,0,0,0c0,0,0,0,0,0c0,0,0,0,0,0
				c0,0,0,0,0,0c0,0,0,0,0,0c0,0,0,0,0,0l0,0c0,0,0,0,0,0l0,0c0,0,0,0,0,0l0,0c0,0,0,0,0,0l0,0C125.6,1.3,124.2,1.3,122.9,1.3
				L122.9,1.3z"/>
		</g>
		<g>
			<path class="st1" d="M137,243.3c-7.2,1.8-28.8,0-28.8,0C115.3,233.4,130.7,237,137,243.3"/>
			<path class="st1" d="M118,237.1c3.3-0.9,9.1-0.2,12.8,1.8c3-0.9,4.9-3.5,5.3-5.7c0,0-2.2,1.3-3.8,1.3c-4,0.2-5-0.7-8-0.9
				C122.5,233.4,120.1,234.3,118,237.1z"/>
			<path class="st1" d="M112.4,238.9c0.5-0.4,4.1-1.7,5.1-1.7c0.3-1.1,3-3.4,3.5-3.3c-2.5-0.9-6.7,0.4-7.4,0.5
				c-0.7,0.1-5.6,0.2-6.6-1.3C107.1,236.4,111.6,238.9,112.4,238.9z"/>
			<path class="st1" d="M121.5,233.6c-0.6-0.4-4.2-0.7-5.9-0.1c-1.7,0.6-3.8,0.5-3.8,0.5s-2.5-3.2-1.7-6.3c0.9,1.3,2.5,2.7,4.2,3.2
				s4.1,0.8,4.6,1c0.4,0.2,2.8,0.7,3.5,1.4L121.5,233.6z"/>
			<path class="st1" d="M121.9,232.5c0.2,0.1,1,0.6,1.1,0.7c0.5-0.1,2.2-0.4,4.1,0.2c1.9,0.6,3.8,0.7,4.1,0.6
				c2.1-1.9,2.1-5.7,1.8-6.3c-1.4,2-3.5,3-5.5,3.5C126.2,231.4,124,231.7,121.9,232.5z"/>
			<path class="st1" d="M123.2,231.6c0.4-0.2,1.9-0.4,2.7-0.5c0.8-0.1,2.6-0.6,2.9-0.7c0.7-2,0.5-5-0.7-6.6
				c-0.3,1.9-2.1,3.9-2.6,4.3c0,0-2.6,2.4-3.5,2.5C122.3,230.7,123.2,231.6,123.2,231.6z"/>
			<path class="st1" d="M121.5,232.3c0.1-0.2,1-0.6,1.2-0.5c0,0-2.1-1.5-3.9-2.5c-1.8-1-3.6-4.2-3.8-5.4c-1.3,1.5-1.6,4.4-0.8,6.5
				c0.9,0.4,2.1,0.5,3.7,1C119.6,231.8,121.5,232.3,121.5,232.3z"/>
			<path class="st1" d="M121.5,230.4c0,0,2-1.1,2.1-1.3c0.3-2.1-1.1-5.2-1.4-5.8c0,1.6-0.4,5.7-1.3,6.7L121.5,230.4z"/>
			<path class="st1" d="M121.4,221c0.6,1.7,0.7,6.1-0.8,8.8c-0.7-0.4-1.4-0.9-1.4-0.9c0-0.1-0.1-0.9,0.1-1.9S121.4,221,121.4,221z"
				/>
		</g>
	</g>
	<g id="house3">
		<polygon class="st2" points="96.6,78.3 80.1,84.5 80.3,55.2 96.7,55.3 		"/>
		<polygon class="st3" points="173.1,179.2 70,178.5 70.6,93.5 121.1,54.9 173.7,94.2 		"/>
		
			<rect x="121.4" y="110.4" transform="matrix(6.760719e-03 -1 1 6.760719e-03 3.8451 276.7698)" class="st4" width="39.7" height="52"/>
		
			<rect x="121.8" y="110.8" transform="matrix(6.708336e-03 -1 1 6.708336e-03 3.8533 276.7759)" class="st5" width="38.9" height="51.2"/>
		<polygon class="st6" points="115.5,155.7 115.8,116.8 167,117.2 		"/>
		<polygon class="st4" points="122.5,44.6 58.4,95.2 68.9,102.5 122.4,60.3 175.3,103.3 185.9,96.1 		"/>
		
			<rect x="138.8" y="128.9" transform="matrix(6.732819e-03 -1 1 6.732819e-03 -16.4643 296.4179)" class="st7" width="4.3" height="55.1"/>
		
			<rect x="138.8" y="128.1" transform="matrix(6.787104e-03 -1 1 6.787104e-03 -15.6502 295.6031)" class="st4" width="4.3" height="55.1"/>
		
			<rect x="119" y="119.2" transform="matrix(6.723458e-03 -1 1 6.723458e-03 -55.448 296.6559)" class="st8" width="5.2" height="114"/>
		<g>
			
				<rect x="75.1" y="141.1" transform="matrix(6.749799e-03 -1 1 6.749799e-03 -61.2313 247.4303)" class="st9" width="37.6" height="26.8"/>
			
				<rect x="75.9" y="143.2" transform="matrix(6.737120e-03 -1 1 6.737120e-03 -61.9908 248.1786)" class="st10" width="36.1" height="24.1"/>
			<polygon class="st6" points="105,139 103.7,139 91.3,151.3 93.1,151.3 105,139.5 			"/>
			
				<rect x="87.8" y="134.1" transform="matrix(6.703584e-03 -1 1 6.703584e-03 -51.7089 238.1093)" class="st5" width="12.4" height="22"/>
			<polygon class="st6" points="105,139.5 93.1,151.3 104.9,151.3 			"/>
			<polygon class="st6" points="90.9,138.9 83,146.7 83,148.3 92.5,138.9 			"/>
			<path class="st11" d="M104.3,161.1c0-0.8-0.6-1.4-1.4-1.4c-0.8,0-1.4,0.6-1.4,1.4c0,0.8,0.6,1.4,1.4,1.4
				C103.6,162.5,104.3,161.9,104.3,161.1z"/>
		</g>
		<g>
			<path class="st12" d="M155.4,138.6c0.1-0.1,0.1-0.2,0.2-0.2c0,0,0-0.1,0-0.1C155.4,138.4,155.3,138.5,155.4,138.6
				c-0.1-0.1-0.2-0.1-0.2-0.1c0-0.1,0.1-0.2,0.1-0.3c0-0.1,0-0.2,0-0.3c0.1,0,0.2-0.1,0.2-0.1c0,0,0,0,0,0c-0.1,0-0.2,0-0.3,0
				c-0.1-0.1-0.1-0.3-0.2-0.3c0.1,0,0.2-0.1,0.3-0.1c0,0,0,0,0,0c-0.1,0-0.2,0-0.4,0.1c-0.1-0.1-0.3-0.2-0.4-0.2c0-0.1,0-0.2,0-0.2
				c0,0,0,0-0.1,0c0,0.1,0,0.2,0,0.2c0,0,0,0,0,0c-0.2,0-0.3,0-0.5,0.1c-0.1-0.1-0.1-0.1-0.2-0.2c0,0-0.1,0-0.1,0.1c0,0,0,0,0,0.1
				c0,0,0,0,0,0c0,0,0,0,0,0c0,0,0.1,0.1,0.1,0.1c-0.2,0.1-0.3,0.3-0.3,0.5c-0.1,0-0.2,0-0.3,0c0,0,0,0.1,0,0.1c0.1,0,0.2,0,0.2,0.1
				c0,0.1,0,0.1,0,0.2c0,0.2,0,0.3,0.1,0.5c-0.2,0.1-0.3,0.2-0.4,0.4c-0.1,0-0.2-0.1-0.3-0.1c0,0,0,0,0,0.1c0.1,0,0.2,0.1,0.3,0.1
				c-0.1,0.2-0.2,0.3-0.2,0.5c-0.1,0-0.2,0-0.3,0c0,0,0,0.1,0,0.1l0,0c0.1,0,0.2,0,0.3,0c0,0.1,0,0.2,0,0.3c0,0.1,0,0.3,0.1,0.4
				c0,0-0.1,0-0.1,0.1c0,0-0.1,0-0.1,0.1c0,0,0,0,0,0c0.1,0,0.2,0,0.3-0.1c0,0,0,0,0,0c0.1,0.2,0.2,0.4,0.3,0.5
				c-0.1,0.1-0.1,0.1-0.2,0.2c0,0,0,0,0,0c0.1,0,0.1-0.1,0.2-0.2c0.3,0.3,0.7,0.6,1.2,0.6c0.9,0,1.7-0.7,1.7-1.6
				C156,139.4,155.8,139,155.4,138.6z"/>
			<g>
				<path class="st12" d="M158.7,140C158.7,140,158.7,140,158.7,140c-0.1,0.1-0.1,0.1,0,0.1C158.7,140.1,158.7,140.1,158.7,140
					C158.7,140.1,158.7,140.1,158.7,140C158.7,140.1,158.7,140.1,158.7,140C158.7,140.1,158.7,140.1,158.7,140
					C158.8,140.1,158.8,140,158.7,140C158.8,140,158.8,140,158.7,140z"/>
				<path class="st12" d="M163.1,142.9c-0.1,0-0.2,0-0.3,0c-0.1-0.2-0.2-0.3-0.4-0.4c0-0.1,0.1-0.1,0.1-0.2c0,0,0,0,0,0
					c0,0-0.1,0.1-0.1,0.2c-0.1,0-0.2-0.1-0.3-0.1c-0.1,0-0.2,0-0.3,0c0,0,0,0,0,0c0-0.1,0-0.2,0-0.2c0,0,0,0,0,0c0,0,0,0.1,0,0.2
					c0,0,0,0.1,0,0.1c-0.1,0.1-0.3,0.2-0.3,0.3c-0.1,0-0.2-0.1-0.3-0.1c0,0,0,0,0,0c0.1,0,0.2,0.1,0.2,0.1c-0.1,0.1-0.1,0.2-0.1,0.4
					c-0.1,0-0.2,0-0.2,0c-0.9,0-1.7,0.7-1.7,1.7c0,0.8,0.6,1.5,1.4,1.6c0,0.1,0,0.2,0.1,0.3c0,0,0,0,0,0c-0.1,0,0-0.1,0-0.2
					c0.1,0,0.1,0,0.2,0c0.2,0,0.3,0,0.5-0.1c0,0.1,0,0.2,0.1,0.2c0,0,0,0,0,0c0-0.1,0-0.2,0-0.3c0.2-0.1,0.3-0.2,0.5-0.3
					c0,0.1,0.1,0.1,0.2,0.1c0,0,0,0,0,0c0,0-0.1-0.1-0.1-0.2c0.2-0.1,0.3-0.3,0.4-0.5c0,0,0,0,0,0c0.1,0,0.3,0.1,0.4,0.1
					c0,0,0.1,0,0-0.1c-0.1-0.1-0.3-0.1-0.4-0.2c0,0,0,0,0,0c0.1-0.2,0.1-0.4,0.1-0.6c0,0,0,0,0-0.1c0.1,0,0.1,0,0.2,0
					c0.1,0,0.3,0,0.4,0c0,0,0,0,0,0c-0.1,0-0.3-0.1-0.5-0.1c0,0-0.1,0-0.1,0c0-0.2-0.1-0.3-0.1-0.5c0.2-0.1,0.4-0.3,0.5-0.5
					c0.1,0,0.1,0.1,0.1,0.1c0,0,0,0,0,0c0-0.1-0.1-0.1-0.1-0.2c0-0.1,0.1-0.2,0.1-0.3c0-0.1,0-0.2-0.1-0.3
					C162.9,143,163,142.9,163.1,142.9C163.2,142.9,163.2,142.9,163.1,142.9z"/>
			</g>
			<path class="st12" d="M160.6,142.4c0,0-0.1,0-0.2,0c0-0.2-0.1-0.4-0.1-0.6c0.1,0,0.2-0.1,0.3-0.1c0,0,0,0,0-0.1
				c-0.1,0-0.2,0-0.4,0c-0.1-0.2-0.1-0.4-0.2-0.5c0.1-0.1,0.3-0.2,0.3-0.2c0-0.1-0.2,0-0.3,0.1c-0.1-0.3-0.2-0.5-0.4-0.7
				c0.1-0.1,0.3-0.1,0.4-0.2c0,0,0,0,0,0c-0.1,0.1-0.3,0.1-0.4,0.2c-0.1-0.2-0.3-0.4-0.4-0.6c0.1-0.1,0.2-0.1,0.2-0.2
				c0,0,0-0.1,0-0.1c0,0-0.2,0.1-0.3,0.2c-0.2-0.2-0.5-0.4-0.7-0.6c0,0,0,0,0,0c0-0.1,0.1-0.2,0.1-0.3c0,0,0,0-0.1,0
				c-0.1,0-0.1,0.1-0.1,0.2c0,0,0,0,0,0.1c-0.2-0.1-0.5-0.2-0.8-0.2c0-0.1,0-0.2-0.1-0.3c0-0.1-0.1,0-0.1,0c0,0.1,0,0.2,0,0.3
				c0,0,0,0,0,0c-1.4,0-2.6,1.4-3.1,3.3c0,0,0,0,0,0c-0.1,0-0.2,0-0.3,0c0,0-0.1,0-0.1,0c0,0,0,0,0,0c0,0,0,0,0,0c0,0,0,0,0,0
				c0,0,0.1,0,0.1,0c0.1,0,0.2,0,0.3,0.1c0,0,0,0,0,0c-0.1,0.3-0.1,0.6-0.1,0.9c-0.1,0-0.1,0-0.2,0c-0.1,0-0.1,0-0.2,0.1
				c0,0,0,0,0,0c0,0,0,0,0,0h0c0,0,0,0,0,0c0,0,0.1,0,0.1,0c0.1,0,0.1,0,0.2,0c0,0.2,0,0.4,0,0.7c0,0.1,0,0.2,0,0.3
				c-0.1,0-0.2,0-0.3,0c0,0-0.1,0.1,0,0.1c0.1,0,0.2,0,0.4,0c0,0.3,0,0.5,0.1,0.8c-0.1,0-0.2,0-0.3,0c-0.1,0,0,0.1,0,0.1
				c0.1,0,0.2,0,0.3,0c0.1,0.3,0.1,0.7,0.2,1c-0.1,0-0.1,0.1-0.2,0.1c0,0,0,0,0,0c0.1,0,0.1-0.1,0.2-0.1c0.5,1.7,1.6,2.8,2.9,2.9
				c1.8,0,3.3-2.3,3.3-5.1c0-0.5,0-1-0.1-1.4C160.4,142.5,160.5,142.5,160.6,142.4C160.6,142.4,160.6,142.4,160.6,142.4z"/>
			<path class="st13" d="M160.4,153.4c0,0.1-0.1,0.2-0.2,0.2l-6.2,0c-0.1,0-0.2-0.1-0.2-0.2l-0.7-6.2c0-0.1,0.1-0.2,0.2-0.2l7.8,0
				c0.1,0,0.2,0.1,0.2,0.2L160.4,153.4z"/>
			<polygon class="st14" points="161.2,147.6 153.2,147.6 153.4,149.8 160.9,149.8 			"/>
			<g>
				<path class="st15" d="M159.5,140c0.5-0.1,0.8-0.4,0.7-0.7c-0.1-0.3-0.5-0.5-0.9-0.5c-0.1,0-0.2,0-0.3,0.1
					c0.1-0.1,0.1-0.3,0.1-0.4c0-0.5-0.3-0.8-0.6-0.8c-0.3,0-0.6,0.4-0.6,0.8c0,0,0,0.1,0,0.1c0,0,0,0-0.1,0c-0.4-0.3-0.8-0.3-1,0
					c-0.2,0.3-0.1,0.7,0.3,1c0.1,0.1,0.2,0.1,0.3,0.2c0,0-0.1,0.1-0.1,0.1c-0.3,0.3-0.4,0.8-0.2,1c0.2,0.2,0.7,0.2,1-0.1
					c0.1-0.1,0.1-0.1,0.2-0.2c0,0.1,0,0.2,0.1,0.2c0.1,0.4,0.5,0.7,0.8,0.6c0.3-0.1,0.5-0.5,0.3-1c0-0.1-0.1-0.2-0.1-0.3
					C159.4,140.1,159.5,140.1,159.5,140z M158.4,139.9c0-0.1-0.1-0.2-0.1-0.2c0,0-0.1-0.1-0.1-0.1c0,0,0,0,0,0
					c0.1-0.1,0.1-0.2,0.1-0.3c0.1,0,0.2,0.1,0.3,0.1c0,0,0.1,0,0.1,0c0,0.1-0.1,0.2,0,0.3c0,0,0,0.1,0,0.1c0,0,0,0,0,0
					C158.5,139.8,158.5,139.8,158.4,139.9z"/>
				<path class="st16" d="M159,139.5c0-0.3-0.2-0.6-0.6-0.6c-0.3,0-0.6,0.2-0.6,0.5c0,0.3,0.2,0.6,0.6,0.6
					C158.7,140.1,159,139.8,159,139.5z"/>
			</g>
		</g>
		<g>
			
				<rect x="119.8" y="88.5" transform="matrix(6.684507e-03 -1 1 6.684507e-03 20.1635 220.2769)" class="st7" width="2.4" height="22.9"/>
			<path class="st17" d="M130.9,99.1l0.1-13.6c0-5.5-4.4-10-9.9-10c-5.5,0-10,4.4-10,9.9L111,99L130.9,99.1z"/>
			<path class="st18" d="M130.1,99.1l0.1-13.6c0-5-4-9.1-9-9.2c-5,0-9.1,4-9.2,9L111.9,99L130.1,99.1z"/>
			
				<rect x="119.8" y="87.5" transform="matrix(6.692273e-03 -1 1 6.692273e-03 21.1614 219.2974)" class="st4" width="2.4" height="22.9"/>
			<polygon class="st19" points="121.5,77.3 130.2,86 129.4,86 121.5,78 			"/>
			<path class="st18" d="M120.7,76.3l0,0.2l-0.1-0.1C120.6,76.3,120.7,76.3,120.7,76.3z"/>
			<path class="st18" d="M120.6,76.3l0.1,0.1l0,0.8l-0.8-0.9C120.1,76.4,120.4,76.3,120.6,76.3z"/>
			<path class="st4" d="M120.6,99l0.8,0l0.1-12.3l8.7,0.1l0-0.8l-8.7-0.1l0.1-9.6c-0.1,0-0.3,0-0.4,0c-0.1,0-0.3,0-0.4,0l-0.1,9.6
				l-8.7-0.1l0,0.8l8.7,0.1L120.6,99z"/>
		</g>
		
			<rect x="121" y="56.2" transform="matrix(6.718594e-03 -1 1 6.718594e-03 11.7801 230.7729)" class="st4" width="2.1" height="106.5"/>
		
			<rect x="92.5" y="163.9" transform="matrix(6.632373e-03 -1 1 6.632373e-03 -84.1571 269.9295)" class="st20" width="2.7" height="26.8"/>
		
			<rect x="92.5" y="162.6" transform="matrix(6.613836e-03 -1 1 6.613836e-03 -81.4777 267.3094)" class="st2" width="2.7" height="24.1"/>
		
			<rect x="85.2" y="40.7" transform="matrix(6.740743e-03 -1 1 6.740743e-03 34.7077 141.3909)" class="st10" width="6.6" height="25"/>
	</g>
</g>
</svg>
