<?xml version="1.0" encoding="utf-8"?>
<!-- Generator: Adobe Illustrator 22.1.0, SVG Export Plug-In . SVG Version: 6.00 Build 0)  -->
<svg version="1.1" id="Layer_1" xmlns="http://www.w3.org/2000/svg" xmlns:xlink="http://www.w3.org/1999/xlink" x="0px" y="0px"
	 viewBox="0 0 245 245" style="enable-background:new 0 0 245 245;" xml:space="preserve">
<style type="text/css">
	.st0{fill:#A2D05D;}
	.st1{fill:#005050;}
	.st2{opacity:0.3;}
	.st3{fill:#07343F;}
	.st4{fill:#FFFFFF;}
	.st5{fill:#E5D8C3;}
	.st6{fill:#E8E8E8;}
	.st7{fill:#B4D0D3;}
	.st8{fill:#BCBCBC;}
	.st9{fill:#F9ECD7;}
	.st10{fill:#41DAB3;}
	.st11{fill:#CFC0B4;}
	.st12{fill:#9B938E;}
	.st13{fill:#F4EFEA;}
	.st14{fill:#C6BFB9;}
	.st15{fill:#FDC9A3;}
	.st16{fill:#E5A67C;}
	.st17{fill:#512C1A;}
	.st18{fill:#283042;}
</style>
<g>
	<g>
		<g>
			<circle class="st0" cx="122.3" cy="118.1" r="111.7"/>
			<g>
				<path class="st1" d="M122.3,0.5L122.3,0.5C122.2,0.5,122.2,0.5,122.3,0.5h-0.2l0,0l0,0l0,0l0,0l0,0l0,0l0,0l0,0l0,0l0,0l0,0l0,0
					l0,0l0,0l0,0l0,0l0,0l0,0l0,0l0,0l0,0l0,0l0,0l0,0l0,0l0,0l0,0l0,0l0,0l0,0l0,0l0,0l0,0l0,0l0,0l0,0l0,0l0,0l0,0l0,0l0,0l0,0
					l0,0l0,0l0,0l0,0l0,0l0,0l0,0l0,0l0,0l0,0l0,0l0,0l0,0l0,0l0,0l0,0l0,0l0,0l0,0l0,0l0,0l0,0l0,0l0,0c-1.4,0-2.8,0.1-4.3,0.1
					l0.1,2c2-0.1,3.9-0.1,5.9-0.1v-2H122.3L122.3,0.5z M110.3,1.1c-0.3,0-0.7,0.1-1,0.1l0,0l0,0l0,0l0,0l0,0l0,0l0,0l0,0l0,0l0,0
					l0,0l0,0l0,0l0,0l0,0l0,0l0,0l0,0l0,0l0,0l0,0l0,0l0,0l0,0l0,0l0,0l0,0l0,0l0,0l0,0l0,0l0,0l0,0l0,0l0,0l0,0l0,0l0,0l0,0l0,0
					l0,0l0,0l0,0l0,0l0,0l0,0l0,0l0,0l0,0l0,0l0,0l0,0l0,0l0,0l0,0l0,0l0,0l0,0l0,0l0,0l0,0l0,0l0,0l0,0l0,0l0,0l0,0l0,0l0,0l0,0
					l0,0l0,0l0,0l0,0c-0.5,0.1-1,0.1-1.5,0.2l0,0l0,0l0,0l0,0l0,0l0,0l0,0l0,0l0,0l0,0l0,0l0,0l0,0l0,0l0,0l0,0l0,0l0,0l0,0l0,0l0,0
					l0,0l0,0l0,0l0,0l0,0l0,0l0,0l0,0l0,0l0,0l0,0l0,0l0,0l0,0l0,0l0,0l0,0l0,0l0,0c-0.3,0-0.6,0.1-0.9,0.1l0.3,2
					c1.9-0.3,3.9-0.5,5.9-0.7L110.3,1.1L110.3,1.1z M98.5,3c-1,0.2-2,0.4-2.9,0.6l0,0l0,0l0,0l0,0l0,0l0,0l0,0l0,0l0,0l0,0l0,0l0,0
					l0,0l0,0l0,0l0,0l0,0l0,0l0,0l0,0l0,0l0,0l0,0l0,0l0,0l0,0l0,0l0,0l0,0l0,0C95,3.7,94.5,3.9,93.9,4l0,0l0,0l0,0l0,0l0,0l0,0l0,0
					l0,0l0,0l0,0l0,0l0,0l0,0l0,0l0,0l0,0l0,0l0,0l0,0l0,0l0,0l0,0l0,0l0,0l0,0l0,0l0.5,1.9c0.6-0.1,2.6-0.6,4.5-1L98.5,3L98.5,3z
					 M86.9,6c-1,0.3-2.1,0.7-3.1,1l0,0l0,0l0,0l0,0l0,0l0,0l0,0l0,0l0,0l0,0l0,0l0,0l0,0l0,0l0,0l0,0l0,0l0,0l0,0l0,0l0,0l0,0l0,0
					l0,0l0,0l0,0l0,0l0,0l0,0l0,0c-0.7,0.2-1.3,0.5-2,0.7l0.7,1.9c1.8-0.7,3.7-1.3,5.6-1.9L86.9,6L86.9,6z M75.6,10.2
					c-1.8,0.8-3.7,1.6-5.4,2.5l0.9,1.8c1.8-0.9,3.6-1.7,5.3-2.5L75.6,10.2L75.6,10.2z M64.9,15.5c-0.3,0.2-0.7,0.4-1,0.6l0,0l0,0
					l0,0l0,0l0,0l0,0l0,0l0,0l0,0l0,0l0,0l0,0l0,0l0,0c-1.3,0.8-2.6,1.5-3.9,2.4l1.1,1.7c1.7-1,3.4-2.1,5.1-3L64.9,15.5L64.9,15.5z
					 M54.7,21.9c-0.5,0.4-1,0.7-1.5,1.1l0,0l0,0l0,0l0,0l0,0l0,0l0,0l0,0l0,0l0,0l0,0l0,0l0,0l0,0l0,0l0,0l0,0
					c-0.1,0.1-0.2,0.2-0.3,0.2l0,0l0,0l0,0l0,0l0,0l0,0l0,0l0,0l0,0l0,0l0,0c-0.8,0.6-1.7,1.3-2.5,1.9l1.2,1.6
					c1.5-1.2,3.1-2.4,4.7-3.5L54.7,21.9L54.7,21.9z M45.3,29.3c-0.6,0.5-1.2,1.1-1.9,1.6l0,0l0,0l0,0l0,0l0,0l0,0l0,0l0,0l0,0l0,0
					l0,0l0,0l0,0l0,0l0,0l0,0l0,0l0,0l0,0l0,0l0,0l0,0l0,0l0,0c-0.1,0-0.1,0.1-0.2,0.1l0,0l0,0l0,0l0,0l0,0l0,0l0,0l0,0l0,0l0,0l0,0
					l0,0l0,0l0,0l0,0l0,0l0,0c-0.6,0.5-1.2,1.1-1.8,1.7l1.4,1.4c1.4-1.4,2.9-2.7,4.4-4L45.3,29.3L45.3,29.3z M36.7,37.6L36.7,37.6
					C36.6,37.6,36.6,37.6,36.7,37.6C36.6,37.6,36.6,37.6,36.7,37.6C36.6,37.6,36.6,37.7,36.7,37.6C36.6,37.7,36.6,37.7,36.7,37.6
					C36.6,37.7,36.6,37.7,36.7,37.6C36.6,37.7,36.6,37.7,36.7,37.6L36.7,37.6L36.7,37.6L36.7,37.6L36.7,37.6L36.7,37.6L36.7,37.6
					L36.7,37.6L36.7,37.6L36.7,37.6L36.7,37.6L36.7,37.6L36.7,37.6L36.7,37.6c-0.9,0.9-1.6,1.8-2.4,2.6l0,0l0,0l0,0l0,0l0,0l0,0l0,0
					l0,0l0,0l0,0l0,0l0,0l0,0l0,0l0,0l0,0l0,0l0,0l0,0l0,0l0,0l0,0c-0.4,0.4-0.7,0.8-1.1,1.3l1.5,1.3c1.3-1.5,2.6-3,3.9-4.4
					L36.7,37.6L36.7,37.6z M28.9,46.7l-0.1,0.1l0,0l0,0l0,0l0,0l0,0l0,0l0,0l0,0l0,0l0,0l0,0l0,0l0,0l0,0l0,0l0,0
					c-0.5,0.7-1.1,1.5-1.6,2.2l0,0l0,0l0,0l0,0l0,0l0,0l0,0l0,0l0,0l0,0l0,0l0,0l0,0l0,0l0,0l0,0l0,0l0,0l0,0l-0.1,0.1l0,0l0,0l0,0
					l0,0l0,0l0,0l0,0l0,0l0,0l0,0l0,0l0,0l0,0l0,0l0,0l0,0l0,0l0,0l0,0l0,0l0,0l0,0l0,0l0,0l0,0l0,0c0,0.1-0.1,0.1-0.1,0.2l0,0l0,0
					l0,0l0,0l0,0l0,0l0,0l0,0l0,0l0,0l0,0l0,0l0,0l0,0l0,0l0,0l0,0l0,0l0,0l0,0l0,0l0,0l0,0l0,0l0,0l0,0l0,0l0,0l0,0l0,0l0,0l0,0
					l0,0l0,0l0,0l0,0l0,0l0,0l0,0l0,0l0,0l0,0l0,0l0,0l0,0l0,0l0,0l0,0l0,0l0,0c-0.1,0.1-0.1,0.1-0.1,0.2l1.6,1.1
					c1.1-1.6,2.3-3.2,3.5-4.8L28.9,46.7L28.9,46.7z M22.1,56.6c-0.6,0.9-1.1,1.9-1.7,2.8l0,0l0,0l0,0l0,0l0,0v0.1l0,0v0.1l0,0
					c0,0.1-0.1,0.1-0.1,0.2l0,0l0,0l0,0l0,0l0,0l0,0l0,0l0,0l0,0l0,0l0,0l0,0l0,0l0,0l0,0l0,0l0,0l0,0l0,0l0,0l0,0l0,0
					c-0.3,0.5-0.6,1-0.9,1.5l1.8,1c0.9-1.7,1.9-3.4,3-5.1L22.1,56.6L22.1,56.6z M16.3,67.2c-0.5,1-0.9,2-1.4,3l0,0l0,0l0,0l0,0l0,0
					l0,0l0,0l0,0l0,0l0,0l0,0l0,0l0,0l0,0l0,0l0,0l0,0l0,0l0,0l0,0l0,0l0,0c-0.3,0.7-0.6,1.4-0.9,2.1l1.8,0.8
					c0.8-1.8,1.6-3.6,2.4-5.4L16.3,67.2L16.3,67.2z M11.7,78.2c-0.2,0.5-0.4,1.1-0.6,1.6l0,0l0,0l0,0l0,0l0,0l0,0l0,0l0,0l0,0l0,0
					l0,0l0,0l0,0l0,0l0,0l0,0l0,0l0,0l0,0l0,0l0,0l0,0l0,0l0,0c-0.4,1.2-0.8,2.4-1.1,3.6l1.9,0.6c0.6-1.9,1.2-3.8,1.9-5.6L11.7,78.2
					L11.7,78.2z M8.2,89.7c-0.1,0.5-0.2,1-0.4,1.5l0,0l0,0l0,0l0,0l0,0l0,0l0,0l0,0l0,0l0,0l0,0l0,0l0,0l0,0l0,0l0,0l0,0l0,0l0,0
					l0,0l0,0l0,0l0,0l0,0l0,0l0,0l0,0l0,0l0,0l0,0l0,0l0,0l0,0l0,0l0,0l0,0l0,0l0,0l0,0l0,0l0,0l0,0l0,0l0,0l0,0l0,0l0,0l0,0
					c-0.2,1.1-0.5,2.2-0.7,3.3l2,0.4c0.4-1.9,0.8-3.9,1.3-5.8L8.2,89.7L8.2,89.7z M5.9,101.5c0,0.2-0.1,0.4-0.1,0.6l0,0l0,0l0,0l0,0
					l0,0l0,0l0,0l0,0l0,0l0,0l0,0l0,0l0,0l0,0l0,0l0,0c-0.2,1.7-0.4,3.3-0.6,5l0,0l0,0l0,0l0,0l2,0.2c0.2-2,0.4-3.9,0.7-5.9
					L5.9,101.5L5.9,101.5z M4.9,113.4c0,0.2,0,0.4,0,0.5l0,0l0,0l0,0l0,0l0,0l0,0l0,0l0,0l0,0l0,0l0,0l0,0l0,0l0,0l0,0l0,0l0,0l0,0
					v0.1l0,0l0,0l0,0c0,0.8,0,1.7,0,2.6l0,0v0.1l0,0l0,0l0,0v0.1l0,0l0,0l0,0v0.1l0,0l0,0l0,0l0,0l0,0l0,0l0,0l0,0l0,0l0,0l0,0l0,0
					l0,0l0,0l0,0l0,0l0,0l0,0l0,0l0,0l0,0l0,0l0,0l0,0l0,0l0,0l0,0l0,0l0,0l0,0l0,0l0,0l0,0l0,0l0,0l0,0l0,0l0,0l0,0l0,0l0,0l0,0
					l0,0l0,0l0,0l0,0l0,0l0,0l0,0l0,0l0,0l0,0c0,0.1,0,0.1,0,0.2l0,0c0,0.2,0,0.4,0,0.6h2c0-0.4,0-0.9,0-1.3c0-1.5,0-3.1,0.1-4.6
					L4.9,113.4L4.9,113.4z M7,125.3l-2,0.1c0,0.2,0,0.4,0,0.6l0,0l0,0l0,0l0,0l0,0l0,0l0,0l0,0l0,0l0,0l0,0l0,0l0,0l0,0l0,0l0,0l0,0
					l0,0l0,0l0,0l0,0l0,0l0,0l0,0l0,0l0,0l0,0l0,0l0,0l0,0l0,0l0,0l0,0l0,0l0,0l0,0l0,0l0,0l0,0l0,0l0,0l0,0l0,0l0,0l0,0l0,0l0,0
					l0,0v0.1l0,0v0.1l0,0l0,0l0,0l0,0l0,0v0.1l0,0v0.1l0,0l0,0l0,0l0,0l0,0l0,0l0,0l0,0l0,0v0.1l0,0v0.1l0,0v0.1l0,0
					c0,0.1,0,0.1,0,0.2l0,0c0,0.1,0,0.1,0,0.2l0,0c0.1,1,0.2,2,0.3,3l2-0.2C7.3,129.2,7.1,127.2,7,125.3L7,125.3z M8.3,137l-2,0.3
					l0,0l0,0l0,0l0,0l0,0l0,0l0,0l0,0l0,0l0,0c0.1,0.7,0.2,1.3,0.3,2l0,0l0,0l0,0l0,0l0,0l0,0l0,0l0,0l0,0l0,0l0,0l0,0l0,0l0,0l0,0
					l0,0l0,0l0,0l0,0l0,0l0,0l0,0l0,0l0,0l0,0l0,0l0,0l0,0l0,0l0,0l0,0l0,0l0,0l0,0l0,0l0,0l0,0l0,0c0.2,1,0.4,1.9,0.6,2.8l2-0.4
					C9,140.9,8.6,138.9,8.3,137L8.3,137z M10.8,148.5L8.9,149c0.1,0.5,0.3,1,0.4,1.5l0,0l0,0l0,0l0,0l0,0l0,0l0,0l0,0l0,0l0,0l0,0
					l0,0l0,0l0,0l0,0l0,0l0,0l0,0l0,0l0,0l0,0l0,0l0,0l0,0l0,0l0,0l0,0l0,0l0,0l0,0l0,0l0,0c0.4,1.2,0.7,2.4,1.1,3.6l1.9-0.6
					C11.9,152.3,11.3,150.4,10.8,148.5L10.8,148.5z M14.5,159.7l-1.9,0.7c0.4,1,0.8,2,1.2,3l0,0l0,0l0,0l0,0l0,0l0,0l0,0l0,0l0,0
					l0,0l0,0l0,0l0,0l0,0l0,0l0,0l0,0l0,0l0,0l0,0l0,0l0,0l0,0l0,0l0,0c0.1,0.2,0.1,0.3,0.2,0.5l0,0l0,0l0,0l0,0l0,0l0,0l0,0l0,0
					l0,0l0,0l0,0c0.2,0.5,0.4,0.9,0.6,1.4l1.8-0.8C16,163.4,15.2,161.6,14.5,159.7L14.5,159.7z M19.3,170.5l-1.8,0.9
					c0.1,0.1,0.2,0.3,0.2,0.4l0,0l0,0l0,0l0,0l0,0l0,0l0,0l0,0l0,0l0,0l0,0l0,0l0,0l0,0l0,0l0,0c0.8,1.5,1.6,3,2.5,4.5l1.7-1
					C21.1,174,20.2,172.2,19.3,170.5L19.3,170.5z M25.2,180.7l-1.7,1.1c0.1,0.1,0.1,0.2,0.2,0.3l0,0l0,0l0,0
					c0.1,0.1,0.2,0.3,0.3,0.4l0,0l0,0l0,0l0,0l0,0l0,0l0,0l0,0l0,0l0,0l0,0l0,0l0,0l0,0l0,0l0,0l0,0l0,0l0,0l0,0l0,0
					c0,0.1,0.1,0.1,0.1,0.2l0,0l0,0l0,0l0,0l0,0l0,0l0,0l0,0l0,0l0,0l0,0l0,0l0,0l0,0l0,0l0,0l0,0l0,0l0,0l0,0l0,0l0,0l0,0l0,0l0,0
					l0,0l0,0c0,0.1,0.1,0.1,0.1,0.2l0,0l0,0l0,0l0,0l0,0l0,0l0,0l0,0l0,0l0,0l0,0l0,0l0,0l0,0l0,0l0,0l0,0l0,0l0,0l0,0l0,0l0,0l0,0
					l0,0l0,0l0,0l0.1,0.1l0,0l0,0l0,0l0,0l0,0l0,0l0,0l0,0l0,0l0,0l0,0l0,0l0,0l0,0l0,0l0,0l0,0l0,0l0,0l0,0l0,0l0,0l0,0l0,0l0,0
					c0.1,0.1,0.1,0.2,0.2,0.3l0,0l0,0l0,0c0,0,0,0.1,0.1,0.1l0,0c0.3,0.5,0.7,1,1,1.5l1.6-1.2C27.4,184,26.2,182.4,25.2,180.7
					L25.2,180.7z M32.1,190.3l-1.6,1.3c1,1.3,2,2.5,3.1,3.7l0,0l0,0l0,0l0,0l0,0l0,0l0,0l0,0l0,0l0,0l0,0l0,0l0,0l0,0l0,0l0,0l0,0
					l0,0l0,0l0,0c0.2,0.2,0.3,0.4,0.5,0.6l1.5-1.3C34.6,193.3,33.3,191.8,32.1,190.3L32.1,190.3z M39.9,199.1l-1.4,1.4
					c1.4,1.4,2.8,2.8,4.3,4.2l1.4-1.5C42.7,201.9,41.3,200.5,39.9,199.1L39.9,199.1z M48.6,207.1l-1.3,1.5c0.1,0.1,0.1,0.1,0.2,0.2
					l0,0c1.5,1.2,3,2.4,4.5,3.5l1.2-1.6C51.7,209.6,50.1,208.3,48.6,207.1L48.6,207.1z M58,214.1l-1.1,1.7l0,0l0,0l0,0l0.1,0.1l0,0
					l0,0l0,0l0,0l0,0l0,0l0,0l0,0l0,0l0,0l0,0l0,0l0,0l0,0l0,0l0,0l0,0l0,0l0,0l0,0l0,0l0,0l0,0l0,0c1.4,1,2.9,1.9,4.4,2.8l0,0l0,0
					l0,0l0,0l0,0l0,0l1-1.7C61.3,216.3,59.7,215.2,58,214.1L58,214.1z M68.1,220.2l-0.9,1.8c1.3,0.7,2.5,1.3,3.8,2l0,0l0,0l0,0l0,0
					l0,0l0,0l0,0l0,0l0,0l0,0l0,0l0,0l0,0c0.1,0.1,0.3,0.1,0.4,0.2l0,0l0,0l0,0l0,0l0,0l0,0l0,0l0,0l0,0l0,0l0,0l0,0l0,0l0,0l0,0
					l0,0l0,0l0,0l0,0l0,0l0,0l0,0l0,0l0,0l0,0c0.1,0,0.1,0.1,0.2,0.1l0,0l0,0l0,0l0,0l0,0l0,0l0,0l0,0l0,0l0.8-1.8
					C71.7,222,69.9,221.1,68.1,220.2L68.1,220.2z M78.8,225.2l-0.8,1.9c0.9,0.4,1.8,0.7,2.6,1l0,0l0,0l0,0l0,0l0,0l0,0l0,0l0,0l0,0
					l0,0l0,0l0,0l0,0l0,0l0,0l0,0l0,0l0,0l0,0l0,0l0,0l0,0l0,0l0,0l0,0l0,0l0,0l0,0l0,0l0,0l0,0l0,0l0,0l0,0l0,0
					c0.1,0,0.1,0,0.2,0.1l0,0l0,0l0,0l0,0l0,0l0,0l0,0l0,0l0,0l0,0l0,0l0,0l0,0l0,0l0,0l0,0l0,0l0,0l0,0l0,0l0,0l0,0l0,0l0,0l0,0
					l0,0l0,0l0,0l0,0l0,0l0,0l0,0l0,0l0,0l0,0l0,0l0,0l0,0l0,0c0.1,0,0.1,0,0.2,0.1l0,0l0,0l0,0l0,0l0,0l0,0l0,0l0,0l0,0l0,0l0,0
					l0,0l0,0l0,0l0,0l0,0l0,0l0,0l0,0l0,0l0,0l0,0l0,0l0,0l0,0l0,0l0,0l0,0l0,0l0,0l0,0l0,0l0,0l0,0l0,0c0.1,0,0.3,0.1,0.4,0.1
					l0.7-1.9C82.5,226.6,80.6,225.9,78.8,225.2L78.8,225.2z M90,229.1l-0.6,1.9c1.9,0.6,3.8,1.1,5.8,1.5l0.5-1.9
					C93.8,230.1,91.8,229.6,90,229.1L90,229.1z M101.4,231.8l-0.4,2c1,0.2,2,0.4,3,0.5l0,0l0,0l0,0l0,0l0,0l0,0l0,0l0,0l0,0l0,0l0,0
					l0,0l0,0l0,0l0,0l0,0l0,0l0,0l0,0l0,0l0,0l0,0l0,0l0,0l0,0l0,0l0,0l0,0l0,0l0,0l0,0l0,0l0,0l0,0l0,0l0,0
					c0.7,0.1,1.4,0.2,2.1,0.3l0.3-2C105.3,232.4,103.4,232.1,101.4,231.8L101.4,231.8z M113.1,233.3l-0.2,2c2,0.2,4,0.3,6,0.3l0.1-2
					C117.1,233.5,115.1,233.4,113.1,233.3L113.1,233.3z M130.8,233.3c-1.9,0.1-3.9,0.2-5.9,0.3v2l0,0l0,0l0,0l0,0l0,0l0,0l0,0l0,0
					l0,0l0,0l0,0l0,0l0,0l0,0l0,0c1.9,0,3.8-0.1,5.7-0.3L130.8,233.3L130.8,233.3z M142.5,231.9c-1.9,0.3-3.9,0.6-5.8,0.9l0.2,2
					c1.2-0.2,2.4-0.3,3.7-0.5l0,0l0,0l0,0l0,0l0,0l0,0l0,0l0,0l0,0l0,0l0,0l0,0l0,0l0,0l0,0l0,0l0,0l0,0l0,0l0,0l0,0l0,0l0,0l0,0
					l0,0l0,0l0,0l0,0l0,0l0,0l0,0l0,0l0,0l0,0l0,0l0,0c0.5-0.1,1-0.2,1.5-0.3L142.5,231.9L142.5,231.9z M154,229.3
					c-1.9,0.5-3.8,1-5.7,1.5l0.4,1.9c0.3-0.1,0.6-0.1,0.9-0.2l0,0l0,0l0,0l0,0l0,0l0,0l0,0l0,0l0,0l0,0l0,0l0,0l0,0l0,0l0,0l0,0l0,0
					l0,0h0.1l0,0h0.1l0,0l0,0l0,0l0,0l0,0l0,0l0,0l0,0l0,0l0,0l0,0l0,0l0,0l0,0l0,0l0,0l0,0l0,0l0,0l0,0l0,0l0,0l0,0l0,0l0,0l0,0
					l0,0l0,0l0,0l0,0l0,0c0.3-0.1,0.5-0.1,0.8-0.2l0,0l0,0l0,0l0,0l0,0l0,0l0,0l0,0l0,0l0,0l0,0l0,0l0,0l0,0l0,0l0,0l0,0l0,0l0,0
					l0,0l0,0l0,0l0,0l0,0l0,0l0,0l0,0l0,0l0,0l0,0l0,0l0,0l0,0l0,0l0,0l0,0c0.6-0.2,1.3-0.3,1.9-0.5L154,229.3L154,229.3z
					 M165.2,225.4c-1.8,0.7-3.7,1.4-5.5,2l0.6,1.9c1.9-0.6,3.8-1.3,5.6-2.1L165.2,225.4L165.2,225.4z M175.9,220.5
					c-1.7,0.9-3.5,1.8-5.3,2.6l0.8,1.8c1.8-0.8,3.6-1.7,5.4-2.6L175.9,220.5L175.9,220.5z M186,214.5c-1.6,1.1-3.3,2.1-5,3.1l1,1.7
					l0.1-0.1l0,0l0,0l0,0l0,0l0,0l0,0l0,0l0,0l0,0l0.1-0.1l0,0l0,0l0,0l0,0l0,0l0,0l0,0l0,0l0,0l0,0l0,0l0,0l0,0l0,0l0,0l0,0l0,0
					l0,0l0,0l0,0l0,0l0,0c0.8-0.5,1.7-1,2.5-1.6l0,0l0,0l0,0l0,0l0,0l0,0l0,0l0,0l0,0l0,0l0,0l0,0l0,0l0,0l0,0l0,0l0,0l0,0l0,0l0,0
					l0,0h0.1l0,0l0,0l0,0l0,0l0,0l0,0l0,0l0,0l0,0l0,0l0,0l0,0l0,0l0,0l0,0l0,0l0,0l0,0l0,0l0,0l0,0l0,0c0.3-0.2,0.6-0.4,0.8-0.6
					L186,214.5L186,214.5z M195.5,207.5c-1.5,1.2-3.1,2.5-4.7,3.6l1.2,1.6l0,0l0,0l0,0l0,0l0,0l0,0l0,0l0,0l0,0c0,0,0,0,0.1-0.1l0,0
					l0,0l0,0l0,0l0,0l0,0l0,0l0,0l0,0l0,0l0,0l0,0l0,0l0,0l0,0l0,0l0,0l0,0l0,0l0,0l0,0l0,0l0,0l0,0l0,0l0,0l0,0l0,0
					c0.1,0,0.1-0.1,0.2-0.1l0,0l0,0l0,0l0,0l0,0l0,0l0,0l0,0l0,0l0,0l0,0l0,0l0,0l0,0l0,0l0,0l0,0l0,0l0,0l0,0l0,0
					c0.1-0.1,0.2-0.2,0.3-0.2l0,0l0,0l0,0l0,0l0,0l0,0l0,0l0,0l0,0l0,0l0,0l0,0l0,0l0,0l0,0l0,0l0,0l0,0l0,0
					c0.1-0.1,0.2-0.1,0.2-0.2l0,0l0,0l0,0l0,0l0,0l0,0l0,0l0,0l0,0l0,0l0,0l0,0l0,0l0,0l0,0l0,0l0,0l0,0l0,0l0,0l0,0l0,0l0,0l0,0
					l0,0l0,0l0,0l0,0l0,0l0,0l0,0l0,0l0,0l0,0l0,0l0,0l0,0l0,0l0,0l0,0l0,0l0,0l0,0l0,0l0,0l0,0l0,0l0,0l0,0l0,0l0,0l0,0
					c0.6-0.4,1.1-0.9,1.7-1.4L195.5,207.5L195.5,207.5z M204.2,199.6c-1.4,1.4-2.8,2.8-4.3,4.1l1.3,1.5l0,0l0,0l0,0l0,0l0,0l0,0l0,0
					l0.1-0.1l0,0l0,0l0,0l0,0l0,0l0,0l0,0l0,0l0,0l0,0l0,0l0,0l0,0l0,0l0,0l0,0l0,0l0,0l0,0l0,0l0,0l0,0l0,0l0,0l0,0
					c0.1-0.1,0.1-0.1,0.2-0.2l0,0l0,0l0,0l0,0l0,0l0,0l0,0l0,0l0,0l0,0l0,0l0,0l0,0l0,0l0,0c1.1-1,2.2-2.1,3.3-3.2L204.2,199.6
					L204.2,199.6z M212.1,190.8c-1.2,1.5-2.5,3-3.8,4.5l1.5,1.3c1.3-1.5,2.6-3,3.9-4.6L212.1,190.8L212.1,190.8z M219.1,181.3
					c-1.1,1.6-2.2,3.3-3.4,4.9l1.6,1.2c0-0.1,0.1-0.1,0.1-0.2l0,0l0,0l0,0l0,0l0,0l0,0l0,0l0,0l0,0l0,0l0,0l0,0l0,0l0,0l0,0
					c0.1-0.2,0.2-0.3,0.4-0.5l0,0l0,0l0,0l0,0l0,0c0.1-0.2,0.2-0.3,0.3-0.5l0,0l0,0l0,0l0,0l0,0l0,0l0,0l0,0l0,0l0,0l0,0l0,0l0,0
					l0,0l0,0l0,0l0,0l0,0l0,0l0,0l0,0l0,0l0,0c0,0,0-0.1,0.1-0.1l0,0l0,0l0,0l0,0l0,0l0,0l0,0l0,0l0,0l0,0l0,0l0,0l0,0l0,0l0,0l0,0
					l0,0l0,0l0,0l0,0l0,0l0,0l0,0l0,0l0,0l0,0c0.6-0.8,1.1-1.7,1.7-2.5L219.1,181.3L219.1,181.3z M225,171.1
					c-0.9,1.7-1.9,3.5-2.8,5.2l1.7,1c0.3-0.5,0.6-1,0.9-1.5l0,0l0,0l0,0l0,0l0,0l0,0l0,0l0,0l0,0l0,0l0,0l0,0l0,0l0,0l0,0l0,0l0,0
					l0,0l0,0l0,0l0,0l0,0l0,0l0,0l0,0l0,0c0-0.1,0.1-0.1,0.1-0.2l0,0l0,0l0,0l0,0l0,0l0,0l0,0l0,0l0,0l0,0l0,0l0,0l0,0l0,0l0,0l0,0
					l0,0l0,0l0,0l0,0l0,0c0.1-0.1,0.1-0.2,0.2-0.4l0,0l0,0l0,0l0,0l0,0l0,0l0,0l0,0l0,0l0,0l0,0l0,0l0,0l0,0l0,0l0,0l0,0l0,0l0,0
					l0,0l0,0l0,0l0,0l0,0l0,0l0,0l0,0l0,0c0,0,0,0,0-0.1l0,0c0,0,0,0,0-0.1l0,0l0,0l0,0l0,0l0,0l0,0l0,0l0,0l0,0
					c0.2-0.5,0.5-0.9,0.7-1.4L225,171.1L225,171.1z M229.9,160.4c-0.7,1.8-1.5,3.6-2.3,5.4l1.8,0.8c0.3-0.7,0.6-1.4,0.9-2.1l0,0l0,0
					l0,0l0,0l0,0l0,0l0,0l0,0l0,0l0,0l0,0l0,0l0,0l0,0l0,0l0,0l0,0l0,0l0,0l0,0l0,0l0,0l0,0l0,0l0,0l0,0c0.3-0.7,0.6-1.4,0.9-2.2
					l0,0l0,0l0,0l0,0l0,0l0,0l0,0l0,0l0,0l0,0l0,0l0,0l0,0l0,0l0,0l0,0l0,0l0,0l0,0l0,0c0-0.1,0.1-0.2,0.1-0.3L229.9,160.4
					L229.9,160.4z M233.6,149.2c-0.5,1.9-1.1,3.8-1.7,5.6l1.9,0.6c0.1-0.3,0.2-0.7,0.3-1l0,0l0,0l0,0l0,0l0,0l0,0l0,0l0,0l0,0l0,0
					l0,0l0,0l0,0l0,0l0,0l0,0l0,0l0,0l0,0l0,0l0,0l0,0l0,0l0,0l0,0l0,0l0,0l0,0l0,0l0,0l0,0l0,0l0,0v-0.1l0,0l0,0l0,0l0,0l0,0l0,0
					l0,0l0,0l0,0l0,0l0,0l0,0l0,0l0,0l0,0l0,0l0,0l0,0l0,0l0,0l0,0l0,0l0,0l0,0l0,0l0,0l0,0l0,0l0,0l0,0l0,0l0,0l0,0l0,0l0,0l0,0
					l0,0l0,0l0,0l0,0l0,0l0,0l0,0l0,0l0,0c0-0.1,0.1-0.2,0.1-0.3l0,0l0,0l0,0l0,0l0,0l0,0l0,0l0,0l0,0l0,0l0,0l0,0l0,0l0,0l0,0l0,0
					l0,0l0,0l0,0l0,0l0,0l0,0l0,0l0,0l0,0l0,0l0,0l0,0l0,0l0,0l0,0c0.1-0.3,0.2-0.7,0.3-1l0,0l0,0l0,0c0.1-0.2,0.1-0.5,0.2-0.7l0,0
					l0,0l0,0l0,0l0,0l0,0L233.6,149.2L233.6,149.2z M236.2,137.7c-0.3,1.9-0.7,3.9-1.1,5.8l2,0.4c0.2-0.8,0.3-1.6,0.5-2.4l0,0l0,0
					l0,0l0,0l0,0l0,0l0,0l0,0l0,0l0,0l0,0l0,0l0,0l0,0l0,0l0,0l0,0l0,0l0,0l0,0l0,0l0,0l0,0l0,0l0,0l0,0l0,0l0,0l0,0l0,0l0,0l0,0
					l0,0l0,0l0,0l0,0l0,0l0,0l0,0l0,0l0,0l0,0l0,0l0,0l0,0l0,0l0,0l0,0c0-0.1,0-0.2,0.1-0.4l0,0l0,0l0,0l0,0l0,0l0,0l0,0l0,0l0,0
					l0,0l0,0l0,0l0,0l0,0l0,0l0,0l0,0l0,0l0,0l0,0l0,0l0,0l0,0l0,0l0,0l0,0l0,0l0,0l0,0l0,0l0,0l0,0l0,0l0,0l0,0l0,0l0,0l0,0
					c0.1-0.4,0.1-0.8,0.2-1.2L236.2,137.7L236.2,137.7z M237.6,126c-0.1,2-0.3,3.9-0.5,5.9l2,0.2c0.1-0.5,0.1-1.1,0.2-1.6l0,0l0,0
					l0,0l0,0l0,0l0,0l0,0l0,0l0,0l0,0l0,0l0,0l0,0l0,0l0,0l0,0l0,0l0,0l0,0l0,0l0,0l0,0l0,0l0,0l0,0l0,0l0,0l0,0
					c0.1-1.2,0.2-2.5,0.3-3.7L237.6,126L237.6,126z M239.8,114.1l-2,0.1c0,1.3,0.1,2.6,0.1,3.9c0,0.7,0,1.3,0,2h2c0-0.2,0-0.5,0-0.7
					l0,0v-0.1l0,0l0,0l0,0l0,0l0,0l0,0l0,0l0,0l0,0l0,0l0,0l0,0l0,0l0,0l0,0l0,0l0,0l0,0l0,0l0,0l0,0l0,0l0,0l0,0l0,0l0,0l0,0l0,0
					l0,0l0,0l0,0l0,0l0,0l0,0l0,0l0,0l0,0l0,0l0,0l0,0l0,0l0,0l0,0l0,0l0,0l0,0l0,0l0,0l0,0l0,0l0,0l0,0l0,0l0,0c0,0,0,0,0-0.1l0,0
					l0,0l0,0l0,0l0,0c0,0,0,0,0-0.1l0,0l0,0l0,0l0,0l0,0c0,0,0,0,0-0.1l0,0l0,0l0,0l0,0l0,0c0,0,0,0,0-0.1l0,0l0,0l0,0l0,0l0,0v-0.1
					l0,0l0,0l0,0c0,0,0,0,0-0.1l0,0c0,0,0,0,0-0.1l0,0l0,0l0,0c0,0,0,0,0-0.1l0,0c0,0,0,0,0-0.1l0,0c0,0,0,0,0-0.1l0,0l0,0l0,0v-0.1
					l0,0l0,0l0,0v-0.1l0,0l0,0l0,0c0,0,0,0,0-0.1l0,0c0,0,0,0,0-0.1l0,0l0,0l0,0l0,0l0,0c0,0,0,0,0-0.1l0,0l0,0l0,0l0,0l0,0
					c0,0,0,0,0-0.1l0,0c0,0,0,0,0-0.1l0,0l0,0l0,0c0,0,0,0,0-0.1l0,0c0,0,0,0,0-0.1l0,0l0,0l0,0l0,0l0,0c0,0,0,0,0-0.1l0,0l0,0l0,0
					l0,0l0,0c0,0,0,0,0-0.1l0,0l0,0l0,0l0,0l0,0l0,0c0,0,0,0,0-0.1l0,0l0,0l0,0l0,0l0,0V117l0,0
					C239.8,114.6,239.8,114.3,239.8,114.1L239.8,114.1z M238.8,102.2l-2,0.3c0.3,1.9,0.5,3.9,0.6,5.9l2-0.2c0-0.2,0-0.3,0-0.5l0,0
					l0,0l0,0l0,0l0,0l0,0l0,0l0,0l0,0l0,0l0,0l0,0l0,0l0,0l0,0l0,0l0,0l0,0l0,0l0,0l0,0l0,0l0,0l0,0l0,0l0,0l0,0l0,0l0,0l0,0l0,0
					l0,0l0,0l0,0l0,0l0,0l0,0l0,0l0,0l0,0l0,0l0,0l0,0l0,0c-0.1-1.2-0.2-2.3-0.4-3.5l0,0l0,0l0,0l0,0l0,0l0,0l0,0l0,0l0,0l0,0l0,0
					l0,0l0,0l0,0l0,0l0,0l0,0l0,0l0,0l0,0l0,0l0,0l0,0l0,0l0,0l0,0l0,0l0,0l0,0l0,0C238.8,102.4,238.8,102.3,238.8,102.2
					L238.8,102.2z M236.6,90.4l-1.9,0.5c0.5,1.9,0.9,3.8,1.2,5.8l2-0.4c-0.1-0.8-0.3-1.5-0.4-2.3l0,0l0,0l0,0l0,0l0,0l0,0l0,0l0,0
					l0,0l0,0l0,0l0,0l0,0l0,0l0,0l0,0l0,0l0,0l0,0l0,0l0,0l0,0l0,0l0,0l0,0l0,0l0,0l0,0C237.1,92.4,236.8,91.4,236.6,90.4
					L236.6,90.4z M233.2,78.9l-1.9,0.7c0.7,1.8,1.3,3.7,1.8,5.6l1.9-0.6C234.5,82.7,233.9,80.8,233.2,78.9L233.2,78.9L233.2,78.9
					L233.2,78.9L233.2,78.9z M228.6,67.8l-1.8,0.9c0.8,1.8,1.6,3.6,2.4,5.4l1.8-0.8l0,0l0,0v-0.1l0,0l0,0l0,0l0,0l0,0l0,0l0,0l0,0
					l0,0l0,0l0,0l0,0l0,0l0,0l0,0l0,0l0,0l0,0l0,0l0,0l0,0l0,0l0,0l0,0l0,0l0,0l0,0l0,0l0,0l0,0l0,0l0,0l0,0l0,0l0,0l0,0l0,0l0,0
					l0,0l0,0l0,0l0,0l0,0l0,0l0,0l0,0l0,0l0,0l0,0l0,0l0,0l0,0l0,0l0,0l0,0l0,0l0,0l0,0l0,0l0,0l0,0l0,0l0,0l0,0l0,0l0,0l0,0l0,0
					l0,0l0,0l0,0l0,0l0,0l0,0l0,0l0,0c0-0.1,0-0.1-0.1-0.2l0,0v-0.1l0,0l0,0l0,0l0,0l0,0l0,0l0,0l0,0l0,0l0,0l0,0l0,0l0,0l0,0l0,0
					l0,0l0,0l0,0l0,0l0,0l0,0C229.6,69.8,229.1,68.8,228.6,67.8L228.6,67.8z M222.9,57.2l-1.7,1c1,1.7,2,3.4,2.9,5.1l1.8-0.9
					C225,60.7,224,58.9,222.9,57.2L222.9,57.2z M216.2,47.3l-1.6,1.2c1.2,1.6,2.3,3.2,3.4,4.8l1.7-1.1c-0.9-1.4-1.9-2.7-2.9-4l0,0
					l0,0l0,0l0,0l0,0l0,0l0,0l0,0l0,0l0,0l0,0l0,0l0,0l0,0l0,0l0,0l0,0l0,0l0,0l0,0l0,0l0,0l0,0l0,0l0,0l-0.1-0.1l0,0l0,0l0,0l0,0
					l0,0l0,0l0,0l0,0l0,0C216.3,47.4,216.3,47.4,216.2,47.3C216.3,47.4,216.3,47.4,216.2,47.3C216.3,47.4,216.2,47.4,216.2,47.3
					C216.2,47.4,216.2,47.4,216.2,47.3C216.2,47.4,216.2,47.3,216.2,47.3L216.2,47.3L216.2,47.3L216.2,47.3z M208.5,38.1l-1.5,1.4
					c1.3,1.4,2.6,2.9,3.9,4.4l1.5-1.3c-0.1-0.1-0.2-0.2-0.3-0.3l0,0l0,0l0,0l0,0l0,0l0,0l0,0l0,0l0,0l0,0l0,0l0,0l0,0l0,0l0,0l0,0
					l0,0l0,0l0,0l0,0C210.8,40.7,209.7,39.4,208.5,38.1L208.5,38.1z M199.9,29.8l-1.3,1.5c1.5,1.3,2.9,2.6,4.3,4l1.4-1.4
					c-0.6-0.6-1.3-1.2-1.9-1.8l0,0l0,0l0,0l0,0l0,0l0,0l0,0l0,0l0,0l0,0l0,0l0,0l0,0l0,0l0,0l0,0l0,0l0,0c-0.1,0-0.1-0.1-0.2-0.1
					l0,0l0,0l0,0l0,0l0,0l0,0l0,0l0,0l0,0C201.2,30.9,200.5,30.3,199.9,29.8L199.9,29.8z M190.5,22.3l-1.2,1.6
					c1.6,1.1,3.2,2.3,4.7,3.5l1.2-1.6C193.7,24.7,192.1,23.5,190.5,22.3L190.5,22.3z M180.4,15.8l-1,1.7c1.7,1,3.4,2,5,3l1.1-1.7
					c-0.1-0.1-0.3-0.2-0.4-0.2l0,0l0,0l0,0l0,0l0,0l0,0l0,0l0,0l0,0l0,0l0,0l0,0l0,0l0,0l0,0l0,0l0,0l0,0l0,0l0,0l0,0l0,0l0,0l0,0
					C183.3,17.5,181.8,16.7,180.4,15.8L180.4,15.8z M169.7,10.5l-0.8,1.8c1.8,0.8,3.6,1.6,5.3,2.5l0.9-1.8c-0.9-0.4-1.8-0.9-2.7-1.3
					l0,0l0,0l0,0l0,0l0,0l0,0l0,0l0,0l0,0l0,0l0,0l0,0l0,0l0,0l0,0l0,0l0,0l0,0l0,0l0,0l0,0l0,0l0,0l0,0l0,0l0,0l0,0l0,0l0,0l0,0
					l0,0l0,0l0,0l0,0c0,0,0,0-0.1,0l0,0l0,0l0,0l0,0l0,0l0,0l0,0l0,0l0,0l0,0l0,0l0,0l0,0l0,0l0,0l0,0l0,0l0,0l0,0l0,0l0,0l0,0l0,0
					l0,0l0,0l0,0l0,0l0,0l0,0l0,0l0,0l0,0l0,0l0,0l0,0l0,0C170.5,10.8,170.1,10.6,169.7,10.5L169.7,10.5z M158.5,6.2l-0.6,1.9
					c1.9,0.6,3.7,1.3,5.6,2l0.7-1.9l0,0l0,0l0,0l0,0l0,0l0,0l0,0l0,0l0,0l0,0l0,0l0,0l0,0l0,0l0,0l0,0l0,0l0,0l0,0l0,0l0,0l0,0l0,0
					l0,0c-0.1,0-0.2-0.1-0.2-0.1l0,0l0,0l0,0l0,0l0,0l0,0l0,0l0,0l0,0l0,0l0,0l0,0l0,0l0,0l0,0l0,0l0,0l0,0l0,0l0,0l0,0l0,0l0,0
					c-0.9-0.3-1.8-0.6-2.7-1l0,0l0,0l0,0l0,0l0,0l0,0l0,0l0,0l0,0l0,0l0,0l0,0l0,0l0,0l0,0l0,0l0,0l0,0l0,0l0,0l0,0l0,0l0,0l0,0l0,0
					l0,0l0,0l0,0C159.2,6.4,158.8,6.3,158.5,6.2L158.5,6.2z M146.9,3.1l-0.4,2c1.9,0.4,3.8,0.9,5.7,1.4l0.5-1.9
					C150.8,4,148.8,3.5,146.9,3.1L146.9,3.1z M135,1.2l-0.2,2c1.9,0.2,3.9,0.5,5.8,0.8l0.3-2c-0.4-0.1-0.7-0.1-1.1-0.2l0,0l0,0l0,0
					l0,0l0,0l0,0l0,0l0,0l0,0l0,0l0,0l0,0l0,0l0,0l0,0l0,0l0,0l0,0l0,0l0,0l0,0l0,0l0,0l0,0l0,0l0,0l0,0l0,0l0,0l0,0l0,0l0,0l0,0
					l0,0l0,0l0,0l0,0l0,0l0,0l0,0l0,0l0,0l0,0l0,0l0,0l0,0h-0.1l0,0l0,0l0,0l0,0l0,0h-0.1l0,0c-0.1,0-0.1,0-0.2,0l0,0h-0.1l0,0h-0.1
					l0,0C137.1,1.5,136.1,1.3,135,1.2L135,1.2z M123,0.5v2c2,0,3.9,0.1,5.9,0.2l0.1-2c-0.4,0-0.8,0-1.2-0.1l0,0l0,0l0,0l0,0l0,0l0,0
					l0,0l0,0l0,0l0,0l0,0l0,0l0,0l0,0l0,0l0,0l0,0l0,0l0,0l0,0l0,0l0,0l0,0l0,0l0,0l0,0l0,0l0,0l0,0l0,0l0,0l0,0l0,0l0,0l0,0l0,0
					l0,0l0,0l0,0l0,0l0,0l0,0l0,0l0,0C125.6,0.6,124.3,0.5,123,0.5L123,0.5z"/>
			</g>
			<g>
				<path class="st1" d="M137.1,242.6c-7.2,1.8-28.8,0-28.8,0C115.5,232.7,130.8,236.3,137.1,242.6"/>
				<path class="st1" d="M118.2,236.3c3.3-0.9,9.1-0.2,12.8,1.8c3-0.9,4.9-3.5,5.3-5.7c0,0-2.2,1.3-3.8,1.3c-4,0.2-5-0.7-8-0.9
					C122.6,232.7,120.3,233.6,118.2,236.3z"/>
				<path class="st1" d="M112.6,238.2c0.5-0.4,4.1-1.7,5.1-1.7c0.3-1.1,3-3.4,3.5-3.3c-2.5-0.9-6.7,0.4-7.4,0.5
					c-0.7,0.1-5.6,0.2-6.6-1.3C107.2,235.7,111.7,238.2,112.6,238.2z"/>
				<path class="st1" d="M121.7,232.9c-0.6-0.4-4.2-0.7-5.9-0.1c-1.7,0.6-3.8,0.5-3.8,0.5s-2.5-3.2-1.7-6.3c0.9,1.3,2.5,2.7,4.2,3.2
					s4.1,0.8,4.6,1c0.4,0.2,2.8,0.7,3.5,1.4L121.7,232.9z"/>
				<path class="st1" d="M122.1,231.8c0.2,0.1,1,0.6,1.1,0.7c0.5-0.1,2.2-0.4,4.1,0.2c1.9,0.6,3.8,0.7,4.1,0.6
					c2.1-1.9,2.1-5.7,1.8-6.3c-1.4,2-3.5,3-5.5,3.5C126.3,230.7,124.2,231,122.1,231.8z"/>
				<path class="st1" d="M123.4,230.9c0.4-0.2,1.9-0.4,2.7-0.5c0.8-0.1,2.6-0.6,2.9-0.7c0.7-2,0.5-5-0.7-6.6
					c-0.3,1.9-2.1,3.9-2.6,4.3c0,0-2.6,2.4-3.5,2.5C122.5,230,123.4,230.9,123.4,230.9z"/>
				<path class="st1" d="M121.7,231.6c0.1-0.2,1-0.6,1.2-0.5c0,0-2.1-1.5-3.9-2.5s-3.6-4.2-3.8-5.4c-1.3,1.5-1.6,4.4-0.8,6.5
					c0.9,0.4,2.1,0.5,3.7,1C119.8,231,121.7,231.6,121.7,231.6z"/>
				<path class="st1" d="M121.7,229.7c0,0,2-1.1,2.1-1.3c0.3-2.1-1.1-5.2-1.4-5.8c0,1.6-0.4,5.7-1.3,6.7L121.7,229.7z"/>
				<path class="st1" d="M121.6,220.3c0.6,1.7,0.7,6.1-0.8,8.8c-0.7-0.4-1.4-0.9-1.4-0.9c0-0.1-0.1-0.9,0.1-1.9
					S121.6,220.3,121.6,220.3z"/>
			</g>
		</g>
	</g>
	<g>
		<g>
			<g class="st2">
				<polygon class="st3" points="176.8,61.3 176.8,60.1 149.5,40 70.9,40 70.9,46.5 65.3,47.2 70.8,191.6 83.4,190.7 176.7,190.1 
					179.4,50.3 				"/>
			</g>
			<polygon class="st4" points="176.7,187.6 70.8,191.6 65.3,47.2 143.9,44.2 171.9,63.2 			"/>
			<polygon class="st4" points="176.7,190.1 70.8,191.6 77.1,46 179.4,50.3 			"/>
			<polygon class="st5" points="175.2,187.4 70.9,184.5 68.7,46.7 139.6,44.6 158.6,46.7 179.4,65.1 			"/>
			<polygon class="st4" points="176.8,184.5 70.9,184.5 70.9,40 149.5,40 176.8,60.1 			"/>
			<polygon class="st6" points="159.6,59.3 73.8,59.4 73.8,43 152.8,43 			"/>
			<polygon class="st7" points="176.7,60 158,65.1 149.7,40 			"/>
			<g>
				<path class="st6" d="M134.7,84.5h9.3v-0.1l24.8-0.1c0.7,0,1.2-0.5,1.2-1.2c0-0.6-0.6-1.2-1.2-1.2L140.5,82v0.1h-5.8
					c-0.7,0-1.2,0.5-1.2,1.2C133.5,83.9,134,84.5,134.7,84.5z"/>
				<path class="st6" d="M168.9,88.6l-28.4,0.1v0.1h-5.8c-0.7,0-1.2,0.5-1.2,1.2c0,0.6,0.6,1.2,1.2,1.2h9.3V91l24.9-0.1
					c0.7,0,1.2-0.5,1.2-1.2C170.1,89.1,169.6,88.6,168.9,88.6z"/>
				<path class="st6" d="M153.8,94.6h-13.3v0.1h-6.3c-0.5,0-0.9,0.5-0.9,1.2c0,0.6,0.4,1.2,0.9,1.2h9.8V97h9.8
					c0.5,0,0.9-0.5,0.9-1.2S154.3,94.6,153.8,94.6z"/>
				<path class="st8" d="M135.3,77.3h8.7l0,0h11.6c0.9,0,1.6-0.8,1.6-1.8s-0.7-1.8-1.7-1.8h-15.1l0,0h-5.2c-0.9,0-1.6,0.8-1.6,1.8
					S134.4,77.3,135.3,77.3z"/>
			</g>
			<path class="st6" d="M125,148.7c0,0.7-0.5,1.3-1,1.3l-47.1,0.1c-0.6,0-1-0.6-1-1.3l0,0c0-0.7,0.5-1.3,1-1.3l47.1-0.1
				C124.5,147.5,125,148,125,148.7L125,148.7z"/>
			<path class="st8" d="M121.1,116.9c0,1-0.7,1.7-1.6,1.7l-41.7,0.1c-0.9,0-1.6-0.8-1.6-1.7l0,0c0-1,0.7-1.7,1.6-1.7l41.7-0.1
				C120.4,115.2,121.1,116,121.1,116.9L121.1,116.9z"/>
			<polygon class="st9" points="176.8,60.1 157.8,60.6 149.5,40 			"/>
			<g>
				<path class="st10" d="M127.8,84.4H116V72.5h11.8V84.4z M116.8,83.6H127V73.3h-10.2V83.6z"/>
			</g>
			<g>
				<polygon class="st10" points="121.3,81.5 118,78.2 118.6,77.6 121.2,80.3 125.2,75.2 125.8,75.7 				"/>
			</g>
			<g>
				<path class="st10" d="M127.8,100.9H116V89.1h11.8V100.9z M116.8,100.1H127V89.9h-10.2V100.1z"/>
			</g>
			<g>
				<polygon class="st10" points="121.3,98 118,94.7 118.6,94.1 121.2,96.8 125.2,91.7 125.8,92.2 				"/>
			</g>
			<g>
				<rect x="77.2" y="71.7" class="st6" width="31.7" height="35.5"/>
				<g>
					<g>
						<g>
							<path class="st11" d="M105.7,107.2c-0.3-1.1-1.9-2.4-3.1-1.9l0.4-0.9c-0.9,0.4-1.6,1.5-1.8,2.8H105.7z"/>
						</g>
						<g>
							<path class="st11" d="M100.7,107.2h5.2v-0.3c-0.5-1.9-3.2-3.5-4.4-2.9l0.6,0.6C101.4,105,100.9,106,100.7,107.2z"/>
						</g>
						<g>
							<path class="st11" d="M103.1,107.2c0-0.2-0.1-0.3-0.1-0.5c-0.4-2.4-3.2-4.2-5.2-3.8c-1.9,0.3-4.6-0.6-6.3-0.1
								c-3.3,0.9-4.6,0.7-4.9,2.5c-0.1,0.7-0.1,1.3-0.1,2L103.1,107.2L103.1,107.2z"/>
						</g>
						<path class="st11" d="M89.5,107.2c0.5-1.9,0.9-3.5-0.2-3.6c-1.4-0.1-4.3,1.3-5.3,3.6H89.5z"/>
						<g>
							<path class="st11" d="M105.7,107.2c-0.3-1.1-1.9-2.4-3.1-1.9l0.4-0.9c-0.9,0.4-1.6,1.5-1.8,2.8H105.7z"/>
						</g>
						<g>
							<path class="st11" d="M105.9,107.2v-0.3c-0.5-1.9-3.2-3.5-4.4-2.9l-0.1,0.6c-0.8,0.4-1,1.4-0.9,2.5h5.4V107.2z"/>
						</g>
						<g>
							<path class="st12" d="M103.4,107.2c-0.6-2.2-3.3-3.8-5.2-3.4c-1.9,0.3-4.6-0.5-6.3,0c-3.3,0.9-4.6,0.8-4.9,2.5
								c0,0.3-0.1,0.6-0.1,1L103.4,107.2L103.4,107.2z"/>
						</g>
						<g>
							<path class="st12" d="M103,107.2c-0.5-2.3-3.2-3.9-5.1-3.6s-4.6-0.6-6.3-0.1c-3.3,0.9-4.6,0.7-4.9,2.5
								c-0.1,0.4-0.1,0.8-0.1,1.3H103V107.2z"/>
						</g>
						<g>
							<path class="st11" d="M103.1,107.2c0-0.2-0.1-0.3-0.1-0.5c-0.4-2.4-3.2-4.2-5.2-3.8c-1.9,0.3-4.6-0.6-6.3-0.1
								c-3.3,0.9-4.6,0.7-4.9,2.5c-0.1,0.7-0.1,1.3-0.1,2L103.1,107.2L103.1,107.2z"/>
						</g>
						<g>
							<path class="st12" d="M100.4,107.2c0.1-0.1,0.6-0.5,0.6-0.8c0.2-0.6-0.1-2.4-0.1-2.4c-0.1-0.7-0.6-1.5-0.6-1.4
								c-0.3,1.7-0.6,3.1-1,4.5h1.1V107.2z"/>
						</g>
						<g>
							<path class="st13" d="M92,107.2h7.9c0.4-2.5,0-4.6-2-4.3c-1.9,0.3-4.6-0.7-6.3-0.1c-1,0.3-1.1,0.7-1,1
								C91,104.9,91.5,106.1,92,107.2z"/>
						</g>
						<g>
							<path class="st12" d="M91.3,107.2h1.1c-0.6-1.3-1.2-2.7-1.7-4.4c0-0.1-0.4,0.8-0.3,1.5c0,0,0.1,1.8,0.3,2.4
								C90.7,106.8,91.1,107,91.3,107.2z"/>
						</g>
						<path class="st14" d="M89,107.2c0-0.6-0.1-0.9-0.6-0.9c-0.6,0-1.5,0.3-2.4,0.9H89z"/>
						<path class="st11" d="M89.5,107.2c0.5-1.9,0.9-3.5-0.2-3.6c-1.4-0.1-4.3,1.3-5.3,3.6H89.5z"/>
						<g>
							<path class="st15" d="M95.5,107.2L95.5,107.2c0.9-1.7,2.3-3.1,2.3-4.2l-0.1-8.8c0-1.1-1.4-1.9-3-1.9c-1.7,0-3,0.9-3,2
								l0.1,8.1C91.7,103.4,94.8,106,95.5,107.2z"/>
						</g>
						<polygon class="st14" points="96.9,107.2 98.7,103.3 98.7,102.1 95.4,107.1 95.5,107.2 						"/>
						<polygon class="st14" points="95.6,107.2 95.6,107.1 91.2,101.8 91.2,103 93.9,107.2 						"/>
						<polygon class="st13" points="96.7,107.2 98.7,102.9 98.7,101.8 95.4,106.7 95.8,107.2 						"/>
						<g>
							<path class="st16" d="M91.7,100.5l-0.1-6.3c0-1.1,1.3-2,3-2s3,0.8,3,1.9l0.1,8.4C94.2,103.6,91.7,100.6,91.7,100.5z"/>
						</g>
						<g>
							<path class="st15" d="M87.1,87.7c0,2.1,0.2,5.8,1.4,8.7c0.7,1.9,3.9,4,5.6,4.8c0.5,0.2,1.4,0,1.7,0c1.7-0.1,4.4-4.2,4.6-5.7
								c0.5-2.6,0.8-5.9,0.4-10c-0.6-5.1-4.4-8.7-8.5-8.1C88.1,78.1,87.1,81.9,87.1,87.7z"/>
						</g>
						<g>
							<path class="st16" d="M100.8,85.5c-0.5-4.9-4-8.4-7.9-8.1c2.5,0.1,6,3.6,6.4,6.5c0.5,3.4,0.9,7.7,0.4,11.2
								c-0.4,2.7-0.9,2.9-2.5,5c-0.4,0.5-1.5,1.1-1.4,1.1c1.7-0.1,4.4-4.2,4.6-5.7C100.9,92.9,101.2,89.6,100.8,85.5z"/>
						</g>
						<g>
							<path class="st16" d="M102.1,87.7c0.2,1.2-0.1,3.3-0.8,3.4c-0.7,0.1-1.4-0.7-1.6-1.9c-0.2-1.2,0.3-2.2,1-2.3
								C101.4,86.8,102,86.5,102.1,87.7z"/>
						</g>
						<path class="st17" d="M85.1,78.7c0,2.3,1.8,4.1,4.1,4.1c2.3,0,4.1-1.8,4.1-4.1c0-2.3-1.8-4.1-4.1-4.1S85.1,76.4,85.1,78.7z"/>
						<g>
							<g>
								<g>
									<path class="st17" d="M100.8,90.8c0.1,0.6-0.3,2.7-0.2,3.4c0.7-0.5,1.7,7.8,2.3,7.3c2.1-13.5-1.3-23.2-2.8-23.6
										c-1.6-1.2-7.4-4.9-13.7,1c-1.5,1.4-2.2,6.7-2.4,12.2c1.3,4.8,3.1,5,4.9,5.5c-2.7-5.1,1.6-11.2,4.5-11.5
										c1.2-0.2,3.4,0,4.7-0.6C98.2,84.3,100.5,87.1,100.8,90.8z"/>
								</g>
							</g>
						</g>
						<polygon class="st13" points="95.3,107.2 95.6,106.7 91.2,101.4 91.2,102.9 94.1,107.2 						"/>
					</g>
				</g>
			</g>
			<path class="st6" d="M168.9,124.8c0,0.7-0.6,1.3-1.3,1.3H77.5c-0.7,0-1.3-0.6-1.3-1.3l0,0c0-0.7,0.6-1.3,1.3-1.3h90.1
				C168.3,123.4,168.9,124,168.9,124.8L168.9,124.8z"/>
			<path class="st6" d="M168.9,132.4c0,0.7-0.6,1.3-1.3,1.3H77.5c-0.7,0-1.3-0.6-1.3-1.3l0,0c0-0.7,0.6-1.3,1.3-1.3h90.1
				C168.3,131.1,168.9,131.7,168.9,132.4L168.9,132.4z"/>
			<path class="st6" d="M168.9,140.2c0,0.7-0.6,1.3-1.3,1.3H77.5c-0.7,0-1.3-0.6-1.3-1.3l0,0c0-0.7,0.6-1.3,1.3-1.3h90.1
				C168.3,138.8,168.9,139.4,168.9,140.2L168.9,140.2z"/>
			<path class="st18" d="M166.9,170.8c0,0.1-0.1,0.2-0.2,0.2h-32.9c-0.1,0-0.2-0.1-0.2-0.2l0,0c0-0.1,0.1-0.2,0.2-0.2h32.9
				C166.8,170.6,166.9,170.7,166.9,170.8L166.9,170.8z"/>
			<g>
				<path class="st18" d="M136.3,166.7c1.5-1.4,3,0.2,4.7-0.3c-0.2-0.2-0.5-0.3-0.7-0.5c-0.1,1.5,0.3,3,2.1,2.9
					c1.5-0.1,3.5-1.5,4.9-0.4c0.2,0.2,0.6,0,0.7-0.2c0.3-0.7,0.9-1.2,1-2c-0.3,0.1-0.5,0.2-0.8,0.3c1.5,1,3.5,2,5.4,1.7
					c1.7-0.3,2.9-1.5,3.5-3c0.7-1.7,2.1-7.1-1-7.4c-2.9-0.2-3.1,4.7-2.7,6.6c0.9,4.2,6,3.9,9.2,3.5c0.7-0.1,0.7-1.2,0-1.1
					c-2.5,0.3-6.1,0.9-7.7-1.6c-1-1.5-0.8-4.9,0.5-6.2c1.1-1.1,1.5,1.2,1.5,1.8c0,1.2-0.3,2.4-0.7,3.6c-0.4,1.3-1.3,2.3-2.6,2.7
					c-1.7,0.5-3.5-0.7-4.9-1.5c-0.3-0.2-0.7,0-0.8,0.3c-0.1,0.7-0.6,1.2-0.9,1.8c0.2-0.1,0.5-0.1,0.7-0.2c-1.1-0.8-2.4-0.5-3.6-0.2
					c-0.7,0.2-1.3,0.4-2,0.5c-1,0.1-0.9-1.2-0.8-1.8c0-0.4-0.4-0.6-0.7-0.5c-1,0.3-1.8-0.3-2.8-0.4c-1-0.1-1.7,0.3-2.5,1
					C135.1,166.4,135.8,167.1,136.3,166.7L136.3,166.7z"/>
			</g>
		</g>
		<g>
			<path class="st1" d="M81.3,52.7c-0.1,0.2-0.3,0.4-0.6,0.5c-0.2,0.1-0.5,0.2-0.9,0.2c-0.3,0-0.7-0.1-0.9-0.2
				c-0.3-0.1-0.5-0.3-0.7-0.5C78.1,52.5,78,52.3,78,52h1c0,0.2,0.1,0.4,0.2,0.5s0.3,0.2,0.5,0.2s0.4-0.1,0.5-0.2
				c0.1-0.1,0.2-0.2,0.2-0.4s0-0.3-0.1-0.4c-0.1-0.1-0.2-0.2-0.3-0.2c-0.1-0.1-0.3-0.1-0.6-0.2c-0.3-0.1-0.6-0.2-0.7-0.3
				c-0.2-0.1-0.4-0.2-0.5-0.4S78,50.2,78,49.9c0-0.4,0.2-0.8,0.5-1s0.7-0.4,1.2-0.4s0.9,0.1,1.2,0.4c0.3,0.2,0.5,0.6,0.5,1h-1.1
				c0-0.2-0.1-0.3-0.2-0.4c-0.1-0.1-0.3-0.2-0.5-0.2s-0.3,0-0.4,0.1S79,49.6,79,49.8c0,0.1,0,0.3,0.1,0.4c0.1,0.1,0.2,0.2,0.3,0.2
				c0.1,0.1,0.3,0.1,0.5,0.2c0.3,0.1,0.6,0.2,0.8,0.3c0.2,0.1,0.4,0.2,0.5,0.4s0.2,0.4,0.2,0.8C81.5,52.3,81.5,52.5,81.3,52.7z"/>
			<path class="st1" d="M85,49.7c0.3,0.2,0.5,0.4,0.7,0.7s0.3,0.6,0.3,1s-0.1,0.7-0.3,1c-0.2,0.3-0.4,0.5-0.7,0.7
				c-0.3,0.2-0.6,0.2-1,0.2s-0.7-0.1-1-0.2c-0.3-0.2-0.5-0.4-0.7-0.7s-0.3-0.6-0.3-1s0.1-0.8,0.3-1c0.2-0.3,0.4-0.5,0.7-0.7
				c0.3-0.2,0.6-0.2,1-0.2S84.7,49.6,85,49.7z M83.3,50.6c-0.2,0.2-0.3,0.5-0.3,0.8c0,0.4,0.1,0.6,0.3,0.8c0.2,0.2,0.4,0.3,0.7,0.3
				c0.3,0,0.5-0.1,0.7-0.3s0.3-0.5,0.3-0.8c0-0.4-0.1-0.6-0.3-0.8c-0.2-0.2-0.4-0.3-0.7-0.3C83.7,50.4,83.5,50.5,83.3,50.6z"/>
			<path class="st1" d="M87.6,48.3v5.1h-1v-5.1H87.6z"/>
			<path class="st1" d="M88.6,48.1C88.7,48,88.9,48,89,48c0.2,0,0.3,0,0.4,0.1s0.2,0.2,0.2,0.4s-0.1,0.3-0.2,0.4
				c-0.1,0-0.2,0.1-0.4,0.1s-0.3,0-0.4-0.1s-0.2-0.2-0.2-0.4S88.5,48.2,88.6,48.1z M89.5,49.6v3.8h-1v-3.8H89.5z"/>
			<path class="st1" d="M93.3,49.9c0.3,0.3,0.5,0.6,0.6,1.1h-1c0-0.2-0.1-0.4-0.3-0.5c-0.1-0.1-0.3-0.2-0.6-0.2
				c-0.3,0-0.5,0.1-0.6,0.3c-0.2,0.2-0.3,0.5-0.3,0.8s0.1,0.6,0.3,0.8c0.2,0.2,0.4,0.3,0.6,0.3s0.4-0.1,0.6-0.2
				c0.1-0.1,0.2-0.3,0.3-0.5h1c-0.1,0.5-0.3,0.8-0.6,1.1c-0.3,0.3-0.7,0.4-1.2,0.4c-0.4,0-0.7-0.1-1-0.2c-0.3-0.2-0.5-0.4-0.7-0.7
				s-0.2-0.6-0.2-1s0.1-0.8,0.2-1c0.2-0.3,0.4-0.5,0.7-0.7c0.3-0.2,0.6-0.2,1-0.2C92.6,49.5,93,49.6,93.3,49.9z"/>
			<path class="st1" d="M94.7,48.1C94.8,48,95,48,95.1,48c0.2,0,0.3,0,0.4,0.1s0.2,0.2,0.2,0.4s-0.1,0.3-0.2,0.4
				C95.4,49,95.2,49,95.1,49c-0.2,0-0.3,0-0.4-0.1s-0.2-0.2-0.2-0.4S94.6,48.2,94.7,48.1z M95.6,49.6v3.8h-1v-3.8H95.6z"/>
			<path class="st1" d="M98.5,52.6v0.8H98c-0.4,0-0.8-0.1-1-0.3s-0.3-0.6-0.3-1v-1.7h-0.5v-0.8h0.5v-0.9h1v0.9h0.9v0.8h-0.9v1.7
				c0,0.2,0,0.3,0.1,0.4c0.1,0.1,0.2,0.1,0.4,0.1H98.5z"/>
			<path class="st1" d="M102.9,49.6v3.8h-1v-0.8c-0.1,0.3-0.3,0.5-0.5,0.6s-0.5,0.2-0.8,0.2c-0.4,0-0.8-0.1-1.1-0.4
				c-0.3-0.3-0.4-0.7-0.4-1.2v-2.2h1v2.1c0,0.3,0.1,0.5,0.2,0.7c0.2,0.2,0.4,0.3,0.6,0.3c0.3,0,0.5-0.1,0.7-0.3s0.2-0.4,0.2-0.8v-2
				C101.8,49.6,102.9,49.6,102.9,49.6z"/>
			<path class="st1" d="M106.1,49.7c0.2,0.2,0.4,0.4,0.5,0.6v-2.1h1v5.1h-1v-0.8c-0.1,0.3-0.3,0.5-0.5,0.6c-0.2,0.2-0.5,0.2-0.8,0.2
				s-0.6-0.1-0.9-0.2c-0.3-0.2-0.5-0.4-0.6-0.7s-0.2-0.6-0.2-1s0.1-0.8,0.2-1c0.1-0.3,0.3-0.5,0.6-0.7c0.3-0.2,0.5-0.2,0.9-0.2
				C105.6,49.5,105.9,49.6,106.1,49.7z M104.9,50.7c-0.2,0.2-0.3,0.5-0.3,0.8s0.1,0.6,0.3,0.8c0.2,0.2,0.4,0.3,0.7,0.3
				c0.3,0,0.5-0.1,0.7-0.3s0.3-0.5,0.3-0.8s-0.1-0.6-0.3-0.8s-0.4-0.3-0.7-0.3S105.1,50.5,104.9,50.7z"/>
			<path class="st1" d="M112.3,49.7c0.2,0.2,0.4,0.4,0.5,0.6v-2.1h1v5.1h-1v-0.8c-0.1,0.3-0.3,0.5-0.5,0.6c-0.2,0.2-0.5,0.2-0.8,0.2
				s-0.6-0.1-0.9-0.2c-0.3-0.2-0.5-0.4-0.6-0.7s-0.2-0.6-0.2-1s0.1-0.8,0.2-1c0.1-0.3,0.3-0.5,0.6-0.7c0.3-0.2,0.5-0.2,0.9-0.2
				C111.8,49.5,112.1,49.6,112.3,49.7z M111,50.7c-0.2,0.2-0.3,0.5-0.3,0.8s0.1,0.6,0.3,0.8c0.2,0.2,0.4,0.3,0.7,0.3
				c0.3,0,0.5-0.1,0.7-0.3s0.3-0.5,0.3-0.8s-0.1-0.6-0.3-0.8s-0.4-0.3-0.7-0.3C111.5,50.4,111.2,50.5,111,50.7z"/>
			<path class="st1" d="M118.2,51.7h-2.8c0,0.3,0.1,0.6,0.3,0.8c0.2,0.2,0.4,0.2,0.6,0.2s0.4-0.1,0.6-0.2c0.1-0.1,0.2-0.3,0.3-0.4h1
				c-0.1,0.3-0.2,0.5-0.3,0.7c-0.2,0.2-0.4,0.4-0.6,0.5c-0.3,0.1-0.5,0.2-0.9,0.2s-0.7-0.1-1-0.2c-0.3-0.2-0.5-0.4-0.7-0.7
				s-0.2-0.6-0.2-1s0.1-0.8,0.2-1c0.2-0.3,0.4-0.5,0.7-0.7c0.3-0.2,0.6-0.2,1-0.2s0.7,0.1,1,0.2c0.3,0.2,0.5,0.4,0.7,0.6
				c0.2,0.3,0.2,0.6,0.2,0.9C118.3,51.4,118.2,51.5,118.2,51.7z M117,50.5c-0.2-0.2-0.4-0.2-0.7-0.2c-0.3,0-0.5,0.1-0.7,0.2
				c-0.2,0.2-0.3,0.4-0.3,0.7h1.9C117.3,50.9,117.2,50.7,117,50.5z"/>
			<path class="st1" d="M124,51.7h-2.8c0,0.3,0.1,0.6,0.3,0.8c0.2,0.2,0.4,0.2,0.6,0.2s0.4-0.1,0.6-0.2c0.1-0.1,0.2-0.3,0.3-0.4h1
				c-0.1,0.3-0.2,0.5-0.3,0.7c-0.2,0.2-0.4,0.4-0.6,0.5c-0.3,0.1-0.5,0.2-0.9,0.2s-0.7-0.1-1-0.2c-0.3-0.2-0.5-0.4-0.7-0.7
				s-0.2-0.6-0.2-1s0.1-0.8,0.2-1c0.2-0.3,0.4-0.5,0.7-0.7c0.3-0.2,0.6-0.2,1-0.2s0.7,0.1,1,0.2c0.3,0.2,0.5,0.4,0.7,0.6
				c0.2,0.3,0.2,0.6,0.2,0.9C124.1,51.4,124,51.5,124,51.7z M122.8,50.5c-0.2-0.2-0.4-0.2-0.7-0.2c-0.3,0-0.5,0.1-0.7,0.2
				c-0.2,0.2-0.3,0.4-0.3,0.7h1.9C123.1,50.9,123,50.7,122.8,50.5z"/>
			<path class="st1" d="M130.7,49.9c0.3,0.3,0.4,0.7,0.4,1.2v2.2h-1v-2.1c0-0.3-0.1-0.5-0.2-0.7c-0.1-0.2-0.4-0.2-0.6-0.2
				c-0.3,0-0.5,0.1-0.6,0.3c-0.2,0.2-0.2,0.4-0.2,0.7v2h-1v-2.1c0-0.3-0.1-0.5-0.2-0.7s-0.4-0.2-0.6-0.2c-0.3,0-0.5,0.1-0.7,0.3
				s-0.2,0.4-0.2,0.7v2h-1v-3.8h1v0.7c0.1-0.2,0.3-0.4,0.5-0.6c0.2-0.1,0.5-0.2,0.8-0.2s0.6,0.1,0.8,0.2c0.2,0.1,0.4,0.4,0.5,0.6
				c0.1-0.3,0.3-0.5,0.5-0.6c0.2-0.2,0.5-0.2,0.8-0.2C130.1,49.5,130.4,49.7,130.7,49.9z"/>
			<path class="st1" d="M135.1,49.7c0.3,0.2,0.5,0.4,0.6,0.7s0.2,0.6,0.2,1s-0.1,0.7-0.2,1c-0.1,0.3-0.3,0.5-0.6,0.7
				s-0.5,0.2-0.9,0.2c-0.3,0-0.6-0.1-0.8-0.2c-0.2-0.2-0.4-0.4-0.5-0.6v2.6h-1v-5.7h1v0.8c0.1-0.3,0.3-0.5,0.5-0.6
				c0.2-0.2,0.5-0.2,0.8-0.2C134.6,49.5,134.9,49.6,135.1,49.7z M133.2,50.7c-0.2,0.2-0.3,0.5-0.3,0.8s0.1,0.6,0.3,0.8
				s0.4,0.3,0.7,0.3s0.5-0.1,0.7-0.3s0.3-0.5,0.3-0.8s-0.1-0.6-0.3-0.8s-0.4-0.3-0.7-0.3C133.7,50.4,133.4,50.5,133.2,50.7z"/>
			<path class="st1" d="M137.6,48.3v5.1h-1v-5.1H137.6z"/>
			<path class="st1" d="M142.1,51.7h-2.8c0,0.3,0.1,0.6,0.3,0.8s0.4,0.2,0.6,0.2c0.2,0,0.4-0.1,0.6-0.2c0.1-0.1,0.2-0.3,0.3-0.4h1
				c-0.1,0.3-0.2,0.5-0.3,0.7c-0.2,0.2-0.4,0.4-0.6,0.5c-0.3,0.1-0.5,0.2-0.9,0.2s-0.7-0.1-1-0.2c-0.3-0.2-0.5-0.4-0.7-0.7
				s-0.2-0.6-0.2-1s0.1-0.8,0.2-1c0.2-0.3,0.4-0.5,0.7-0.7s0.6-0.2,1-0.2s0.7,0.1,1,0.2c0.3,0.2,0.5,0.4,0.7,0.6
				c0.2,0.3,0.2,0.6,0.2,0.9C142.1,51.4,142.1,51.5,142.1,51.7z M140.9,50.5c-0.2-0.2-0.4-0.2-0.7-0.2s-0.5,0.1-0.7,0.2
				c-0.2,0.2-0.3,0.4-0.3,0.7h1.9C141.1,50.9,141.1,50.7,140.9,50.5z"/>
			<path class="st1" d="M145.6,49.7c0.3,0.2,0.5,0.4,0.7,0.7s0.3,0.6,0.3,1s-0.1,0.7-0.3,1s-0.4,0.5-0.7,0.7s-0.6,0.2-1,0.2
				s-0.7-0.1-1-0.2c-0.3-0.2-0.5-0.4-0.7-0.7s-0.3-0.6-0.3-1s0.1-0.8,0.3-1c0.2-0.3,0.4-0.5,0.7-0.7s0.6-0.2,1-0.2
				S145.3,49.6,145.6,49.7z M143.9,50.6c-0.2,0.2-0.3,0.5-0.3,0.8c0,0.4,0.1,0.6,0.3,0.8s0.4,0.3,0.7,0.3s0.5-0.1,0.7-0.3
				s0.3-0.5,0.3-0.8c0-0.4-0.1-0.6-0.3-0.8s-0.4-0.3-0.7-0.3S144.1,50.5,143.9,50.6z"/>
		</g>
	</g>
</g>
</svg>
