<?xml version="1.0" encoding="utf-8"?>
<!-- Generator: Adobe Illustrator 22.1.0, SVG Export Plug-In . SVG Version: 6.00 Build 0)  -->
<svg version="1.1" id="Layer_1" xmlns="http://www.w3.org/2000/svg" xmlns:xlink="http://www.w3.org/1999/xlink" x="0px" y="0px"
	 viewBox="0 0 245 245" style="enable-background:new 0 0 245 245;" xml:space="preserve">
<style type="text/css">
	.st0{fill:#D9D1CB;}
	.st1{fill:#005050;}
	.st2{opacity:0.3;}
	.st3{fill:#07343F;}
	.st4{fill:#FFFFFF;}
	.st5{fill:#E5D8C3;}
	.st6{fill:#E8E8E8;}
	.st7{fill:#B4D0D3;}
	.st8{fill:#BCBCBC;}
	.st9{fill:#F9ECD7;}
	.st10{fill:#41DAB3;}
	.st11{fill:#CFC0B4;}
	.st12{fill:#9B938E;}
	.st13{fill:#F4EFEA;}
	.st14{fill:#C6BFB9;}
	.st15{fill:#FDC9A3;}
	.st16{fill:#E5A67C;}
	.st17{fill:#512C1A;}
	.st18{fill:#283042;}
</style>
<g>
	<g>
		<g>
			<circle class="st0" cx="122.3" cy="119.1" r="111.7"/>
			<g>
				<path class="st1" d="M122.3,1.5C122.3,1.5,122.3,1.5,122.3,1.5c-0.1,0-0.1,0-0.1,0c0,0-0.1,0-0.1,0c0,0,0,0,0,0c0,0,0,0,0,0
					c0,0,0,0,0,0c0,0,0,0,0,0c0,0,0,0,0,0c0,0,0,0,0,0c0,0,0,0,0,0c0,0,0,0,0,0c0,0,0,0,0,0c0,0,0,0,0,0c0,0,0,0,0,0c0,0,0,0,0,0
					c0,0,0,0,0,0c0,0,0,0,0,0c0,0,0,0,0,0c0,0,0,0,0,0c0,0,0,0,0,0c0,0,0,0,0,0c0,0,0,0,0,0c0,0,0,0,0,0c0,0,0,0,0,0c0,0,0,0,0,0
					c0,0,0,0,0,0c0,0,0,0,0,0c0,0,0,0,0,0c0,0,0,0,0,0c0,0,0,0,0,0c0,0,0,0,0,0c0,0,0,0,0,0c0,0,0,0,0,0c0,0,0,0,0,0c0,0,0,0,0,0
					c0,0,0,0,0,0c0,0,0,0,0,0c0,0,0,0,0,0c0,0,0,0,0,0c0,0,0,0,0,0c0,0,0,0,0,0c0,0,0,0,0,0c0,0,0,0,0,0c0,0,0,0,0,0l0,0
					c0,0,0,0,0,0l0,0c0,0,0,0,0,0l0,0c0,0,0,0,0,0c0,0,0,0,0,0c0,0,0,0,0,0l0,0c0,0,0,0,0,0l0,0c0,0,0,0,0,0l0,0c0,0,0,0,0,0l0,0
					c0,0,0,0,0,0l0,0c0,0,0,0,0,0l0,0c0,0,0,0,0,0l0,0c0,0,0,0,0,0l0,0c0,0,0,0,0,0l0,0c-1.4,0-2.8,0.1-4.3,0.1l0.1,2
					c2-0.1,3.9-0.1,5.9-0.1V1.5L122.3,1.5L122.3,1.5z M110.3,2.1c-0.3,0-0.7,0.1-1,0.1l0,0c0,0,0,0,0,0l0,0c0,0,0,0,0,0l0,0
					c0,0,0,0,0,0l0,0c0,0,0,0,0,0l0,0c0,0,0,0,0,0l0,0c0,0,0,0,0,0l0,0c0,0,0,0,0,0l0,0c0,0,0,0,0,0l0,0c0,0,0,0,0,0l0,0
					c0,0,0,0,0,0l0,0c0,0,0,0,0,0l0,0c0,0,0,0,0,0c0,0,0,0,0,0c0,0,0,0,0,0c0,0,0,0,0,0c0,0,0,0,0,0c0,0,0,0,0,0c0,0,0,0,0,0
					c0,0,0,0,0,0c0,0,0,0,0,0c0,0,0,0,0,0c0,0,0,0,0,0c0,0,0,0,0,0c0,0,0,0,0,0c0,0,0,0,0,0c0,0,0,0,0,0c0,0,0,0,0,0c0,0,0,0,0,0
					c0,0,0,0,0,0c0,0,0,0,0,0c0,0,0,0,0,0c0,0,0,0,0,0c0,0,0,0,0,0c0,0,0,0,0,0c0,0,0,0,0,0c0,0,0,0,0,0c0,0,0,0,0,0c0,0,0,0,0,0
					c0,0,0,0,0,0c0,0,0,0,0,0c0,0,0,0,0,0c0,0,0,0,0,0c0,0,0,0,0,0c0,0,0,0,0,0c0,0,0,0,0,0c0,0,0,0,0,0c0,0,0,0,0,0c0,0,0,0,0,0
					c0,0,0,0,0,0c0,0,0,0,0,0c0,0,0,0,0,0c0,0,0,0,0,0c0,0,0,0,0,0c0,0,0,0,0,0c0,0,0,0,0,0c0,0,0,0,0,0c0,0,0,0,0,0c0,0,0,0,0,0
					c0,0,0,0,0,0c0,0,0,0,0,0c0,0,0,0,0,0c0,0,0,0,0,0c-0.5,0.1-1,0.1-1.5,0.2c0,0,0,0,0,0c0,0,0,0,0,0c0,0,0,0,0,0c0,0,0,0,0,0
					c0,0,0,0,0,0c0,0,0,0,0,0c0,0,0,0,0,0c0,0,0,0,0,0c0,0,0,0,0,0c0,0,0,0,0,0c0,0,0,0,0,0c0,0,0,0,0,0c0,0,0,0,0,0c0,0,0,0,0,0
					c0,0,0,0,0,0c0,0,0,0,0,0c0,0,0,0,0,0c0,0,0,0,0,0c0,0,0,0,0,0c0,0,0,0,0,0c0,0,0,0,0,0c0,0,0,0,0,0c0,0,0,0,0,0c0,0,0,0,0,0
					c0,0,0,0,0,0c0,0,0,0,0,0c0,0,0,0,0,0c0,0,0,0,0,0c0,0,0,0,0,0c0,0,0,0,0,0c0,0,0,0,0,0c0,0,0,0,0,0c0,0,0,0,0,0c0,0,0,0,0,0
					c0,0,0,0,0,0c0,0,0,0,0,0c0,0,0,0,0,0l0,0c0,0,0,0,0,0l0,0c-0.3,0-0.6,0.1-0.9,0.1l0.3,2c1.9-0.3,3.9-0.5,5.9-0.7L110.3,2.1
					L110.3,2.1z M98.5,4c-1,0.2-2,0.4-2.9,0.6c0,0,0,0,0,0c0,0,0,0,0,0c0,0,0,0,0,0c0,0,0,0,0,0c0,0,0,0,0,0c0,0,0,0,0,0
					c0,0,0,0,0,0c0,0,0,0,0,0c0,0,0,0,0,0c0,0,0,0,0,0c0,0,0,0,0,0c0,0,0,0,0,0c0,0,0,0,0,0c0,0,0,0,0,0c0,0,0,0,0,0c0,0,0,0,0,0
					c0,0,0,0,0,0c0,0,0,0,0,0c0,0,0,0,0,0c0,0,0,0,0,0c0,0,0,0,0,0c0,0,0,0,0,0c0,0,0,0,0,0c0,0,0,0,0,0c0,0,0,0,0,0c0,0,0,0,0,0
					c0,0,0,0,0,0c0,0,0,0,0,0c0,0,0,0,0,0c0,0,0,0,0,0c-0.6,0.1-1.1,0.3-1.7,0.4c0,0,0,0,0,0c0,0,0,0,0,0c0,0,0,0,0,0c0,0,0,0,0,0
					c0,0,0,0,0,0c0,0,0,0,0,0c0,0,0,0,0,0c0,0,0,0,0,0c0,0,0,0,0,0c0,0,0,0,0,0c0,0,0,0,0,0c0,0,0,0,0,0c0,0,0,0,0,0c0,0,0,0,0,0
					c0,0,0,0,0,0c0,0,0,0,0,0c0,0,0,0,0,0c0,0,0,0,0,0c0,0,0,0,0,0c0,0,0,0,0,0c0,0,0,0,0,0c0,0,0,0,0,0c0,0,0,0,0,0l0,0
					c0,0,0,0,0,0l0,0l0.5,1.9C95,6.8,97,6.3,98.9,5.9L98.5,4L98.5,4z M86.9,7c-1,0.3-2.1,0.7-3.1,1l0,0c0,0,0,0,0,0c0,0,0,0,0,0
					c0,0,0,0,0,0c0,0,0,0,0,0c0,0,0,0,0,0c0,0,0,0,0,0c0,0,0,0,0,0c0,0,0,0,0,0c0,0,0,0,0,0c0,0,0,0,0,0c0,0,0,0,0,0c0,0,0,0,0,0
					c0,0,0,0,0,0c0,0,0,0,0,0c0,0,0,0,0,0c0,0,0,0,0,0c0,0,0,0,0,0c0,0,0,0,0,0c0,0,0,0,0,0c0,0,0,0,0,0c0,0,0,0,0,0c0,0,0,0,0,0
					c0,0,0,0,0,0c0,0,0,0,0,0c0,0,0,0,0,0c0,0,0,0,0,0c0,0,0,0,0,0c0,0,0,0,0,0c0,0,0,0,0,0c-0.7,0.2-1.3,0.5-2,0.7l0.7,1.9
					c1.8-0.7,3.7-1.3,5.6-1.9L86.9,7L86.9,7z M75.6,11.2c-1.8,0.8-3.7,1.6-5.4,2.5l0.9,1.8c1.8-0.9,3.6-1.7,5.3-2.5L75.6,11.2
					L75.6,11.2z M64.9,16.5c-0.3,0.2-0.7,0.4-1,0.6c0,0,0,0,0,0c0,0,0,0,0,0c0,0,0,0,0,0c0,0,0,0,0,0c0,0,0,0,0,0c0,0,0,0,0,0
					c0,0,0,0,0,0c0,0,0,0,0,0c0,0,0,0,0,0c0,0,0,0,0,0c0,0,0,0,0,0c0,0,0,0,0,0c0,0,0,0,0,0c0,0,0,0,0,0c-1.3,0.8-2.6,1.5-3.9,2.4
					l1.1,1.7c1.7-1,3.4-2.1,5.1-3L64.9,16.5L64.9,16.5z M54.7,22.9c-0.5,0.4-1,0.7-1.5,1.1l0,0c0,0,0,0,0,0c0,0,0,0,0,0c0,0,0,0,0,0
					l0,0c0,0,0,0,0,0l0,0c0,0,0,0,0,0l0,0c0,0,0,0,0,0c0,0,0,0,0,0c0,0,0,0,0,0c0,0,0,0,0,0c0,0,0,0,0,0l0,0c0,0,0,0,0,0l0,0
					c-0.1,0.1-0.2,0.2-0.3,0.2c0,0,0,0,0,0c0,0,0,0,0,0l0,0c0,0,0,0,0,0l0,0c0,0,0,0,0,0l0,0c0,0,0,0,0,0l0,0c0,0,0,0,0,0l0,0
					c-0.8,0.6-1.7,1.3-2.5,1.9l1.2,1.6c1.5-1.2,3.1-2.4,4.7-3.5L54.7,22.9L54.7,22.9z M45.3,30.3c-0.6,0.5-1.2,1.1-1.9,1.6l0,0
					c0,0,0,0,0,0c0,0,0,0,0,0c0,0,0,0,0,0c0,0,0,0,0,0c0,0,0,0,0,0c0,0,0,0,0,0c0,0,0,0,0,0c0,0,0,0,0,0c0,0,0,0,0,0c0,0,0,0,0,0
					c0,0,0,0,0,0c0,0,0,0,0,0c0,0,0,0,0,0c0,0,0,0,0,0c0,0,0,0,0,0c0,0,0,0,0,0c0,0,0,0,0,0c0,0,0,0,0,0c0,0,0,0,0,0c0,0,0,0,0,0
					c0,0,0,0,0,0c0,0,0,0,0,0c0,0,0,0,0,0c-0.1,0-0.1,0.1-0.2,0.1c0,0,0,0,0,0c0,0,0,0,0,0l0,0c0,0,0,0,0,0c0,0,0,0,0,0c0,0,0,0,0,0
					c0,0,0,0,0,0c0,0,0,0,0,0c0,0,0,0,0,0c0,0,0,0,0,0c0,0,0,0,0,0c0,0,0,0,0,0c0,0,0,0,0,0c0,0,0,0,0,0c0,0,0,0,0,0c0,0,0,0,0,0
					c0,0,0,0,0,0c-0.6,0.5-1.2,1.1-1.8,1.7l1.4,1.4c1.4-1.4,2.9-2.7,4.4-4L45.3,30.3L45.3,30.3z M36.7,38.6L36.7,38.6
					C36.6,38.6,36.6,38.6,36.7,38.6C36.6,38.6,36.6,38.6,36.7,38.6C36.6,38.6,36.6,38.7,36.7,38.6C36.6,38.7,36.6,38.7,36.7,38.6
					C36.6,38.7,36.6,38.7,36.7,38.6c-0.1,0.1-0.1,0.1-0.1,0.1c0,0,0,0,0,0c0,0,0,0,0,0c0,0,0,0,0,0c0,0,0,0,0,0c0,0,0,0,0,0
					c0,0,0,0,0,0c0,0,0,0,0,0c0,0,0,0,0,0c0,0,0,0,0,0c0,0,0,0,0,0c0,0,0,0,0,0c0,0,0,0,0,0l0,0c-0.8,0.8-1.5,1.7-2.3,2.5
					c0,0,0,0,0,0c0,0,0,0,0,0c0,0,0,0,0,0c0,0,0,0,0,0c0,0,0,0,0,0c0,0,0,0,0,0c0,0,0,0,0,0c0,0,0,0,0,0c0,0,0,0,0,0c0,0,0,0,0,0
					c0,0,0,0,0,0c0,0,0,0,0,0c0,0,0,0,0,0c0,0,0,0,0,0c0,0,0,0,0,0c0,0,0,0,0,0c0,0,0,0,0,0c0,0,0,0,0,0c0,0,0,0,0,0l0,0
					c0,0,0,0,0,0c0,0,0,0,0,0c-0.4,0.4-0.7,0.8-1.1,1.3l1.5,1.3c1.3-1.5,2.6-3,3.9-4.4L36.7,38.6L36.7,38.6z M28.9,47.7
					c0,0-0.1,0.1-0.1,0.1l0,0c0,0,0,0,0,0c0,0,0,0,0,0c0,0,0,0,0,0c0,0,0,0,0,0c0,0,0,0,0,0c0,0,0,0,0,0c0,0,0,0,0,0c0,0,0,0,0,0
					c0,0,0,0,0,0c0,0,0,0,0,0c0,0,0,0,0,0c0,0,0,0,0,0c0,0,0,0,0,0c0,0,0,0,0,0c0,0,0,0,0,0c-0.5,0.7-1.1,1.5-1.6,2.2c0,0,0,0,0,0
					c0,0,0,0,0,0c0,0,0,0,0,0c0,0,0,0,0,0c0,0,0,0,0,0c0,0,0,0,0,0c0,0,0,0,0,0c0,0,0,0,0,0c0,0,0,0,0,0c0,0,0,0,0,0c0,0,0,0,0,0
					c0,0,0,0,0,0c0,0,0,0,0,0c0,0,0,0,0,0c0,0,0,0,0,0c0,0,0,0,0,0c0,0,0,0,0,0c0,0,0,0,0,0c0,0,0,0,0,0c0,0-0.1,0.1-0.1,0.1
					c0,0,0,0,0,0c0,0,0,0,0,0c0,0,0,0,0,0c0,0,0,0,0,0c0,0,0,0,0,0c0,0,0,0,0,0c0,0,0,0,0,0c0,0,0,0,0,0c0,0,0,0,0,0c0,0,0,0,0,0
					c0,0,0,0,0,0c0,0,0,0,0,0c0,0,0,0,0,0c0,0,0,0,0,0c0,0,0,0,0,0c0,0,0,0,0,0c0,0,0,0,0,0c0,0,0,0,0,0c0,0,0,0,0,0c0,0,0,0,0,0
					c0,0,0,0,0,0c0,0,0,0,0,0c0,0,0,0,0,0c0,0,0,0,0,0c0,0,0,0,0,0c0,0,0,0,0,0c0,0.1-0.1,0.1-0.1,0.2l0,0c0,0,0,0,0,0l0,0
					c0,0,0,0,0,0c0,0,0,0,0,0c0,0,0,0,0,0c0,0,0,0,0,0c0,0,0,0,0,0c0,0,0,0,0,0c0,0,0,0,0,0c0,0,0,0,0,0c0,0,0,0,0,0c0,0,0,0,0,0
					c0,0,0,0,0,0c0,0,0,0,0,0c0,0,0,0,0,0c0,0,0,0,0,0c0,0,0,0,0,0c0,0,0,0,0,0c0,0,0,0,0,0c0,0,0,0,0,0c0,0,0,0,0,0c0,0,0,0,0,0
					c0,0,0,0,0,0c0,0,0,0,0,0c0,0,0,0,0,0c0,0,0,0,0,0c0,0,0,0,0,0c0,0,0,0,0,0c0,0,0,0,0,0c0,0,0,0,0,0c0,0,0,0,0,0c0,0,0,0,0,0
					c0,0,0,0,0,0c0,0,0,0,0,0c0,0,0,0,0,0c0,0,0,0,0,0c0,0,0,0,0,0c0,0,0,0,0,0c0,0,0,0,0,0c0,0,0,0,0,0c0,0,0,0,0,0c0,0,0,0,0,0
					c0,0,0,0,0,0c0,0,0,0,0,0c0,0,0,0,0,0c0,0,0,0,0,0c0,0,0,0,0,0c0,0,0,0,0,0c0,0,0,0,0,0c-0.1,0.1-0.1,0.1-0.1,0.2l1.6,1.1
					c1.1-1.6,2.3-3.2,3.5-4.8L28.9,47.7L28.9,47.7z M22.1,57.6c-0.6,0.9-1.1,1.9-1.7,2.8l0,0c0,0,0,0,0,0l0,0c0,0,0,0,0,0
					c0,0,0,0,0,0c0,0,0,0.1,0,0.1l0,0c0,0,0,0.1,0,0.1c0,0,0,0,0,0c0,0.1-0.1,0.1-0.1,0.2c0,0,0,0,0,0c0,0,0,0,0,0c0,0,0,0,0,0
					c0,0,0,0,0,0c0,0,0,0,0,0c0,0,0,0,0,0c0,0,0,0,0,0c0,0,0,0,0,0c0,0,0,0,0,0c0,0,0,0,0,0c0,0,0,0,0,0c0,0,0,0,0,0c0,0,0,0,0,0
					c0,0,0,0,0,0c0,0,0,0,0,0c0,0,0,0,0,0c0,0,0,0,0,0c0,0,0,0,0,0c0,0,0,0,0,0c0,0,0,0,0,0c0,0,0,0,0,0c0,0,0,0,0,0
					c-0.3,0.5-0.6,1-0.9,1.5l1.8,1c0.9-1.7,1.9-3.4,3-5.1L22.1,57.6L22.1,57.6z M16.3,68.2c-0.5,1-0.9,2-1.4,3c0,0,0,0,0,0
					c0,0,0,0,0,0c0,0,0,0,0,0c0,0,0,0,0,0c0,0,0,0,0,0c0,0,0,0,0,0c0,0,0,0,0,0c0,0,0,0,0,0c0,0,0,0,0,0c0,0,0,0,0,0c0,0,0,0,0,0
					c0,0,0,0,0,0c0,0,0,0,0,0c0,0,0,0,0,0c0,0,0,0,0,0c0,0,0,0,0,0c0,0,0,0,0,0c0,0,0,0,0,0c0,0,0,0,0,0c0,0,0,0,0,0c0,0,0,0,0,0
					c0,0,0,0,0,0c-0.3,0.7-0.6,1.4-0.9,2.1l1.8,0.8c0.8-1.8,1.6-3.6,2.4-5.4L16.3,68.2L16.3,68.2z M11.7,79.2
					c-0.2,0.5-0.4,1.1-0.6,1.6c0,0,0,0,0,0c0,0,0,0,0,0c0,0,0,0,0,0c0,0,0,0,0,0c0,0,0,0,0,0c0,0,0,0,0,0c0,0,0,0,0,0c0,0,0,0,0,0
					c0,0,0,0,0,0c0,0,0,0,0,0c0,0,0,0,0,0c0,0,0,0,0,0c0,0,0,0,0,0c0,0,0,0,0,0c0,0,0,0,0,0c0,0,0,0,0,0c0,0,0,0,0,0c0,0,0,0,0,0
					c0,0,0,0,0,0c0,0,0,0,0,0c0,0,0,0,0,0c0,0,0,0,0,0c0,0,0,0,0,0l0,0c-0.4,1.2-0.8,2.4-1.1,3.6l1.9,0.6c0.6-1.9,1.2-3.8,1.9-5.6
					L11.7,79.2L11.7,79.2z M8.2,90.7c-0.1,0.5-0.2,1-0.4,1.5c0,0,0,0,0,0c0,0,0,0,0,0c0,0,0,0,0,0c0,0,0,0,0,0c0,0,0,0,0,0
					c0,0,0,0,0,0c0,0,0,0,0,0c0,0,0,0,0,0c0,0,0,0,0,0c0,0,0,0,0,0c0,0,0,0,0,0c0,0,0,0,0,0c0,0,0,0,0,0c0,0,0,0,0,0c0,0,0,0,0,0
					c0,0,0,0,0,0c0,0,0,0,0,0c0,0,0,0,0,0c0,0,0,0,0,0c0,0,0,0,0,0c0,0,0,0,0,0c0,0,0,0,0,0c0,0,0,0,0,0c0,0,0,0,0,0c0,0,0,0,0,0
					c0,0,0,0,0,0c0,0,0,0,0,0c0,0,0,0,0,0c0,0,0,0,0,0c0,0,0,0,0,0c0,0,0,0,0,0c0,0,0,0,0,0c0,0,0,0,0,0l0,0c0,0,0,0,0,0l0,0
					c0,0,0,0,0,0c0,0,0,0,0,0c0,0,0,0,0,0c0,0,0,0,0,0c0,0,0,0,0,0c0,0,0,0,0,0c0,0,0,0,0,0c0,0,0,0,0,0c0,0,0,0,0,0c0,0,0,0,0,0
					c0,0,0,0,0,0l0,0c-0.2,1.1-0.5,2.2-0.7,3.3l2,0.4c0.4-1.9,0.8-3.9,1.3-5.8L8.2,90.7L8.2,90.7z M5.9,102.5c0,0.2-0.1,0.4-0.1,0.6
					c0,0,0,0,0,0c0,0,0,0,0,0c0,0,0,0,0,0c0,0,0,0,0,0c0,0,0,0,0,0c0,0,0,0,0,0c0,0,0,0,0,0c0,0,0,0,0,0c0,0,0,0,0,0c0,0,0,0,0,0
					c0,0,0,0,0,0c0,0,0,0,0,0c0,0,0,0,0,0c0,0,0,0,0,0c0,0,0,0,0,0c0,0,0,0,0,0c-0.2,1.7-0.4,3.3-0.6,5c0,0,0,0,0,0c0,0,0,0,0,0
					c0,0,0,0,0,0c0,0,0,0,0,0l2,0.2c0.2-2,0.4-3.9,0.7-5.9L5.9,102.5L5.9,102.5z M4.9,114.4c0,0.2,0,0.4,0,0.5l0,0c0,0,0,0,0,0
					c0,0,0,0,0,0c0,0,0,0,0,0c0,0,0,0,0,0c0,0,0,0,0,0c0,0,0,0,0,0c0,0,0,0,0,0c0,0,0,0,0,0c0,0,0,0,0,0c0,0,0,0,0,0c0,0,0,0,0,0
					c0,0,0,0,0,0c0,0,0,0,0,0c0,0,0,0,0,0c0,0,0,0,0,0c0,0,0,0,0,0c0,0,0,0,0,0c0,0,0,0.1,0,0.1c0,0,0,0,0,0c0,0,0,0,0,0
					c0,0,0,0,0,0c0,0.8,0,1.7,0,2.6c0,0,0,0,0,0c0,0,0,0.1,0,0.1c0,0,0,0,0,0c0,0,0,0,0,0c0,0,0,0,0,0c0,0,0,0.1,0,0.1c0,0,0,0,0,0
					c0,0,0,0,0,0c0,0,0,0,0,0c0,0,0,0.1,0,0.1c0,0,0,0,0,0c0,0,0,0,0,0c0,0,0,0,0,0c0,0,0,0,0,0c0,0,0,0,0,0c0,0,0,0,0,0
					c0,0,0,0,0,0c0,0,0,0,0,0c0,0,0,0,0,0c0,0,0,0,0,0c0,0,0,0,0,0c0,0,0,0,0,0c0,0,0,0,0,0c0,0,0,0,0,0c0,0,0,0,0,0c0,0,0,0,0,0
					c0,0,0,0,0,0c0,0,0,0,0,0c0,0,0,0,0,0c0,0,0,0,0,0c0,0,0,0,0,0c0,0,0,0,0,0c0,0,0,0,0,0c0,0,0,0,0,0c0,0,0,0,0,0c0,0,0,0,0,0
					l0,0c0,0,0,0,0,0c0,0,0,0,0,0c0,0,0,0,0,0c0,0,0,0,0,0c0,0,0,0,0,0c0,0,0,0,0,0c0,0,0,0,0,0c0,0,0,0,0,0c0,0,0,0,0,0
					c0,0,0,0,0,0c0,0,0,0,0,0c0,0,0,0,0,0c0,0,0,0,0,0c0,0,0,0,0,0c0,0,0,0,0,0c0,0,0,0,0,0c0,0,0,0,0,0c0,0,0,0,0,0c0,0,0,0,0,0
					c0,0,0,0,0,0c0,0,0,0,0,0c0,0,0,0,0,0c0,0,0,0,0,0c0,0,0,0,0,0c0,0,0,0,0,0c0,0.1,0,0.1,0,0.2l0,0c0,0.2,0,0.4,0,0.6l2,0
					c0-0.4,0-0.9,0-1.3c0-1.5,0-3.1,0.1-4.6L4.9,114.4L4.9,114.4z M7,126.3l-2,0.1c0,0.2,0,0.4,0,0.6c0,0,0,0,0,0c0,0,0,0,0,0
					c0,0,0,0,0,0c0,0,0,0,0,0c0,0,0,0,0,0c0,0,0,0,0,0c0,0,0,0,0,0c0,0,0,0,0,0c0,0,0,0,0,0c0,0,0,0,0,0c0,0,0,0,0,0c0,0,0,0,0,0
					c0,0,0,0,0,0c0,0,0,0,0,0c0,0,0,0,0,0c0,0,0,0,0,0c0,0,0,0,0,0c0,0,0,0,0,0c0,0,0,0,0,0c0,0,0,0,0,0c0,0,0,0,0,0c0,0,0,0,0,0
					c0,0,0,0,0,0c0,0,0,0,0,0c0,0,0,0,0,0c0,0,0,0,0,0c0,0,0,0,0,0c0,0,0,0,0,0c0,0,0,0,0,0l0,0c0,0,0,0,0,0l0,0c0,0,0,0,0,0l0,0
					c0,0,0,0,0,0l0,0c0,0,0,0,0,0l0,0c0,0,0,0,0,0l0,0c0,0,0,0,0,0l0,0c0,0,0,0,0,0l0,0c0,0,0,0,0,0l0,0c0,0,0,0,0,0l0,0
					c0,0,0,0.1,0,0.1l0,0c0,0,0,0.1,0,0.1l0,0c0,0,0,0,0,0l0,0c0,0,0,0,0,0l0,0c0,0,0,0.1,0,0.1l0,0c0,0,0,0.1,0,0.1l0,0
					c0,0,0,0,0,0l0,0c0,0,0,0,0,0l0,0c0,0,0,0,0,0l0,0c0,0,0,0,0,0l0,0c0,0,0,0.1,0,0.1l0,0c0,0,0,0.1,0,0.1l0,0c0,0,0,0.1,0,0.1
					l0,0c0,0.1,0,0.1,0,0.2l0,0c0,0.1,0,0.1,0,0.2l0,0c0.1,1,0.2,2,0.3,3l2-0.2C7.3,130.2,7.1,128.2,7,126.3L7,126.3z M8.3,138
					l-2,0.3c0,0,0,0,0,0c0,0,0,0,0,0c0,0,0,0,0,0c0,0,0,0,0,0c0,0,0,0,0,0c0,0,0,0,0,0c0,0,0,0,0,0c0,0,0,0,0,0c0,0,0,0,0,0
					c0,0,0,0,0,0c0.1,0.7,0.2,1.3,0.3,2c0,0,0,0,0,0c0,0,0,0,0,0c0,0,0,0,0,0c0,0,0,0,0,0c0,0,0,0,0,0c0,0,0,0,0,0c0,0,0,0,0,0
					c0,0,0,0,0,0c0,0,0,0,0,0c0,0,0,0,0,0c0,0,0,0,0,0c0,0,0,0,0,0c0,0,0,0,0,0c0,0,0,0,0,0c0,0,0,0,0,0c0,0,0,0,0,0c0,0,0,0,0,0
					c0,0,0,0,0,0c0,0,0,0,0,0c0,0,0,0,0,0c0,0,0,0,0,0c0,0,0,0,0,0c0,0,0,0,0,0c0,0,0,0,0,0c0,0,0,0,0,0c0,0,0,0,0,0c0,0,0,0,0,0
					c0,0,0,0,0,0c0,0,0,0,0,0c0,0,0,0,0,0c0,0,0,0,0,0c0,0,0,0,0,0c0,0,0,0,0,0c0,0,0,0,0,0c0,0,0,0,0,0l0,0c0,0,0,0,0,0l0,0
					c0.2,1,0.4,1.9,0.6,2.8l2-0.4C9,141.9,8.6,139.9,8.3,138L8.3,138z M10.8,149.5l-1.9,0.5c0.1,0.5,0.3,1,0.4,1.5c0,0,0,0,0,0
					c0,0,0,0,0,0c0,0,0,0,0,0c0,0,0,0,0,0c0,0,0,0,0,0c0,0,0,0,0,0c0,0,0,0,0,0c0,0,0,0,0,0c0,0,0,0,0,0c0,0,0,0,0,0c0,0,0,0,0,0
					c0,0,0,0,0,0c0,0,0,0,0,0c0,0,0,0,0,0c0,0,0,0,0,0c0,0,0,0,0,0c0,0,0,0,0,0c0,0,0,0,0,0c0,0,0,0,0,0c0,0,0,0,0,0c0,0,0,0,0,0
					l0,0c0,0,0,0,0,0c0,0,0,0,0,0c0,0,0,0,0,0c0,0,0,0,0,0c0,0,0,0,0,0c0,0,0,0,0,0c0,0,0,0,0,0c0,0,0,0,0,0c0,0,0,0,0,0l0,0
					c0.4,1.2,0.7,2.4,1.1,3.6l1.9-0.6C11.9,153.3,11.3,151.4,10.8,149.5L10.8,149.5z M14.5,160.7l-1.9,0.7c0.4,1,0.8,2,1.2,3l0,0
					c0,0,0,0,0,0l0,0c0,0,0,0,0,0c0,0,0,0,0,0c0,0,0,0,0,0c0,0,0,0,0,0c0,0,0,0,0,0c0,0,0,0,0,0c0,0,0,0,0,0l0,0c0,0,0,0,0,0l0,0
					c0,0,0,0,0,0l0,0c0,0,0,0,0,0c0,0,0,0,0,0c0,0,0,0,0,0c0,0,0,0,0,0c0,0,0,0,0,0l0,0c0,0,0,0,0,0l0,0c0,0,0,0,0,0l0,0
					c0.1,0.2,0.1,0.3,0.2,0.5l0,0c0,0,0,0,0,0c0,0,0,0,0,0c0,0,0,0,0,0l0,0c0,0,0,0,0,0l0,0c0,0,0,0,0,0l0,0c0,0,0,0,0,0l0,0
					c0.2,0.5,0.4,0.9,0.6,1.4l1.8-0.8C16,164.4,15.2,162.6,14.5,160.7L14.5,160.7z M19.3,171.5l-1.8,0.9c0.1,0.1,0.2,0.3,0.2,0.4
					c0,0,0,0,0,0c0,0,0,0,0,0c0,0,0,0,0,0c0,0,0,0,0,0c0,0,0,0,0,0c0,0,0,0,0,0c0,0,0,0,0,0c0,0,0,0,0,0c0,0,0,0,0,0c0,0,0,0,0,0
					c0,0,0,0,0,0c0,0,0,0,0,0c0,0,0,0,0,0c0,0,0,0,0,0c0,0,0,0,0,0c0,0,0,0,0,0c0.8,1.5,1.6,3,2.5,4.5l1.7-1
					C21.1,175,20.2,173.2,19.3,171.5L19.3,171.5z M25.2,181.7l-1.7,1.1c0.1,0.1,0.1,0.2,0.2,0.3l0,0c0,0,0,0,0,0c0,0,0,0,0,0
					c0.1,0.1,0.2,0.3,0.3,0.4l0,0c0,0,0,0,0,0c0,0,0,0,0,0c0,0,0,0,0,0c0,0,0,0,0,0c0,0,0,0,0,0l0,0c0,0,0,0,0,0c0,0,0,0,0,0
					c0,0,0,0,0,0c0,0,0,0,0,0c0,0,0,0,0,0c0,0,0,0,0,0c0,0,0,0,0,0c0,0,0,0,0,0c0,0,0,0,0,0c0,0,0,0,0,0c0,0,0,0,0,0l0,0
					c0,0,0,0,0,0c0,0,0,0,0,0c0,0.1,0.1,0.1,0.1,0.2c0,0,0,0,0,0c0,0,0,0,0,0l0,0c0,0,0,0,0,0c0,0,0,0,0,0c0,0,0,0,0,0c0,0,0,0,0,0
					c0,0,0,0,0,0c0,0,0,0,0,0c0,0,0,0,0,0c0,0,0,0,0,0c0,0,0,0,0,0c0,0,0,0,0,0c0,0,0,0,0,0c0,0,0,0,0,0c0,0,0,0,0,0c0,0,0,0,0,0
					c0,0,0,0,0,0c0,0,0,0,0,0c0,0,0,0,0,0c0,0,0,0,0,0c0,0,0,0,0,0l0,0c0,0,0,0,0,0c0,0,0,0,0,0c0,0,0,0,0,0c0,0,0,0,0,0
					c0,0.1,0.1,0.1,0.1,0.2l0,0c0,0,0,0,0,0c0,0,0,0,0,0c0,0,0,0,0,0c0,0,0,0,0,0c0,0,0,0,0,0c0,0,0,0,0,0c0,0,0,0,0,0c0,0,0,0,0,0
					c0,0,0,0,0,0c0,0,0,0,0,0c0,0,0,0,0,0c0,0,0,0,0,0c0,0,0,0,0,0c0,0,0,0,0,0c0,0,0,0,0,0c0,0,0,0,0,0c0,0,0,0,0,0c0,0,0,0,0,0
					c0,0,0,0,0,0c0,0,0,0,0,0c0,0,0,0,0,0c0,0,0,0,0,0c0,0,0,0,0,0c0,0,0,0,0,0c0,0,0,0,0,0c0,0,0.1,0.1,0.1,0.1c0,0,0,0,0,0
					c0,0,0,0,0,0c0,0,0,0,0,0c0,0,0,0,0,0c0,0,0,0,0,0c0,0,0,0,0,0c0,0,0,0,0,0c0,0,0,0,0,0c0,0,0,0,0,0c0,0,0,0,0,0c0,0,0,0,0,0
					c0,0,0,0,0,0c0,0,0,0,0,0c0,0,0,0,0,0c0,0,0,0,0,0c0,0,0,0,0,0c0,0,0,0,0,0c0,0,0,0,0,0c0,0,0,0,0,0c0,0,0,0,0,0c0,0,0,0,0,0
					c0,0,0,0,0,0c0,0,0,0,0,0c0,0,0,0,0,0c0,0,0,0,0,0c0.1,0.1,0.1,0.2,0.2,0.3c0,0,0,0,0,0c0,0,0,0,0,0c0,0,0,0,0,0
					c0,0,0,0.1,0.1,0.1c0,0,0,0,0,0c0.3,0.5,0.7,1,1,1.5l1.6-1.2C27.4,185,26.2,183.4,25.2,181.7L25.2,181.7z M32.1,191.3l-1.6,1.3
					c1,1.3,2,2.5,3.1,3.7c0,0,0,0,0,0c0,0,0,0,0,0c0,0,0,0,0,0c0,0,0,0,0,0c0,0,0,0,0,0c0,0,0,0,0,0c0,0,0,0,0,0c0,0,0,0,0,0
					c0,0,0,0,0,0c0,0,0,0,0,0c0,0,0,0,0,0c0,0,0,0,0,0c0,0,0,0,0,0c0,0,0,0,0,0c0,0,0,0,0,0c0,0,0,0,0,0c0,0,0,0,0,0c0,0,0,0,0,0
					c0,0,0,0,0,0l0,0c0.2,0.2,0.3,0.4,0.5,0.6l1.5-1.3C34.6,194.3,33.3,192.8,32.1,191.3L32.1,191.3z M39.9,200.1l-1.4,1.4
					c1.4,1.4,2.8,2.8,4.3,4.2l1.4-1.5C42.7,202.9,41.3,201.5,39.9,200.1L39.9,200.1z M48.6,208.1l-1.3,1.5c0.1,0.1,0.1,0.1,0.2,0.2
					l0,0c1.5,1.2,3,2.4,4.5,3.5l1.2-1.6C51.7,210.6,50.1,209.3,48.6,208.1L48.6,208.1z M58,215.1l-1.1,1.7c0,0,0,0,0,0c0,0,0,0,0,0
					c0,0,0,0,0,0c0,0,0.1,0.1,0.1,0.1c0,0,0,0,0,0c0,0,0,0,0,0c0,0,0,0,0,0c0,0,0,0,0,0c0,0,0,0,0,0c0,0,0,0,0,0c0,0,0,0,0,0
					c0,0,0,0,0,0c0,0,0,0,0,0c0,0,0,0,0,0c0,0,0,0,0,0c0,0,0,0,0,0c0,0,0,0,0,0c0,0,0,0,0,0c0,0,0,0,0,0c0,0,0,0,0,0c0,0,0,0,0,0
					c0,0,0,0,0,0c0,0,0,0,0,0c0,0,0,0,0,0c0,0,0,0,0,0c0,0,0,0,0,0c0,0,0,0,0,0c0,0,0,0,0,0c1.4,1,2.9,1.9,4.4,2.8c0,0,0,0,0,0
					c0,0,0,0,0,0c0,0,0,0,0,0c0,0,0,0,0,0c0,0,0,0,0,0c0,0,0,0,0,0l1-1.7C61.3,217.3,59.7,216.2,58,215.1L58,215.1z M68.1,221.2
					l-0.9,1.8c1.3,0.7,2.5,1.3,3.8,2c0,0,0,0,0,0c0,0,0,0,0,0l0,0c0,0,0,0,0,0l0,0c0,0,0,0,0,0l0,0c0,0,0,0,0,0c0,0,0,0,0,0
					c0,0,0,0,0,0l0,0c0,0,0,0,0,0l0,0c0.1,0.1,0.3,0.1,0.4,0.2l0,0c0,0,0,0,0,0c0,0,0,0,0,0c0,0,0,0,0,0c0,0,0,0,0,0c0,0,0,0,0,0
					c0,0,0,0,0,0c0,0,0,0,0,0c0,0,0,0,0,0c0,0,0,0,0,0c0,0,0,0,0,0c0,0,0,0,0,0c0,0,0,0,0,0c0,0,0,0,0,0c0,0,0,0,0,0c0,0,0,0,0,0
					c0,0,0,0,0,0c0,0,0,0,0,0c0,0,0,0,0,0c0,0,0,0,0,0c0,0,0,0,0,0c0,0,0,0,0,0l0,0c0,0,0,0,0,0c0,0,0,0,0,0c0.1,0,0.1,0.1,0.2,0.1
					c0,0,0,0,0,0c0,0,0,0,0,0c0,0,0,0,0,0c0,0,0,0,0,0c0,0,0,0,0,0c0,0,0,0,0,0c0,0,0,0,0,0c0,0,0,0,0,0l0,0l0.8-1.8
					C71.7,223,69.9,222.1,68.1,221.2L68.1,221.2z M78.8,226.2l-0.8,1.9c0.9,0.4,1.8,0.7,2.6,1c0,0,0,0,0,0c0,0,0,0,0,0c0,0,0,0,0,0
					c0,0,0,0,0,0c0,0,0,0,0,0c0,0,0,0,0,0c0,0,0,0,0,0c0,0,0,0,0,0c0,0,0,0,0,0c0,0,0,0,0,0c0,0,0,0,0,0c0,0,0,0,0,0c0,0,0,0,0,0
					c0,0,0,0,0,0c0,0,0,0,0,0c0,0,0,0,0,0c0,0,0,0,0,0c0,0,0,0,0,0c0,0,0,0,0,0c0,0,0,0,0,0c0,0,0,0,0,0c0,0,0,0,0,0c0,0,0,0,0,0
					c0,0,0,0,0,0c0,0,0,0,0,0c0,0,0,0,0,0c0,0,0,0,0,0c0,0,0,0,0,0c0,0,0,0,0,0c0,0,0,0,0,0c0,0,0,0,0,0c0,0,0,0,0,0c0,0,0,0,0,0
					c0,0,0,0,0,0c0,0,0,0,0,0c0.1,0,0.1,0,0.2,0.1c0,0,0,0,0,0c0,0,0,0,0,0c0,0,0,0,0,0c0,0,0,0,0,0c0,0,0,0,0,0c0,0,0,0,0,0
					c0,0,0,0,0,0c0,0,0,0,0,0c0,0,0,0,0,0c0,0,0,0,0,0c0,0,0,0,0,0c0,0,0,0,0,0c0,0,0,0,0,0c0,0,0,0,0,0c0,0,0,0,0,0c0,0,0,0,0,0
					c0,0,0,0,0,0c0,0,0,0,0,0c0,0,0,0,0,0c0,0,0,0,0,0c0,0,0,0,0,0c0,0,0,0,0,0c0,0,0,0,0,0c0,0,0,0,0,0c0,0,0,0,0,0c0,0,0,0,0,0
					c0,0,0,0,0,0c0,0,0,0,0,0c0,0,0,0,0,0c0,0,0,0,0,0c0,0,0,0,0,0c0,0,0,0,0,0c0,0,0,0,0,0c0,0,0,0,0,0c0,0,0,0,0,0c0,0,0,0,0,0
					c0,0,0,0,0,0c0,0,0,0,0,0c0,0,0,0,0,0c0.1,0,0.1,0,0.2,0.1c0,0,0,0,0,0c0,0,0,0,0,0c0,0,0,0,0,0c0,0,0,0,0,0c0,0,0,0,0,0
					c0,0,0,0,0,0c0,0,0,0,0,0c0,0,0,0,0,0c0,0,0,0,0,0c0,0,0,0,0,0c0,0,0,0,0,0c0,0,0,0,0,0c0,0,0,0,0,0c0,0,0,0,0,0c0,0,0,0,0,0
					c0,0,0,0,0,0c0,0,0,0,0,0c0,0,0,0,0,0c0,0,0,0,0,0c0,0,0,0,0,0c0,0,0,0,0,0c0,0,0,0,0,0c0,0,0,0,0,0c0,0,0,0,0,0c0,0,0,0,0,0
					c0,0,0,0,0,0c0,0,0,0,0,0c0,0,0,0,0,0c0,0,0,0,0,0c0,0,0,0,0,0c0,0,0,0,0,0c0,0,0,0,0,0c0,0,0,0,0,0c0,0,0,0,0,0c0,0,0,0,0,0
					c0.1,0,0.3,0.1,0.4,0.1l0.7-1.9C82.5,227.6,80.6,226.9,78.8,226.2L78.8,226.2z M90,230.1l-0.6,1.9c1.9,0.6,3.8,1.1,5.8,1.5
					l0.5-1.9C93.8,231.1,91.8,230.6,90,230.1L90,230.1z M101.4,232.8l-0.4,2c1,0.2,2,0.4,3,0.5l0,0c0,0,0,0,0,0l0,0c0,0,0,0,0,0l0,0
					c0,0,0,0,0,0l0,0c0,0,0,0,0,0l0,0c0,0,0,0,0,0c0,0,0,0,0,0c0,0,0,0,0,0c0,0,0,0,0,0c0,0,0,0,0,0c0,0,0,0,0,0c0,0,0,0,0,0
					c0,0,0,0,0,0c0,0,0,0,0,0c0,0,0,0,0,0c0,0,0,0,0,0c0,0,0,0,0,0c0,0,0,0,0,0c0,0,0,0,0,0c0,0,0,0,0,0c0,0,0,0,0,0c0,0,0,0,0,0
					c0,0,0,0,0,0c0,0,0,0,0,0c0,0,0,0,0,0c0,0,0,0,0,0c0,0,0,0,0,0c0,0,0,0,0,0c0,0,0,0,0,0c0,0,0,0,0,0c0,0,0,0,0,0c0,0,0,0,0,0
					c0.7,0.1,1.4,0.2,2.1,0.3l0.3-2C105.3,233.4,103.4,233.1,101.4,232.8L101.4,232.8z M113.1,234.3l-0.2,2c2,0.2,4,0.3,6,0.3l0.1-2
					C117.1,234.5,115.1,234.4,113.1,234.3L113.1,234.3z M130.8,234.3c-1.9,0.1-3.9,0.2-5.9,0.3l0,2c0,0,0,0,0,0c0,0,0,0,0,0
					c0,0,0,0,0,0c0,0,0,0,0,0c0,0,0,0,0,0c0,0,0,0,0,0c0,0,0,0,0,0c0,0,0,0,0,0c0,0,0,0,0,0c0,0,0,0,0,0c0,0,0,0,0,0c0,0,0,0,0,0
					l0,0c0,0,0,0,0,0l0,0c1.9,0,3.8-0.1,5.7-0.3L130.8,234.3L130.8,234.3z M142.5,232.9c-1.9,0.3-3.9,0.6-5.8,0.9l0.2,2
					c1.2-0.2,2.4-0.3,3.7-0.5c0,0,0,0,0,0c0,0,0,0,0,0c0,0,0,0,0,0c0,0,0,0,0,0c0,0,0,0,0,0c0,0,0,0,0,0c0,0,0,0,0,0c0,0,0,0,0,0
					c0,0,0,0,0,0c0,0,0,0,0,0c0,0,0,0,0,0c0,0,0,0,0,0c0,0,0,0,0,0c0,0,0,0,0,0c0,0,0,0,0,0c0,0,0,0,0,0c0,0,0,0,0,0c0,0,0,0,0,0
					c0,0,0,0,0,0c0,0,0,0,0,0c0,0,0,0,0,0c0,0,0,0,0,0c0,0,0,0,0,0c0,0,0,0,0,0c0,0,0,0,0,0c0,0,0,0,0,0c0,0,0,0,0,0c0,0,0,0,0,0
					c0,0,0,0,0,0l0,0c0,0,0,0,0,0l0,0c0,0,0,0,0,0l0,0c0,0,0,0,0,0l0,0c0.5-0.1,1-0.2,1.5-0.3L142.5,232.9L142.5,232.9z M154,230.3
					c-1.9,0.5-3.8,1-5.7,1.5l0.4,1.9c0.3-0.1,0.6-0.1,0.9-0.2c0,0,0,0,0,0c0,0,0,0,0,0c0,0,0,0,0,0c0,0,0,0,0,0c0,0,0,0,0,0
					c0,0,0,0,0,0c0,0,0,0,0,0c0,0,0,0,0,0c0,0,0,0,0,0c0,0,0,0,0,0c0,0,0,0,0,0c0,0,0,0,0,0c0,0,0,0,0,0c0,0,0,0,0,0c0,0,0,0,0,0
					c0,0,0,0,0,0c0,0,0,0,0,0c0,0,0,0,0,0c0,0,0.1,0,0.1,0l0,0c0,0,0.1,0,0.1,0l0,0c0,0,0,0,0,0l0,0c0,0,0,0,0,0l0,0c0,0,0,0,0,0
					l0,0c0,0,0,0,0,0l0,0c0,0,0,0,0,0c0,0,0,0,0,0c0,0,0,0,0,0c0,0,0,0,0,0c0,0,0,0,0,0c0,0,0,0,0,0c0,0,0,0,0,0c0,0,0,0,0,0
					c0,0,0,0,0,0l0,0c0,0,0,0,0,0l0,0c0,0,0,0,0,0l0,0c0,0,0,0,0,0l0,0c0,0,0,0,0,0l0,0c0,0,0,0,0,0l0,0c0,0,0,0,0,0l0,0
					c0.3-0.1,0.5-0.1,0.8-0.2l0,0c0,0,0,0,0,0c0,0,0,0,0,0c0,0,0,0,0,0c0,0,0,0,0,0c0,0,0,0,0,0c0,0,0,0,0,0c0,0,0,0,0,0
					c0,0,0,0,0,0c0,0,0,0,0,0c0,0,0,0,0,0c0,0,0,0,0,0c0,0,0,0,0,0c0,0,0,0,0,0c0,0,0,0,0,0c0,0,0,0,0,0c0,0,0,0,0,0c0,0,0,0,0,0
					c0,0,0,0,0,0c0,0,0,0,0,0c0,0,0,0,0,0c0,0,0,0,0,0c0,0,0,0,0,0c0,0,0,0,0,0c0,0,0,0,0,0c0,0,0,0,0,0c0,0,0,0,0,0c0,0,0,0,0,0
					c0,0,0,0,0,0c0,0,0,0,0,0c0,0,0,0,0,0c0,0,0,0,0,0c0,0,0,0,0,0c0,0,0,0,0,0c0,0,0,0,0,0c0,0,0,0,0,0c0.6-0.2,1.3-0.3,1.9-0.5
					L154,230.3L154,230.3z M165.2,226.4c-1.8,0.7-3.7,1.4-5.5,2l0.6,1.9c1.9-0.6,3.8-1.3,5.6-2.1L165.2,226.4L165.2,226.4z
					 M175.9,221.5c-1.7,0.9-3.5,1.8-5.3,2.6l0.8,1.8c1.8-0.8,3.6-1.7,5.4-2.6L175.9,221.5L175.9,221.5z M186,215.5
					c-1.6,1.1-3.3,2.1-5,3.1l1,1.7c0,0,0.1-0.1,0.1-0.1c0,0,0,0,0,0c0,0,0,0,0,0c0,0,0,0,0,0c0,0,0,0,0,0c0,0,0,0,0,0c0,0,0,0,0,0
					c0,0,0,0,0,0c0,0,0,0,0,0c0,0,0,0,0,0c0,0,0.1-0.1,0.1-0.1c0,0,0,0,0,0c0,0,0,0,0,0c0,0,0,0,0,0c0,0,0,0,0,0c0,0,0,0,0,0
					c0,0,0,0,0,0c0,0,0,0,0,0c0,0,0,0,0,0c0,0,0,0,0,0c0,0,0,0,0,0c0,0,0,0,0,0c0,0,0,0,0,0c0,0,0,0,0,0c0,0,0,0,0,0c0,0,0,0,0,0
					l0,0c0,0,0,0,0,0c0,0,0,0,0,0c0,0,0,0,0,0c0,0,0,0,0,0c0,0,0,0,0,0l0,0c0.8-0.5,1.7-1,2.5-1.6l0,0c0,0,0,0,0,0l0,0c0,0,0,0,0,0
					l0,0c0,0,0,0,0,0l0,0c0,0,0,0,0,0c0,0,0,0,0,0c0,0,0,0,0,0c0,0,0,0,0,0c0,0,0,0,0,0c0,0,0,0,0,0c0,0,0,0,0,0l0,0c0,0,0,0,0,0
					l0,0c0,0,0,0,0,0c0,0,0,0,0,0c0,0,0,0,0,0l0,0c0,0,0.1,0,0.1,0c0,0,0,0,0,0c0,0,0,0,0,0c0,0,0,0,0,0c0,0,0,0,0,0c0,0,0,0,0,0
					c0,0,0,0,0,0c0,0,0,0,0,0c0,0,0,0,0,0c0,0,0,0,0,0c0,0,0,0,0,0c0,0,0,0,0,0c0,0,0,0,0,0c0,0,0,0,0,0c0,0,0,0,0,0c0,0,0,0,0,0
					c0,0,0,0,0,0c0,0,0,0,0,0c0,0,0,0,0,0c0,0,0,0,0,0c0,0,0,0,0,0c0,0,0,0,0,0c0,0,0,0,0,0c0.3-0.2,0.6-0.4,0.8-0.6L186,215.5
					L186,215.5z M195.5,208.5c-1.5,1.2-3.1,2.5-4.7,3.6l1.2,1.6l0,0c0,0,0,0,0,0c0,0,0,0,0,0c0,0,0,0,0,0c0,0,0,0,0,0c0,0,0,0,0,0
					c0,0,0,0,0,0c0,0,0,0,0,0c0,0,0,0,0,0c0,0,0,0,0.1-0.1c0,0,0,0,0,0c0,0,0,0,0,0c0,0,0,0,0,0c0,0,0,0,0,0c0,0,0,0,0,0
					c0,0,0,0,0,0c0,0,0,0,0,0c0,0,0,0,0,0c0,0,0,0,0,0c0,0,0,0,0,0c0,0,0,0,0,0c0,0,0,0,0,0c0,0,0,0,0,0c0,0,0,0,0,0c0,0,0,0,0,0
					c0,0,0,0,0,0c0,0,0,0,0,0c0,0,0,0,0,0c0,0,0,0,0,0c0,0,0,0,0,0c0,0,0,0,0,0c0,0,0,0,0,0c0,0,0,0,0,0c0,0,0,0,0,0c0,0,0,0,0,0
					c0,0,0,0,0,0c0,0,0,0,0,0c0,0,0,0,0,0c0.1,0,0.1-0.1,0.2-0.1c0,0,0,0,0,0c0,0,0,0,0,0c0,0,0,0,0,0c0,0,0,0,0,0c0,0,0,0,0,0
					c0,0,0,0,0,0c0,0,0,0,0,0c0,0,0,0,0,0c0,0,0,0,0,0c0,0,0,0,0,0c0,0,0,0,0,0c0,0,0,0,0,0c0,0,0,0,0,0c0,0,0,0,0,0c0,0,0,0,0,0
					c0,0,0,0,0,0c0,0,0,0,0,0c0,0,0,0,0,0c0,0,0,0,0,0c0,0,0,0,0,0c0,0,0,0,0,0c0.1-0.1,0.2-0.2,0.3-0.2c0,0,0,0,0,0c0,0,0,0,0,0
					c0,0,0,0,0,0c0,0,0,0,0,0c0,0,0,0,0,0c0,0,0,0,0,0c0,0,0,0,0,0c0,0,0,0,0,0c0,0,0,0,0,0c0,0,0,0,0,0c0,0,0,0,0,0c0,0,0,0,0,0
					c0,0,0,0,0,0c0,0,0,0,0,0c0,0,0,0,0,0c0,0,0,0,0,0c0,0,0,0,0,0c0,0,0,0,0,0c0,0,0,0,0,0c0.1-0.1,0.2-0.1,0.2-0.2c0,0,0,0,0,0
					c0,0,0,0,0,0c0,0,0,0,0,0c0,0,0,0,0,0c0,0,0,0,0,0c0,0,0,0,0,0c0,0,0,0,0,0c0,0,0,0,0,0c0,0,0,0,0,0c0,0,0,0,0,0c0,0,0,0,0,0
					c0,0,0,0,0,0c0,0,0,0,0,0c0,0,0,0,0,0c0,0,0,0,0,0c0,0,0,0,0,0c0,0,0,0,0,0c0,0,0,0,0,0c0,0,0,0,0,0c0,0,0,0,0,0c0,0,0,0,0,0
					c0,0,0,0,0,0c0,0,0,0,0,0c0,0,0,0,0,0c0,0,0,0,0,0c0,0,0,0,0,0c0,0,0,0,0,0c0,0,0,0,0,0c0,0,0,0,0,0c0,0,0,0,0,0c0,0,0,0,0,0
					c0,0,0,0,0,0c0,0,0,0,0,0c0,0,0,0,0,0c0,0,0,0,0,0c0,0,0,0,0,0c0,0,0,0,0,0c0,0,0,0,0,0c0,0,0,0,0,0c0,0,0,0,0,0c0,0,0,0,0,0
					c0,0,0,0,0,0c0,0,0,0,0,0c0,0,0,0,0,0c0,0,0,0,0,0c0,0,0,0,0,0c0,0,0,0,0,0c0,0,0,0,0,0c0,0,0,0,0,0c0,0,0,0,0,0c0,0,0,0,0,0
					l0,0c0.6-0.4,1.1-0.9,1.7-1.4L195.5,208.5L195.5,208.5z M204.2,200.6c-1.4,1.4-2.8,2.8-4.3,4.1l1.3,1.5l0,0c0,0,0,0,0,0
					c0,0,0,0,0,0c0,0,0,0,0,0c0,0,0,0,0,0c0,0,0,0,0,0c0,0,0,0,0,0c0,0,0.1-0.1,0.1-0.1c0,0,0,0,0,0c0,0,0,0,0,0c0,0,0,0,0,0
					c0,0,0,0,0,0c0,0,0,0,0,0c0,0,0,0,0,0c0,0,0,0,0,0c0,0,0,0,0,0c0,0,0,0,0,0c0,0,0,0,0,0c0,0,0,0,0,0c0,0,0,0,0,0c0,0,0,0,0,0
					c0,0,0,0,0,0c0,0,0,0,0,0c0,0,0,0,0,0c0,0,0,0,0,0c0,0,0,0,0,0c0,0,0,0,0,0c0,0,0,0,0,0c0,0,0,0,0,0c0,0,0,0,0,0l0,0
					c0,0,0,0,0,0l0,0c0.1-0.1,0.1-0.1,0.2-0.2l0,0c0,0,0,0,0,0l0,0c0,0,0,0,0,0l0,0c0,0,0,0,0,0c0,0,0,0,0,0c0,0,0,0,0,0l0,0
					c0,0,0,0,0,0l0,0c0,0,0,0,0,0l0,0c0,0,0,0,0,0c0,0,0,0,0,0c1.1-1,2.2-2.1,3.3-3.2L204.2,200.6L204.2,200.6z M212.1,191.8
					c-1.2,1.5-2.5,3-3.8,4.5l1.5,1.3c1.3-1.5,2.6-3,3.9-4.6L212.1,191.8L212.1,191.8z M219.1,182.3c-1.1,1.6-2.2,3.3-3.4,4.9
					l1.6,1.2c0-0.1,0.1-0.1,0.1-0.2l0,0c0,0,0,0,0,0l0,0c0,0,0,0,0,0c0,0,0,0,0,0c0,0,0,0,0,0c0,0,0,0,0,0c0,0,0,0,0,0l0,0
					c0,0,0,0,0,0l0,0c0,0,0,0,0,0l0,0c0,0,0,0,0,0c0,0,0,0,0,0c0.1-0.2,0.2-0.3,0.4-0.5l0,0c0,0,0,0,0,0l0,0c0,0,0,0,0,0l0,0
					c0.1-0.2,0.2-0.3,0.3-0.5l0,0c0,0,0,0,0,0c0,0,0,0,0,0c0,0,0,0,0,0c0,0,0,0,0,0c0,0,0,0,0,0c0,0,0,0,0,0c0,0,0,0,0,0l0,0
					c0,0,0,0,0,0c0,0,0,0,0,0c0,0,0,0,0,0c0,0,0,0,0,0c0,0,0,0,0,0c0,0,0,0,0,0c0,0,0,0,0,0c0,0,0,0,0,0c0,0,0,0,0,0l0,0
					c0,0,0,0,0,0c0,0,0,0,0,0c0,0,0,0,0,0c0,0,0,0,0,0c0,0,0-0.1,0.1-0.1c0,0,0,0,0,0c0,0,0,0,0,0c0,0,0,0,0,0c0,0,0,0,0,0
					c0,0,0,0,0,0c0,0,0,0,0,0c0,0,0,0,0,0c0,0,0,0,0,0c0,0,0,0,0,0c0,0,0,0,0,0c0,0,0,0,0,0c0,0,0,0,0,0c0,0,0,0,0,0c0,0,0,0,0,0
					c0,0,0,0,0,0c0,0,0,0,0,0c0,0,0,0,0,0c0,0,0,0,0,0c0,0,0,0,0,0c0,0,0,0,0,0c0,0,0,0,0,0c0,0,0,0,0,0c0,0,0,0,0,0c0,0,0,0,0,0
					c0,0,0,0,0,0c0,0,0,0,0,0c0.6-0.8,1.1-1.7,1.7-2.5L219.1,182.3L219.1,182.3z M225,172.1c-0.9,1.7-1.9,3.5-2.8,5.2l1.7,1
					c0.3-0.5,0.6-1,0.9-1.5c0,0,0,0,0,0c0,0,0,0,0,0c0,0,0,0,0,0c0,0,0,0,0,0c0,0,0,0,0,0c0,0,0,0,0,0c0,0,0,0,0,0c0,0,0,0,0,0
					c0,0,0,0,0,0c0,0,0,0,0,0c0,0,0,0,0,0c0,0,0,0,0,0c0,0,0,0,0,0c0,0,0,0,0,0c0,0,0,0,0,0c0,0,0,0,0,0c0,0,0,0,0,0c0,0,0,0,0,0
					c0,0,0,0,0,0c0,0,0,0,0,0c0,0,0,0,0,0c0,0,0,0,0,0c0,0,0,0,0,0c0,0,0,0,0,0c0,0,0,0,0,0c0,0,0,0,0,0c0-0.1,0.1-0.1,0.1-0.2l0,0
					c0,0,0,0,0,0c0,0,0,0,0,0c0,0,0,0,0,0c0,0,0,0,0,0c0,0,0,0,0,0c0,0,0,0,0,0c0,0,0,0,0,0c0,0,0,0,0,0c0,0,0,0,0,0l0,0
					c0,0,0,0,0,0l0,0c0,0,0,0,0,0l0,0c0,0,0,0,0,0c0,0,0,0,0,0c0,0,0,0,0,0c0,0,0,0,0,0c0,0,0,0,0,0l0,0c0.1-0.1,0.1-0.2,0.2-0.4
					l0,0c0,0,0,0,0,0c0,0,0,0,0,0c0,0,0,0,0,0c0,0,0,0,0,0c0,0,0,0,0,0c0,0,0,0,0,0c0,0,0,0,0,0l0,0c0,0,0,0,0,0c0,0,0,0,0,0
					c0,0,0,0,0,0c0,0,0,0,0,0c0,0,0,0,0,0c0,0,0,0,0,0c0,0,0,0,0,0c0,0,0,0,0,0c0,0,0,0,0,0c0,0,0,0,0,0c0,0,0,0,0,0c0,0,0,0,0,0
					c0,0,0,0,0,0c0,0,0,0,0,0c0,0,0,0,0,0c0,0,0,0,0,0c0,0,0,0,0,0c0,0,0,0,0,0c0,0,0,0,0,0c0,0,0,0,0-0.1c0,0,0,0,0,0
					c0,0,0,0,0-0.1c0,0,0,0,0,0c0,0,0,0,0,0c0,0,0,0,0,0c0,0,0,0,0,0c0,0,0,0,0,0c0,0,0,0,0,0c0,0,0,0,0,0c0,0,0,0,0,0c0,0,0,0,0,0
					c0.2-0.5,0.5-0.9,0.7-1.4L225,172.1L225,172.1z M229.9,161.4c-0.7,1.8-1.5,3.6-2.3,5.4l1.8,0.8c0.3-0.7,0.6-1.4,0.9-2.1
					c0,0,0,0,0,0c0,0,0,0,0,0c0,0,0,0,0,0c0,0,0,0,0,0c0,0,0,0,0,0c0,0,0,0,0,0c0,0,0,0,0,0c0,0,0,0,0,0c0,0,0,0,0,0c0,0,0,0,0,0
					c0,0,0,0,0,0c0,0,0,0,0,0c0,0,0,0,0,0c0,0,0,0,0,0c0,0,0,0,0,0c0,0,0,0,0,0c0,0,0,0,0,0c0,0,0,0,0,0c0,0,0,0,0,0c0,0,0,0,0,0
					c0,0,0,0,0,0c0,0,0,0,0,0c0,0,0,0,0,0c0,0,0,0,0,0c0,0,0,0,0,0l0,0c0.3-0.7,0.6-1.4,0.9-2.2l0,0c0,0,0,0,0,0c0,0,0,0,0,0
					c0,0,0,0,0,0c0,0,0,0,0,0c0,0,0,0,0,0c0,0,0,0,0,0c0,0,0,0,0,0c0,0,0,0,0,0c0,0,0,0,0,0c0,0,0,0,0,0c0,0,0,0,0,0c0,0,0,0,0,0
					c0,0,0,0,0,0c0,0,0,0,0,0c0,0,0,0,0,0c0,0,0,0,0,0c0,0,0,0,0,0c0,0,0,0,0,0c0,0,0,0,0,0c0-0.1,0.1-0.2,0.1-0.3L229.9,161.4
					L229.9,161.4z M233.6,150.2c-0.5,1.9-1.1,3.8-1.7,5.6l1.9,0.6c0.1-0.3,0.2-0.7,0.3-1c0,0,0,0,0,0c0,0,0,0,0,0c0,0,0,0,0,0
					c0,0,0,0,0,0c0,0,0,0,0,0c0,0,0,0,0,0c0,0,0,0,0,0c0,0,0,0,0,0c0,0,0,0,0,0c0,0,0,0,0,0c0,0,0,0,0,0c0,0,0,0,0,0c0,0,0,0,0,0
					c0,0,0,0,0,0c0,0,0,0,0,0c0,0,0,0,0,0c0,0,0,0,0,0c0,0,0,0,0,0c0,0,0,0,0,0c0,0,0,0,0,0c0,0,0,0,0,0c0,0,0,0,0,0c0,0,0,0,0,0
					c0,0,0,0,0,0c0,0,0,0,0,0c0,0,0,0,0,0c0,0,0,0,0,0c0,0,0,0,0,0c0,0,0,0,0,0c0,0,0,0,0,0c0,0,0,0,0,0c0,0,0,0,0,0c0,0,0,0,0,0
					c0,0,0-0.1,0-0.1c0,0,0,0,0,0c0,0,0,0,0,0c0,0,0,0,0,0c0,0,0,0,0,0c0,0,0,0,0,0c0,0,0,0,0,0c0,0,0,0,0,0c0,0,0,0,0,0
					c0,0,0,0,0,0c0,0,0,0,0,0c0,0,0,0,0,0c0,0,0,0,0,0c0,0,0,0,0,0c0,0,0,0,0,0c0,0,0,0,0,0c0,0,0,0,0,0c0,0,0,0,0,0c0,0,0,0,0,0
					c0,0,0,0,0,0c0,0,0,0,0,0c0,0,0,0,0,0c0,0,0,0,0,0c0,0,0,0,0,0c0,0,0,0,0,0c0,0,0,0,0,0c0,0,0,0,0,0c0,0,0,0,0,0c0,0,0,0,0,0
					c0,0,0,0,0,0c0,0,0,0,0,0c0,0,0,0,0,0c0,0,0,0,0,0c0,0,0,0,0,0c0,0,0,0,0,0c0,0,0,0,0,0c0,0,0,0,0,0c0,0,0,0,0,0c0,0,0,0,0,0
					c0,0,0,0,0,0c0,0,0,0,0,0c0,0,0,0,0,0c0,0,0,0,0,0c0,0,0,0,0,0c0,0,0,0,0,0c0,0,0,0,0,0c0-0.1,0.1-0.2,0.1-0.3c0,0,0,0,0,0
					c0,0,0,0,0,0c0,0,0,0,0,0c0,0,0,0,0,0c0,0,0,0,0,0c0,0,0,0,0,0c0,0,0,0,0,0c0,0,0,0,0,0c0,0,0,0,0,0c0,0,0,0,0,0c0,0,0,0,0,0
					c0,0,0,0,0,0c0,0,0,0,0,0c0,0,0,0,0,0c0,0,0,0,0,0c0,0,0,0,0,0c0,0,0,0,0,0c0,0,0,0,0,0c0,0,0,0,0,0c0,0,0,0,0,0c0,0,0,0,0,0
					c0,0,0,0,0,0c0,0,0,0,0,0c0,0,0,0,0,0c0,0,0,0,0,0c0,0,0,0,0,0c0,0,0,0,0,0c0,0,0,0,0,0c0,0,0,0,0,0c0,0,0,0,0,0c0,0,0,0,0,0
					c0.1-0.3,0.2-0.7,0.3-1c0,0,0,0,0,0c0,0,0,0,0,0c0,0,0,0,0,0c0.1-0.2,0.1-0.5,0.2-0.7c0,0,0,0,0,0c0,0,0,0,0,0c0,0,0,0,0,0
					c0,0,0,0,0,0c0,0,0,0,0,0c0,0,0,0,0,0L233.6,150.2L233.6,150.2z M236.2,138.7c-0.3,1.9-0.7,3.9-1.1,5.8l2,0.4
					c0.2-0.8,0.3-1.6,0.5-2.4c0,0,0,0,0,0c0,0,0,0,0,0c0,0,0,0,0,0c0,0,0,0,0,0c0,0,0,0,0,0c0,0,0,0,0,0c0,0,0,0,0,0c0,0,0,0,0,0
					c0,0,0,0,0,0c0,0,0,0,0,0c0,0,0,0,0,0c0,0,0,0,0,0c0,0,0,0,0,0c0,0,0,0,0,0c0,0,0,0,0,0c0,0,0,0,0,0c0,0,0,0,0,0c0,0,0,0,0,0
					c0,0,0,0,0,0c0,0,0,0,0,0c0,0,0,0,0,0c0,0,0,0,0,0c0,0,0,0,0,0c0,0,0,0,0,0c0,0,0,0,0,0c0,0,0,0,0,0c0,0,0,0,0,0c0,0,0,0,0,0
					c0,0,0,0,0,0c0,0,0,0,0,0c0,0,0,0,0,0c0,0,0,0,0,0c0,0,0,0,0,0c0,0,0,0,0,0c0,0,0,0,0,0c0,0,0,0,0,0c0,0,0,0,0,0c0,0,0,0,0,0
					c0,0,0,0,0,0c0,0,0,0,0,0c0,0,0,0,0,0c0,0,0,0,0,0c0,0,0,0,0,0c0,0,0,0,0,0c0,0,0,0,0,0c0,0,0,0,0,0c0,0,0,0,0,0c0,0,0,0,0,0
					c0-0.1,0-0.2,0.1-0.4c0,0,0,0,0,0c0,0,0,0,0,0c0,0,0,0,0,0c0,0,0,0,0,0c0,0,0,0,0,0c0,0,0,0,0,0c0,0,0,0,0,0c0,0,0,0,0,0
					c0,0,0,0,0,0c0,0,0,0,0,0c0,0,0,0,0,0c0,0,0,0,0,0c0,0,0,0,0,0c0,0,0,0,0,0c0,0,0,0,0,0c0,0,0,0,0,0c0,0,0,0,0,0c0,0,0,0,0,0
					c0,0,0,0,0,0c0,0,0,0,0,0c0,0,0,0,0,0c0,0,0,0,0,0c0,0,0,0,0,0c0,0,0,0,0,0c0,0,0,0,0,0c0,0,0,0,0,0c0,0,0,0,0,0c0,0,0,0,0,0
					c0,0,0,0,0,0c0,0,0,0,0,0c0,0,0,0,0,0c0,0,0,0,0,0c0,0,0,0,0,0c0,0,0,0,0,0c0,0,0,0,0,0l0,0c0,0,0,0,0,0l0,0
					c0.1-0.4,0.1-0.8,0.2-1.2L236.2,138.7L236.2,138.7z M237.6,127c-0.1,2-0.3,3.9-0.5,5.9l2,0.2c0.1-0.5,0.1-1.1,0.2-1.6
					c0,0,0,0,0,0c0,0,0,0,0,0c0,0,0,0,0,0c0,0,0,0,0,0c0,0,0,0,0,0c0,0,0,0,0,0c0,0,0,0,0,0c0,0,0,0,0,0c0,0,0,0,0,0c0,0,0,0,0,0
					c0,0,0,0,0,0c0,0,0,0,0,0c0,0,0,0,0,0c0,0,0,0,0,0c0,0,0,0,0,0l0,0c0,0,0,0,0,0l0,0c0,0,0,0,0,0l0,0c0,0,0,0,0,0l0,0
					c0,0,0,0,0,0l0,0c0,0,0,0,0,0l0,0c0,0,0,0,0,0l0,0c0.1-1.2,0.2-2.5,0.3-3.7L237.6,127L237.6,127z M239.8,115.1l-2,0.1
					c0,1.3,0.1,2.6,0.1,3.9c0,0.7,0,1.3,0,2l2,0c0-0.2,0-0.5,0-0.7c0,0,0,0,0,0c0,0,0-0.1,0-0.1c0,0,0,0,0,0c0,0,0,0,0,0
					c0,0,0,0,0,0c0,0,0,0,0,0c0,0,0,0,0,0c0,0,0,0,0,0c0,0,0,0,0,0c0,0,0,0,0,0c0,0,0,0,0,0c0,0,0,0,0,0c0,0,0,0,0,0c0,0,0,0,0,0
					c0,0,0,0,0,0c0,0,0,0,0,0c0,0,0,0,0,0c0,0,0,0,0,0c0,0,0,0,0,0c0,0,0,0,0,0c0,0,0,0,0,0c0,0,0,0,0,0c0,0,0,0,0,0c0,0,0,0,0,0
					c0,0,0,0,0,0c0,0,0,0,0,0c0,0,0,0,0,0c0,0,0,0,0,0c0,0,0,0,0,0c0,0,0,0,0,0c0,0,0,0,0,0c0,0,0,0,0,0c0,0,0,0,0,0c0,0,0,0,0,0
					c0,0,0,0,0,0c0,0,0,0,0,0c0,0,0,0,0,0c0,0,0,0,0,0c0,0,0,0,0,0c0,0,0,0,0,0c0,0,0,0,0,0c0,0,0,0,0,0c0,0,0,0,0,0c0,0,0,0,0,0
					c0,0,0,0,0,0c0,0,0,0,0,0c0,0,0,0,0,0c0,0,0,0,0,0c0,0,0,0,0,0c0,0,0,0,0,0c0,0,0,0,0,0c0,0,0,0,0,0c0,0,0,0,0,0c0,0,0,0,0,0
					l0,0l0,0c0,0,0,0,0-0.1c0,0,0,0,0,0c0,0,0,0,0,0c0,0,0,0,0,0c0,0,0,0,0,0c0,0,0,0,0,0c0,0,0,0,0-0.1c0,0,0,0,0,0c0,0,0,0,0,0
					c0,0,0,0,0,0c0,0,0,0,0,0c0,0,0,0,0,0c0,0,0,0,0-0.1c0,0,0,0,0,0c0,0,0,0,0,0c0,0,0,0,0,0c0,0,0,0,0,0c0,0,0,0,0,0
					c0,0,0,0,0-0.1c0,0,0,0,0,0c0,0,0,0,0,0c0,0,0,0,0,0c0,0,0,0,0,0c0,0,0,0,0,0c0,0,0-0.1,0-0.1c0,0,0,0,0,0c0,0,0,0,0,0
					c0,0,0,0,0,0c0,0,0,0,0-0.1c0,0,0,0,0,0c0,0,0,0,0-0.1c0,0,0,0,0,0c0,0,0,0,0,0c0,0,0,0,0,0c0,0,0,0,0-0.1l0,0c0,0,0,0,0-0.1
					c0,0,0,0,0,0c0,0,0,0,0-0.1c0,0,0,0,0,0c0,0,0,0,0,0c0,0,0,0,0,0c0,0,0-0.1,0-0.1c0,0,0,0,0,0c0,0,0,0,0,0c0,0,0,0,0,0
					c0,0,0-0.1,0-0.1c0,0,0,0,0,0c0,0,0,0,0,0c0,0,0,0,0,0c0,0,0,0,0-0.1l0,0c0,0,0,0,0-0.1l0,0c0,0,0,0,0,0c0,0,0,0,0,0
					c0,0,0,0,0,0c0,0,0,0,0,0c0,0,0,0,0-0.1c0,0,0,0,0,0c0,0,0,0,0,0c0,0,0,0,0,0c0,0,0,0,0,0c0,0,0,0,0,0c0,0,0,0,0-0.1l0,0
					c0,0,0,0,0-0.1c0,0,0,0,0,0c0,0,0,0,0,0c0,0,0,0,0,0c0,0,0,0,0-0.1l0,0c0,0,0,0,0-0.1c0,0,0,0,0,0c0,0,0,0,0,0c0,0,0,0,0,0
					c0,0,0,0,0,0c0,0,0,0,0,0c0,0,0,0,0-0.1c0,0,0,0,0,0c0,0,0,0,0,0c0,0,0,0,0,0c0,0,0,0,0,0c0,0,0,0,0,0c0,0,0,0,0-0.1
					c0,0,0,0,0,0c0,0,0,0,0,0c0,0,0,0,0,0c0,0,0,0,0,0c0,0,0,0,0,0c0,0,0,0,0,0c0,0,0,0,0-0.1c0,0,0,0,0,0c0,0,0,0,0,0c0,0,0,0,0,0
					c0,0,0,0,0,0c0,0,0,0,0,0c0,0,0-0.1,0-0.1c0,0,0,0,0,0C239.8,115.6,239.8,115.3,239.8,115.1L239.8,115.1z M238.8,103.2l-2,0.3
					c0.3,1.9,0.5,3.9,0.6,5.9l2-0.2c0-0.2,0-0.3,0-0.5l0,0c0,0,0,0,0,0l0,0c0,0,0,0,0,0l0,0c0,0,0,0,0,0c0,0,0,0,0,0c0,0,0,0,0,0
					c0,0,0,0,0,0c0,0,0,0,0,0c0,0,0,0,0,0c0,0,0,0,0,0c0,0,0,0,0,0c0,0,0,0,0,0c0,0,0,0,0,0c0,0,0,0,0,0c0,0,0,0,0,0c0,0,0,0,0,0
					c0,0,0,0,0,0c0,0,0,0,0,0c0,0,0,0,0,0c0,0,0,0,0,0c0,0,0,0,0,0c0,0,0,0,0,0c0,0,0,0,0,0c0,0,0,0,0,0c0,0,0,0,0,0c0,0,0,0,0,0
					c0,0,0,0,0,0c0,0,0,0,0,0c0,0,0,0,0,0c0,0,0,0,0,0c0,0,0,0,0,0c0,0,0,0,0,0c0,0,0,0,0,0c0,0,0,0,0,0c0,0,0,0,0,0c0,0,0,0,0,0
					c0,0,0,0,0,0c0,0,0,0,0,0c0,0,0,0,0,0c0,0,0,0,0,0c0,0,0,0,0,0c0,0,0,0,0,0c-0.1-1.2-0.2-2.3-0.4-3.5c0,0,0,0,0,0c0,0,0,0,0,0
					c0,0,0,0,0,0c0,0,0,0,0,0c0,0,0,0,0,0c0,0,0,0,0,0c0,0,0,0,0,0c0,0,0,0,0,0c0,0,0,0,0,0c0,0,0,0,0,0c0,0,0,0,0,0c0,0,0,0,0,0
					c0,0,0,0,0,0c0,0,0,0,0,0c0,0,0,0,0,0c0,0,0,0,0,0c0,0,0,0,0,0c0,0,0,0,0,0c0,0,0,0,0,0c0,0,0,0,0,0c0,0,0,0,0,0c0,0,0,0,0,0
					c0,0,0,0,0,0c0,0,0,0,0,0c0,0,0,0,0,0c0,0,0,0,0,0c0,0,0,0,0,0l0,0c0,0,0,0,0,0l0,0C238.8,103.4,238.8,103.3,238.8,103.2
					L238.8,103.2z M236.6,91.4l-1.9,0.5c0.5,1.9,0.9,3.8,1.2,5.8l2-0.4c-0.1-0.8-0.3-1.5-0.4-2.3c0,0,0,0,0,0c0,0,0,0,0,0
					c0,0,0,0,0,0c0,0,0,0,0,0c0,0,0,0,0,0c0,0,0,0,0,0c0,0,0,0,0,0c0,0,0,0,0,0c0,0,0,0,0,0c0,0,0,0,0,0c0,0,0,0,0,0c0,0,0,0,0,0
					c0,0,0,0,0,0c0,0,0,0,0,0c0,0,0,0,0,0c0,0,0,0,0,0c0,0,0,0,0,0c0,0,0,0,0,0c0,0,0,0,0,0c0,0,0,0,0,0c0,0,0,0,0,0c0,0,0,0,0,0
					c0,0,0,0,0,0c0,0,0,0,0,0c0,0,0,0,0,0c0,0,0,0,0,0c0,0,0,0,0,0l0,0C237.1,93.4,236.8,92.4,236.6,91.4L236.6,91.4z M233.2,79.9
					l-1.9,0.7c0.7,1.8,1.3,3.7,1.8,5.6l1.9-0.6C234.5,83.7,233.9,81.8,233.2,79.9L233.2,79.9C233.2,79.9,233.2,79.9,233.2,79.9
					L233.2,79.9L233.2,79.9z M228.6,68.8l-1.8,0.9c0.8,1.8,1.6,3.6,2.4,5.4l1.8-0.8l0,0c0,0,0,0,0,0c0,0,0-0.1,0-0.1c0,0,0,0,0,0
					c0,0,0,0,0,0c0,0,0,0,0,0c0,0,0,0,0,0c0,0,0,0,0,0c0,0,0,0,0,0c0,0,0,0,0,0c0,0,0,0,0,0c0,0,0,0,0,0c0,0,0,0,0,0c0,0,0,0,0,0
					c0,0,0,0,0,0c0,0,0,0,0,0c0,0,0,0,0,0c0,0,0,0,0,0c0,0,0,0,0,0c0,0,0,0,0,0c0,0,0,0,0,0c0,0,0,0,0,0c0,0,0,0,0,0c0,0,0,0,0,0
					c0,0,0,0,0,0c0,0,0,0,0,0c0,0,0,0,0,0c0,0,0,0,0,0c0,0,0,0,0,0c0,0,0,0,0,0c0,0,0,0,0,0c0,0,0,0,0,0c0,0,0,0,0,0c0,0,0,0,0,0
					c0,0,0,0,0,0c0,0,0,0,0,0c0,0,0,0,0,0c0,0,0,0,0,0c0,0,0,0,0,0c0,0,0,0,0,0c0,0,0,0,0,0c0,0,0,0,0,0l0,0c0,0,0,0,0,0
					c0,0,0,0,0,0c0,0,0,0,0,0c0,0,0,0,0,0c0,0,0,0,0,0c0,0,0,0,0,0c0,0,0,0,0,0c0,0,0,0,0,0c0,0,0,0,0,0c0,0,0,0,0,0c0,0,0,0,0,0
					c0,0,0,0,0,0c0,0,0,0,0,0c0,0,0,0,0,0c0,0,0,0,0,0c0,0,0,0,0,0c0,0,0,0,0,0c0,0,0,0,0,0c0,0,0,0,0,0c0,0,0,0,0,0c0,0,0,0,0,0
					c0,0,0,0,0,0c0,0,0,0,0,0c0,0,0,0,0,0c0,0,0,0,0,0c0,0,0,0,0,0c0,0,0,0,0,0c0,0,0,0,0,0c0,0,0,0,0,0c0,0,0,0,0,0c0,0,0,0,0,0
					c0,0,0,0,0,0c0,0,0,0,0,0c0,0,0,0,0,0c0,0,0,0,0,0c0,0,0,0,0,0c0-0.1,0-0.1-0.1-0.2c0,0,0,0,0,0c0,0,0-0.1,0-0.1l0,0
					c0,0,0,0,0,0c0,0,0,0,0,0c0,0,0,0,0,0c0,0,0,0,0,0c0,0,0,0,0,0c0,0,0,0,0,0c0,0,0,0,0,0c0,0,0,0,0,0c0,0,0,0,0,0c0,0,0,0,0,0
					c0,0,0,0,0,0l0,0c0,0,0,0,0,0l0,0c0,0,0,0,0,0c0,0,0,0,0,0c0,0,0,0,0,0c0,0,0,0,0,0c0,0,0,0,0,0l0,0
					C229.6,70.8,229.1,69.8,228.6,68.8L228.6,68.8z M222.9,58.2l-1.7,1c1,1.7,2,3.4,2.9,5.1l1.8-0.9C225,61.7,224,59.9,222.9,58.2
					L222.9,58.2z M216.2,48.3l-1.6,1.2c1.2,1.6,2.3,3.2,3.4,4.8l1.7-1.1c-0.9-1.4-1.9-2.7-2.9-4c0,0,0,0,0,0c0,0,0,0,0,0
					c0,0,0,0,0,0c0,0,0,0,0,0c0,0,0,0,0,0c0,0,0,0,0,0c0,0,0,0,0,0c0,0,0,0,0,0c0,0,0,0,0,0c0,0,0,0,0,0c0,0,0,0,0,0c0,0,0,0,0,0
					c0,0,0,0,0,0c0,0,0,0,0,0c0,0,0,0,0,0c0,0,0,0,0,0c0,0,0,0,0,0c0,0,0,0,0,0c0,0,0,0,0,0c0,0,0,0,0,0c0,0,0,0,0,0c0,0,0,0,0,0
					c0,0,0,0,0,0c0,0,0,0,0,0c0,0,0,0,0,0c0,0-0.1-0.1-0.1-0.1c0,0,0,0,0,0c0,0,0,0,0,0c0,0,0,0,0,0c0,0,0,0,0,0c0,0,0,0,0,0
					c0,0,0,0,0,0c0,0,0,0,0,0c0,0,0,0,0,0c0,0,0,0,0,0C216.3,48.4,216.3,48.4,216.2,48.3C216.3,48.4,216.3,48.4,216.2,48.3
					C216.3,48.4,216.2,48.4,216.2,48.3C216.2,48.4,216.2,48.4,216.2,48.3C216.2,48.4,216.2,48.3,216.2,48.3
					C216.2,48.3,216.2,48.3,216.2,48.3C216.2,48.3,216.2,48.3,216.2,48.3L216.2,48.3z M208.5,39.1l-1.5,1.4c1.3,1.4,2.6,2.9,3.9,4.4
					l1.5-1.3c-0.1-0.1-0.2-0.2-0.3-0.3c0,0,0,0,0,0c0,0,0,0,0,0c0,0,0,0,0,0c0,0,0,0,0,0c0,0,0,0,0,0c0,0,0,0,0,0c0,0,0,0,0,0
					c0,0,0,0,0,0c0,0,0,0,0,0c0,0,0,0,0,0c0,0,0,0,0,0c0,0,0,0,0,0c0,0,0,0,0,0c0,0,0,0,0,0c0,0,0,0,0,0c0,0,0,0,0,0c0,0,0,0,0,0
					c0,0,0,0,0,0c0,0,0,0,0,0l0,0C210.8,41.7,209.7,40.4,208.5,39.1L208.5,39.1z M199.9,30.8l-1.3,1.5c1.5,1.3,2.9,2.6,4.3,4
					l1.4-1.4c-0.6-0.6-1.3-1.2-1.9-1.8c0,0,0,0,0,0c0,0,0,0,0,0c0,0,0,0,0,0c0,0,0,0,0,0l0,0c0,0,0,0,0,0c0,0,0,0,0,0c0,0,0,0,0,0
					c0,0,0,0,0,0c0,0,0,0,0,0c0,0,0,0,0,0c0,0,0,0,0,0c0,0,0,0,0,0c0,0,0,0,0,0c0,0,0,0,0,0c0,0,0,0,0,0c0,0,0,0,0,0c0,0,0,0,0,0
					c-0.1,0-0.1-0.1-0.2-0.1c0,0,0,0,0,0c0,0,0,0,0,0c0,0,0,0,0,0c0,0,0,0,0,0c0,0,0,0,0,0c0,0,0,0,0,0c0,0,0,0,0,0c0,0,0,0,0,0
					c0,0,0,0,0,0C201.2,31.9,200.5,31.3,199.9,30.8L199.9,30.8z M190.5,23.3l-1.2,1.6c1.6,1.1,3.2,2.3,4.7,3.5l1.2-1.6
					C193.7,25.7,192.1,24.5,190.5,23.3L190.5,23.3z M180.4,16.8l-1,1.7c1.7,1,3.4,2,5,3l1.1-1.7c-0.1-0.1-0.3-0.2-0.4-0.2
					c0,0,0,0,0,0c0,0,0,0,0,0c0,0,0,0,0,0c0,0,0,0,0,0c0,0,0,0,0,0c0,0,0,0,0,0c0,0,0,0,0,0c0,0,0,0,0,0c0,0,0,0,0,0c0,0,0,0,0,0
					c0,0,0,0,0,0c0,0,0,0,0,0c0,0,0,0,0,0c0,0,0,0,0,0c0,0,0,0,0,0c0,0,0,0,0,0c0,0,0,0,0,0c0,0,0,0,0,0c0,0,0,0,0,0c0,0,0,0,0,0
					c0,0,0,0,0,0c0,0,0,0,0,0c0,0,0,0,0,0l0,0C183.3,18.5,181.8,17.7,180.4,16.8L180.4,16.8z M169.7,11.5l-0.8,1.8
					c1.8,0.8,3.6,1.6,5.3,2.5l0.9-1.8c-0.9-0.4-1.8-0.9-2.7-1.3c0,0,0,0,0,0c0,0,0,0,0,0l0,0c0,0,0,0,0,0c0,0,0,0,0,0c0,0,0,0,0,0
					c0,0,0,0,0,0c0,0,0,0,0,0c0,0,0,0,0,0c0,0,0,0,0,0c0,0,0,0,0,0c0,0,0,0,0,0c0,0,0,0,0,0c0,0,0,0,0,0c0,0,0,0,0,0c0,0,0,0,0,0
					c0,0,0,0,0,0c0,0,0,0,0,0c0,0,0,0,0,0c0,0,0,0,0,0c0,0,0,0,0,0c0,0,0,0,0,0c0,0,0,0,0,0c0,0,0,0,0,0c0,0,0,0,0,0c0,0,0,0,0,0
					c0,0,0,0,0,0c0,0,0,0,0,0c0,0,0,0,0,0c0,0,0,0,0,0c0,0,0,0,0,0c0,0,0,0,0,0c0,0,0,0,0,0c0,0,0,0,0,0c0,0,0,0-0.1,0c0,0,0,0,0,0
					c0,0,0,0,0,0c0,0,0,0,0,0c0,0,0,0,0,0c0,0,0,0,0,0c0,0,0,0,0,0c0,0,0,0,0,0c0,0,0,0,0,0c0,0,0,0,0,0c0,0,0,0,0,0c0,0,0,0,0,0
					c0,0,0,0,0,0c0,0,0,0,0,0c0,0,0,0,0,0c0,0,0,0,0,0c0,0,0,0,0,0c0,0,0,0,0,0c0,0,0,0,0,0c0,0,0,0,0,0c0,0,0,0,0,0c0,0,0,0,0,0
					c0,0,0,0,0,0c0,0,0,0,0,0c0,0,0,0,0,0c0,0,0,0,0,0c0,0,0,0,0,0c0,0,0,0,0,0c0,0,0,0,0,0c0,0,0,0,0,0c0,0,0,0,0,0c0,0,0,0,0,0
					c0,0,0,0,0,0c0,0,0,0,0,0c0,0,0,0,0,0c0,0,0,0,0,0c0,0,0,0,0,0C170.5,11.8,170.1,11.6,169.7,11.5L169.7,11.5z M158.5,7.2
					l-0.6,1.9c1.9,0.6,3.7,1.3,5.6,2l0.7-1.9c0,0,0,0,0,0c0,0,0,0,0,0c0,0,0,0,0,0c0,0,0,0,0,0c0,0,0,0,0,0c0,0,0,0,0,0c0,0,0,0,0,0
					c0,0,0,0,0,0c0,0,0,0,0,0c0,0,0,0,0,0c0,0,0,0,0,0c0,0,0,0,0,0c0,0,0,0,0,0c0,0,0,0,0,0c0,0,0,0,0,0c0,0,0,0,0,0c0,0,0,0,0,0
					c0,0,0,0,0,0c0,0,0,0,0,0c0,0,0,0,0,0c0,0,0,0,0,0c0,0,0,0,0,0c0,0,0,0,0,0c0,0,0,0,0,0c-0.1,0-0.2-0.1-0.2-0.1c0,0,0,0,0,0
					c0,0,0,0,0,0c0,0,0,0,0,0c0,0,0,0,0,0c0,0,0,0,0,0c0,0,0,0,0,0c0,0,0,0,0,0c0,0,0,0,0,0c0,0,0,0,0,0c0,0,0,0,0,0c0,0,0,0,0,0
					c0,0,0,0,0,0c0,0,0,0,0,0c0,0,0,0,0,0c0,0,0,0,0,0c0,0,0,0,0,0c0,0,0,0,0,0c0,0,0,0,0,0c0,0,0,0,0,0c0,0,0,0,0,0c0,0,0,0,0,0
					c0,0,0,0,0,0c0,0,0,0,0,0c-0.9-0.3-1.8-0.6-2.7-1c0,0,0,0,0,0c0,0,0,0,0,0c0,0,0,0,0,0c0,0,0,0,0,0c0,0,0,0,0,0c0,0,0,0,0,0
					c0,0,0,0,0,0c0,0,0,0,0,0c0,0,0,0,0,0c0,0,0,0,0,0c0,0,0,0,0,0c0,0,0,0,0,0c0,0,0,0,0,0c0,0,0,0,0,0c0,0,0,0,0,0c0,0,0,0,0,0
					c0,0,0,0,0,0c0,0,0,0,0,0c0,0,0,0,0,0c0,0,0,0,0,0c0,0,0,0,0,0c0,0,0,0,0,0c0,0,0,0,0,0c0,0,0,0,0,0c0,0,0,0,0,0c0,0,0,0,0,0
					c0,0,0,0,0,0l0,0C159.2,7.4,158.8,7.3,158.5,7.2L158.5,7.2z M146.9,4.1l-0.4,2c1.9,0.4,3.8,0.9,5.7,1.4l0.5-1.9
					C150.8,5,148.8,4.5,146.9,4.1L146.9,4.1z M135,2.2l-0.2,2c1.9,0.2,3.9,0.5,5.8,0.8l0.3-2c-0.4-0.1-0.7-0.1-1.1-0.2c0,0,0,0,0,0
					c0,0,0,0,0,0c0,0,0,0,0,0c0,0,0,0,0,0c0,0,0,0,0,0c0,0,0,0,0,0c0,0,0,0,0,0c0,0,0,0,0,0c0,0,0,0,0,0c0,0,0,0,0,0c0,0,0,0,0,0
					c0,0,0,0,0,0c0,0,0,0,0,0c0,0,0,0,0,0c0,0,0,0,0,0c0,0,0,0,0,0c0,0,0,0,0,0c0,0,0,0,0,0c0,0,0,0,0,0c0,0,0,0,0,0c0,0,0,0,0,0
					c0,0,0,0,0,0c0,0,0,0,0,0c0,0,0,0,0,0c0,0,0,0,0,0l0,0c0,0,0,0,0,0l0,0c0,0,0,0,0,0l0,0c0,0,0,0,0,0l0,0c0,0,0,0,0,0l0,0
					c0,0,0,0,0,0l0,0c0,0,0,0,0,0l0,0c0,0,0,0,0,0l0,0c0,0,0,0,0,0l0,0c0,0,0,0,0,0l0,0c0,0,0,0,0,0l0,0c0,0-0.1,0-0.1,0
					c0,0,0,0,0,0c0,0,0,0,0,0l0,0c0,0,0,0,0,0l0,0c0,0-0.1,0-0.1,0l0,0c-0.1,0-0.1,0-0.2,0l0,0c0,0-0.1,0-0.1,0l0,0c0,0-0.1,0-0.1,0
					l0,0C137.1,2.5,136.1,2.3,135,2.2L135,2.2z M123,1.5l0,2c2,0,3.9,0.1,5.9,0.2l0.1-2c-0.4,0-0.8,0-1.2-0.1c0,0,0,0,0,0
					c0,0,0,0,0,0c0,0,0,0,0,0c0,0,0,0,0,0c0,0,0,0,0,0c0,0,0,0,0,0c0,0,0,0,0,0c0,0,0,0,0,0c0,0,0,0,0,0c0,0,0,0,0,0c0,0,0,0,0,0
					c0,0,0,0,0,0c0,0,0,0,0,0c0,0,0,0,0,0c0,0,0,0,0,0c0,0,0,0,0,0c0,0,0,0,0,0c0,0,0,0,0,0c0,0,0,0,0,0c0,0,0,0,0,0c0,0,0,0,0,0
					c0,0,0,0,0,0c0,0,0,0,0,0c0,0,0,0,0,0c0,0,0,0,0,0c0,0,0,0,0,0c0,0,0,0,0,0c0,0,0,0,0,0c0,0,0,0,0,0l0,0c0,0,0,0,0,0l0,0
					c0,0,0,0,0,0l0,0c0,0,0,0,0,0l0,0c0,0,0,0,0,0l0,0c0,0,0,0,0,0l0,0c0,0,0,0,0,0l0,0c0,0,0,0,0,0l0,0
					C125.6,1.6,124.3,1.5,123,1.5L123,1.5z"/>
			</g>
			<g>
				<path class="st1" d="M137.1,243.6c-7.2,1.8-28.8,0-28.8,0C115.5,233.7,130.8,237.3,137.1,243.6"/>
				<path class="st1" d="M118.2,237.3c3.3-0.9,9.1-0.2,12.8,1.8c3-0.9,4.9-3.5,5.3-5.7c0,0-2.2,1.3-3.8,1.3c-4,0.2-5-0.7-8-0.9
					C122.6,233.7,120.3,234.6,118.2,237.3z"/>
				<path class="st1" d="M112.6,239.2c0.5-0.4,4.1-1.7,5.1-1.7c0.3-1.1,3-3.4,3.5-3.3c-2.5-0.9-6.7,0.4-7.4,0.5
					c-0.7,0.1-5.6,0.2-6.6-1.3C107.2,236.7,111.7,239.2,112.6,239.2z"/>
				<path class="st1" d="M121.7,233.9c-0.6-0.4-4.2-0.7-5.9-0.1c-1.7,0.6-3.8,0.5-3.8,0.5s-2.5-3.2-1.7-6.3c0.9,1.3,2.5,2.7,4.2,3.2
					s4.1,0.8,4.6,1c0.4,0.2,2.8,0.7,3.5,1.4L121.7,233.9z"/>
				<path class="st1" d="M122.1,232.8c0.2,0.1,1,0.6,1.1,0.7c0.5-0.1,2.2-0.4,4.1,0.2c1.9,0.6,3.8,0.7,4.1,0.6
					c2.1-1.9,2.1-5.7,1.8-6.3c-1.4,2-3.5,3-5.5,3.5C126.3,231.7,124.2,232,122.1,232.8z"/>
				<path class="st1" d="M123.4,231.9c0.4-0.2,1.9-0.4,2.7-0.5c0.8-0.1,2.6-0.6,2.9-0.7c0.7-2,0.5-5-0.7-6.6
					c-0.3,1.9-2.1,3.9-2.6,4.3c0,0-2.6,2.4-3.5,2.5C122.5,231,123.4,231.9,123.4,231.9z"/>
				<path class="st1" d="M121.7,232.6c0.1-0.2,1-0.6,1.2-0.5c0,0-2.1-1.5-3.9-2.5s-3.6-4.2-3.8-5.4c-1.3,1.5-1.6,4.4-0.8,6.5
					c0.9,0.4,2.1,0.5,3.7,1C119.8,232,121.7,232.6,121.7,232.6z"/>
				<path class="st1" d="M121.7,230.7c0,0,2-1.1,2.1-1.3c0.3-2.1-1.1-5.2-1.4-5.8c0,1.6-0.4,5.7-1.3,6.7L121.7,230.7z"/>
				<path class="st1" d="M121.6,221.3c0.6,1.7,0.7,6.1-0.8,8.8c-0.7-0.4-1.4-0.9-1.4-0.9c0-0.1-0.1-0.9,0.1-1.9
					S121.6,221.3,121.6,221.3z"/>
			</g>
		</g>
	</g>
	<g>
		<g>
			<g class="st2">
				<polygon class="st3" points="176.8,62.3 176.8,61.1 149.5,41 70.9,41 70.9,47.5 65.3,48.2 70.8,192.6 83.4,191.7 176.7,191.1 
					179.4,51.3 				"/>
			</g>
			<polygon class="st4" points="176.7,188.6 70.8,192.6 65.3,48.2 143.9,45.2 171.9,64.2 			"/>
			<polygon class="st4" points="176.7,191.1 70.8,192.6 77.1,47 179.4,51.3 			"/>
			<polygon class="st5" points="175.2,188.4 70.9,185.5 68.7,47.7 139.6,45.6 158.6,47.7 179.4,66.1 			"/>
			<polygon class="st4" points="176.8,185.5 70.9,185.5 70.9,41 149.5,41 176.8,61.1 			"/>
			<polygon class="st6" points="159.6,60.3 73.8,60.4 73.8,44 152.8,44 			"/>
			<polygon class="st7" points="176.7,61 158,66.1 149.7,41 			"/>
			<g>
				<path class="st6" d="M134.7,85.5l9.3,0v-0.1l24.8-0.1c0.7,0,1.2-0.5,1.2-1.2c0-0.6-0.6-1.2-1.2-1.2l-28.3,0.1v0.1l-5.8,0
					c-0.7,0-1.2,0.5-1.2,1.2C133.5,84.9,134,85.5,134.7,85.5z"/>
				<path class="st6" d="M168.9,89.6l-28.4,0.1v0.1l-5.8,0c-0.7,0-1.2,0.5-1.2,1.2c0,0.6,0.6,1.2,1.2,1.2l9.3,0V92l24.9-0.1
					c0.7,0,1.2-0.5,1.2-1.2C170.1,90.1,169.6,89.6,168.9,89.6z"/>
				<path class="st6" d="M153.8,95.6l-13.3,0v0.1l-6.3,0c-0.5,0-0.9,0.5-0.9,1.2c0,0.6,0.4,1.2,0.9,1.2l9.8,0v-0.1l9.8,0
					c0.5,0,0.9-0.5,0.9-1.2C154.7,96.1,154.3,95.6,153.8,95.6z"/>
				<path class="st8" d="M135.3,78.3l8.7,0v0l11.6,0c0.9,0,1.6-0.8,1.6-1.8c0-1-0.7-1.8-1.7-1.8l-15.1,0v0l-5.2,0
					c-0.9,0-1.6,0.8-1.6,1.8C133.6,77.5,134.4,78.3,135.3,78.3z"/>
			</g>
			<path class="st6" d="M125,149.7c0,0.7-0.5,1.3-1,1.3l-47.1,0.1c-0.6,0-1-0.6-1-1.3l0,0c0-0.7,0.5-1.3,1-1.3l47.1-0.1
				C124.5,148.5,125,149,125,149.7L125,149.7z"/>
			<path class="st8" d="M121.1,117.9c0,1-0.7,1.7-1.6,1.7l-41.7,0.1c-0.9,0-1.6-0.8-1.6-1.7l0,0c0-1,0.7-1.7,1.6-1.7l41.7-0.1
				C120.4,116.2,121.1,117,121.1,117.9L121.1,117.9z"/>
			<polygon class="st9" points="176.8,61.1 157.8,61.6 149.5,41 			"/>
			<g>
				<path class="st10" d="M127.8,85.4H116V73.5h11.8V85.4z M116.8,84.6H127V74.3h-10.2V84.6z"/>
			</g>
			<g>
				<polygon class="st10" points="121.3,82.5 118,79.2 118.6,78.6 121.2,81.3 125.2,76.2 125.8,76.7 				"/>
			</g>
			<g>
				<path class="st10" d="M127.8,101.9H116V90.1h11.8V101.9z M116.8,101.1H127V90.9h-10.2V101.1z"/>
			</g>
			<g>
				<polygon class="st10" points="121.3,99 118,95.7 118.6,95.1 121.2,97.8 125.2,92.7 125.8,93.2 				"/>
			</g>
			<g>
				<rect x="77.2" y="72.7" class="st6" width="31.7" height="35.5"/>
				<g>
					<g>
						<g>
							<path class="st11" d="M105.7,108.2c-0.3-1.1-1.9-2.4-3.1-1.9l0.4-0.9c-0.9,0.4-1.6,1.5-1.8,2.8H105.7z"/>
						</g>
						<g>
							<path class="st11" d="M100.7,108.2h5.2l0-0.3c-0.5-1.9-3.2-3.5-4.4-2.9l0.6,0.6C101.4,106,100.9,107,100.7,108.2z"/>
						</g>
						<g>
							<path class="st11" d="M103.1,108.2c0-0.2-0.1-0.3-0.1-0.5c-0.4-2.4-3.2-4.2-5.2-3.8c-1.9,0.3-4.6-0.6-6.3-0.1
								c-3.3,0.9-4.6,0.7-4.9,2.5c-0.1,0.7-0.1,1.3-0.1,2H103.1z"/>
						</g>
						<path class="st11" d="M89.5,108.2c0.5-1.9,0.9-3.5-0.2-3.6c-1.4-0.1-4.3,1.3-5.3,3.6H89.5z"/>
						<g>
							<path class="st11" d="M105.7,108.2c-0.3-1.1-1.9-2.4-3.1-1.9l0.4-0.9c-0.9,0.4-1.6,1.5-1.8,2.8H105.7z"/>
						</g>
						<g>
							<path class="st11" d="M105.9,108.2l0-0.3c-0.5-1.9-3.2-3.5-4.4-2.9l-0.1,0.6c-0.8,0.4-1,1.4-0.9,2.5H105.9z"/>
						</g>
						<g>
							<path class="st12" d="M103.4,108.2c-0.6-2.2-3.3-3.8-5.2-3.4c-1.9,0.3-4.6-0.5-6.3,0c-3.3,0.9-4.6,0.8-4.9,2.5
								c0,0.3-0.1,0.6-0.1,1H103.4z"/>
						</g>
						<g>
							<path class="st12" d="M103,108.2c-0.5-2.3-3.2-3.9-5.1-3.6c-1.9,0.3-4.6-0.6-6.3-0.1c-3.3,0.9-4.6,0.7-4.9,2.5
								c-0.1,0.4-0.1,0.8-0.1,1.3H103z"/>
						</g>
						<g>
							<path class="st11" d="M103.1,108.2c0-0.2-0.1-0.3-0.1-0.5c-0.4-2.4-3.2-4.2-5.2-3.8c-1.9,0.3-4.6-0.6-6.3-0.1
								c-3.3,0.9-4.6,0.7-4.9,2.5c-0.1,0.7-0.1,1.3-0.1,2H103.1z"/>
						</g>
						<g>
							<path class="st12" d="M100.4,108.2c0.1-0.1,0.6-0.5,0.6-0.8c0.2-0.6-0.1-2.4-0.1-2.4c-0.1-0.7-0.6-1.5-0.6-1.4
								c-0.3,1.7-0.6,3.1-1,4.5H100.4z"/>
						</g>
						<g>
							<path class="st13" d="M92,108.2h7.9c0.4-2.5,0-4.6-2-4.3c-1.9,0.3-4.6-0.7-6.3-0.1c-1,0.3-1.1,0.7-1,1
								C91,105.9,91.5,107.1,92,108.2z"/>
						</g>
						<g>
							<path class="st12" d="M91.3,108.2h1.1c-0.6-1.3-1.2-2.7-1.7-4.4c0-0.1-0.4,0.8-0.3,1.5c0,0,0.1,1.8,0.3,2.4
								C90.7,107.8,91.1,108,91.3,108.2z"/>
						</g>
						<path class="st14" d="M89,108.2c0-0.6-0.1-0.9-0.6-0.9c-0.6,0-1.5,0.3-2.4,0.9H89z"/>
						<path class="st11" d="M89.5,108.2c0.5-1.9,0.9-3.5-0.2-3.6c-1.4-0.1-4.3,1.3-5.3,3.6H89.5z"/>
						<g>
							<path class="st15" d="M95.5,108.2L95.5,108.2c0.9-1.7,2.3-3.1,2.3-4.2l-0.1-8.8c0-1.1-1.4-1.9-3-1.9c-1.7,0-3,0.9-3,2
								l0.1,8.1C91.7,104.4,94.8,107,95.5,108.2z"/>
						</g>
						<polygon class="st14" points="96.9,108.2 98.7,104.3 98.7,103.1 95.4,108.1 95.5,108.2 						"/>
						<polygon class="st14" points="95.6,108.2 95.6,108.1 91.2,102.8 91.2,104 93.9,108.2 						"/>
						<polygon class="st13" points="96.7,108.2 98.7,103.9 98.7,102.8 95.4,107.7 95.8,108.2 						"/>
						<g>
							<path class="st16" d="M91.7,101.5l-0.1-6.3c0-1.1,1.3-2,3-2c1.7,0,3,0.8,3,1.9l0.1,8.4C94.2,104.6,91.7,101.6,91.7,101.5z"/>
						</g>
						<g>
							<path class="st15" d="M87.1,88.7c0,2.1,0.2,5.8,1.4,8.7c0.7,1.9,3.9,4,5.6,4.8c0.5,0.2,1.4,0,1.7,0c1.7-0.1,4.4-4.2,4.6-5.7
								c0.5-2.6,0.8-5.9,0.4-10c-0.6-5.1-4.4-8.7-8.5-8.1C88.1,79.1,87.1,82.9,87.1,88.7z"/>
						</g>
						<g>
							<path class="st16" d="M100.8,86.5c-0.5-4.9-4-8.4-7.9-8.1c2.5,0.1,6,3.6,6.4,6.5c0.5,3.4,0.9,7.7,0.4,11.2
								c-0.4,2.7-0.9,2.9-2.5,5c-0.4,0.5-1.5,1.1-1.4,1.1c1.7-0.1,4.4-4.2,4.6-5.7C100.9,93.9,101.2,90.6,100.8,86.5z"/>
						</g>
						<g>
							<path class="st16" d="M102.1,88.7c0.2,1.2-0.1,3.3-0.8,3.4c-0.7,0.1-1.4-0.7-1.6-1.9c-0.2-1.2,0.3-2.2,1-2.3
								C101.4,87.8,102,87.5,102.1,88.7z"/>
						</g>
						<path class="st17" d="M85.1,79.7c0,2.3,1.8,4.1,4.1,4.1c2.3,0,4.1-1.8,4.1-4.1c0-2.3-1.8-4.1-4.1-4.1
							C86.9,75.6,85.1,77.4,85.1,79.7z"/>
						<g>
							<g>
								<g>
									<path class="st17" d="M100.8,91.8c0.1,0.6-0.3,2.7-0.2,3.4c0.7-0.5,1.7,7.8,2.3,7.3c2.1-13.5-1.3-23.2-2.8-23.6
										c-1.6-1.2-7.4-4.9-13.7,1c-1.5,1.4-2.2,6.7-2.4,12.2c1.3,4.8,3.1,5,4.9,5.5c-2.7-5.1,1.6-11.2,4.5-11.5
										c1.2-0.2,3.4,0,4.7-0.6C98.2,85.3,100.5,88.1,100.8,91.8z"/>
								</g>
							</g>
						</g>
						<polygon class="st13" points="95.3,108.2 95.6,107.7 91.2,102.4 91.2,103.9 94.1,108.2 						"/>
					</g>
				</g>
			</g>
			<path class="st6" d="M168.9,125.8c0,0.7-0.6,1.3-1.3,1.3H77.5c-0.7,0-1.3-0.6-1.3-1.3l0,0c0-0.7,0.6-1.3,1.3-1.3h90.1
				C168.3,124.4,168.9,125,168.9,125.8L168.9,125.8z"/>
			<path class="st6" d="M168.9,133.4c0,0.7-0.6,1.3-1.3,1.3H77.5c-0.7,0-1.3-0.6-1.3-1.3l0,0c0-0.7,0.6-1.3,1.3-1.3h90.1
				C168.3,132.1,168.9,132.7,168.9,133.4L168.9,133.4z"/>
			<path class="st6" d="M168.9,141.2c0,0.7-0.6,1.3-1.3,1.3H77.5c-0.7,0-1.3-0.6-1.3-1.3l0,0c0-0.7,0.6-1.3,1.3-1.3h90.1
				C168.3,139.8,168.9,140.4,168.9,141.2L168.9,141.2z"/>
			<path class="st18" d="M166.9,171.8c0,0.1-0.1,0.2-0.2,0.2h-32.9c-0.1,0-0.2-0.1-0.2-0.2l0,0c0-0.1,0.1-0.2,0.2-0.2h32.9
				C166.8,171.6,166.9,171.7,166.9,171.8L166.9,171.8z"/>
			<g>
				<path class="st18" d="M136.3,167.7c1.5-1.4,3,0.2,4.7-0.3c-0.2-0.2-0.5-0.3-0.7-0.5c-0.1,1.5,0.3,3,2.1,2.9
					c1.5-0.1,3.5-1.5,4.9-0.4c0.2,0.2,0.6,0,0.7-0.2c0.3-0.7,0.9-1.2,1-2c-0.3,0.1-0.5,0.2-0.8,0.3c1.5,1,3.5,2,5.4,1.7
					c1.7-0.3,2.9-1.5,3.5-3c0.7-1.7,2.1-7.1-1-7.4c-2.9-0.2-3.1,4.7-2.7,6.6c0.9,4.2,6,3.9,9.2,3.5c0.7-0.1,0.7-1.2,0-1.1
					c-2.5,0.3-6.1,0.9-7.7-1.6c-1-1.5-0.8-4.9,0.5-6.2c1.1-1.1,1.5,1.2,1.5,1.8c0,1.2-0.3,2.4-0.7,3.6c-0.4,1.3-1.3,2.3-2.6,2.7
					c-1.7,0.5-3.5-0.7-4.9-1.5c-0.3-0.2-0.7,0-0.8,0.3c-0.1,0.7-0.6,1.2-0.9,1.8c0.2-0.1,0.5-0.1,0.7-0.2c-1.1-0.8-2.4-0.5-3.6-0.2
					c-0.7,0.2-1.3,0.4-2,0.5c-1,0.1-0.9-1.2-0.8-1.8c0-0.4-0.4-0.6-0.7-0.5c-1,0.3-1.8-0.3-2.8-0.4c-1-0.1-1.7,0.3-2.5,1
					C135.1,167.4,135.8,168.1,136.3,167.7L136.3,167.7z"/>
			</g>
		</g>
		<g>
			<path class="st1" d="M81.3,53.7c-0.1,0.2-0.3,0.4-0.6,0.5c-0.2,0.1-0.5,0.2-0.9,0.2c-0.3,0-0.7-0.1-0.9-0.2
				c-0.3-0.1-0.5-0.3-0.7-0.5C78.1,53.5,78,53.3,78,53h1c0,0.2,0.1,0.4,0.2,0.5c0.1,0.1,0.3,0.2,0.5,0.2c0.2,0,0.4-0.1,0.5-0.2
				c0.1-0.1,0.2-0.2,0.2-0.4c0-0.2,0-0.3-0.1-0.4c-0.1-0.1-0.2-0.2-0.3-0.2c-0.1-0.1-0.3-0.1-0.6-0.2c-0.3-0.1-0.6-0.2-0.7-0.3
				c-0.2-0.1-0.4-0.2-0.5-0.4c-0.1-0.2-0.2-0.4-0.2-0.7c0-0.4,0.2-0.8,0.5-1c0.3-0.2,0.7-0.4,1.2-0.4c0.5,0,0.9,0.1,1.2,0.4
				c0.3,0.2,0.5,0.6,0.5,1h-1.1c0-0.2-0.1-0.3-0.2-0.4c-0.1-0.1-0.3-0.2-0.5-0.2c-0.2,0-0.3,0-0.4,0.1c-0.1,0.1-0.2,0.2-0.2,0.4
				c0,0.1,0,0.3,0.1,0.4c0.1,0.1,0.2,0.2,0.3,0.2c0.1,0.1,0.3,0.1,0.5,0.2c0.3,0.1,0.6,0.2,0.8,0.3c0.2,0.1,0.4,0.2,0.5,0.4
				c0.1,0.2,0.2,0.4,0.2,0.8C81.5,53.3,81.5,53.5,81.3,53.7z"/>
			<path class="st1" d="M85,50.7c0.3,0.2,0.5,0.4,0.7,0.7c0.2,0.3,0.3,0.6,0.3,1c0,0.4-0.1,0.7-0.3,1c-0.2,0.3-0.4,0.5-0.7,0.7
				c-0.3,0.2-0.6,0.2-1,0.2c-0.4,0-0.7-0.1-1-0.2c-0.3-0.2-0.5-0.4-0.7-0.7c-0.2-0.3-0.3-0.6-0.3-1c0-0.4,0.1-0.8,0.3-1
				c0.2-0.3,0.4-0.5,0.7-0.7c0.3-0.2,0.6-0.2,1-0.2C84.4,50.5,84.7,50.6,85,50.7z M83.3,51.6c-0.2,0.2-0.3,0.5-0.3,0.8
				c0,0.4,0.1,0.6,0.3,0.8c0.2,0.2,0.4,0.3,0.7,0.3c0.3,0,0.5-0.1,0.7-0.3c0.2-0.2,0.3-0.5,0.3-0.8c0-0.4-0.1-0.6-0.3-0.8
				c-0.2-0.2-0.4-0.3-0.7-0.3C83.7,51.4,83.5,51.5,83.3,51.6z"/>
			<path class="st1" d="M87.6,49.3v5.1h-1v-5.1H87.6z"/>
			<path class="st1" d="M88.6,49.1c0.1-0.1,0.3-0.1,0.4-0.1c0.2,0,0.3,0,0.4,0.1c0.1,0.1,0.2,0.2,0.2,0.4c0,0.2-0.1,0.3-0.2,0.4
				C89.3,49.9,89.2,50,89,50c-0.2,0-0.3,0-0.4-0.1c-0.1-0.1-0.2-0.2-0.2-0.4C88.4,49.3,88.5,49.2,88.6,49.1z M89.5,50.6v3.8h-1v-3.8
				H89.5z"/>
			<path class="st1" d="M93.3,50.9c0.3,0.3,0.5,0.6,0.6,1.1h-1c0-0.2-0.1-0.4-0.3-0.5c-0.1-0.1-0.3-0.2-0.6-0.2
				c-0.3,0-0.5,0.1-0.6,0.3c-0.2,0.2-0.3,0.5-0.3,0.8s0.1,0.6,0.3,0.8c0.2,0.2,0.4,0.3,0.6,0.3c0.2,0,0.4-0.1,0.6-0.2
				c0.1-0.1,0.2-0.3,0.3-0.5h1c-0.1,0.5-0.3,0.8-0.6,1.1c-0.3,0.3-0.7,0.4-1.2,0.4c-0.4,0-0.7-0.1-1-0.2c-0.3-0.2-0.5-0.4-0.7-0.7
				c-0.2-0.3-0.2-0.6-0.2-1c0-0.4,0.1-0.8,0.2-1c0.2-0.3,0.4-0.5,0.7-0.7c0.3-0.2,0.6-0.2,1-0.2C92.6,50.5,93,50.6,93.3,50.9z"/>
			<path class="st1" d="M94.7,49.1c0.1-0.1,0.3-0.1,0.4-0.1c0.2,0,0.3,0,0.4,0.1c0.1,0.1,0.2,0.2,0.2,0.4c0,0.2-0.1,0.3-0.2,0.4
				c-0.1,0.1-0.3,0.1-0.4,0.1c-0.2,0-0.3,0-0.4-0.1c-0.1-0.1-0.2-0.2-0.2-0.4C94.5,49.3,94.6,49.2,94.7,49.1z M95.6,50.6v3.8h-1
				v-3.8H95.6z"/>
			<path class="st1" d="M98.5,53.6v0.8H98c-0.4,0-0.8-0.1-1-0.3c-0.2-0.2-0.3-0.6-0.3-1v-1.7h-0.5v-0.8h0.5v-0.9h1v0.9h0.9v0.8h-0.9
				v1.7c0,0.2,0,0.3,0.1,0.4c0.1,0.1,0.2,0.1,0.4,0.1H98.5z"/>
			<path class="st1" d="M102.9,50.6v3.8h-1v-0.8c-0.1,0.3-0.3,0.5-0.5,0.6c-0.2,0.1-0.5,0.2-0.8,0.2c-0.4,0-0.8-0.1-1.1-0.4
				c-0.3-0.3-0.4-0.7-0.4-1.2v-2.2h1v2.1c0,0.3,0.1,0.5,0.2,0.7c0.2,0.2,0.4,0.3,0.6,0.3c0.3,0,0.5-0.1,0.7-0.3
				c0.2-0.2,0.2-0.4,0.2-0.8v-2H102.9z"/>
			<path class="st1" d="M106.1,50.7c0.2,0.2,0.4,0.4,0.5,0.6v-2.1h1v5.1h-1v-0.8c-0.1,0.3-0.3,0.5-0.5,0.6c-0.2,0.2-0.5,0.2-0.8,0.2
				c-0.3,0-0.6-0.1-0.9-0.2c-0.3-0.2-0.5-0.4-0.6-0.7c-0.1-0.3-0.2-0.6-0.2-1c0-0.4,0.1-0.8,0.2-1c0.1-0.3,0.3-0.5,0.6-0.7
				c0.3-0.2,0.5-0.2,0.9-0.2C105.6,50.5,105.9,50.6,106.1,50.7z M104.9,51.7c-0.2,0.2-0.3,0.5-0.3,0.8c0,0.3,0.1,0.6,0.3,0.8
				c0.2,0.2,0.4,0.3,0.7,0.3c0.3,0,0.5-0.1,0.7-0.3c0.2-0.2,0.3-0.5,0.3-0.8c0-0.3-0.1-0.6-0.3-0.8s-0.4-0.3-0.7-0.3
				C105.3,51.4,105.1,51.5,104.9,51.7z"/>
			<path class="st1" d="M112.3,50.7c0.2,0.2,0.4,0.4,0.5,0.6v-2.1h1v5.1h-1v-0.8c-0.1,0.3-0.3,0.5-0.5,0.6c-0.2,0.2-0.5,0.2-0.8,0.2
				c-0.3,0-0.6-0.1-0.9-0.2c-0.3-0.2-0.5-0.4-0.6-0.7c-0.1-0.3-0.2-0.6-0.2-1c0-0.4,0.1-0.8,0.2-1c0.1-0.3,0.3-0.5,0.6-0.7
				c0.3-0.2,0.5-0.2,0.9-0.2C111.8,50.5,112.1,50.6,112.3,50.7z M111,51.7c-0.2,0.2-0.3,0.5-0.3,0.8c0,0.3,0.1,0.6,0.3,0.8
				c0.2,0.2,0.4,0.3,0.7,0.3c0.3,0,0.5-0.1,0.7-0.3c0.2-0.2,0.3-0.5,0.3-0.8c0-0.3-0.1-0.6-0.3-0.8s-0.4-0.3-0.7-0.3
				C111.5,51.4,111.2,51.5,111,51.7z"/>
			<path class="st1" d="M118.2,52.7h-2.8c0,0.3,0.1,0.6,0.3,0.8c0.2,0.2,0.4,0.2,0.6,0.2c0.2,0,0.4-0.1,0.6-0.2
				c0.1-0.1,0.2-0.3,0.3-0.4h1c-0.1,0.3-0.2,0.5-0.3,0.7c-0.2,0.2-0.4,0.4-0.6,0.5c-0.3,0.1-0.5,0.2-0.9,0.2c-0.4,0-0.7-0.1-1-0.2
				c-0.3-0.2-0.5-0.4-0.7-0.7c-0.2-0.3-0.2-0.6-0.2-1c0-0.4,0.1-0.8,0.2-1c0.2-0.3,0.4-0.5,0.7-0.7c0.3-0.2,0.6-0.2,1-0.2
				c0.4,0,0.7,0.1,1,0.2c0.3,0.2,0.5,0.4,0.7,0.6c0.2,0.3,0.2,0.6,0.2,0.9C118.3,52.4,118.2,52.5,118.2,52.7z M117,51.5
				c-0.2-0.2-0.4-0.2-0.7-0.2c-0.3,0-0.5,0.1-0.7,0.2c-0.2,0.2-0.3,0.4-0.3,0.7h1.9C117.3,51.9,117.2,51.7,117,51.5z"/>
			<path class="st1" d="M124,52.7h-2.8c0,0.3,0.1,0.6,0.3,0.8c0.2,0.2,0.4,0.2,0.6,0.2c0.2,0,0.4-0.1,0.6-0.2
				c0.1-0.1,0.2-0.3,0.3-0.4h1c-0.1,0.3-0.2,0.5-0.3,0.7c-0.2,0.2-0.4,0.4-0.6,0.5c-0.3,0.1-0.5,0.2-0.9,0.2c-0.4,0-0.7-0.1-1-0.2
				c-0.3-0.2-0.5-0.4-0.7-0.7c-0.2-0.3-0.2-0.6-0.2-1c0-0.4,0.1-0.8,0.2-1c0.2-0.3,0.4-0.5,0.7-0.7c0.3-0.2,0.6-0.2,1-0.2
				c0.4,0,0.7,0.1,1,0.2c0.3,0.2,0.5,0.4,0.7,0.6c0.2,0.3,0.2,0.6,0.2,0.9C124.1,52.4,124,52.5,124,52.7z M122.8,51.5
				c-0.2-0.2-0.4-0.2-0.7-0.2c-0.3,0-0.5,0.1-0.7,0.2c-0.2,0.2-0.3,0.4-0.3,0.7h1.9C123.1,51.9,123,51.7,122.8,51.5z"/>
			<path class="st1" d="M130.7,50.9c0.3,0.3,0.4,0.7,0.4,1.2v2.2h-1v-2.1c0-0.3-0.1-0.5-0.2-0.7c-0.1-0.2-0.4-0.2-0.6-0.2
				c-0.3,0-0.5,0.1-0.6,0.3c-0.2,0.2-0.2,0.4-0.2,0.7v2h-1v-2.1c0-0.3-0.1-0.5-0.2-0.7c-0.1-0.2-0.4-0.2-0.6-0.2
				c-0.3,0-0.5,0.1-0.7,0.3c-0.2,0.2-0.2,0.4-0.2,0.7v2h-1v-3.8h1v0.7c0.1-0.2,0.3-0.4,0.5-0.6c0.2-0.1,0.5-0.2,0.8-0.2
				c0.3,0,0.6,0.1,0.8,0.2c0.2,0.1,0.4,0.4,0.5,0.6c0.1-0.3,0.3-0.5,0.5-0.6c0.2-0.2,0.5-0.2,0.8-0.2
				C130.1,50.5,130.4,50.7,130.7,50.9z"/>
			<path class="st1" d="M135.1,50.7c0.3,0.2,0.5,0.4,0.6,0.7c0.1,0.3,0.2,0.6,0.2,1c0,0.4-0.1,0.7-0.2,1c-0.1,0.3-0.3,0.5-0.6,0.7
				c-0.3,0.2-0.5,0.2-0.9,0.2c-0.3,0-0.6-0.1-0.8-0.2c-0.2-0.2-0.4-0.4-0.5-0.6v2.6h-1v-5.7h1v0.8c0.1-0.3,0.3-0.5,0.5-0.6
				c0.2-0.2,0.5-0.2,0.8-0.2C134.6,50.5,134.9,50.6,135.1,50.7z M133.2,51.7c-0.2,0.2-0.3,0.5-0.3,0.8c0,0.3,0.1,0.6,0.3,0.8
				c0.2,0.2,0.4,0.3,0.7,0.3c0.3,0,0.5-0.1,0.7-0.3c0.2-0.2,0.3-0.5,0.3-0.8c0-0.3-0.1-0.6-0.3-0.8c-0.2-0.2-0.4-0.3-0.7-0.3
				C133.7,51.4,133.4,51.5,133.2,51.7z"/>
			<path class="st1" d="M137.6,49.3v5.1h-1v-5.1H137.6z"/>
			<path class="st1" d="M142.1,52.7h-2.8c0,0.3,0.1,0.6,0.3,0.8c0.2,0.2,0.4,0.2,0.6,0.2c0.2,0,0.4-0.1,0.6-0.2
				c0.1-0.1,0.2-0.3,0.3-0.4h1c-0.1,0.3-0.2,0.5-0.3,0.7c-0.2,0.2-0.4,0.4-0.6,0.5c-0.3,0.1-0.5,0.2-0.9,0.2c-0.4,0-0.7-0.1-1-0.2
				c-0.3-0.2-0.5-0.4-0.7-0.7c-0.2-0.3-0.2-0.6-0.2-1c0-0.4,0.1-0.8,0.2-1c0.2-0.3,0.4-0.5,0.7-0.7c0.3-0.2,0.6-0.2,1-0.2
				c0.4,0,0.7,0.1,1,0.2c0.3,0.2,0.5,0.4,0.7,0.6c0.2,0.3,0.2,0.6,0.2,0.9C142.1,52.4,142.1,52.5,142.1,52.7z M140.9,51.5
				c-0.2-0.2-0.4-0.2-0.7-0.2c-0.3,0-0.5,0.1-0.7,0.2c-0.2,0.2-0.3,0.4-0.3,0.7h1.9C141.1,51.9,141.1,51.7,140.9,51.5z"/>
			<path class="st1" d="M145.6,50.7c0.3,0.2,0.5,0.4,0.7,0.7c0.2,0.3,0.3,0.6,0.3,1c0,0.4-0.1,0.7-0.3,1c-0.2,0.3-0.4,0.5-0.7,0.7
				c-0.3,0.2-0.6,0.2-1,0.2s-0.7-0.1-1-0.2c-0.3-0.2-0.5-0.4-0.7-0.7c-0.2-0.3-0.3-0.6-0.3-1c0-0.4,0.1-0.8,0.3-1
				c0.2-0.3,0.4-0.5,0.7-0.7c0.3-0.2,0.6-0.2,1-0.2S145.3,50.6,145.6,50.7z M143.9,51.6c-0.2,0.2-0.3,0.5-0.3,0.8
				c0,0.4,0.1,0.6,0.3,0.8c0.2,0.2,0.4,0.3,0.7,0.3s0.5-0.1,0.7-0.3s0.3-0.5,0.3-0.8c0-0.4-0.1-0.6-0.3-0.8
				c-0.2-0.2-0.4-0.3-0.7-0.3S144.1,51.5,143.9,51.6z"/>
		</g>
	</g>
</g>
</svg>
