<?xml version="1.0" encoding="utf-8"?>
<!-- Generator: Adobe Illustrator 22.1.0, SVG Export Plug-In . SVG Version: 6.00 Build 0)  -->
<svg version="1.1" id="Layer_1" xmlns="http://www.w3.org/2000/svg" xmlns:xlink="http://www.w3.org/1999/xlink" x="0px" y="0px"
	 viewBox="0 0 245 245" style="enable-background:new 0 0 245 245;" xml:space="preserve">
<style type="text/css">
	.st0{fill:#A2D05D;}
	.st1{fill:#005050;}
	.st2{fill:#FFFFFF;}
	.st3{fill:#EC5C54;}
	.st4{fill:#364E57;}
	.st5{fill:#D84440;}
	.st6{fill:#ECA334;}
	.st7{fill:#FECE66;}
	.st8{fill:#F5B540;}
</style>
<g>
	<g>
		<circle class="st0" cx="120.5" cy="118.8" r="111.7"/>
		<g>
			<path class="st1" d="M120.5,1.3C120.5,1.3,120.5,1.3,120.5,1.3c-0.1,0-0.1,0-0.1,0c0,0-0.1,0-0.1,0c0,0,0,0,0,0c0,0,0,0,0,0
				c0,0,0,0,0,0c0,0,0,0,0,0c0,0,0,0,0,0c0,0,0,0,0,0c0,0,0,0,0,0c0,0,0,0,0,0c0,0,0,0,0,0c0,0,0,0,0,0c0,0,0,0,0,0c0,0,0,0,0,0
				c0,0,0,0,0,0c0,0,0,0,0,0c0,0,0,0,0,0c0,0,0,0,0,0c0,0,0,0,0,0c0,0,0,0,0,0c0,0,0,0,0,0c0,0,0,0,0,0c0,0,0,0,0,0c0,0,0,0,0,0
				c0,0,0,0,0,0c0,0,0,0,0,0c0,0,0,0,0,0c0,0,0,0,0,0c0,0,0,0,0,0c0,0,0,0,0,0c0,0,0,0,0,0c0,0,0,0,0,0c0,0,0,0,0,0c0,0,0,0,0,0
				c0,0,0,0,0,0c0,0,0,0,0,0c0,0,0,0,0,0c0,0,0,0,0,0c0,0,0,0,0,0c0,0,0,0,0,0c0,0,0,0,0,0c0,0,0,0,0,0c0,0,0,0,0,0l0,0c0,0,0,0,0,0
				l0,0c0,0,0,0,0,0l0,0c0,0,0,0,0,0c0,0,0,0,0,0c0,0,0,0,0,0l0,0c0,0,0,0,0,0l0,0c0,0,0,0,0,0l0,0c0,0,0,0,0,0l0,0c0,0,0,0,0,0l0,0
				c0,0,0,0,0,0l0,0c0,0,0,0,0,0l0,0c0,0,0,0,0,0l0,0c0,0,0,0,0,0l0,0c-1.4,0-2.8,0.1-4.3,0.1l0.1,2c2-0.1,3.9-0.1,5.9-0.1V1.3
				L120.5,1.3L120.5,1.3z M108.5,1.9c-0.3,0-0.7,0.1-1,0.1l0,0c0,0,0,0,0,0l0,0c0,0,0,0,0,0l0,0c0,0,0,0,0,0l0,0c0,0,0,0,0,0l0,0
				c0,0,0,0,0,0l0,0c0,0,0,0,0,0l0,0c0,0,0,0,0,0l0,0c0,0,0,0,0,0l0,0c0,0,0,0,0,0l0,0c0,0,0,0,0,0l0,0c0,0,0,0,0,0l0,0c0,0,0,0,0,0
				c0,0,0,0,0,0c0,0,0,0,0,0c0,0,0,0,0,0c0,0,0,0,0,0c0,0,0,0,0,0c0,0,0,0,0,0c0,0,0,0,0,0c0,0,0,0,0,0c0,0,0,0,0,0c0,0,0,0,0,0
				c0,0,0,0,0,0c0,0,0,0,0,0c0,0,0,0,0,0c0,0,0,0,0,0c0,0,0,0,0,0c0,0,0,0,0,0c0,0,0,0,0,0c0,0,0,0,0,0c0,0,0,0,0,0c0,0,0,0,0,0
				c0,0,0,0,0,0c0,0,0,0,0,0c0,0,0,0,0,0c0,0,0,0,0,0c0,0,0,0,0,0c0,0,0,0,0,0c0,0,0,0,0,0c0,0,0,0,0,0c0,0,0,0,0,0c0,0,0,0,0,0
				c0,0,0,0,0,0c0,0,0,0,0,0c0,0,0,0,0,0c0,0,0,0,0,0c0,0,0,0,0,0c0,0,0,0,0,0c0,0,0,0,0,0c0,0,0,0,0,0c0,0,0,0,0,0c0,0,0,0,0,0
				c0,0,0,0,0,0c0,0,0,0,0,0c0,0,0,0,0,0c0,0,0,0,0,0c0,0,0,0,0,0c0,0,0,0,0,0c0,0,0,0,0,0c0,0,0,0,0,0c0,0,0,0,0,0c0,0,0,0,0,0
				c-0.5,0.1-1,0.1-1.5,0.2c0,0,0,0,0,0c0,0,0,0,0,0c0,0,0,0,0,0c0,0,0,0,0,0c0,0,0,0,0,0c0,0,0,0,0,0c0,0,0,0,0,0c0,0,0,0,0,0
				c0,0,0,0,0,0c0,0,0,0,0,0c0,0,0,0,0,0c0,0,0,0,0,0c0,0,0,0,0,0c0,0,0,0,0,0c0,0,0,0,0,0c0,0,0,0,0,0c0,0,0,0,0,0c0,0,0,0,0,0
				c0,0,0,0,0,0c0,0,0,0,0,0c0,0,0,0,0,0c0,0,0,0,0,0c0,0,0,0,0,0c0,0,0,0,0,0c0,0,0,0,0,0c0,0,0,0,0,0c0,0,0,0,0,0c0,0,0,0,0,0
				c0,0,0,0,0,0c0,0,0,0,0,0c0,0,0,0,0,0c0,0,0,0,0,0c0,0,0,0,0,0c0,0,0,0,0,0c0,0,0,0,0,0c0,0,0,0,0,0c0,0,0,0,0,0l0,0c0,0,0,0,0,0
				l0,0c-0.3,0-0.6,0.1-0.9,0.1l0.3,2c1.9-0.3,3.9-0.5,5.9-0.7L108.5,1.9L108.5,1.9z M96.7,3.7c-1,0.2-2,0.4-2.9,0.6c0,0,0,0,0,0
				c0,0,0,0,0,0c0,0,0,0,0,0c0,0,0,0,0,0c0,0,0,0,0,0c0,0,0,0,0,0c0,0,0,0,0,0c0,0,0,0,0,0c0,0,0,0,0,0c0,0,0,0,0,0c0,0,0,0,0,0
				c0,0,0,0,0,0c0,0,0,0,0,0c0,0,0,0,0,0c0,0,0,0,0,0c0,0,0,0,0,0c0,0,0,0,0,0c0,0,0,0,0,0c0,0,0,0,0,0c0,0,0,0,0,0c0,0,0,0,0,0
				c0,0,0,0,0,0c0,0,0,0,0,0c0,0,0,0,0,0c0,0,0,0,0,0c0,0,0,0,0,0c0,0,0,0,0,0c0,0,0,0,0,0c0,0,0,0,0,0c0,0,0,0,0,0
				c-0.6,0.1-1.1,0.3-1.7,0.4c0,0,0,0,0,0c0,0,0,0,0,0c0,0,0,0,0,0c0,0,0,0,0,0c0,0,0,0,0,0c0,0,0,0,0,0c0,0,0,0,0,0c0,0,0,0,0,0
				c0,0,0,0,0,0c0,0,0,0,0,0c0,0,0,0,0,0c0,0,0,0,0,0c0,0,0,0,0,0c0,0,0,0,0,0c0,0,0,0,0,0c0,0,0,0,0,0c0,0,0,0,0,0c0,0,0,0,0,0
				c0,0,0,0,0,0c0,0,0,0,0,0c0,0,0,0,0,0c0,0,0,0,0,0c0,0,0,0,0,0l0,0c0,0,0,0,0,0l0,0L91.3,7c1.9-0.5,3.8-0.9,5.7-1.3L96.7,3.7
				L96.7,3.7z M85.1,6.7C84,7,83,7.4,82,7.7l0,0c0,0,0,0,0,0c0,0,0,0,0,0c0,0,0,0,0,0c0,0,0,0,0,0c0,0,0,0,0,0c0,0,0,0,0,0
				c0,0,0,0,0,0c0,0,0,0,0,0c0,0,0,0,0,0c0,0,0,0,0,0c0,0,0,0,0,0c0,0,0,0,0,0c0,0,0,0,0,0c0,0,0,0,0,0c0,0,0,0,0,0c0,0,0,0,0,0
				c0,0,0,0,0,0c0,0,0,0,0,0c0,0,0,0,0,0c0,0,0,0,0,0c0,0,0,0,0,0c0,0,0,0,0,0c0,0,0,0,0,0c0,0,0,0,0,0c0,0,0,0,0,0c0,0,0,0,0,0
				c0,0,0,0,0,0c0,0,0,0,0,0c0,0,0,0,0,0c-0.7,0.2-1.3,0.5-2,0.7l0.7,1.9c1.8-0.7,3.7-1.3,5.6-1.9L85.1,6.7L85.1,6.7z M73.8,10.9
				c-1.8,0.8-3.7,1.6-5.4,2.5l0.9,1.8c1.8-0.9,3.6-1.7,5.3-2.5L73.8,10.9L73.8,10.9z M63.1,16.2c-0.3,0.2-0.7,0.4-1,0.6c0,0,0,0,0,0
				c0,0,0,0,0,0c0,0,0,0,0,0c0,0,0,0,0,0c0,0,0,0,0,0c0,0,0,0,0,0c0,0,0,0,0,0c0,0,0,0,0,0c0,0,0,0,0,0c0,0,0,0,0,0c0,0,0,0,0,0
				c0,0,0,0,0,0c0,0,0,0,0,0c0,0,0,0,0,0c-1.3,0.8-2.6,1.5-3.9,2.4L59,21c1.7-1,3.4-2.1,5.1-3L63.1,16.2L63.1,16.2z M52.9,22.6
				c-0.5,0.4-1,0.7-1.5,1.1l0,0c0,0,0,0,0,0c0,0,0,0,0,0c0,0,0,0,0,0l0,0c0,0,0,0,0,0l0,0c0,0,0,0,0,0l0,0c0,0,0,0,0,0c0,0,0,0,0,0
				c0,0,0,0,0,0c0,0,0,0,0,0c0,0,0,0,0,0l0,0c0,0,0,0,0,0l0,0c-0.1,0.1-0.2,0.2-0.3,0.2c0,0,0,0,0,0c0,0,0,0,0,0l0,0c0,0,0,0,0,0
				l0,0c0,0,0,0,0,0l0,0c0,0,0,0,0,0l0,0c0,0,0,0,0,0l0,0c-0.8,0.6-1.7,1.3-2.5,1.9l1.2,1.6c1.5-1.2,3.1-2.4,4.7-3.5L52.9,22.6
				L52.9,22.6z M43.5,30c-0.6,0.5-1.2,1.1-1.9,1.6l0,0c0,0,0,0,0,0c0,0,0,0,0,0c0,0,0,0,0,0c0,0,0,0,0,0c0,0,0,0,0,0c0,0,0,0,0,0
				c0,0,0,0,0,0c0,0,0,0,0,0c0,0,0,0,0,0c0,0,0,0,0,0c0,0,0,0,0,0c0,0,0,0,0,0c0,0,0,0,0,0c0,0,0,0,0,0c0,0,0,0,0,0c0,0,0,0,0,0
				c0,0,0,0,0,0c0,0,0,0,0,0c0,0,0,0,0,0c0,0,0,0,0,0c0,0,0,0,0,0c0,0,0,0,0,0c0,0,0,0,0,0c-0.1,0-0.1,0.1-0.2,0.1c0,0,0,0,0,0
				c0,0,0,0,0,0l0,0c0,0,0,0,0,0c0,0,0,0,0,0c0,0,0,0,0,0c0,0,0,0,0,0c0,0,0,0,0,0c0,0,0,0,0,0c0,0,0,0,0,0c0,0,0,0,0,0c0,0,0,0,0,0
				c0,0,0,0,0,0c0,0,0,0,0,0c0,0,0,0,0,0c0,0,0,0,0,0c0,0,0,0,0,0c-0.6,0.5-1.2,1.1-1.8,1.7l1.4,1.4c1.4-1.4,2.9-2.7,4.4-4L43.5,30
				L43.5,30z M34.8,38.3L34.8,38.3C34.8,38.3,34.8,38.3,34.8,38.3C34.8,38.3,34.8,38.4,34.8,38.3C34.8,38.4,34.8,38.4,34.8,38.3
				C34.8,38.4,34.8,38.4,34.8,38.3C34.8,38.4,34.8,38.4,34.8,38.3c-0.1,0.1-0.1,0.1-0.1,0.1c0,0,0,0,0,0c0,0,0,0,0,0c0,0,0,0,0,0
				c0,0,0,0,0,0c0,0,0,0,0,0c0,0,0,0,0,0c0,0,0,0,0,0c0,0,0,0,0,0c0,0,0,0,0,0c0,0,0,0,0,0c0,0,0,0,0,0c0,0,0,0,0,0l0,0
				c-0.8,0.8-1.5,1.7-2.3,2.5c0,0,0,0,0,0c0,0,0,0,0,0c0,0,0,0,0,0c0,0,0,0,0,0c0,0,0,0,0,0c0,0,0,0,0,0c0,0,0,0,0,0c0,0,0,0,0,0
				c0,0,0,0,0,0c0,0,0,0,0,0c0,0,0,0,0,0c0,0,0,0,0,0c0,0,0,0,0,0c0,0,0,0,0,0c0,0,0,0,0,0c0,0,0,0,0,0c0,0,0,0,0,0c0,0,0,0,0,0
				c0,0,0,0,0,0l0,0c0,0,0,0,0,0c0,0,0,0,0,0c-0.4,0.4-0.7,0.8-1.1,1.3l1.5,1.3c1.3-1.5,2.6-3,3.9-4.4L34.8,38.3L34.8,38.3z
				 M27.1,47.5c0,0-0.1,0.1-0.1,0.1l0,0c0,0,0,0,0,0c0,0,0,0,0,0c0,0,0,0,0,0c0,0,0,0,0,0c0,0,0,0,0,0c0,0,0,0,0,0c0,0,0,0,0,0
				c0,0,0,0,0,0c0,0,0,0,0,0c0,0,0,0,0,0c0,0,0,0,0,0c0,0,0,0,0,0c0,0,0,0,0,0c0,0,0,0,0,0c0,0,0,0,0,0c-0.5,0.7-1.1,1.5-1.6,2.2
				c0,0,0,0,0,0c0,0,0,0,0,0c0,0,0,0,0,0c0,0,0,0,0,0c0,0,0,0,0,0c0,0,0,0,0,0c0,0,0,0,0,0c0,0,0,0,0,0c0,0,0,0,0,0c0,0,0,0,0,0
				c0,0,0,0,0,0c0,0,0,0,0,0c0,0,0,0,0,0c0,0,0,0,0,0c0,0,0,0,0,0c0,0,0,0,0,0c0,0,0,0,0,0c0,0,0,0,0,0c0,0,0,0,0,0
				c0,0-0.1,0.1-0.1,0.1c0,0,0,0,0,0c0,0,0,0,0,0c0,0,0,0,0,0c0,0,0,0,0,0c0,0,0,0,0,0c0,0,0,0,0,0c0,0,0,0,0,0c0,0,0,0,0,0
				c0,0,0,0,0,0c0,0,0,0,0,0c0,0,0,0,0,0c0,0,0,0,0,0c0,0,0,0,0,0c0,0,0,0,0,0c0,0,0,0,0,0c0,0,0,0,0,0c0,0,0,0,0,0c0,0,0,0,0,0
				c0,0,0,0,0,0c0,0,0,0,0,0c0,0,0,0,0,0c0,0,0,0,0,0c0,0,0,0,0,0c0,0,0,0,0,0c0,0,0,0,0,0c0,0,0,0,0,0c0,0.1-0.1,0.1-0.1,0.2l0,0
				c0,0,0,0,0,0l0,0c0,0,0,0,0,0c0,0,0,0,0,0c0,0,0,0,0,0c0,0,0,0,0,0c0,0,0,0,0,0c0,0,0,0,0,0c0,0,0,0,0,0c0,0,0,0,0,0c0,0,0,0,0,0
				c0,0,0,0,0,0c0,0,0,0,0,0c0,0,0,0,0,0c0,0,0,0,0,0c0,0,0,0,0,0c0,0,0,0,0,0c0,0,0,0,0,0c0,0,0,0,0,0c0,0,0,0,0,0c0,0,0,0,0,0
				c0,0,0,0,0,0c0,0,0,0,0,0c0,0,0,0,0,0c0,0,0,0,0,0c0,0,0,0,0,0c0,0,0,0,0,0c0,0,0,0,0,0c0,0,0,0,0,0c0,0,0,0,0,0c0,0,0,0,0,0
				c0,0,0,0,0,0c0,0,0,0,0,0c0,0,0,0,0,0c0,0,0,0,0,0c0,0,0,0,0,0c0,0,0,0,0,0c0,0,0,0,0,0c0,0,0,0,0,0c0,0,0,0,0,0c0,0,0,0,0,0
				c0,0,0,0,0,0c0,0,0,0,0,0c0,0,0,0,0,0c0,0,0,0,0,0c0,0,0,0,0,0c0,0,0,0,0,0c0,0,0,0,0,0c0,0,0,0,0,0c-0.1,0.1-0.1,0.1-0.1,0.2
				l1.6,1.1c1.1-1.6,2.3-3.2,3.5-4.8L27.1,47.5L27.1,47.5z M20.3,57.3c-0.6,0.9-1.1,1.9-1.7,2.8l0,0c0,0,0,0,0,0l0,0c0,0,0,0,0,0
				c0,0,0,0,0,0c0,0,0,0.1,0,0.1l0,0c0,0,0,0.1,0,0.1c0,0,0,0,0,0c0,0.1-0.1,0.1-0.1,0.2c0,0,0,0,0,0c0,0,0,0,0,0c0,0,0,0,0,0
				c0,0,0,0,0,0c0,0,0,0,0,0c0,0,0,0,0,0c0,0,0,0,0,0c0,0,0,0,0,0c0,0,0,0,0,0c0,0,0,0,0,0c0,0,0,0,0,0c0,0,0,0,0,0c0,0,0,0,0,0
				c0,0,0,0,0,0c0,0,0,0,0,0c0,0,0,0,0,0c0,0,0,0,0,0c0,0,0,0,0,0c0,0,0,0,0,0c0,0,0,0,0,0c0,0,0,0,0,0c0,0,0,0,0,0
				c-0.3,0.5-0.6,1-0.9,1.5l1.8,1c0.9-1.7,1.9-3.4,3-5.1L20.3,57.3L20.3,57.3z M14.5,67.9c-0.5,1-0.9,2-1.4,3c0,0,0,0,0,0
				c0,0,0,0,0,0c0,0,0,0,0,0c0,0,0,0,0,0c0,0,0,0,0,0c0,0,0,0,0,0c0,0,0,0,0,0c0,0,0,0,0,0c0,0,0,0,0,0c0,0,0,0,0,0c0,0,0,0,0,0
				c0,0,0,0,0,0c0,0,0,0,0,0c0,0,0,0,0,0c0,0,0,0,0,0c0,0,0,0,0,0c0,0,0,0,0,0c0,0,0,0,0,0c0,0,0,0,0,0c0,0,0,0,0,0c0,0,0,0,0,0
				c0,0,0,0,0,0c-0.3,0.7-0.6,1.4-0.9,2.1l1.8,0.8c0.8-1.8,1.6-3.6,2.4-5.4L14.5,67.9L14.5,67.9z M9.9,78.9
				c-0.2,0.5-0.4,1.1-0.6,1.6c0,0,0,0,0,0c0,0,0,0,0,0c0,0,0,0,0,0c0,0,0,0,0,0c0,0,0,0,0,0c0,0,0,0,0,0c0,0,0,0,0,0c0,0,0,0,0,0
				c0,0,0,0,0,0c0,0,0,0,0,0c0,0,0,0,0,0c0,0,0,0,0,0c0,0,0,0,0,0c0,0,0,0,0,0c0,0,0,0,0,0c0,0,0,0,0,0c0,0,0,0,0,0c0,0,0,0,0,0
				c0,0,0,0,0,0c0,0,0,0,0,0c0,0,0,0,0,0c0,0,0,0,0,0c0,0,0,0,0,0l0,0c-0.4,1.2-0.8,2.4-1.1,3.6l1.9,0.6c0.6-1.9,1.2-3.8,1.9-5.6
				L9.9,78.9L9.9,78.9z M6.4,90.4c-0.1,0.5-0.2,1-0.4,1.5c0,0,0,0,0,0c0,0,0,0,0,0c0,0,0,0,0,0c0,0,0,0,0,0c0,0,0,0,0,0c0,0,0,0,0,0
				c0,0,0,0,0,0c0,0,0,0,0,0c0,0,0,0,0,0c0,0,0,0,0,0c0,0,0,0,0,0c0,0,0,0,0,0c0,0,0,0,0,0c0,0,0,0,0,0c0,0,0,0,0,0c0,0,0,0,0,0
				c0,0,0,0,0,0c0,0,0,0,0,0c0,0,0,0,0,0c0,0,0,0,0,0c0,0,0,0,0,0c0,0,0,0,0,0c0,0,0,0,0,0c0,0,0,0,0,0c0,0,0,0,0,0c0,0,0,0,0,0
				c0,0,0,0,0,0c0,0,0,0,0,0c0,0,0,0,0,0c0,0,0,0,0,0c0,0,0,0,0,0c0,0,0,0,0,0c0,0,0,0,0,0l0,0c0,0,0,0,0,0l0,0c0,0,0,0,0,0
				c0,0,0,0,0,0c0,0,0,0,0,0c0,0,0,0,0,0c0,0,0,0,0,0c0,0,0,0,0,0c0,0,0,0,0,0c0,0,0,0,0,0c0,0,0,0,0,0c0,0,0,0,0,0c0,0,0,0,0,0l0,0
				c-0.2,1.1-0.5,2.2-0.7,3.3l2,0.4c0.4-1.9,0.8-3.9,1.3-5.8L6.4,90.4L6.4,90.4z M4.1,102.2c0,0.2-0.1,0.4-0.1,0.6c0,0,0,0,0,0
				c0,0,0,0,0,0c0,0,0,0,0,0c0,0,0,0,0,0c0,0,0,0,0,0c0,0,0,0,0,0c0,0,0,0,0,0c0,0,0,0,0,0c0,0,0,0,0,0c0,0,0,0,0,0c0,0,0,0,0,0
				c0,0,0,0,0,0c0,0,0,0,0,0c0,0,0,0,0,0c0,0,0,0,0,0c0,0,0,0,0,0c-0.2,1.7-0.4,3.3-0.6,5c0,0,0,0,0,0c0,0,0,0,0,0c0,0,0,0,0,0
				c0,0,0,0,0,0l2,0.2c0.2-2,0.4-3.9,0.7-5.9L4.1,102.2L4.1,102.2z M3.1,114.1c0,0.2,0,0.4,0,0.5l0,0c0,0,0,0,0,0c0,0,0,0,0,0
				c0,0,0,0,0,0c0,0,0,0,0,0c0,0,0,0,0,0c0,0,0,0,0,0c0,0,0,0,0,0c0,0,0,0,0,0c0,0,0,0,0,0c0,0,0,0,0,0c0,0,0,0,0,0c0,0,0,0,0,0
				c0,0,0,0,0,0c0,0,0,0,0,0c0,0,0,0,0,0c0,0,0,0,0,0c0,0,0,0,0,0c0,0,0,0.1,0,0.1c0,0,0,0,0,0c0,0,0,0,0,0c0,0,0,0,0,0
				c0,0.8,0,1.7,0,2.6c0,0,0,0,0,0c0,0,0,0.1,0,0.1c0,0,0,0,0,0c0,0,0,0,0,0c0,0,0,0,0,0c0,0,0,0.1,0,0.1c0,0,0,0,0,0c0,0,0,0,0,0
				c0,0,0,0,0,0c0,0,0,0.1,0,0.1c0,0,0,0,0,0c0,0,0,0,0,0c0,0,0,0,0,0c0,0,0,0,0,0c0,0,0,0,0,0c0,0,0,0,0,0c0,0,0,0,0,0c0,0,0,0,0,0
				c0,0,0,0,0,0c0,0,0,0,0,0c0,0,0,0,0,0c0,0,0,0,0,0c0,0,0,0,0,0c0,0,0,0,0,0c0,0,0,0,0,0c0,0,0,0,0,0c0,0,0,0,0,0c0,0,0,0,0,0
				c0,0,0,0,0,0c0,0,0,0,0,0c0,0,0,0,0,0c0,0,0,0,0,0c0,0,0,0,0,0c0,0,0,0,0,0c0,0,0,0,0,0c0,0,0,0,0,0l0,0c0,0,0,0,0,0c0,0,0,0,0,0
				c0,0,0,0,0,0c0,0,0,0,0,0c0,0,0,0,0,0c0,0,0,0,0,0c0,0,0,0,0,0c0,0,0,0,0,0c0,0,0,0,0,0c0,0,0,0,0,0c0,0,0,0,0,0c0,0,0,0,0,0
				c0,0,0,0,0,0c0,0,0,0,0,0c0,0,0,0,0,0c0,0,0,0,0,0c0,0,0,0,0,0c0,0,0,0,0,0c0,0,0,0,0,0c0,0,0,0,0,0c0,0,0,0,0,0c0,0,0,0,0,0
				c0,0,0,0,0,0c0,0,0,0,0,0c0,0,0,0,0,0c0,0.1,0,0.1,0,0.2l0,0c0,0.2,0,0.4,0,0.6l2,0c0-0.4,0-0.9,0-1.3c0-1.5,0-3.1,0.1-4.6
				L3.1,114.1L3.1,114.1z M5.2,126l-2,0.1c0,0.2,0,0.4,0,0.6c0,0,0,0,0,0c0,0,0,0,0,0c0,0,0,0,0,0c0,0,0,0,0,0c0,0,0,0,0,0
				c0,0,0,0,0,0c0,0,0,0,0,0c0,0,0,0,0,0c0,0,0,0,0,0c0,0,0,0,0,0c0,0,0,0,0,0c0,0,0,0,0,0c0,0,0,0,0,0c0,0,0,0,0,0c0,0,0,0,0,0
				c0,0,0,0,0,0c0,0,0,0,0,0c0,0,0,0,0,0c0,0,0,0,0,0c0,0,0,0,0,0c0,0,0,0,0,0c0,0,0,0,0,0c0,0,0,0,0,0c0,0,0,0,0,0c0,0,0,0,0,0
				c0,0,0,0,0,0c0,0,0,0,0,0c0,0,0,0,0,0c0,0,0,0,0,0l0,0c0,0,0,0,0,0l0,0c0,0,0,0,0,0l0,0c0,0,0,0,0,0l0,0c0,0,0,0,0,0l0,0
				c0,0,0,0,0,0l0,0c0,0,0,0,0,0l0,0c0,0,0,0,0,0l0,0c0,0,0,0,0,0l0,0c0,0,0,0,0,0l0,0c0,0,0,0.1,0,0.1l0,0c0,0,0,0.1,0,0.1l0,0
				c0,0,0,0,0,0l0,0c0,0,0,0,0,0l0,0c0,0,0,0.1,0,0.1l0,0c0,0,0,0.1,0,0.1l0,0c0,0,0,0,0,0l0,0c0,0,0,0,0,0l0,0c0,0,0,0,0,0l0,0
				c0,0,0,0,0,0l0,0c0,0,0,0.1,0,0.1l0,0c0,0,0,0.1,0,0.1l0,0c0,0,0,0.1,0,0.1l0,0c0,0.1,0,0.1,0,0.2l0,0c0,0.1,0,0.1,0,0.2l0,0
				c0.1,1,0.2,2,0.3,3l2-0.2C5.5,129.9,5.3,128,5.2,126L5.2,126z M6.5,137.7l-2,0.3c0,0,0,0,0,0c0,0,0,0,0,0c0,0,0,0,0,0
				c0,0,0,0,0,0c0,0,0,0,0,0c0,0,0,0,0,0c0,0,0,0,0,0c0,0,0,0,0,0c0,0,0,0,0,0c0,0,0,0,0,0c0.1,0.7,0.2,1.3,0.3,2c0,0,0,0,0,0
				c0,0,0,0,0,0c0,0,0,0,0,0c0,0,0,0,0,0c0,0,0,0,0,0c0,0,0,0,0,0c0,0,0,0,0,0c0,0,0,0,0,0c0,0,0,0,0,0c0,0,0,0,0,0c0,0,0,0,0,0
				c0,0,0,0,0,0c0,0,0,0,0,0c0,0,0,0,0,0c0,0,0,0,0,0c0,0,0,0,0,0c0,0,0,0,0,0c0,0,0,0,0,0c0,0,0,0,0,0c0,0,0,0,0,0c0,0,0,0,0,0
				c0,0,0,0,0,0c0,0,0,0,0,0c0,0,0,0,0,0c0,0,0,0,0,0c0,0,0,0,0,0c0,0,0,0,0,0c0,0,0,0,0,0c0,0,0,0,0,0c0,0,0,0,0,0c0,0,0,0,0,0
				c0,0,0,0,0,0c0,0,0,0,0,0c0,0,0,0,0,0c0,0,0,0,0,0l0,0c0,0,0,0,0,0l0,0c0.2,1,0.4,1.9,0.6,2.8l2-0.4
				C7.2,141.6,6.8,139.7,6.5,137.7L6.5,137.7z M9,149.2l-1.9,0.5c0.1,0.5,0.3,1,0.4,1.5c0,0,0,0,0,0c0,0,0,0,0,0c0,0,0,0,0,0
				c0,0,0,0,0,0c0,0,0,0,0,0c0,0,0,0,0,0c0,0,0,0,0,0c0,0,0,0,0,0c0,0,0,0,0,0c0,0,0,0,0,0c0,0,0,0,0,0c0,0,0,0,0,0c0,0,0,0,0,0
				c0,0,0,0,0,0c0,0,0,0,0,0c0,0,0,0,0,0c0,0,0,0,0,0c0,0,0,0,0,0c0,0,0,0,0,0c0,0,0,0,0,0c0,0,0,0,0,0l0,0c0,0,0,0,0,0c0,0,0,0,0,0
				c0,0,0,0,0,0c0,0,0,0,0,0c0,0,0,0,0,0c0,0,0,0,0,0c0,0,0,0,0,0c0,0,0,0,0,0c0,0,0,0,0,0l0,0c0.4,1.2,0.7,2.4,1.1,3.6l1.9-0.6
				C10.1,153,9.5,151.1,9,149.2L9,149.2z M12.7,160.4l-1.9,0.7c0.4,1,0.8,2,1.2,3l0,0c0,0,0,0,0,0l0,0c0,0,0,0,0,0c0,0,0,0,0,0
				c0,0,0,0,0,0c0,0,0,0,0,0c0,0,0,0,0,0c0,0,0,0,0,0c0,0,0,0,0,0l0,0c0,0,0,0,0,0l0,0c0,0,0,0,0,0l0,0c0,0,0,0,0,0c0,0,0,0,0,0
				c0,0,0,0,0,0c0,0,0,0,0,0c0,0,0,0,0,0l0,0c0,0,0,0,0,0l0,0c0,0,0,0,0,0l0,0c0.1,0.2,0.1,0.3,0.2,0.5l0,0c0,0,0,0,0,0c0,0,0,0,0,0
				c0,0,0,0,0,0l0,0c0,0,0,0,0,0l0,0c0,0,0,0,0,0l0,0c0,0,0,0,0,0l0,0c0.2,0.5,0.4,0.9,0.6,1.4l1.8-0.8
				C14.2,164.1,13.4,162.3,12.7,160.4L12.7,160.4z M17.5,171.2l-1.8,0.9c0.1,0.1,0.2,0.3,0.2,0.4c0,0,0,0,0,0c0,0,0,0,0,0
				c0,0,0,0,0,0c0,0,0,0,0,0c0,0,0,0,0,0c0,0,0,0,0,0c0,0,0,0,0,0c0,0,0,0,0,0c0,0,0,0,0,0c0,0,0,0,0,0c0,0,0,0,0,0c0,0,0,0,0,0
				c0,0,0,0,0,0c0,0,0,0,0,0c0,0,0,0,0,0c0,0,0,0,0,0c0.8,1.5,1.6,3,2.5,4.5l1.7-1C19.3,174.7,18.4,173,17.5,171.2L17.5,171.2z
				 M23.4,181.4l-1.7,1.1c0.1,0.1,0.1,0.2,0.2,0.3l0,0c0,0,0,0,0,0c0,0,0,0,0,0c0.1,0.1,0.2,0.3,0.3,0.4l0,0c0,0,0,0,0,0
				c0,0,0,0,0,0c0,0,0,0,0,0c0,0,0,0,0,0c0,0,0,0,0,0l0,0c0,0,0,0,0,0c0,0,0,0,0,0c0,0,0,0,0,0c0,0,0,0,0,0c0,0,0,0,0,0c0,0,0,0,0,0
				c0,0,0,0,0,0c0,0,0,0,0,0c0,0,0,0,0,0c0,0,0,0,0,0c0,0,0,0,0,0l0,0c0,0,0,0,0,0c0,0,0,0,0,0c0,0.1,0.1,0.1,0.1,0.2c0,0,0,0,0,0
				c0,0,0,0,0,0l0,0c0,0,0,0,0,0c0,0,0,0,0,0c0,0,0,0,0,0c0,0,0,0,0,0c0,0,0,0,0,0c0,0,0,0,0,0c0,0,0,0,0,0c0,0,0,0,0,0c0,0,0,0,0,0
				c0,0,0,0,0,0c0,0,0,0,0,0c0,0,0,0,0,0c0,0,0,0,0,0c0,0,0,0,0,0c0,0,0,0,0,0c0,0,0,0,0,0c0,0,0,0,0,0c0,0,0,0,0,0c0,0,0,0,0,0l0,0
				c0,0,0,0,0,0c0,0,0,0,0,0c0,0,0,0,0,0c0,0,0,0,0,0c0,0.1,0.1,0.1,0.1,0.2l0,0c0,0,0,0,0,0c0,0,0,0,0,0c0,0,0,0,0,0c0,0,0,0,0,0
				c0,0,0,0,0,0c0,0,0,0,0,0c0,0,0,0,0,0c0,0,0,0,0,0c0,0,0,0,0,0c0,0,0,0,0,0c0,0,0,0,0,0c0,0,0,0,0,0c0,0,0,0,0,0c0,0,0,0,0,0
				c0,0,0,0,0,0c0,0,0,0,0,0c0,0,0,0,0,0c0,0,0,0,0,0c0,0,0,0,0,0c0,0,0,0,0,0c0,0,0,0,0,0c0,0,0,0,0,0c0,0,0,0,0,0c0,0,0,0,0,0
				c0,0,0,0,0,0c0,0,0.1,0.1,0.1,0.1c0,0,0,0,0,0c0,0,0,0,0,0c0,0,0,0,0,0c0,0,0,0,0,0c0,0,0,0,0,0c0,0,0,0,0,0c0,0,0,0,0,0
				c0,0,0,0,0,0c0,0,0,0,0,0c0,0,0,0,0,0c0,0,0,0,0,0c0,0,0,0,0,0c0,0,0,0,0,0c0,0,0,0,0,0c0,0,0,0,0,0c0,0,0,0,0,0c0,0,0,0,0,0
				c0,0,0,0,0,0c0,0,0,0,0,0c0,0,0,0,0,0c0,0,0,0,0,0c0,0,0,0,0,0c0,0,0,0,0,0c0,0,0,0,0,0c0,0,0,0,0,0c0.1,0.1,0.1,0.2,0.2,0.3
				c0,0,0,0,0,0c0,0,0,0,0,0c0,0,0,0,0,0c0,0,0,0.1,0.1,0.1c0,0,0,0,0,0c0.3,0.5,0.7,1,1,1.5l1.6-1.2
				C25.6,184.7,24.4,183.1,23.4,181.4L23.4,181.4z M30.3,191l-1.6,1.3c1,1.3,2,2.5,3.1,3.7c0,0,0,0,0,0c0,0,0,0,0,0c0,0,0,0,0,0
				c0,0,0,0,0,0c0,0,0,0,0,0c0,0,0,0,0,0c0,0,0,0,0,0c0,0,0,0,0,0c0,0,0,0,0,0c0,0,0,0,0,0c0,0,0,0,0,0c0,0,0,0,0,0c0,0,0,0,0,0
				c0,0,0,0,0,0c0,0,0,0,0,0c0,0,0,0,0,0c0,0,0,0,0,0c0,0,0,0,0,0c0,0,0,0,0,0l0,0c0.2,0.2,0.3,0.4,0.5,0.6l1.5-1.3
				C32.8,194,31.5,192.5,30.3,191L30.3,191z M38.1,199.8l-1.4,1.4c1.4,1.4,2.8,2.8,4.3,4.2l1.4-1.5
				C40.9,202.6,39.5,201.2,38.1,199.8L38.1,199.8z M46.8,207.8l-1.3,1.5c0.1,0.1,0.1,0.1,0.2,0.2l0,0c1.5,1.2,3,2.4,4.5,3.5l1.2-1.6
				C49.8,210.3,48.3,209,46.8,207.8L46.8,207.8z M56.2,214.8l-1.1,1.7c0,0,0,0,0,0c0,0,0,0,0,0c0,0,0,0,0,0c0,0,0.1,0.1,0.1,0.1
				c0,0,0,0,0,0c0,0,0,0,0,0c0,0,0,0,0,0c0,0,0,0,0,0c0,0,0,0,0,0c0,0,0,0,0,0c0,0,0,0,0,0c0,0,0,0,0,0c0,0,0,0,0,0c0,0,0,0,0,0
				c0,0,0,0,0,0c0,0,0,0,0,0c0,0,0,0,0,0c0,0,0,0,0,0c0,0,0,0,0,0c0,0,0,0,0,0c0,0,0,0,0,0c0,0,0,0,0,0c0,0,0,0,0,0c0,0,0,0,0,0
				c0,0,0,0,0,0c0,0,0,0,0,0c0,0,0,0,0,0c0,0,0,0,0,0c1.4,1,2.9,1.9,4.4,2.8c0,0,0,0,0,0c0,0,0,0,0,0c0,0,0,0,0,0c0,0,0,0,0,0
				c0,0,0,0,0,0c0,0,0,0,0,0l1-1.7C59.5,217,57.9,215.9,56.2,214.8L56.2,214.8z M66.3,220.9l-0.9,1.8c1.3,0.7,2.5,1.3,3.8,2
				c0,0,0,0,0,0c0,0,0,0,0,0l0,0c0,0,0,0,0,0l0,0c0,0,0,0,0,0l0,0c0,0,0,0,0,0c0,0,0,0,0,0c0,0,0,0,0,0l0,0c0,0,0,0,0,0l0,0
				c0.1,0.1,0.3,0.1,0.4,0.2l0,0c0,0,0,0,0,0c0,0,0,0,0,0c0,0,0,0,0,0c0,0,0,0,0,0c0,0,0,0,0,0c0,0,0,0,0,0c0,0,0,0,0,0c0,0,0,0,0,0
				c0,0,0,0,0,0c0,0,0,0,0,0c0,0,0,0,0,0c0,0,0,0,0,0c0,0,0,0,0,0c0,0,0,0,0,0c0,0,0,0,0,0c0,0,0,0,0,0c0,0,0,0,0,0c0,0,0,0,0,0
				c0,0,0,0,0,0c0,0,0,0,0,0c0,0,0,0,0,0l0,0c0,0,0,0,0,0c0,0,0,0,0,0c0.1,0,0.1,0.1,0.2,0.1c0,0,0,0,0,0c0,0,0,0,0,0c0,0,0,0,0,0
				c0,0,0,0,0,0c0,0,0,0,0,0c0,0,0,0,0,0c0,0,0,0,0,0c0,0,0,0,0,0l0,0l0.8-1.8C69.8,222.7,68.1,221.8,66.3,220.9L66.3,220.9z
				 M77,225.9l-0.8,1.9c0.9,0.4,1.8,0.7,2.6,1c0,0,0,0,0,0c0,0,0,0,0,0c0,0,0,0,0,0c0,0,0,0,0,0c0,0,0,0,0,0c0,0,0,0,0,0
				c0,0,0,0,0,0c0,0,0,0,0,0c0,0,0,0,0,0c0,0,0,0,0,0c0,0,0,0,0,0c0,0,0,0,0,0c0,0,0,0,0,0c0,0,0,0,0,0c0,0,0,0,0,0c0,0,0,0,0,0
				c0,0,0,0,0,0c0,0,0,0,0,0c0,0,0,0,0,0c0,0,0,0,0,0c0,0,0,0,0,0c0,0,0,0,0,0c0,0,0,0,0,0c0,0,0,0,0,0c0,0,0,0,0,0c0,0,0,0,0,0
				c0,0,0,0,0,0c0,0,0,0,0,0c0,0,0,0,0,0c0,0,0,0,0,0c0,0,0,0,0,0c0,0,0,0,0,0c0,0,0,0,0,0c0,0,0,0,0,0c0,0,0,0,0,0
				c0.1,0,0.1,0,0.2,0.1c0,0,0,0,0,0c0,0,0,0,0,0c0,0,0,0,0,0c0,0,0,0,0,0c0,0,0,0,0,0c0,0,0,0,0,0c0,0,0,0,0,0c0,0,0,0,0,0
				c0,0,0,0,0,0c0,0,0,0,0,0c0,0,0,0,0,0c0,0,0,0,0,0c0,0,0,0,0,0c0,0,0,0,0,0c0,0,0,0,0,0c0,0,0,0,0,0c0,0,0,0,0,0c0,0,0,0,0,0
				c0,0,0,0,0,0c0,0,0,0,0,0c0,0,0,0,0,0c0,0,0,0,0,0c0,0,0,0,0,0c0,0,0,0,0,0c0,0,0,0,0,0c0,0,0,0,0,0c0,0,0,0,0,0c0,0,0,0,0,0
				c0,0,0,0,0,0c0,0,0,0,0,0c0,0,0,0,0,0c0,0,0,0,0,0c0,0,0,0,0,0c0,0,0,0,0,0c0,0,0,0,0,0c0,0,0,0,0,0c0,0,0,0,0,0c0,0,0,0,0,0
				c0,0,0,0,0,0c0.1,0,0.1,0,0.2,0.1c0,0,0,0,0,0c0,0,0,0,0,0c0,0,0,0,0,0c0,0,0,0,0,0c0,0,0,0,0,0c0,0,0,0,0,0c0,0,0,0,0,0
				c0,0,0,0,0,0c0,0,0,0,0,0c0,0,0,0,0,0c0,0,0,0,0,0c0,0,0,0,0,0c0,0,0,0,0,0c0,0,0,0,0,0c0,0,0,0,0,0c0,0,0,0,0,0c0,0,0,0,0,0
				c0,0,0,0,0,0c0,0,0,0,0,0c0,0,0,0,0,0c0,0,0,0,0,0c0,0,0,0,0,0c0,0,0,0,0,0c0,0,0,0,0,0c0,0,0,0,0,0c0,0,0,0,0,0c0,0,0,0,0,0
				c0,0,0,0,0,0c0,0,0,0,0,0c0,0,0,0,0,0c0,0,0,0,0,0c0,0,0,0,0,0c0,0,0,0,0,0c0,0,0,0,0,0c0,0,0,0,0,0c0.1,0,0.3,0.1,0.4,0.1
				l0.7-1.9C80.7,227.3,78.8,226.6,77,225.9L77,225.9z M88.2,229.8l-0.6,1.9c1.9,0.6,3.8,1.1,5.8,1.5l0.5-1.9
				C92,230.8,90,230.3,88.2,229.8L88.2,229.8z M99.6,232.5l-0.4,2c1,0.2,2,0.4,3,0.5l0,0c0,0,0,0,0,0l0,0c0,0,0,0,0,0l0,0
				c0,0,0,0,0,0l0,0c0,0,0,0,0,0l0,0c0,0,0,0,0,0c0,0,0,0,0,0c0,0,0,0,0,0c0,0,0,0,0,0c0,0,0,0,0,0c0,0,0,0,0,0c0,0,0,0,0,0
				c0,0,0,0,0,0c0,0,0,0,0,0c0,0,0,0,0,0c0,0,0,0,0,0c0,0,0,0,0,0c0,0,0,0,0,0c0,0,0,0,0,0c0,0,0,0,0,0c0,0,0,0,0,0c0,0,0,0,0,0
				c0,0,0,0,0,0c0,0,0,0,0,0c0,0,0,0,0,0c0,0,0,0,0,0c0,0,0,0,0,0c0,0,0,0,0,0c0,0,0,0,0,0c0,0,0,0,0,0c0,0,0,0,0,0c0,0,0,0,0,0
				c0.7,0.1,1.4,0.2,2.1,0.3l0.3-2C103.5,233.1,101.6,232.8,99.6,232.5L99.6,232.5z M111.3,234l-0.2,2c2,0.2,4,0.3,6,0.3l0.1-2
				C115.3,234.3,113.3,234.2,111.3,234L111.3,234z M129,234.1c-1.9,0.1-3.9,0.2-5.9,0.3l0,2c0,0,0,0,0,0c0,0,0,0,0,0c0,0,0,0,0,0
				c0,0,0,0,0,0c0,0,0,0,0,0c0,0,0,0,0,0c0,0,0,0,0,0c0,0,0,0,0,0c0,0,0,0,0,0c0,0,0,0,0,0c0,0,0,0,0,0c0,0,0,0,0,0l0,0c0,0,0,0,0,0
				l0,0c1.9,0,3.8-0.1,5.7-0.3L129,234.1L129,234.1z M140.7,232.6c-1.9,0.3-3.9,0.6-5.8,0.9l0.2,2c1.2-0.2,2.4-0.3,3.7-0.5
				c0,0,0,0,0,0c0,0,0,0,0,0c0,0,0,0,0,0c0,0,0,0,0,0c0,0,0,0,0,0c0,0,0,0,0,0c0,0,0,0,0,0c0,0,0,0,0,0c0,0,0,0,0,0c0,0,0,0,0,0
				c0,0,0,0,0,0c0,0,0,0,0,0c0,0,0,0,0,0c0,0,0,0,0,0c0,0,0,0,0,0c0,0,0,0,0,0c0,0,0,0,0,0c0,0,0,0,0,0c0,0,0,0,0,0c0,0,0,0,0,0
				c0,0,0,0,0,0c0,0,0,0,0,0c0,0,0,0,0,0c0,0,0,0,0,0c0,0,0,0,0,0c0,0,0,0,0,0c0,0,0,0,0,0c0,0,0,0,0,0c0,0,0,0,0,0l0,0c0,0,0,0,0,0
				l0,0c0,0,0,0,0,0l0,0c0,0,0,0,0,0l0,0c0.5-0.1,1-0.2,1.5-0.3L140.7,232.6L140.7,232.6z M152.2,230c-1.9,0.5-3.8,1-5.7,1.5
				l0.4,1.9c0.3-0.1,0.6-0.1,0.9-0.2c0,0,0,0,0,0c0,0,0,0,0,0c0,0,0,0,0,0c0,0,0,0,0,0c0,0,0,0,0,0c0,0,0,0,0,0c0,0,0,0,0,0
				c0,0,0,0,0,0c0,0,0,0,0,0c0,0,0,0,0,0c0,0,0,0,0,0c0,0,0,0,0,0c0,0,0,0,0,0c0,0,0,0,0,0c0,0,0,0,0,0c0,0,0,0,0,0c0,0,0,0,0,0
				c0,0,0,0,0,0c0,0,0.1,0,0.1,0l0,0c0,0,0.1,0,0.1,0l0,0c0,0,0,0,0,0l0,0c0,0,0,0,0,0l0,0c0,0,0,0,0,0l0,0c0,0,0,0,0,0l0,0
				c0,0,0,0,0,0c0,0,0,0,0,0c0,0,0,0,0,0c0,0,0,0,0,0c0,0,0,0,0,0c0,0,0,0,0,0c0,0,0,0,0,0c0,0,0,0,0,0c0,0,0,0,0,0l0,0c0,0,0,0,0,0
				l0,0c0,0,0,0,0,0l0,0c0,0,0,0,0,0l0,0c0,0,0,0,0,0l0,0c0,0,0,0,0,0l0,0c0,0,0,0,0,0l0,0c0.3-0.1,0.5-0.1,0.8-0.2l0,0c0,0,0,0,0,0
				c0,0,0,0,0,0c0,0,0,0,0,0c0,0,0,0,0,0c0,0,0,0,0,0c0,0,0,0,0,0c0,0,0,0,0,0c0,0,0,0,0,0c0,0,0,0,0,0c0,0,0,0,0,0c0,0,0,0,0,0
				c0,0,0,0,0,0c0,0,0,0,0,0c0,0,0,0,0,0c0,0,0,0,0,0c0,0,0,0,0,0c0,0,0,0,0,0c0,0,0,0,0,0c0,0,0,0,0,0c0,0,0,0,0,0c0,0,0,0,0,0
				c0,0,0,0,0,0c0,0,0,0,0,0c0,0,0,0,0,0c0,0,0,0,0,0c0,0,0,0,0,0c0,0,0,0,0,0c0,0,0,0,0,0c0,0,0,0,0,0c0,0,0,0,0,0c0,0,0,0,0,0
				c0,0,0,0,0,0c0,0,0,0,0,0c0,0,0,0,0,0c0,0,0,0,0,0c0.6-0.2,1.3-0.3,1.9-0.5L152.2,230L152.2,230z M163.4,226.2
				c-1.8,0.7-3.7,1.4-5.5,2l0.6,1.9c1.9-0.6,3.8-1.3,5.6-2.1L163.4,226.2L163.4,226.2z M174.1,221.2c-1.7,0.9-3.5,1.8-5.3,2.6
				l0.8,1.8c1.8-0.8,3.6-1.7,5.4-2.6L174.1,221.2L174.1,221.2z M184.2,215.2c-1.6,1.1-3.3,2.1-5,3.1l1,1.7c0,0,0.1-0.1,0.1-0.1
				c0,0,0,0,0,0c0,0,0,0,0,0c0,0,0,0,0,0c0,0,0,0,0,0c0,0,0,0,0,0c0,0,0,0,0,0c0,0,0,0,0,0c0,0,0,0,0,0c0,0,0,0,0,0
				c0,0,0.1-0.1,0.1-0.1c0,0,0,0,0,0c0,0,0,0,0,0c0,0,0,0,0,0c0,0,0,0,0,0c0,0,0,0,0,0c0,0,0,0,0,0c0,0,0,0,0,0c0,0,0,0,0,0
				c0,0,0,0,0,0c0,0,0,0,0,0c0,0,0,0,0,0c0,0,0,0,0,0c0,0,0,0,0,0c0,0,0,0,0,0c0,0,0,0,0,0l0,0c0,0,0,0,0,0c0,0,0,0,0,0c0,0,0,0,0,0
				c0,0,0,0,0,0c0,0,0,0,0,0l0,0c0.8-0.5,1.7-1,2.5-1.6l0,0c0,0,0,0,0,0l0,0c0,0,0,0,0,0l0,0c0,0,0,0,0,0l0,0c0,0,0,0,0,0
				c0,0,0,0,0,0c0,0,0,0,0,0c0,0,0,0,0,0c0,0,0,0,0,0c0,0,0,0,0,0c0,0,0,0,0,0l0,0c0,0,0,0,0,0l0,0c0,0,0,0,0,0c0,0,0,0,0,0
				c0,0,0,0,0,0l0,0c0,0,0.1,0,0.1,0c0,0,0,0,0,0c0,0,0,0,0,0c0,0,0,0,0,0c0,0,0,0,0,0c0,0,0,0,0,0c0,0,0,0,0,0c0,0,0,0,0,0
				c0,0,0,0,0,0c0,0,0,0,0,0c0,0,0,0,0,0c0,0,0,0,0,0c0,0,0,0,0,0c0,0,0,0,0,0c0,0,0,0,0,0c0,0,0,0,0,0c0,0,0,0,0,0c0,0,0,0,0,0
				c0,0,0,0,0,0c0,0,0,0,0,0c0,0,0,0,0,0c0,0,0,0,0,0c0,0,0,0,0,0c0.3-0.2,0.6-0.4,0.8-0.6L184.2,215.2L184.2,215.2z M193.7,208.2
				c-1.5,1.2-3.1,2.5-4.7,3.6l1.2,1.6l0,0c0,0,0,0,0,0c0,0,0,0,0,0c0,0,0,0,0,0c0,0,0,0,0,0c0,0,0,0,0,0c0,0,0,0,0,0c0,0,0,0,0,0
				c0,0,0,0,0,0c0,0,0,0,0.1-0.1c0,0,0,0,0,0c0,0,0,0,0,0c0,0,0,0,0,0c0,0,0,0,0,0c0,0,0,0,0,0c0,0,0,0,0,0c0,0,0,0,0,0c0,0,0,0,0,0
				c0,0,0,0,0,0c0,0,0,0,0,0c0,0,0,0,0,0c0,0,0,0,0,0c0,0,0,0,0,0c0,0,0,0,0,0c0,0,0,0,0,0c0,0,0,0,0,0c0,0,0,0,0,0c0,0,0,0,0,0
				c0,0,0,0,0,0c0,0,0,0,0,0c0,0,0,0,0,0c0,0,0,0,0,0c0,0,0,0,0,0c0,0,0,0,0,0c0,0,0,0,0,0c0,0,0,0,0,0c0,0,0,0,0,0c0,0,0,0,0,0
				c0.1,0,0.1-0.1,0.2-0.1c0,0,0,0,0,0c0,0,0,0,0,0c0,0,0,0,0,0c0,0,0,0,0,0c0,0,0,0,0,0c0,0,0,0,0,0c0,0,0,0,0,0c0,0,0,0,0,0
				c0,0,0,0,0,0c0,0,0,0,0,0c0,0,0,0,0,0c0,0,0,0,0,0c0,0,0,0,0,0c0,0,0,0,0,0c0,0,0,0,0,0c0,0,0,0,0,0c0,0,0,0,0,0c0,0,0,0,0,0
				c0,0,0,0,0,0c0,0,0,0,0,0c0,0,0,0,0,0c0.1-0.1,0.2-0.2,0.3-0.2c0,0,0,0,0,0c0,0,0,0,0,0c0,0,0,0,0,0c0,0,0,0,0,0c0,0,0,0,0,0
				c0,0,0,0,0,0c0,0,0,0,0,0c0,0,0,0,0,0c0,0,0,0,0,0c0,0,0,0,0,0c0,0,0,0,0,0c0,0,0,0,0,0c0,0,0,0,0,0c0,0,0,0,0,0c0,0,0,0,0,0
				c0,0,0,0,0,0c0,0,0,0,0,0c0,0,0,0,0,0c0,0,0,0,0,0c0.1-0.1,0.2-0.1,0.2-0.2c0,0,0,0,0,0c0,0,0,0,0,0c0,0,0,0,0,0c0,0,0,0,0,0
				c0,0,0,0,0,0c0,0,0,0,0,0c0,0,0,0,0,0c0,0,0,0,0,0c0,0,0,0,0,0c0,0,0,0,0,0c0,0,0,0,0,0c0,0,0,0,0,0c0,0,0,0,0,0c0,0,0,0,0,0
				c0,0,0,0,0,0c0,0,0,0,0,0c0,0,0,0,0,0c0,0,0,0,0,0c0,0,0,0,0,0c0,0,0,0,0,0c0,0,0,0,0,0c0,0,0,0,0,0c0,0,0,0,0,0c0,0,0,0,0,0
				c0,0,0,0,0,0c0,0,0,0,0,0c0,0,0,0,0,0c0,0,0,0,0,0c0,0,0,0,0,0c0,0,0,0,0,0c0,0,0,0,0,0c0,0,0,0,0,0c0,0,0,0,0,0c0,0,0,0,0,0
				c0,0,0,0,0,0c0,0,0,0,0,0c0,0,0,0,0,0c0,0,0,0,0,0c0,0,0,0,0,0c0,0,0,0,0,0c0,0,0,0,0,0c0,0,0,0,0,0c0,0,0,0,0,0c0,0,0,0,0,0
				c0,0,0,0,0,0c0,0,0,0,0,0c0,0,0,0,0,0c0,0,0,0,0,0c0,0,0,0,0,0c0,0,0,0,0,0c0,0,0,0,0,0l0,0c0.6-0.4,1.1-0.9,1.7-1.4L193.7,208.2
				L193.7,208.2z M202.4,200.3c-1.4,1.4-2.8,2.8-4.3,4.1l1.3,1.5l0,0c0,0,0,0,0,0c0,0,0,0,0,0c0,0,0,0,0,0c0,0,0,0,0,0c0,0,0,0,0,0
				c0,0,0,0,0,0c0,0,0.1-0.1,0.1-0.1c0,0,0,0,0,0c0,0,0,0,0,0c0,0,0,0,0,0c0,0,0,0,0,0c0,0,0,0,0,0c0,0,0,0,0,0c0,0,0,0,0,0
				c0,0,0,0,0,0c0,0,0,0,0,0c0,0,0,0,0,0c0,0,0,0,0,0c0,0,0,0,0,0c0,0,0,0,0,0c0,0,0,0,0,0c0,0,0,0,0,0c0,0,0,0,0,0c0,0,0,0,0,0
				c0,0,0,0,0,0c0,0,0,0,0,0c0,0,0,0,0,0c0,0,0,0,0,0c0,0,0,0,0,0l0,0c0,0,0,0,0,0l0,0c0.1-0.1,0.1-0.1,0.2-0.2l0,0c0,0,0,0,0,0l0,0
				c0,0,0,0,0,0l0,0c0,0,0,0,0,0c0,0,0,0,0,0c0,0,0,0,0,0l0,0c0,0,0,0,0,0l0,0c0,0,0,0,0,0l0,0c0,0,0,0,0,0c0,0,0,0,0,0
				c1.1-1,2.2-2.1,3.3-3.2L202.4,200.3L202.4,200.3z M210.3,191.5c-1.2,1.5-2.5,3-3.8,4.5l1.5,1.3c1.3-1.5,2.6-3,3.9-4.6
				L210.3,191.5L210.3,191.5z M217.3,182c-1.1,1.6-2.2,3.3-3.4,4.9l1.6,1.2c0-0.1,0.1-0.1,0.1-0.2l0,0c0,0,0,0,0,0l0,0c0,0,0,0,0,0
				c0,0,0,0,0,0c0,0,0,0,0,0c0,0,0,0,0,0c0,0,0,0,0,0l0,0c0,0,0,0,0,0l0,0c0,0,0,0,0,0l0,0c0,0,0,0,0,0c0,0,0,0,0,0
				c0.1-0.2,0.2-0.3,0.4-0.5l0,0c0,0,0,0,0,0l0,0c0,0,0,0,0,0l0,0c0.1-0.2,0.2-0.3,0.3-0.5l0,0c0,0,0,0,0,0c0,0,0,0,0,0c0,0,0,0,0,0
				c0,0,0,0,0,0c0,0,0,0,0,0c0,0,0,0,0,0c0,0,0,0,0,0l0,0c0,0,0,0,0,0c0,0,0,0,0,0c0,0,0,0,0,0c0,0,0,0,0,0c0,0,0,0,0,0c0,0,0,0,0,0
				c0,0,0,0,0,0c0,0,0,0,0,0c0,0,0,0,0,0l0,0c0,0,0,0,0,0c0,0,0,0,0,0c0,0,0,0,0,0c0,0,0,0,0,0c0,0,0-0.1,0.1-0.1c0,0,0,0,0,0
				c0,0,0,0,0,0c0,0,0,0,0,0c0,0,0,0,0,0c0,0,0,0,0,0c0,0,0,0,0,0c0,0,0,0,0,0c0,0,0,0,0,0c0,0,0,0,0,0c0,0,0,0,0,0c0,0,0,0,0,0
				c0,0,0,0,0,0c0,0,0,0,0,0c0,0,0,0,0,0c0,0,0,0,0,0c0,0,0,0,0,0c0,0,0,0,0,0c0,0,0,0,0,0c0,0,0,0,0,0c0,0,0,0,0,0c0,0,0,0,0,0
				c0,0,0,0,0,0c0,0,0,0,0,0c0,0,0,0,0,0c0,0,0,0,0,0c0,0,0,0,0,0c0.6-0.8,1.1-1.7,1.7-2.5L217.3,182L217.3,182z M223.2,171.8
				c-0.9,1.7-1.9,3.5-2.8,5.2l1.7,1c0.3-0.5,0.6-1,0.9-1.5c0,0,0,0,0,0c0,0,0,0,0,0c0,0,0,0,0,0c0,0,0,0,0,0c0,0,0,0,0,0
				c0,0,0,0,0,0c0,0,0,0,0,0c0,0,0,0,0,0c0,0,0,0,0,0c0,0,0,0,0,0c0,0,0,0,0,0c0,0,0,0,0,0c0,0,0,0,0,0c0,0,0,0,0,0c0,0,0,0,0,0
				c0,0,0,0,0,0c0,0,0,0,0,0c0,0,0,0,0,0c0,0,0,0,0,0c0,0,0,0,0,0c0,0,0,0,0,0c0,0,0,0,0,0c0,0,0,0,0,0c0,0,0,0,0,0c0,0,0,0,0,0
				c0,0,0,0,0,0c0-0.1,0.1-0.1,0.1-0.2l0,0c0,0,0,0,0,0c0,0,0,0,0,0c0,0,0,0,0,0c0,0,0,0,0,0c0,0,0,0,0,0c0,0,0,0,0,0c0,0,0,0,0,0
				c0,0,0,0,0,0c0,0,0,0,0,0l0,0c0,0,0,0,0,0l0,0c0,0,0,0,0,0l0,0c0,0,0,0,0,0c0,0,0,0,0,0c0,0,0,0,0,0c0,0,0,0,0,0c0,0,0,0,0,0l0,0
				c0.1-0.1,0.1-0.2,0.2-0.4l0,0c0,0,0,0,0,0c0,0,0,0,0,0c0,0,0,0,0,0c0,0,0,0,0,0c0,0,0,0,0,0c0,0,0,0,0,0c0,0,0,0,0,0l0,0
				c0,0,0,0,0,0c0,0,0,0,0,0c0,0,0,0,0,0c0,0,0,0,0,0c0,0,0,0,0,0c0,0,0,0,0,0c0,0,0,0,0,0c0,0,0,0,0,0c0,0,0,0,0,0c0,0,0,0,0,0
				c0,0,0,0,0,0c0,0,0,0,0,0c0,0,0,0,0,0c0,0,0,0,0,0c0,0,0,0,0,0c0,0,0,0,0,0c0,0,0,0,0,0c0,0,0,0,0,0c0,0,0,0,0,0c0,0,0,0,0-0.1
				c0,0,0,0,0,0c0,0,0,0,0-0.1c0,0,0,0,0,0c0,0,0,0,0,0c0,0,0,0,0,0c0,0,0,0,0,0c0,0,0,0,0,0c0,0,0,0,0,0c0,0,0,0,0,0c0,0,0,0,0,0
				c0,0,0,0,0,0c0.2-0.5,0.5-0.9,0.7-1.4L223.2,171.8L223.2,171.8z M228.1,161.1c-0.7,1.8-1.5,3.6-2.3,5.4l1.8,0.8
				c0.3-0.7,0.6-1.4,0.9-2.1c0,0,0,0,0,0c0,0,0,0,0,0c0,0,0,0,0,0c0,0,0,0,0,0c0,0,0,0,0,0c0,0,0,0,0,0c0,0,0,0,0,0c0,0,0,0,0,0
				c0,0,0,0,0,0c0,0,0,0,0,0c0,0,0,0,0,0c0,0,0,0,0,0c0,0,0,0,0,0c0,0,0,0,0,0c0,0,0,0,0,0c0,0,0,0,0,0c0,0,0,0,0,0c0,0,0,0,0,0
				c0,0,0,0,0,0c0,0,0,0,0,0c0,0,0,0,0,0c0,0,0,0,0,0c0,0,0,0,0,0c0,0,0,0,0,0c0,0,0,0,0,0l0,0c0.3-0.7,0.6-1.4,0.9-2.2l0,0
				c0,0,0,0,0,0c0,0,0,0,0,0c0,0,0,0,0,0c0,0,0,0,0,0c0,0,0,0,0,0c0,0,0,0,0,0c0,0,0,0,0,0c0,0,0,0,0,0c0,0,0,0,0,0c0,0,0,0,0,0
				c0,0,0,0,0,0c0,0,0,0,0,0c0,0,0,0,0,0c0,0,0,0,0,0c0,0,0,0,0,0c0,0,0,0,0,0c0,0,0,0,0,0c0,0,0,0,0,0c0,0,0,0,0,0
				c0-0.1,0.1-0.2,0.1-0.3L228.1,161.1L228.1,161.1z M231.8,149.9c-0.5,1.9-1.1,3.8-1.7,5.6l1.9,0.6c0.1-0.3,0.2-0.7,0.3-1
				c0,0,0,0,0,0c0,0,0,0,0,0c0,0,0,0,0,0c0,0,0,0,0,0c0,0,0,0,0,0c0,0,0,0,0,0c0,0,0,0,0,0c0,0,0,0,0,0c0,0,0,0,0,0c0,0,0,0,0,0
				c0,0,0,0,0,0c0,0,0,0,0,0c0,0,0,0,0,0c0,0,0,0,0,0c0,0,0,0,0,0c0,0,0,0,0,0c0,0,0,0,0,0c0,0,0,0,0,0c0,0,0,0,0,0c0,0,0,0,0,0
				c0,0,0,0,0,0c0,0,0,0,0,0c0,0,0,0,0,0c0,0,0,0,0,0c0,0,0,0,0,0c0,0,0,0,0,0c0,0,0,0,0,0c0,0,0,0,0,0c0,0,0,0,0,0c0,0,0,0,0,0
				c0,0,0,0,0,0c0,0,0,0,0,0c0,0,0,0,0,0c0,0,0-0.1,0-0.1c0,0,0,0,0,0c0,0,0,0,0,0c0,0,0,0,0,0c0,0,0,0,0,0c0,0,0,0,0,0c0,0,0,0,0,0
				c0,0,0,0,0,0c0,0,0,0,0,0c0,0,0,0,0,0c0,0,0,0,0,0c0,0,0,0,0,0c0,0,0,0,0,0c0,0,0,0,0,0c0,0,0,0,0,0c0,0,0,0,0,0c0,0,0,0,0,0
				c0,0,0,0,0,0c0,0,0,0,0,0c0,0,0,0,0,0c0,0,0,0,0,0c0,0,0,0,0,0c0,0,0,0,0,0c0,0,0,0,0,0c0,0,0,0,0,0c0,0,0,0,0,0c0,0,0,0,0,0
				c0,0,0,0,0,0c0,0,0,0,0,0c0,0,0,0,0,0c0,0,0,0,0,0c0,0,0,0,0,0c0,0,0,0,0,0c0,0,0,0,0,0c0,0,0,0,0,0c0,0,0,0,0,0c0,0,0,0,0,0
				c0,0,0,0,0,0c0,0,0,0,0,0c0,0,0,0,0,0c0,0,0,0,0,0c0,0,0,0,0,0c0,0,0,0,0,0c0,0,0,0,0,0c0,0,0,0,0,0c0,0,0,0,0,0
				c0-0.1,0.1-0.2,0.1-0.3c0,0,0,0,0,0c0,0,0,0,0,0c0,0,0,0,0,0c0,0,0,0,0,0c0,0,0,0,0,0c0,0,0,0,0,0c0,0,0,0,0,0c0,0,0,0,0,0
				c0,0,0,0,0,0c0,0,0,0,0,0c0,0,0,0,0,0c0,0,0,0,0,0c0,0,0,0,0,0c0,0,0,0,0,0c0,0,0,0,0,0c0,0,0,0,0,0c0,0,0,0,0,0c0,0,0,0,0,0
				c0,0,0,0,0,0c0,0,0,0,0,0c0,0,0,0,0,0c0,0,0,0,0,0c0,0,0,0,0,0c0,0,0,0,0,0c0,0,0,0,0,0c0,0,0,0,0,0c0,0,0,0,0,0c0,0,0,0,0,0
				c0,0,0,0,0,0c0,0,0,0,0,0c0,0,0,0,0,0c0.1-0.3,0.2-0.7,0.3-1c0,0,0,0,0,0c0,0,0,0,0,0c0,0,0,0,0,0c0.1-0.2,0.1-0.5,0.2-0.7
				c0,0,0,0,0,0c0,0,0,0,0,0c0,0,0,0,0,0c0,0,0,0,0,0c0,0,0,0,0,0c0,0,0,0,0,0L231.8,149.9L231.8,149.9z M234.4,138.4
				c-0.3,1.9-0.7,3.9-1.1,5.8l2,0.4c0.2-0.8,0.3-1.6,0.5-2.4c0,0,0,0,0,0c0,0,0,0,0,0c0,0,0,0,0,0c0,0,0,0,0,0c0,0,0,0,0,0
				c0,0,0,0,0,0c0,0,0,0,0,0c0,0,0,0,0,0c0,0,0,0,0,0c0,0,0,0,0,0c0,0,0,0,0,0c0,0,0,0,0,0c0,0,0,0,0,0c0,0,0,0,0,0c0,0,0,0,0,0
				c0,0,0,0,0,0c0,0,0,0,0,0c0,0,0,0,0,0c0,0,0,0,0,0c0,0,0,0,0,0c0,0,0,0,0,0c0,0,0,0,0,0c0,0,0,0,0,0c0,0,0,0,0,0c0,0,0,0,0,0
				c0,0,0,0,0,0c0,0,0,0,0,0c0,0,0,0,0,0c0,0,0,0,0,0c0,0,0,0,0,0c0,0,0,0,0,0c0,0,0,0,0,0c0,0,0,0,0,0c0,0,0,0,0,0c0,0,0,0,0,0
				c0,0,0,0,0,0c0,0,0,0,0,0c0,0,0,0,0,0c0,0,0,0,0,0c0,0,0,0,0,0c0,0,0,0,0,0c0,0,0,0,0,0c0,0,0,0,0,0c0,0,0,0,0,0c0,0,0,0,0,0
				c0,0,0,0,0,0c0,0,0,0,0,0c0,0,0,0,0,0c0-0.1,0-0.2,0.1-0.4c0,0,0,0,0,0c0,0,0,0,0,0c0,0,0,0,0,0c0,0,0,0,0,0c0,0,0,0,0,0
				c0,0,0,0,0,0c0,0,0,0,0,0c0,0,0,0,0,0c0,0,0,0,0,0c0,0,0,0,0,0c0,0,0,0,0,0c0,0,0,0,0,0c0,0,0,0,0,0c0,0,0,0,0,0c0,0,0,0,0,0
				c0,0,0,0,0,0c0,0,0,0,0,0c0,0,0,0,0,0c0,0,0,0,0,0c0,0,0,0,0,0c0,0,0,0,0,0c0,0,0,0,0,0c0,0,0,0,0,0c0,0,0,0,0,0c0,0,0,0,0,0
				c0,0,0,0,0,0c0,0,0,0,0,0c0,0,0,0,0,0c0,0,0,0,0,0c0,0,0,0,0,0c0,0,0,0,0,0c0,0,0,0,0,0c0,0,0,0,0,0c0,0,0,0,0,0c0,0,0,0,0,0l0,0
				c0,0,0,0,0,0l0,0c0.1-0.4,0.1-0.8,0.2-1.2L234.4,138.4L234.4,138.4z M235.8,126.7c-0.1,2-0.3,3.9-0.5,5.9l2,0.2
				c0.1-0.5,0.1-1.1,0.2-1.6c0,0,0,0,0,0c0,0,0,0,0,0c0,0,0,0,0,0c0,0,0,0,0,0c0,0,0,0,0,0c0,0,0,0,0,0c0,0,0,0,0,0c0,0,0,0,0,0
				c0,0,0,0,0,0c0,0,0,0,0,0c0,0,0,0,0,0c0,0,0,0,0,0c0,0,0,0,0,0c0,0,0,0,0,0c0,0,0,0,0,0l0,0c0,0,0,0,0,0l0,0c0,0,0,0,0,0l0,0
				c0,0,0,0,0,0l0,0c0,0,0,0,0,0l0,0c0,0,0,0,0,0l0,0c0,0,0,0,0,0l0,0c0.1-1.2,0.2-2.5,0.3-3.7L235.8,126.7L235.8,126.7z M238,114.8
				l-2,0.1c0,1.3,0.1,2.6,0.1,3.9c0,0.7,0,1.3,0,2l2,0c0-0.2,0-0.5,0-0.7c0,0,0,0,0,0c0,0,0-0.1,0-0.1c0,0,0,0,0,0c0,0,0,0,0,0
				c0,0,0,0,0,0c0,0,0,0,0,0c0,0,0,0,0,0c0,0,0,0,0,0c0,0,0,0,0,0c0,0,0,0,0,0c0,0,0,0,0,0c0,0,0,0,0,0c0,0,0,0,0,0c0,0,0,0,0,0
				c0,0,0,0,0,0c0,0,0,0,0,0c0,0,0,0,0,0c0,0,0,0,0,0c0,0,0,0,0,0c0,0,0,0,0,0c0,0,0,0,0,0c0,0,0,0,0,0c0,0,0,0,0,0c0,0,0,0,0,0
				c0,0,0,0,0,0c0,0,0,0,0,0c0,0,0,0,0,0c0,0,0,0,0,0c0,0,0,0,0,0c0,0,0,0,0,0c0,0,0,0,0,0c0,0,0,0,0,0c0,0,0,0,0,0c0,0,0,0,0,0
				c0,0,0,0,0,0c0,0,0,0,0,0c0,0,0,0,0,0c0,0,0,0,0,0c0,0,0,0,0,0c0,0,0,0,0,0c0,0,0,0,0,0c0,0,0,0,0,0c0,0,0,0,0,0c0,0,0,0,0,0
				c0,0,0,0,0,0c0,0,0,0,0,0c0,0,0,0,0,0c0,0,0,0,0,0c0,0,0,0,0,0c0,0,0,0,0,0c0,0,0,0,0,0c0,0,0,0,0,0c0,0,0,0,0,0c0,0,0,0,0,0l0,0
				l0,0c0,0,0,0,0-0.1c0,0,0,0,0,0c0,0,0,0,0,0c0,0,0,0,0,0c0,0,0,0,0,0c0,0,0,0,0,0c0,0,0,0,0-0.1c0,0,0,0,0,0c0,0,0,0,0,0
				c0,0,0,0,0,0c0,0,0,0,0,0c0,0,0,0,0,0c0,0,0,0,0-0.1c0,0,0,0,0,0c0,0,0,0,0,0c0,0,0,0,0,0c0,0,0,0,0,0c0,0,0,0,0,0c0,0,0,0,0-0.1
				c0,0,0,0,0,0c0,0,0,0,0,0c0,0,0,0,0,0c0,0,0,0,0,0c0,0,0,0,0,0c0,0,0-0.1,0-0.1c0,0,0,0,0,0c0,0,0,0,0,0c0,0,0,0,0,0
				c0,0,0,0,0-0.1c0,0,0,0,0,0c0,0,0,0,0-0.1c0,0,0,0,0,0c0,0,0,0,0,0c0,0,0,0,0,0c0,0,0,0,0-0.1l0,0c0,0,0,0,0-0.1c0,0,0,0,0,0
				c0,0,0,0,0-0.1c0,0,0,0,0,0c0,0,0,0,0,0c0,0,0,0,0,0c0,0,0-0.1,0-0.1c0,0,0,0,0,0c0,0,0,0,0,0c0,0,0,0,0,0c0,0,0-0.1,0-0.1
				c0,0,0,0,0,0c0,0,0,0,0,0c0,0,0,0,0,0c0,0,0,0,0-0.1l0,0c0,0,0,0,0-0.1l0,0c0,0,0,0,0,0c0,0,0,0,0,0c0,0,0,0,0,0c0,0,0,0,0,0
				c0,0,0,0,0-0.1c0,0,0,0,0,0c0,0,0,0,0,0c0,0,0,0,0,0c0,0,0,0,0,0c0,0,0,0,0,0c0,0,0,0,0-0.1l0,0c0,0,0,0,0-0.1c0,0,0,0,0,0
				c0,0,0,0,0,0c0,0,0,0,0,0c0,0,0,0,0-0.1l0,0c0,0,0,0,0-0.1c0,0,0,0,0,0c0,0,0,0,0,0c0,0,0,0,0,0c0,0,0,0,0,0c0,0,0,0,0,0
				c0,0,0,0,0-0.1c0,0,0,0,0,0c0,0,0,0,0,0c0,0,0,0,0,0c0,0,0,0,0,0c0,0,0,0,0,0c0,0,0,0,0-0.1c0,0,0,0,0,0c0,0,0,0,0,0c0,0,0,0,0,0
				c0,0,0,0,0,0c0,0,0,0,0,0c0,0,0,0,0,0c0,0,0,0,0-0.1c0,0,0,0,0,0c0,0,0,0,0,0c0,0,0,0,0,0c0,0,0,0,0,0c0,0,0,0,0,0
				c0,0,0-0.1,0-0.1c0,0,0,0,0,0C238,115.3,238,115.1,238,114.8L238,114.8z M237,102.9l-2,0.3c0.3,1.9,0.5,3.9,0.6,5.9l2-0.2
				c0-0.2,0-0.3,0-0.5l0,0c0,0,0,0,0,0l0,0c0,0,0,0,0,0l0,0c0,0,0,0,0,0c0,0,0,0,0,0c0,0,0,0,0,0c0,0,0,0,0,0c0,0,0,0,0,0
				c0,0,0,0,0,0c0,0,0,0,0,0c0,0,0,0,0,0c0,0,0,0,0,0c0,0,0,0,0,0c0,0,0,0,0,0c0,0,0,0,0,0c0,0,0,0,0,0c0,0,0,0,0,0c0,0,0,0,0,0
				c0,0,0,0,0,0c0,0,0,0,0,0c0,0,0,0,0,0c0,0,0,0,0,0c0,0,0,0,0,0c0,0,0,0,0,0c0,0,0,0,0,0c0,0,0,0,0,0c0,0,0,0,0,0c0,0,0,0,0,0
				c0,0,0,0,0,0c0,0,0,0,0,0c0,0,0,0,0,0c0,0,0,0,0,0c0,0,0,0,0,0c0,0,0,0,0,0c0,0,0,0,0,0c0,0,0,0,0,0c0,0,0,0,0,0c0,0,0,0,0,0
				c0,0,0,0,0,0c0,0,0,0,0,0c0,0,0,0,0,0c0,0,0,0,0,0c-0.1-1.2-0.2-2.3-0.4-3.5c0,0,0,0,0,0c0,0,0,0,0,0c0,0,0,0,0,0c0,0,0,0,0,0
				c0,0,0,0,0,0c0,0,0,0,0,0c0,0,0,0,0,0c0,0,0,0,0,0c0,0,0,0,0,0c0,0,0,0,0,0c0,0,0,0,0,0c0,0,0,0,0,0c0,0,0,0,0,0c0,0,0,0,0,0
				c0,0,0,0,0,0c0,0,0,0,0,0c0,0,0,0,0,0c0,0,0,0,0,0c0,0,0,0,0,0c0,0,0,0,0,0c0,0,0,0,0,0c0,0,0,0,0,0c0,0,0,0,0,0c0,0,0,0,0,0
				c0,0,0,0,0,0c0,0,0,0,0,0c0,0,0,0,0,0l0,0c0,0,0,0,0,0l0,0C237,103.1,237,103,237,102.9L237,102.9z M234.8,91.1l-1.9,0.5
				c0.5,1.9,0.9,3.8,1.2,5.8l2-0.4c-0.1-0.8-0.3-1.5-0.4-2.3c0,0,0,0,0,0c0,0,0,0,0,0c0,0,0,0,0,0c0,0,0,0,0,0c0,0,0,0,0,0
				c0,0,0,0,0,0c0,0,0,0,0,0c0,0,0,0,0,0c0,0,0,0,0,0c0,0,0,0,0,0c0,0,0,0,0,0c0,0,0,0,0,0c0,0,0,0,0,0c0,0,0,0,0,0c0,0,0,0,0,0
				c0,0,0,0,0,0c0,0,0,0,0,0c0,0,0,0,0,0c0,0,0,0,0,0c0,0,0,0,0,0c0,0,0,0,0,0c0,0,0,0,0,0c0,0,0,0,0,0c0,0,0,0,0,0c0,0,0,0,0,0
				c0,0,0,0,0,0c0,0,0,0,0,0l0,0C235.3,93.1,235,92.1,234.8,91.1L234.8,91.1z M231.4,79.6l-1.9,0.7c0.7,1.8,1.3,3.7,1.8,5.6l1.9-0.6
				C232.7,83.4,232.1,81.5,231.4,79.6L231.4,79.6C231.4,79.6,231.4,79.6,231.4,79.6L231.4,79.6L231.4,79.6z M226.8,68.5l-1.8,0.9
				c0.8,1.8,1.6,3.6,2.4,5.4l1.8-0.8l0,0c0,0,0,0,0,0c0,0,0-0.1,0-0.1c0,0,0,0,0,0c0,0,0,0,0,0c0,0,0,0,0,0c0,0,0,0,0,0c0,0,0,0,0,0
				c0,0,0,0,0,0c0,0,0,0,0,0c0,0,0,0,0,0c0,0,0,0,0,0c0,0,0,0,0,0c0,0,0,0,0,0c0,0,0,0,0,0c0,0,0,0,0,0c0,0,0,0,0,0c0,0,0,0,0,0
				c0,0,0,0,0,0c0,0,0,0,0,0c0,0,0,0,0,0c0,0,0,0,0,0c0,0,0,0,0,0c0,0,0,0,0,0c0,0,0,0,0,0c0,0,0,0,0,0c0,0,0,0,0,0c0,0,0,0,0,0
				c0,0,0,0,0,0c0,0,0,0,0,0c0,0,0,0,0,0c0,0,0,0,0,0c0,0,0,0,0,0c0,0,0,0,0,0c0,0,0,0,0,0c0,0,0,0,0,0c0,0,0,0,0,0c0,0,0,0,0,0
				c0,0,0,0,0,0c0,0,0,0,0,0c0,0,0,0,0,0c0,0,0,0,0,0l0,0c0,0,0,0,0,0c0,0,0,0,0,0c0,0,0,0,0,0c0,0,0,0,0,0c0,0,0,0,0,0c0,0,0,0,0,0
				c0,0,0,0,0,0c0,0,0,0,0,0c0,0,0,0,0,0c0,0,0,0,0,0c0,0,0,0,0,0c0,0,0,0,0,0c0,0,0,0,0,0c0,0,0,0,0,0c0,0,0,0,0,0c0,0,0,0,0,0
				c0,0,0,0,0,0c0,0,0,0,0,0c0,0,0,0,0,0c0,0,0,0,0,0c0,0,0,0,0,0c0,0,0,0,0,0c0,0,0,0,0,0c0,0,0,0,0,0c0,0,0,0,0,0c0,0,0,0,0,0
				c0,0,0,0,0,0c0,0,0,0,0,0c0,0,0,0,0,0c0,0,0,0,0,0c0,0,0,0,0,0c0,0,0,0,0,0c0,0,0,0,0,0c0,0,0,0,0,0c0,0,0,0,0,0c0,0,0,0,0,0
				c0-0.1,0-0.1-0.1-0.2c0,0,0,0,0,0c0,0,0-0.1,0-0.1l0,0c0,0,0,0,0,0c0,0,0,0,0,0c0,0,0,0,0,0c0,0,0,0,0,0c0,0,0,0,0,0c0,0,0,0,0,0
				c0,0,0,0,0,0c0,0,0,0,0,0c0,0,0,0,0,0c0,0,0,0,0,0c0,0,0,0,0,0l0,0c0,0,0,0,0,0l0,0c0,0,0,0,0,0c0,0,0,0,0,0c0,0,0,0,0,0
				c0,0,0,0,0,0c0,0,0,0,0,0l0,0C227.8,70.6,227.3,69.5,226.8,68.5L226.8,68.5z M221.1,58l-1.7,1c1,1.7,2,3.4,2.9,5.1l1.8-0.9
				C223.1,61.4,222.2,59.7,221.1,58L221.1,58z M214.4,48l-1.6,1.2c1.2,1.6,2.3,3.2,3.4,4.8l1.7-1.1c-0.9-1.4-1.9-2.7-2.9-4
				c0,0,0,0,0,0c0,0,0,0,0,0c0,0,0,0,0,0c0,0,0,0,0,0c0,0,0,0,0,0c0,0,0,0,0,0c0,0,0,0,0,0c0,0,0,0,0,0c0,0,0,0,0,0c0,0,0,0,0,0
				c0,0,0,0,0,0c0,0,0,0,0,0c0,0,0,0,0,0c0,0,0,0,0,0c0,0,0,0,0,0c0,0,0,0,0,0c0,0,0,0,0,0c0,0,0,0,0,0c0,0,0,0,0,0c0,0,0,0,0,0
				c0,0,0,0,0,0c0,0,0,0,0,0c0,0,0,0,0,0c0,0,0,0,0,0c0,0,0,0,0,0c0,0-0.1-0.1-0.1-0.1c0,0,0,0,0,0c0,0,0,0,0,0c0,0,0,0,0,0
				c0,0,0,0,0,0c0,0,0,0,0,0c0,0,0,0,0,0c0,0,0,0,0,0c0,0,0,0,0,0c0,0,0,0,0,0C214.5,48.1,214.5,48.1,214.4,48
				C214.5,48.1,214.5,48.1,214.4,48C214.4,48.1,214.4,48.1,214.4,48C214.4,48.1,214.4,48.1,214.4,48C214.4,48.1,214.4,48.1,214.4,48
				C214.4,48.1,214.4,48,214.4,48C214.4,48,214.4,48,214.4,48L214.4,48z M206.7,38.8l-1.5,1.4c1.3,1.4,2.6,2.9,3.9,4.4l1.5-1.3
				c-0.1-0.1-0.2-0.2-0.3-0.3c0,0,0,0,0,0c0,0,0,0,0,0c0,0,0,0,0,0c0,0,0,0,0,0c0,0,0,0,0,0c0,0,0,0,0,0c0,0,0,0,0,0c0,0,0,0,0,0
				c0,0,0,0,0,0c0,0,0,0,0,0c0,0,0,0,0,0c0,0,0,0,0,0c0,0,0,0,0,0c0,0,0,0,0,0c0,0,0,0,0,0c0,0,0,0,0,0c0,0,0,0,0,0c0,0,0,0,0,0
				c0,0,0,0,0,0l0,0C209,41.4,207.9,40.1,206.7,38.8L206.7,38.8z M198.1,30.5l-1.3,1.5c1.5,1.3,2.9,2.6,4.3,4l1.4-1.4
				c-0.6-0.6-1.3-1.2-1.9-1.8c0,0,0,0,0,0c0,0,0,0,0,0c0,0,0,0,0,0c0,0,0,0,0,0l0,0c0,0,0,0,0,0c0,0,0,0,0,0c0,0,0,0,0,0
				c0,0,0,0,0,0c0,0,0,0,0,0c0,0,0,0,0,0c0,0,0,0,0,0c0,0,0,0,0,0c0,0,0,0,0,0c0,0,0,0,0,0c0,0,0,0,0,0c0,0,0,0,0,0c0,0,0,0,0,0
				c-0.1,0-0.1-0.1-0.2-0.1c0,0,0,0,0,0c0,0,0,0,0,0c0,0,0,0,0,0c0,0,0,0,0,0c0,0,0,0,0,0c0,0,0,0,0,0c0,0,0,0,0,0c0,0,0,0,0,0
				c0,0,0,0,0,0C199.4,31.6,198.7,31,198.1,30.5L198.1,30.5z M188.7,23l-1.2,1.6c1.6,1.1,3.2,2.3,4.7,3.5l1.2-1.6
				C191.9,25.4,190.3,24.2,188.7,23L188.7,23z M178.6,16.6l-1,1.7c1.7,1,3.4,2,5,3l1.1-1.7c-0.1-0.1-0.3-0.2-0.4-0.2c0,0,0,0,0,0
				c0,0,0,0,0,0c0,0,0,0,0,0c0,0,0,0,0,0c0,0,0,0,0,0c0,0,0,0,0,0c0,0,0,0,0,0c0,0,0,0,0,0c0,0,0,0,0,0c0,0,0,0,0,0c0,0,0,0,0,0
				c0,0,0,0,0,0c0,0,0,0,0,0c0,0,0,0,0,0c0,0,0,0,0,0c0,0,0,0,0,0c0,0,0,0,0,0c0,0,0,0,0,0c0,0,0,0,0,0c0,0,0,0,0,0c0,0,0,0,0,0
				c0,0,0,0,0,0c0,0,0,0,0,0l0,0C181.5,18.3,180,17.4,178.6,16.6L178.6,16.6z M167.9,11.2l-0.8,1.8c1.8,0.8,3.6,1.6,5.3,2.5l0.9-1.8
				c-0.9-0.4-1.8-0.9-2.7-1.3c0,0,0,0,0,0c0,0,0,0,0,0l0,0c0,0,0,0,0,0c0,0,0,0,0,0c0,0,0,0,0,0c0,0,0,0,0,0c0,0,0,0,0,0
				c0,0,0,0,0,0c0,0,0,0,0,0c0,0,0,0,0,0c0,0,0,0,0,0c0,0,0,0,0,0c0,0,0,0,0,0c0,0,0,0,0,0c0,0,0,0,0,0c0,0,0,0,0,0c0,0,0,0,0,0
				c0,0,0,0,0,0c0,0,0,0,0,0c0,0,0,0,0,0c0,0,0,0,0,0c0,0,0,0,0,0c0,0,0,0,0,0c0,0,0,0,0,0c0,0,0,0,0,0c0,0,0,0,0,0c0,0,0,0,0,0
				c0,0,0,0,0,0c0,0,0,0,0,0c0,0,0,0,0,0c0,0,0,0,0,0c0,0,0,0,0,0c0,0,0,0,0,0c0,0,0,0-0.1,0c0,0,0,0,0,0c0,0,0,0,0,0c0,0,0,0,0,0
				c0,0,0,0,0,0c0,0,0,0,0,0c0,0,0,0,0,0c0,0,0,0,0,0c0,0,0,0,0,0c0,0,0,0,0,0c0,0,0,0,0,0c0,0,0,0,0,0c0,0,0,0,0,0c0,0,0,0,0,0
				c0,0,0,0,0,0c0,0,0,0,0,0c0,0,0,0,0,0c0,0,0,0,0,0c0,0,0,0,0,0c0,0,0,0,0,0c0,0,0,0,0,0c0,0,0,0,0,0c0,0,0,0,0,0c0,0,0,0,0,0
				c0,0,0,0,0,0c0,0,0,0,0,0c0,0,0,0,0,0c0,0,0,0,0,0c0,0,0,0,0,0c0,0,0,0,0,0c0,0,0,0,0,0c0,0,0,0,0,0c0,0,0,0,0,0c0,0,0,0,0,0
				c0,0,0,0,0,0c0,0,0,0,0,0c0,0,0,0,0,0C168.7,11.6,168.3,11.4,167.9,11.2L167.9,11.2z M156.6,6.9L156,8.8c1.9,0.6,3.7,1.3,5.6,2
				l0.7-1.9c0,0,0,0,0,0c0,0,0,0,0,0c0,0,0,0,0,0c0,0,0,0,0,0c0,0,0,0,0,0c0,0,0,0,0,0c0,0,0,0,0,0c0,0,0,0,0,0c0,0,0,0,0,0
				c0,0,0,0,0,0c0,0,0,0,0,0c0,0,0,0,0,0c0,0,0,0,0,0c0,0,0,0,0,0c0,0,0,0,0,0c0,0,0,0,0,0c0,0,0,0,0,0c0,0,0,0,0,0c0,0,0,0,0,0
				c0,0,0,0,0,0c0,0,0,0,0,0c0,0,0,0,0,0c0,0,0,0,0,0c0,0,0,0,0,0c-0.1,0-0.2-0.1-0.2-0.1c0,0,0,0,0,0c0,0,0,0,0,0c0,0,0,0,0,0
				c0,0,0,0,0,0c0,0,0,0,0,0c0,0,0,0,0,0c0,0,0,0,0,0c0,0,0,0,0,0c0,0,0,0,0,0c0,0,0,0,0,0c0,0,0,0,0,0c0,0,0,0,0,0c0,0,0,0,0,0
				c0,0,0,0,0,0c0,0,0,0,0,0c0,0,0,0,0,0c0,0,0,0,0,0c0,0,0,0,0,0c0,0,0,0,0,0c0,0,0,0,0,0c0,0,0,0,0,0c0,0,0,0,0,0c0,0,0,0,0,0
				c-0.9-0.3-1.8-0.6-2.7-1c0,0,0,0,0,0c0,0,0,0,0,0c0,0,0,0,0,0c0,0,0,0,0,0c0,0,0,0,0,0c0,0,0,0,0,0c0,0,0,0,0,0c0,0,0,0,0,0
				c0,0,0,0,0,0c0,0,0,0,0,0c0,0,0,0,0,0c0,0,0,0,0,0c0,0,0,0,0,0c0,0,0,0,0,0c0,0,0,0,0,0c0,0,0,0,0,0c0,0,0,0,0,0c0,0,0,0,0,0
				c0,0,0,0,0,0c0,0,0,0,0,0c0,0,0,0,0,0c0,0,0,0,0,0c0,0,0,0,0,0c0,0,0,0,0,0c0,0,0,0,0,0c0,0,0,0,0,0c0,0,0,0,0,0l0,0
				C157.4,7.2,157,7,156.6,6.9L156.6,6.9z M145.1,3.8l-0.4,2c1.9,0.4,3.8,0.9,5.7,1.4l0.5-1.9C149,4.7,147,4.2,145.1,3.8L145.1,3.8z
				 M133.2,1.9l-0.2,2c1.9,0.2,3.9,0.5,5.8,0.8l0.3-2c-0.4-0.1-0.7-0.1-1.1-0.2c0,0,0,0,0,0c0,0,0,0,0,0c0,0,0,0,0,0c0,0,0,0,0,0
				c0,0,0,0,0,0c0,0,0,0,0,0c0,0,0,0,0,0c0,0,0,0,0,0c0,0,0,0,0,0c0,0,0,0,0,0c0,0,0,0,0,0c0,0,0,0,0,0c0,0,0,0,0,0c0,0,0,0,0,0
				c0,0,0,0,0,0c0,0,0,0,0,0c0,0,0,0,0,0c0,0,0,0,0,0c0,0,0,0,0,0c0,0,0,0,0,0c0,0,0,0,0,0c0,0,0,0,0,0c0,0,0,0,0,0c0,0,0,0,0,0
				c0,0,0,0,0,0l0,0c0,0,0,0,0,0l0,0c0,0,0,0,0,0l0,0c0,0,0,0,0,0l0,0c0,0,0,0,0,0l0,0c0,0,0,0,0,0l0,0c0,0,0,0,0,0l0,0c0,0,0,0,0,0
				l0,0c0,0,0,0,0,0l0,0c0,0,0,0,0,0l0,0c0,0,0,0,0,0l0,0c0,0-0.1,0-0.1,0c0,0,0,0,0,0c0,0,0,0,0,0l0,0c0,0,0,0,0,0l0,0
				c0,0-0.1,0-0.1,0l0,0c-0.1,0-0.1,0-0.2,0l0,0c0,0-0.1,0-0.1,0l0,0c0,0-0.1,0-0.1,0l0,0C135.3,2.2,134.3,2,133.2,1.9L133.2,1.9z
				 M121.2,1.3l0,2c2,0,3.9,0.1,5.9,0.2l0.1-2c-0.4,0-0.8,0-1.2-0.1c0,0,0,0,0,0c0,0,0,0,0,0c0,0,0,0,0,0c0,0,0,0,0,0c0,0,0,0,0,0
				c0,0,0,0,0,0c0,0,0,0,0,0c0,0,0,0,0,0c0,0,0,0,0,0c0,0,0,0,0,0c0,0,0,0,0,0c0,0,0,0,0,0c0,0,0,0,0,0c0,0,0,0,0,0c0,0,0,0,0,0
				c0,0,0,0,0,0c0,0,0,0,0,0c0,0,0,0,0,0c0,0,0,0,0,0c0,0,0,0,0,0c0,0,0,0,0,0c0,0,0,0,0,0c0,0,0,0,0,0c0,0,0,0,0,0c0,0,0,0,0,0
				c0,0,0,0,0,0c0,0,0,0,0,0c0,0,0,0,0,0c0,0,0,0,0,0l0,0c0,0,0,0,0,0l0,0c0,0,0,0,0,0l0,0c0,0,0,0,0,0l0,0c0,0,0,0,0,0l0,0
				c0,0,0,0,0,0l0,0c0,0,0,0,0,0l0,0c0,0,0,0,0,0l0,0C123.7,1.3,122.5,1.3,121.2,1.3L121.2,1.3z"/>
		</g>
		<g>
			<path class="st1" d="M135.3,243.3c-7.2,1.8-28.8,0-28.8,0C113.7,233.4,129,237,135.3,243.3"/>
			<path class="st1" d="M116.4,237.1c3.3-0.9,9.1-0.2,12.8,1.8c3-0.9,4.9-3.5,5.3-5.7c0,0-2.2,1.3-3.8,1.3c-4,0.2-5-0.7-8-0.9
				C120.8,233.4,118.5,234.3,116.4,237.1z"/>
			<path class="st1" d="M110.8,238.9c0.5-0.4,4.1-1.7,5.1-1.7c0.3-1.1,3-3.4,3.5-3.3c-2.5-0.9-6.7,0.4-7.4,0.5
				c-0.7,0.1-5.6,0.2-6.6-1.3C105.4,236.4,109.9,238.9,110.8,238.9z"/>
			<path class="st1" d="M119.9,233.6c-0.6-0.4-4.2-0.7-5.9-0.1c-1.7,0.6-3.8,0.5-3.8,0.5s-2.5-3.2-1.7-6.3c0.9,1.3,2.5,2.7,4.2,3.2
				c1.7,0.5,4.1,0.8,4.6,1c0.4,0.2,2.8,0.7,3.5,1.4L119.9,233.6z"/>
			<path class="st1" d="M120.3,232.5c0.2,0.1,1,0.6,1.1,0.7c0.5-0.1,2.2-0.4,4.1,0.2c1.9,0.6,3.8,0.7,4.1,0.6
				c2.1-1.9,2.1-5.7,1.8-6.3c-1.4,2-3.5,3-5.5,3.5C124.5,231.4,122.4,231.7,120.3,232.5z"/>
			<path class="st1" d="M121.5,231.6c0.4-0.2,1.9-0.4,2.7-0.5c0.8-0.1,2.6-0.6,2.9-0.7c0.7-2,0.5-5-0.7-6.6
				c-0.3,1.9-2.1,3.9-2.6,4.3c0,0-2.6,2.4-3.5,2.5C120.7,230.7,121.5,231.6,121.5,231.6z"/>
			<path class="st1" d="M119.9,232.3c0.1-0.2,1-0.6,1.2-0.5c0,0-2.1-1.5-3.9-2.5s-3.6-4.2-3.8-5.4c-1.3,1.5-1.6,4.4-0.8,6.5
				c0.9,0.4,2.1,0.5,3.7,1C118,231.8,119.9,232.3,119.9,232.3z"/>
			<path class="st1" d="M119.9,230.4c0,0,2-1.1,2.1-1.3c0.3-2.1-1.1-5.2-1.4-5.8c0,1.6-0.4,5.7-1.3,6.7L119.9,230.4z"/>
			<path class="st1" d="M119.7,221c0.6,1.7,0.7,6.1-0.8,8.8c-0.7-0.4-1.4-0.9-1.4-0.9c0-0.1-0.1-0.9,0.1-1.9S119.7,221,119.7,221z"
				/>
		</g>
	</g>
	<g>
		<g>
			<polygon class="st2" points="166.5,184.6 65,184.6 65,55.7 141.1,55.7 166.5,80.8 			"/>
			<polygon class="st3" points="141.1,80.8 166.5,80.8 141.1,55.7 			"/>
			<g>
				<rect x="82.4" y="102.4" class="st4" width="67.7" height="3.8"/>
				<rect x="82.4" y="111.8" class="st4" width="67.7" height="3.8"/>
				<rect x="82.4" y="121.2" class="st4" width="67.7" height="3.8"/>
				<rect x="82.4" y="130.6" class="st4" width="67.7" height="3.8"/>
			</g>
		</g>
		<g>
			<g>
				<path class="st2" d="M177.5,103l7.5-7.7c2.9-3,8-2.7,11.3,0.6l0,0c3.4,3.3,3.7,8.3,0.8,11.3l-7.5,7.7L177.5,103z"/>
				<polygon class="st5" points="151.8,158.3 134.3,141.2 180.7,93.9 198.2,111.1 				"/>
				<polygon class="st3" points="143.1,149.8 134.3,141.2 180.7,93.9 189.4,102.5 				"/>
				<polygon class="st4" points="152,158.5 123.2,170.3 134.5,141.3 				"/>
				
					<rect x="182.4" y="93.1" transform="matrix(0.699 -0.7151 0.7151 0.699 -19.1986 165.069)" class="st4" width="8.2" height="24.5"/>
				<polygon class="st3" points="133.1,166.3 127.1,160.4 123.2,170.3 				"/>
			</g>
		</g>
	</g>
	<g>
		<g>
			<path class="st6" d="M103.3,182.1c0,8.2-10,14.9-22.3,14.9c-12.3,0-22.3-6.7-22.3-14.9c0-8.2,10-14.9,22.3-14.9
				C93.3,167.2,103.3,173.8,103.3,182.1z"/>
			<rect x="58.7" y="177.9" class="st6" width="44.6" height="4.2"/>
			<path class="st7" d="M103.3,177.9c0,8.2-10,14.9-22.3,14.9c-12.3,0-22.3-6.7-22.3-14.9c0-8.2,10-14.9,22.3-14.9
				C93.3,163,103.3,169.7,103.3,177.9z"/>
			<path class="st8" d="M81,188.9c-10,0-18.4-5-18.4-11c0-6,8.4-11,18.4-11c10,0,18.4,5,18.4,11C99.4,183.9,91,188.9,81,188.9z"/>
			<path class="st6" d="M65.5,177.9c0-5.7,7.6-10.5,17-11c-0.5,0-1,0-1.5,0c-10,0-18.4,5-18.4,11c0,6,8.4,11,18.4,11
				c0.5,0,1,0,1.5,0C73.1,188.4,65.5,183.6,65.5,177.9z"/>
			<g>
				<g>
					<path class="st8" d="M72.8,192.2c-0.3-0.1-0.5-0.1-0.7-0.2v3.2c0.2,0.1,0.5,0.1,0.7,0.2V192.2z"/>
					<path class="st8" d="M101.2,187.5c0.3-0.5,0.5-0.9,0.7-1.4v-2.3c-0.2,0.4-0.5,0.7-0.7,1.1V187.5z"/>
					<path class="st8" d="M74.5,192.6c-0.3-0.1-0.5-0.1-0.7-0.2v3.3c0.2,0.1,0.5,0.1,0.7,0.2V192.6z"/>
					<path class="st8" d="M77.9,193.1c-0.3,0-0.5,0-0.7-0.1v3.3c0.2,0,0.5,0.1,0.7,0.1V193.1z"/>
					<path class="st8" d="M76.2,192.9c-0.2,0-0.5-0.1-0.7-0.1v3.3c0.2,0,0.5,0.1,0.7,0.1V192.9z"/>
					<path class="st8" d="M69.3,191c-0.3-0.1-0.5-0.2-0.7-0.3v3.2c0.2,0.1,0.5,0.2,0.7,0.3V191z"/>
					<path class="st8" d="M71.1,191.7c-0.3-0.1-0.5-0.2-0.7-0.3v3.2c0.2,0.1,0.5,0.2,0.7,0.3V191.7z"/>
					<path class="st8" d="M97.8,191.3c0.3-0.2,0.5-0.4,0.7-0.6v-3c-0.2,0.2-0.5,0.4-0.7,0.6V191.3z"/>
					<path class="st8" d="M99.5,189.7c0.3-0.3,0.5-0.5,0.7-0.8V186c-0.2,0.3-0.5,0.5-0.7,0.7V189.7z"/>
					<path class="st8" d="M64.2,191.3v-3.1c-0.3-0.2-0.5-0.4-0.7-0.6v3C63.7,190.9,63.9,191.1,64.2,191.3z"/>
					<path class="st8" d="M67.6,190.3c-0.2-0.1-0.5-0.3-0.7-0.4v3.2c0.2,0.1,0.5,0.3,0.7,0.4V190.3z"/>
					<path class="st8" d="M65.9,189.4c-0.3-0.2-0.5-0.3-0.7-0.5v3.1c0.2,0.2,0.5,0.3,0.7,0.5V189.4z"/>
					<path class="st8" d="M81.4,196.5v-3.3c-0.1,0-0.2,0-0.4,0c-0.1,0-0.2,0-0.4,0v3.3c0.1,0,0.2,0,0.4,0
						C81.1,196.5,81.2,196.5,81.4,196.5z"/>
					<path class="st8" d="M94.3,193.5c0.3-0.1,0.5-0.3,0.7-0.4v-3.2c-0.2,0.1-0.5,0.3-0.7,0.4V193.5z"/>
					<path class="st8" d="M96.1,192.5c0.3-0.2,0.5-0.3,0.7-0.5v-3.1c-0.2,0.2-0.5,0.3-0.7,0.5V192.5z"/>
					<path class="st8" d="M92.6,194.3c0.2-0.1,0.5-0.2,0.7-0.3v-3.2c-0.2,0.1-0.5,0.2-0.7,0.3V194.3z"/>
					<path class="st8" d="M61.7,188.9c0.2,0.3,0.5,0.6,0.7,0.8v-2.9c-0.3-0.2-0.5-0.5-0.7-0.7V188.9z"/>
					<path class="st8" d="M60,186.1c0.2,0.5,0.5,0.9,0.7,1.4v-2.6c-0.3-0.3-0.5-0.7-0.7-1.1V186.1z"/>
					<path class="st8" d="M90.9,194.9c0.3-0.1,0.5-0.2,0.7-0.3v-3.2c-0.2,0.1-0.5,0.2-0.7,0.3V194.9z"/>
					<path class="st8" d="M85.8,196.1c0.2,0,0.5-0.1,0.7-0.1v-3.3c-0.2,0-0.5,0.1-0.7,0.1V196.1z"/>
					<path class="st8" d="M84,196.3c0.2,0,0.5-0.1,0.7-0.1V193c-0.2,0-0.5,0.1-0.7,0.1V196.3z"/>
					<path class="st8" d="M82.3,196.5c0.2,0,0.5,0,0.7,0v-3.3c-0.2,0-0.5,0-0.7,0V196.5z"/>
					<path class="st8" d="M89.2,195.4c0.3-0.1,0.5-0.1,0.7-0.2V192c-0.2,0.1-0.5,0.1-0.7,0.2V195.4z"/>
					<path class="st8" d="M87.5,195.8c0.3-0.1,0.5-0.1,0.7-0.2v-3.3c-0.2,0.1-0.5,0.1-0.7,0.2V195.8z"/>
					<path class="st8" d="M79.6,193.2c-0.2,0-0.5,0-0.7,0v3.3c0.2,0,0.5,0,0.7,0V193.2z"/>
				</g>
			</g>
		</g>
		<g>
			<path class="st6" d="M107.3,175.4c0,8.2-10,14.9-22.3,14.9c-12.3,0-22.3-6.7-22.3-14.9s10-14.9,22.3-14.9
				C97.3,160.5,107.3,167.2,107.3,175.4z"/>
			<rect x="62.6" y="171.2" class="st6" width="44.6" height="4.2"/>
			<path class="st7" d="M107.3,171.2c0,8.2-10,14.9-22.3,14.9c-12.3,0-22.3-6.7-22.3-14.9c0-8.2,10-14.9,22.3-14.9
				C97.3,156.3,107.3,163,107.3,171.2z"/>
			<path class="st8" d="M84.9,182.2c-10,0-18.4-5-18.4-11c0-6,8.4-11,18.4-11c10,0,18.4,5,18.4,11
				C103.4,177.2,94.9,182.2,84.9,182.2z"/>
			<path class="st6" d="M69.5,171.2c0-5.7,7.6-10.5,17-11c-0.5,0-1,0-1.5,0c-10,0-18.4,5-18.4,11c0,6,8.4,11,18.4,11
				c0.5,0,1,0,1.5,0C77.1,181.7,69.5,176.9,69.5,171.2z"/>
			<g>
				<g>
					<path class="st8" d="M76.7,185.5c-0.2-0.1-0.5-0.1-0.7-0.2v3.2c0.2,0.1,0.5,0.1,0.7,0.2V185.5z"/>
					<path class="st8" d="M105.2,180.9c0.3-0.5,0.5-0.9,0.7-1.4v-2.3c-0.2,0.4-0.5,0.7-0.7,1.1V180.9z"/>
					<path class="st8" d="M78.4,185.9c-0.3,0-0.5-0.1-0.7-0.2v3.3c0.2,0.1,0.5,0.1,0.7,0.2V185.9z"/>
					<path class="st8" d="M81.9,186.4c-0.3,0-0.5,0-0.7-0.1v3.3c0.2,0,0.5,0.1,0.7,0.1V186.4z"/>
					<path class="st8" d="M80.2,186.2c-0.3,0-0.5-0.1-0.7-0.1v3.3c0.2,0,0.5,0.1,0.7,0.1V186.2z"/>
					<path class="st8" d="M73.3,184.4c-0.2-0.1-0.5-0.2-0.7-0.3v3.2c0.2,0.1,0.5,0.2,0.7,0.3V184.4z"/>
					<path class="st8" d="M75,185c-0.3-0.1-0.5-0.2-0.7-0.3v3.2c0.2,0.1,0.5,0.2,0.7,0.3V185z"/>
					<path class="st8" d="M101.7,184.6c0.3-0.2,0.5-0.4,0.7-0.6v-3c-0.2,0.2-0.5,0.4-0.7,0.6V184.6z"/>
					<path class="st8" d="M103.5,183.1c0.3-0.3,0.5-0.6,0.7-0.8v-2.8c-0.2,0.3-0.5,0.5-0.7,0.7V183.1z"/>
					<path class="st8" d="M68.1,184.6v-3.1c-0.3-0.2-0.5-0.4-0.7-0.6v3C67.6,184.2,67.9,184.4,68.1,184.6z"/>
					<path class="st8" d="M71.6,183.6c-0.3-0.1-0.5-0.3-0.7-0.4v3.2c0.2,0.1,0.5,0.3,0.7,0.4V183.6z"/>
					<path class="st8" d="M69.9,182.7c-0.3-0.2-0.5-0.3-0.7-0.5v3.1c0.2,0.2,0.5,0.3,0.7,0.5V182.7z"/>
					<path class="st8" d="M85.3,189.8v-3.3c-0.1,0-0.2,0-0.4,0c-0.1,0-0.2,0-0.4,0v3.3c0.1,0,0.2,0,0.4,0
						C85.1,189.8,85.2,189.8,85.3,189.8z"/>
					<path class="st8" d="M98.3,186.8c0.3-0.1,0.5-0.3,0.7-0.4v-3.2c-0.2,0.1-0.5,0.3-0.7,0.4V186.8z"/>
					<path class="st8" d="M100,185.8c0.3-0.2,0.5-0.3,0.7-0.5v-3.1c-0.2,0.2-0.5,0.3-0.7,0.5V185.8z"/>
					<path class="st8" d="M96.6,187.6c0.3-0.1,0.5-0.2,0.7-0.3v-3.2c-0.2,0.1-0.5,0.2-0.7,0.3V187.6z"/>
					<path class="st8" d="M65.7,182.2c0.2,0.3,0.5,0.6,0.7,0.8v-2.9c-0.3-0.2-0.5-0.5-0.7-0.7V182.2z"/>
					<path class="st8" d="M64,179.5c0.2,0.5,0.5,0.9,0.7,1.4v-2.6c-0.3-0.3-0.5-0.7-0.7-1.1V179.5z"/>
					<path class="st8" d="M94.9,188.2c0.3-0.1,0.5-0.2,0.7-0.3v-3.2c-0.2,0.1-0.5,0.2-0.7,0.3V188.2z"/>
					<path class="st8" d="M89.7,189.5c0.2,0,0.5-0.1,0.7-0.1v-3.3c-0.2,0-0.5,0.1-0.7,0.1V189.5z"/>
					<path class="st8" d="M88,189.7c0.3,0,0.5,0,0.7-0.1v-3.3c-0.2,0-0.5,0-0.7,0.1V189.7z"/>
					<path class="st8" d="M86.3,189.8c0.2,0,0.5,0,0.7,0v-3.3c-0.2,0-0.5,0-0.7,0V189.8z"/>
					<path class="st8" d="M93.2,188.8c0.2-0.1,0.5-0.1,0.7-0.2v-3.2c-0.2,0.1-0.5,0.1-0.7,0.2V188.8z"/>
					<path class="st8" d="M91.4,189.2c0.3-0.1,0.5-0.1,0.7-0.2v-3.3c-0.2,0.1-0.5,0.1-0.7,0.2V189.2z"/>
					<path class="st8" d="M83.6,186.5c-0.2,0-0.5,0-0.7,0v3.3c0.2,0,0.5,0,0.7,0V186.5z"/>
				</g>
			</g>
		</g>
		<g>
			<path class="st6" d="M99.3,168.7c0,8.2-10,14.9-22.3,14.9c-12.3,0-22.3-6.7-22.3-14.9c0-8.2,10-14.9,22.3-14.9
				C89.4,153.8,99.3,160.5,99.3,168.7z"/>
			<rect x="54.7" y="164.6" class="st6" width="44.6" height="4.2"/>
			<path class="st7" d="M99.3,164.6c0,8.2-10,14.9-22.3,14.9c-12.3,0-22.3-6.7-22.3-14.9c0-8.2,10-14.9,22.3-14.9
				C89.4,149.7,99.3,156.3,99.3,164.6z"/>
			<path class="st8" d="M77,175.6c-10,0-18.4-5-18.4-11c0-6,8.5-11,18.4-11s18.4,5,18.4,11C95.5,170.5,87,175.6,77,175.6z"/>
			<path class="st6" d="M61.6,164.6c0-5.7,7.6-10.5,17-11c-0.5,0-1,0-1.5,0c-10,0-18.4,5-18.4,11c0,6,8.5,11,18.4,11
				c0.5,0,1,0,1.5,0C69.2,175.1,61.6,170.2,61.6,164.6z"/>
			<g>
				<g>
					<path class="st8" d="M68.8,178.8c-0.3-0.1-0.5-0.1-0.7-0.2v3.2c0.2,0.1,0.5,0.1,0.7,0.2V178.8z"/>
					<path class="st8" d="M97.3,174.2c0.3-0.5,0.5-0.9,0.7-1.4v-2.3c-0.2,0.4-0.5,0.7-0.7,1.1V174.2z"/>
					<path class="st8" d="M70.5,179.2c-0.2-0.1-0.5-0.1-0.7-0.2v3.3c0.2,0.1,0.5,0.1,0.7,0.2V179.2z"/>
					<path class="st8" d="M74,179.7c-0.2,0-0.5,0-0.7-0.1v3.3c0.2,0,0.5,0.1,0.7,0.1V179.7z"/>
					<path class="st8" d="M72.3,179.5c-0.2,0-0.5-0.1-0.7-0.1v3.3c0.2,0,0.5,0.1,0.7,0.1V179.5z"/>
					<path class="st8" d="M65.4,177.7c-0.3-0.1-0.5-0.2-0.7-0.3v3.2c0.2,0.1,0.5,0.2,0.7,0.3V177.7z"/>
					<path class="st8" d="M67.1,178.3c-0.2-0.1-0.5-0.2-0.7-0.3v3.2c0.2,0.1,0.5,0.2,0.7,0.3V178.3z"/>
					<path class="st8" d="M93.8,177.9c0.3-0.2,0.5-0.4,0.7-0.6v-3c-0.2,0.2-0.5,0.4-0.7,0.6V177.9z"/>
					<path class="st8" d="M95.5,176.4c0.3-0.3,0.5-0.6,0.7-0.8v-2.8c-0.2,0.3-0.5,0.5-0.7,0.7V176.4z"/>
					<path class="st8" d="M60.2,177.9v-3.1c-0.3-0.2-0.5-0.4-0.7-0.6v3C59.7,177.5,60,177.7,60.2,177.9z"/>
					<path class="st8" d="M63.7,176.9c-0.3-0.1-0.5-0.3-0.7-0.4v3.2c0.2,0.1,0.5,0.3,0.7,0.4V176.9z"/>
					<path class="st8" d="M62,176c-0.3-0.2-0.5-0.3-0.7-0.5v3.1c0.2,0.2,0.5,0.3,0.7,0.5V176z"/>
					<path class="st8" d="M77.4,183.1v-3.3c-0.1,0-0.2,0-0.4,0c-0.1,0-0.2,0-0.4,0v3.3c0.1,0,0.2,0,0.4,0
						C77.2,183.1,77.3,183.1,77.4,183.1z"/>
					<path class="st8" d="M90.4,180.1c0.3-0.1,0.5-0.3,0.7-0.4v-3.2c-0.2,0.1-0.5,0.3-0.7,0.4V180.1z"/>
					<path class="st8" d="M92.1,179.2c0.3-0.2,0.5-0.3,0.7-0.5v-3.1c-0.2,0.2-0.5,0.3-0.7,0.5V179.2z"/>
					<path class="st8" d="M88.7,180.9c0.2-0.1,0.5-0.2,0.7-0.3v-3.2c-0.2,0.1-0.5,0.2-0.7,0.3V180.9z"/>
					<path class="st8" d="M57.8,175.6c0.2,0.3,0.5,0.6,0.7,0.8v-2.9c-0.3-0.2-0.5-0.5-0.7-0.7V175.6z"/>
					<path class="st8" d="M56.1,172.8c0.2,0.5,0.5,0.9,0.7,1.4v-2.6c-0.3-0.3-0.5-0.7-0.7-1.1V172.8z"/>
					<path class="st8" d="M87,181.6c0.3-0.1,0.5-0.2,0.7-0.3v-3.2c-0.2,0.1-0.5,0.2-0.7,0.3V181.6z"/>
					<path class="st8" d="M81.8,182.8c0.3,0,0.5-0.1,0.7-0.1v-3.3c-0.2,0-0.5,0.1-0.7,0.1V182.8z"/>
					<path class="st8" d="M80.1,183c0.2,0,0.5,0,0.7-0.1v-3.3c-0.2,0-0.5,0.1-0.7,0.1V183z"/>
					<path class="st8" d="M78.4,183.1c0.3,0,0.5,0,0.7,0v-3.3c-0.2,0-0.5,0-0.7,0V183.1z"/>
					<path class="st8" d="M85.2,182.1c0.3-0.1,0.5-0.1,0.7-0.2v-3.2c-0.2,0.1-0.5,0.1-0.7,0.2V182.1z"/>
					<path class="st8" d="M83.5,182.5c0.3-0.1,0.5-0.1,0.7-0.2v-3.3c-0.2,0.1-0.5,0.1-0.7,0.2V182.5z"/>
					<path class="st8" d="M75.7,179.8c-0.2,0-0.5,0-0.7,0v3.3c0.2,0,0.5,0,0.7,0V179.8z"/>
				</g>
			</g>
		</g>
		<g>
			<path class="st6" d="M101.7,162c0,8.2-10,14.9-22.3,14.9c-12.3,0-22.3-6.7-22.3-14.9c0-8.2,10-14.9,22.3-14.9
				C91.7,147.2,101.7,153.8,101.7,162z"/>
			<rect x="57.1" y="157.9" class="st6" width="44.6" height="4.2"/>
			<path class="st7" d="M101.7,157.9c0,8.2-10,14.9-22.3,14.9c-12.3,0-22.3-6.7-22.3-14.9c0-8.2,10-14.9,22.3-14.9
				C91.7,143,101.7,149.7,101.7,157.9z"/>
			<path class="st8" d="M79.4,168.9c-10,0-18.4-5-18.4-11c0-6,8.4-11,18.4-11c10,0,18.4,5,18.4,11C97.8,163.8,89.4,168.9,79.4,168.9
				z"/>
			<path class="st6" d="M63.9,157.9c0-5.7,7.6-10.5,17-11c-0.5,0-1,0-1.5,0c-10,0-18.4,5-18.4,11c0,6,8.4,11,18.4,11
				c0.5,0,1,0,1.5,0C71.6,168.4,63.9,163.6,63.9,157.9z"/>
			<g>
				<g>
					<path class="st8" d="M71.2,172.2c-0.3-0.1-0.5-0.1-0.7-0.2v3.2c0.2,0.1,0.5,0.1,0.7,0.2V172.2z"/>
					<path class="st8" d="M99.6,167.5c0.3-0.5,0.5-0.9,0.7-1.4v-2.3c-0.2,0.4-0.5,0.7-0.7,1.1V167.5z"/>
					<path class="st8" d="M72.9,172.6c-0.3,0-0.5-0.1-0.7-0.2v3.3c0.2,0.1,0.5,0.1,0.7,0.2V172.6z"/>
					<path class="st8" d="M76.3,173.1c-0.2,0-0.5,0-0.7-0.1v3.3c0.2,0,0.5,0.1,0.7,0.1V173.1z"/>
					<path class="st8" d="M74.6,172.9c-0.2,0-0.5-0.1-0.7-0.1v3.3c0.2,0,0.5,0.1,0.7,0.1V172.9z"/>
					<path class="st8" d="M67.8,171c-0.3-0.1-0.5-0.2-0.7-0.3v3.2c0.2,0.1,0.5,0.2,0.7,0.3V171z"/>
					<path class="st8" d="M69.5,171.7c-0.3-0.1-0.5-0.2-0.7-0.3v3.2c0.2,0.1,0.5,0.2,0.7,0.3V171.7z"/>
					<path class="st8" d="M96.2,171.3c0.3-0.2,0.5-0.4,0.7-0.6v-3c-0.2,0.2-0.5,0.4-0.7,0.6V171.3z"/>
					<path class="st8" d="M97.9,169.7c0.3-0.3,0.5-0.5,0.7-0.8V166c-0.2,0.3-0.5,0.5-0.7,0.7V169.7z"/>
					<path class="st8" d="M62.6,171.3v-3.1c-0.3-0.2-0.5-0.4-0.7-0.6v3C62.1,170.9,62.4,171.1,62.6,171.3z"/>
					<path class="st8" d="M66,170.3c-0.3-0.1-0.5-0.3-0.7-0.4v3.2c0.2,0.1,0.5,0.3,0.7,0.4V170.3z"/>
					<path class="st8" d="M64.3,169.3c-0.3-0.2-0.5-0.3-0.7-0.5v3.1c0.2,0.2,0.5,0.3,0.7,0.5V169.3z"/>
					<path class="st8" d="M79.8,176.5v-3.3c-0.1,0-0.2,0-0.4,0c-0.1,0-0.2,0-0.4,0v3.3c0.1,0,0.2,0,0.4,0
						C79.5,176.5,79.7,176.5,79.8,176.5z"/>
					<path class="st8" d="M92.8,173.5c0.3-0.1,0.5-0.3,0.7-0.4v-3.2c-0.2,0.1-0.5,0.3-0.7,0.4V173.5z"/>
					<path class="st8" d="M94.5,172.5c0.3-0.2,0.5-0.3,0.7-0.5v-3.1c-0.2,0.2-0.5,0.3-0.7,0.5V172.5z"/>
					<path class="st8" d="M91,174.3c0.2-0.1,0.5-0.2,0.7-0.3v-3.2c-0.2,0.1-0.5,0.2-0.7,0.3V174.3z"/>
					<path class="st8" d="M60.1,168.9c0.2,0.3,0.5,0.6,0.7,0.8v-2.9c-0.3-0.2-0.5-0.5-0.7-0.7V168.9z"/>
					<path class="st8" d="M58.4,166.1c0.2,0.5,0.5,0.9,0.7,1.4v-2.6c-0.3-0.3-0.5-0.7-0.7-1.1V166.1z"/>
					<path class="st8" d="M89.3,174.9c0.2-0.1,0.5-0.2,0.7-0.3v-3.2c-0.2,0.1-0.5,0.2-0.7,0.3V174.9z"/>
					<path class="st8" d="M84.2,176.1c0.2,0,0.5-0.1,0.7-0.1v-3.3c-0.2,0-0.5,0.1-0.7,0.1V176.1z"/>
					<path class="st8" d="M82.5,176.3c0.3,0,0.5-0.1,0.7-0.1V173c-0.2,0-0.5,0.1-0.7,0.1V176.3z"/>
					<path class="st8" d="M80.7,176.4c0.3,0,0.5,0,0.7,0v-3.3c-0.2,0-0.5,0-0.7,0V176.4z"/>
					<path class="st8" d="M87.6,175.4c0.2-0.1,0.5-0.1,0.7-0.2V172c-0.2,0.1-0.5,0.1-0.7,0.2V175.4z"/>
					<path class="st8" d="M85.9,175.8c0.3,0,0.5-0.1,0.7-0.2v-3.3c-0.2,0.1-0.5,0.1-0.7,0.2V175.8z"/>
					<path class="st8" d="M78.1,173.2c-0.2,0-0.5,0-0.7,0v3.3c0.2,0,0.5,0,0.7,0V173.2z"/>
				</g>
			</g>
		</g>
		<g>
			<path class="st6" d="M105.7,155.4c0,8.2-10,14.9-22.3,14.9c-12.3,0-22.3-6.7-22.3-14.9c0-8.2,10-14.9,22.3-14.9
				C95.7,140.5,105.7,147.2,105.7,155.4z"/>
			<rect x="61" y="151.2" class="st6" width="44.6" height="4.2"/>
			<path class="st7" d="M105.7,151.2c0,8.2-10,14.9-22.3,14.9c-12.3,0-22.3-6.7-22.3-14.9c0-8.2,10-14.9,22.3-14.9
				C95.7,136.3,105.7,143,105.7,151.2z"/>
			<path class="st8" d="M83.4,162.2c-10,0-18.4-5-18.4-11c0-6,8.4-11,18.4-11c10,0,18.4,5,18.4,11
				C101.8,157.2,93.4,162.2,83.4,162.2z"/>
			<path class="st6" d="M67.9,151.2c0-5.7,7.6-10.5,17-11c-0.5,0-1,0-1.5,0c-10,0-18.4,5-18.4,11c0,6,8.4,11,18.4,11
				c0.5,0,1,0,1.5,0C75.5,161.7,67.9,156.9,67.9,151.2z"/>
			<g>
				<g>
					<path class="st8" d="M75.1,165.5c-0.2-0.1-0.5-0.1-0.7-0.2v3.2c0.2,0.1,0.5,0.1,0.7,0.2V165.5z"/>
					<path class="st8" d="M103.6,160.9c0.3-0.5,0.5-0.9,0.7-1.4v-2.3c-0.2,0.4-0.5,0.7-0.7,1.1V160.9z"/>
					<path class="st8" d="M76.9,165.9c-0.3,0-0.5-0.1-0.7-0.2v3.3c0.2,0.1,0.5,0.1,0.7,0.2V165.9z"/>
					<path class="st8" d="M80.3,166.4c-0.3,0-0.5,0-0.7-0.1v3.3c0.2,0,0.5,0.1,0.7,0.1V166.4z"/>
					<path class="st8" d="M78.6,166.2c-0.2,0-0.5-0.1-0.7-0.1v3.3c0.2,0,0.5,0.1,0.7,0.1V166.2z"/>
					<path class="st8" d="M71.7,164.4c-0.3-0.1-0.5-0.2-0.7-0.3v3.2c0.2,0.1,0.5,0.2,0.7,0.3V164.4z"/>
					<path class="st8" d="M73.4,165c-0.3-0.1-0.5-0.2-0.7-0.3v3.2c0.2,0.1,0.5,0.2,0.7,0.3V165z"/>
					<path class="st8" d="M100.2,164.6c0.3-0.2,0.5-0.4,0.7-0.6v-3c-0.2,0.2-0.5,0.4-0.7,0.6V164.6z"/>
					<path class="st8" d="M101.9,163c0.3-0.3,0.5-0.5,0.7-0.8v-2.8c-0.2,0.3-0.5,0.5-0.7,0.7V163z"/>
					<path class="st8" d="M66.6,164.6v-3.1c-0.3-0.2-0.5-0.4-0.7-0.6v3C66.1,164.2,66.3,164.4,66.6,164.6z"/>
					<path class="st8" d="M70,163.6c-0.3-0.1-0.5-0.3-0.7-0.4v3.2c0.2,0.1,0.5,0.3,0.7,0.4V163.6z"/>
					<path class="st8" d="M68.3,162.7c-0.3-0.2-0.5-0.3-0.7-0.5v3.1c0.2,0.2,0.5,0.3,0.7,0.5V162.7z"/>
					<path class="st8" d="M83.7,169.8v-3.3c-0.1,0-0.2,0-0.4,0c-0.1,0-0.2,0-0.4,0v3.3c0.1,0,0.2,0,0.4,0
						C83.5,169.8,83.6,169.8,83.7,169.8z"/>
					<path class="st8" d="M96.7,166.8c0.3-0.1,0.5-0.3,0.7-0.4v-3.2c-0.2,0.1-0.5,0.3-0.7,0.4V166.8z"/>
					<path class="st8" d="M98.4,165.8c0.3-0.2,0.5-0.3,0.7-0.5v-3.1c-0.2,0.2-0.5,0.3-0.7,0.5V165.8z"/>
					<path class="st8" d="M95,167.6c0.2-0.1,0.5-0.2,0.7-0.3v-3.2c-0.2,0.1-0.5,0.2-0.7,0.3V167.6z"/>
					<path class="st8" d="M64.1,162.2c0.2,0.3,0.5,0.6,0.7,0.8v-2.9c-0.3-0.2-0.5-0.5-0.7-0.7V162.2z"/>
					<path class="st8" d="M62.4,159.5c0.2,0.5,0.5,0.9,0.7,1.4v-2.6c-0.3-0.3-0.5-0.7-0.7-1.1V159.5z"/>
					<path class="st8" d="M93.3,168.2c0.3-0.1,0.5-0.2,0.7-0.3v-3.2c-0.2,0.1-0.5,0.2-0.7,0.3V168.2z"/>
					<path class="st8" d="M88.1,169.5c0.2,0,0.5-0.1,0.7-0.1v-3.3c-0.2,0-0.5,0.1-0.7,0.1V169.5z"/>
					<path class="st8" d="M86.4,169.7c0.3,0,0.5,0,0.7-0.1v-3.3c-0.2,0-0.5,0.1-0.7,0.1V169.7z"/>
					<path class="st8" d="M84.7,169.8c0.2,0,0.5,0,0.7,0v-3.3c-0.2,0-0.5,0-0.7,0V169.8z"/>
					<path class="st8" d="M91.6,168.8c0.2-0.1,0.5-0.1,0.7-0.2v-3.2c-0.2,0.1-0.5,0.1-0.7,0.2V168.8z"/>
					<path class="st8" d="M89.9,169.2c0.3-0.1,0.5-0.1,0.7-0.2v-3.3c-0.2,0.1-0.5,0.1-0.7,0.2V169.2z"/>
					<path class="st8" d="M82,166.5c-0.3,0-0.5,0-0.7,0v3.3c0.2,0,0.5,0,0.7,0V166.5z"/>
				</g>
			</g>
		</g>
		<g>
			<path class="st6" d="M100.1,148.7c0,8.2-10,14.9-22.3,14.9c-12.3,0-22.3-6.7-22.3-14.9c0-8.2,10-14.9,22.3-14.9
				C90.1,133.8,100.1,140.5,100.1,148.7z"/>
			<rect x="55.5" y="144.5" class="st6" width="44.6" height="4.2"/>
			<path class="st7" d="M100.1,144.5c0,8.2-10,14.9-22.3,14.9c-12.3,0-22.3-6.7-22.3-14.9c0-8.2,10-14.9,22.3-14.9
				C90.1,129.7,100.1,136.3,100.1,144.5z"/>
			<path class="st8" d="M77.8,155.6c-10,0-18.4-5-18.4-11c0-6,8.4-11,18.4-11s18.4,5,18.4,11C96.3,150.5,87.8,155.6,77.8,155.6z"/>
			<path class="st6" d="M62.3,144.5c0-5.7,7.6-10.5,17-11c-0.5,0-1,0-1.5,0c-10,0-18.4,5-18.4,11c0,6,8.4,11,18.4,11
				c0.5,0,1,0,1.5,0C70,155,62.3,150.2,62.3,144.5z"/>
			<g>
				<g>
					<path class="st8" d="M69.6,158.8c-0.2-0.1-0.5-0.1-0.7-0.2v3.2c0.2,0.1,0.5,0.1,0.7,0.2V158.8z"/>
					<path class="st8" d="M98,154.2c0.3-0.5,0.5-0.9,0.7-1.4v-2.3c-0.2,0.4-0.5,0.7-0.7,1.1V154.2z"/>
					<path class="st8" d="M71.3,159.2c-0.3-0.1-0.5-0.1-0.7-0.2v3.3c0.2,0.1,0.5,0.1,0.7,0.2V159.2z"/>
					<path class="st8" d="M74.8,159.7c-0.2,0-0.5,0-0.7-0.1v3.3c0.2,0,0.5,0.1,0.7,0.1V159.7z"/>
					<path class="st8" d="M73,159.5c-0.2,0-0.5-0.1-0.7-0.1v3.3c0.2,0,0.5,0.1,0.7,0.1V159.5z"/>
					<path class="st8" d="M66.2,157.7c-0.3-0.1-0.5-0.2-0.7-0.3v3.2c0.2,0.1,0.5,0.2,0.7,0.3V157.7z"/>
					<path class="st8" d="M67.9,158.3c-0.3-0.1-0.5-0.2-0.7-0.3v3.2c0.2,0.1,0.5,0.2,0.7,0.3V158.3z"/>
					<path class="st8" d="M94.6,157.9c0.3-0.2,0.5-0.4,0.7-0.6v-3c-0.2,0.2-0.5,0.4-0.7,0.6V157.9z"/>
					<path class="st8" d="M96.3,156.4c0.3-0.3,0.5-0.5,0.7-0.8v-2.8c-0.2,0.3-0.5,0.5-0.7,0.7V156.4z"/>
					<path class="st8" d="M61,157.9v-3.1c-0.3-0.2-0.5-0.4-0.7-0.6v3C60.5,157.5,60.8,157.7,61,157.9z"/>
					<path class="st8" d="M64.5,156.9c-0.3-0.1-0.5-0.2-0.7-0.4v3.2c0.2,0.1,0.5,0.3,0.7,0.4V156.9z"/>
					<path class="st8" d="M62.7,156c-0.3-0.2-0.5-0.3-0.7-0.5v3.1c0.2,0.2,0.5,0.3,0.7,0.5V156z"/>
					<path class="st8" d="M78.2,163.1v-3.3c-0.1,0-0.2,0-0.4,0c-0.1,0-0.2,0-0.4,0v3.3c0.1,0,0.2,0,0.4,0
						C77.9,163.1,78.1,163.1,78.2,163.1z"/>
					<path class="st8" d="M91.2,160.1c0.3-0.1,0.5-0.3,0.7-0.4v-3.2c-0.2,0.1-0.5,0.3-0.7,0.4V160.1z"/>
					<path class="st8" d="M92.9,159.1c0.3-0.2,0.5-0.3,0.7-0.5v-3.1c-0.2,0.2-0.5,0.3-0.7,0.5V159.1z"/>
					<path class="st8" d="M89.5,160.9c0.3-0.1,0.5-0.2,0.7-0.3v-3.2c-0.2,0.1-0.5,0.2-0.7,0.3V160.9z"/>
					<path class="st8" d="M58.6,155.5c0.2,0.3,0.5,0.6,0.7,0.8v-2.9c-0.3-0.2-0.5-0.5-0.7-0.7V155.5z"/>
					<path class="st8" d="M56.9,152.8c0.2,0.5,0.5,0.9,0.7,1.4v-2.6c-0.3-0.3-0.5-0.7-0.7-1.1V152.8z"/>
					<path class="st8" d="M87.7,161.6c0.2-0.1,0.5-0.2,0.7-0.3v-3.2c-0.2,0.1-0.5,0.2-0.7,0.3V161.6z"/>
					<path class="st8" d="M82.6,162.8c0.3,0,0.5-0.1,0.7-0.1v-3.3c-0.2,0-0.5,0.1-0.7,0.1V162.8z"/>
					<path class="st8" d="M80.9,163c0.2,0,0.5-0.1,0.7-0.1v-3.3c-0.2,0-0.5,0.1-0.7,0.1V163z"/>
					<path class="st8" d="M79.2,163.1c0.3,0,0.5,0,0.7,0v-3.3c-0.2,0-0.5,0-0.7,0V163.1z"/>
					<path class="st8" d="M86,162.1c0.2-0.1,0.5-0.1,0.7-0.2v-3.2c-0.2,0.1-0.5,0.1-0.7,0.2V162.1z"/>
					<path class="st8" d="M84.3,162.5c0.3-0.1,0.5-0.1,0.7-0.2v-3.3c-0.2,0.1-0.5,0.1-0.7,0.2V162.5z"/>
					<path class="st8" d="M76.5,159.8c-0.2,0-0.5,0-0.7,0v3.3c0.2,0,0.5,0,0.7,0V159.8z"/>
				</g>
			</g>
		</g>
		<g>
			<path class="st6" d="M105.7,142c0,8.2-10,14.9-22.3,14.9C71,156.9,61,150.3,61,142c0-8.2,10-14.9,22.3-14.9
				C95.7,127.2,105.7,133.8,105.7,142z"/>
			<rect x="61" y="137.9" class="st6" width="44.6" height="4.2"/>
			<path class="st7" d="M105.7,137.9c0,8.2-10,14.9-22.3,14.9c-12.3,0-22.3-6.7-22.3-14.9c0-8.2,10-14.9,22.3-14.9
				C95.7,123,105.7,129.7,105.7,137.9z"/>
			<path class="st8" d="M83.4,148.9c-10,0-18.4-5-18.4-11c0-6,8.4-11,18.4-11c10,0,18.4,5,18.4,11
				C101.8,143.8,93.4,148.9,83.4,148.9z"/>
			<path class="st6" d="M67.9,137.9c0-5.7,7.6-10.5,17-11c-0.5,0-1,0-1.5,0c-10,0-18.4,5-18.4,11c0,6,8.4,11,18.4,11
				c0.5,0,1,0,1.5,0C75.5,148.4,67.9,143.5,67.9,137.9z"/>
			<g>
				<g>
					<path class="st8" d="M75.1,152.2c-0.2-0.1-0.5-0.1-0.7-0.2v3.2c0.2,0.1,0.5,0.1,0.7,0.2V152.2z"/>
					<path class="st8" d="M103.6,147.5c0.3-0.5,0.5-0.9,0.7-1.4v-2.3c-0.2,0.4-0.5,0.7-0.7,1.1V147.5z"/>
					<path class="st8" d="M76.9,152.6c-0.3,0-0.5-0.1-0.7-0.2v3.3c0.2,0.1,0.5,0.1,0.7,0.2V152.6z"/>
					<path class="st8" d="M80.3,153.1c-0.3,0-0.5,0-0.7-0.1v3.3c0.2,0,0.5,0.1,0.7,0.1V153.1z"/>
					<path class="st8" d="M78.6,152.9c-0.2,0-0.5-0.1-0.7-0.1v3.3c0.2,0,0.5,0.1,0.7,0.1V152.9z"/>
					<path class="st8" d="M71.7,151c-0.3-0.1-0.5-0.2-0.7-0.3v3.2c0.2,0.1,0.5,0.2,0.7,0.3V151z"/>
					<path class="st8" d="M73.4,151.7c-0.3-0.1-0.5-0.2-0.7-0.3v3.2c0.2,0.1,0.5,0.2,0.7,0.3V151.7z"/>
					<path class="st8" d="M100.2,151.3c0.3-0.2,0.5-0.4,0.7-0.6v-3c-0.2,0.2-0.5,0.4-0.7,0.6V151.3z"/>
					<path class="st8" d="M101.9,149.7c0.3-0.3,0.5-0.6,0.7-0.8V146c-0.2,0.3-0.5,0.5-0.7,0.7V149.7z"/>
					<path class="st8" d="M66.6,151.3v-3.1c-0.3-0.2-0.5-0.4-0.7-0.6v3C66.1,150.9,66.3,151.1,66.6,151.3z"/>
					<path class="st8" d="M70,150.3c-0.3-0.1-0.5-0.3-0.7-0.4v3.2c0.2,0.1,0.5,0.3,0.7,0.4V150.3z"/>
					<path class="st8" d="M68.3,149.3c-0.3-0.2-0.5-0.3-0.7-0.5v3.1c0.2,0.2,0.5,0.3,0.7,0.5V149.3z"/>
					<path class="st8" d="M83.7,156.5v-3.3c-0.1,0-0.2,0-0.4,0c-0.1,0-0.2,0-0.4,0v3.3c0.1,0,0.2,0,0.4,0
						C83.5,156.5,83.6,156.5,83.7,156.5z"/>
					<path class="st8" d="M96.7,153.5c0.3-0.1,0.5-0.3,0.7-0.4v-3.2c-0.2,0.1-0.5,0.3-0.7,0.4V153.5z"/>
					<path class="st8" d="M98.4,152.5c0.3-0.2,0.5-0.3,0.7-0.5v-3.1c-0.2,0.2-0.5,0.3-0.7,0.5V152.5z"/>
					<path class="st8" d="M95,154.2c0.2-0.1,0.5-0.2,0.7-0.3v-3.2c-0.2,0.1-0.5,0.2-0.7,0.3V154.2z"/>
					<path class="st8" d="M64.1,148.9c0.2,0.3,0.5,0.6,0.7,0.8v-2.9c-0.3-0.2-0.5-0.5-0.7-0.7V148.9z"/>
					<path class="st8" d="M62.4,146.1c0.2,0.5,0.5,0.9,0.7,1.4v-2.6c-0.3-0.3-0.5-0.7-0.7-1.1V146.1z"/>
					<path class="st8" d="M93.3,154.9c0.3-0.1,0.5-0.2,0.7-0.3v-3.2c-0.2,0.1-0.5,0.2-0.7,0.3V154.9z"/>
					<path class="st8" d="M88.1,156.1c0.2,0,0.5-0.1,0.7-0.1v-3.3c-0.2,0-0.5,0.1-0.7,0.1V156.1z"/>
					<path class="st8" d="M86.4,156.3c0.3,0,0.5,0,0.7-0.1V153c-0.2,0-0.5,0-0.7,0.1V156.3z"/>
					<path class="st8" d="M84.7,156.4c0.2,0,0.5,0,0.7,0v-3.3c-0.2,0-0.5,0-0.7,0V156.4z"/>
					<path class="st8" d="M91.6,155.4c0.2-0.1,0.5-0.1,0.7-0.2V152c-0.2,0.1-0.5,0.1-0.7,0.2V155.4z"/>
					<path class="st8" d="M89.9,155.8c0.3-0.1,0.5-0.1,0.7-0.2v-3.3c-0.2,0.1-0.5,0.1-0.7,0.2V155.8z"/>
					<path class="st8" d="M82,153.2c-0.3,0-0.5,0-0.7,0v3.3c0.2,0,0.5,0,0.7,0V153.2z"/>
				</g>
			</g>
		</g>
	</g>
</g>
</svg>
